<svg
        id="svg"
        version="1.1"
        xmlns="http://www.w3.org/2000/svg" xmlns:xlink="http://www.w3.org/1999/xlink"
        width="400" height="400" viewBox="0, 0, 400,400">
    <g id="svgg">
        <path id="ath0" d="M154.377 82.267 C 152.760 82.946,151.600 84.255,151.600 85.400 C 151.600 85.950,151.438 86.400,151.239 86.400 C 151.041 86.400,150.757 87.525,150.608 88.900 C 150.255 92.152,149.669 94.400,149.175 94.400 C 148.958 94.400,148.609 94.850,148.400 95.400 C 148.191 95.950,147.758 96.400,147.438 96.400 C 147.119 96.400,146.589 96.669,146.260 96.997 C 145.408 97.849,141.430 98.800,138.716 98.800 C 137.442 98.800,136.400 98.971,136.400 99.180 C 136.400 99.389,135.365 99.614,134.100 99.680 C 131.874 99.796,131.796 99.838,131.664 100.999 C 131.589 101.658,131.319 102.326,131.064 102.484 C 130.453 102.862,130.469 114.346,131.081 114.733 C 131.314 114.880,131.636 116.497,131.796 118.327 C 132.058 121.310,132.184 121.690,133.020 122.007 C 133.532 122.202,134.149 122.730,134.390 123.181 C 134.631 123.631,135.066 124.000,135.358 124.000 C 135.732 124.000,136.023 125.196,136.351 128.081 C 136.606 130.326,136.962 132.261,137.143 132.381 C 137.323 132.501,137.803 133.725,138.211 135.100 C 138.618 136.475,139.083 137.600,139.244 137.600 C 139.405 137.600,139.659 138.158,139.809 138.839 C 140.075 140.050,143.240 140.344,144.000 139.228 C 144.793 138.063,150.120 138.000,248.612 138.000 L 348.291 138.000 349.345 139.055 L 350.400 140.109 350.404 150.755 C 350.410 164.403,350.392 164.290,352.650 164.628 C 353.612 164.773,354.400 165.029,354.400 165.199 C 354.400 165.368,354.823 165.588,355.339 165.686 L 356.279 165.866 356.502 147.479 C 356.641 136.118,356.876 128.999,357.119 128.846 C 357.336 128.711,357.600 127.070,357.708 125.200 C 357.999 120.113,358.931 112.800,359.287 112.800 C 359.459 112.800,359.601 110.415,359.603 107.500 C 359.605 104.585,359.882 100.040,360.218 97.400 C 361.326 88.701,359.937 82.053,357.000 81.994 C 340.687 81.667,155.209 81.917,154.377 82.267 M356.736 85.483 C 356.811 86.096,357.023 86.690,357.207 86.804 C 358.289 87.473,358.201 96.981,357.106 97.658 C 356.812
         97.840,356.588 100.014,356.475 103.770 C 356.313 109.140,356.240 109.600,355.550 109.600 C 355.137 109.600,354.800 109.423,354.800 109.208 C 354.800
          108.992,354.354 108.703,353.809 108.567 C 353.006 108.365,352.693 107.871,352.156 105.959 C 351.792 104.662,351.360 103.600,351.195 103.600 C
           351.030 103.600,350.691 102.790,350.442 101.800 L 349.988 100.000 252.823 100.000 C 167.410 100.000,155.585 99.928,155.063 99.406 C 154.442
           98.784,153.600 95.511,153.600 93.715 C 153.600 92.018,154.927 85.600,155.278 85.600 C 155.455 85.600,155.600 85.285,155.600 84.900 C 155.600
            84.235,160.620 84.204,256.100 84.284 L 356.600 84.368 356.736 85.483 M155.933 153.189 C 155.756 156.908,155.994 162.000,156.345 162.000 C 157.005
            162.000,159.631 159.671,161.100 157.783 C 162.543 155.928,162.288 154.649,160.019 152.381 C 157.024 149.386,156.105 149.568,155.933 153.189 M171.862
             170.300 C 171.720 172.445,171.603 175.400,171.602 176.867 C 171.601 178.568,171.428 179.591,171.125 179.692 C 170.819 179.794,170.962 180.162,171.525
              180.725 C 172.413 181.613,174.800 181.959,174.800 181.200 C 174.800 180.980,175.585 180.800,176.544 180.800 C 180.462 180.800,181.889
              180.399,181.689 179.354 C 181.589 178.829,181.362 178.400,181.184 178.400 C 181.007 178.400,180.648 177.751,180.386 176.958 C 180.125
               176.166,179.481 175.143,178.955 174.686 C 178.430 174.230,178.000 173.627,178.000 173.348 C 178.000 173.068,177.766 172.696,177.480
               172.520 C 177.194 172.344,176.724 171.390,176.436 170.400 C 175.888 168.516,173.958 166.400,172.788 166.400 C 172.228 166.400,172.079
                167.028,171.862 170.300 " stroke="none" fill="#9fd8ef" fill-rule="evenodd"></path>
        <path id="path2" d="M152.000 77.144 C 152.000 77.333,151.015 77.590,149.812 77.714 C 146.404 78.066,144.949 78.746,144.124 80.372 C 143.726 81.157,143.242 81.915,143.048 82.056 C 142.855 82.196,142.558 84.479,142.389 87.128 C 142.066 92.187,141.913 92.800,140.976 92.800 C 140.659 92.800,140.400 92.980,140.400 93.200 C 140.400 93.431,139.133 93.600,137.400 93.600 C 135.667 93.600,134.400 93.431,134.400 93.200 C 134.400 92.980,133.770 92.800,133.000 92.800 C 132.230 92.800,131.600 92.980,131.600 93.200 C 131.600 93.420,131.082 93.600,130.449 93.600 C 127.747 93.600,125.600 95.379,125.600 97.619 C 125.600 98.048,125.420 98.400,125.200 98.400 C 124.619 98.400,124.658 115.486,125.240 115.680 C 125.615 115.805,126.276 133.991,126.380 147.071 C 126.391 148.474,126.616 149.772,126.900 150.071 C 127.175 150.362,127.655 151.095,127.968 151.700 C 128.280 152.305,128.685 152.800,128.868 152.800 C 129.050 152.800,129.541 153.141,129.957 153.557 C 130.583 154.183,131.593 154.365,135.757 154.605 C 138.531 154.765,140.800 155.035,140.800 155.204 C 140.800 155.373,141.406 155.625,142.146 155.763 L 143.492 156.016 144.211 160.208 C 144.606 162.514,145.085 164.400,145.275 164.400 C 145.464 164.400,145.793 164.855,146.004 165.410 C 146.215 165.966,146.679 166.532,147.034 166.668 C 147.389 166.805,148.095 167.295,148.602 167.758 C 149.109 168.221,149.788 168.811,150.112 169.069 C 150.758 169.584,152.971 170.238,155.300 170.602 C 156.125 170.731,156.800 170.988,156.800 171.174 C 156.800 171.359,157.403 171.624,158.139 171.762 L 159.478 172.013 160.091 177.291 C 160.430 180.199,160.900 182.633,161.140 182.713 C 161.379 182.793,161.685 183.446,161.820 184.164 C 161.954 184.882,162.591 186.084,163.234 186.835 C 163.878 187.586,164.497 188.489,164.610 188.842 C 164.724 189.194,165.485 189.824,166.302 190.242 C 167.119 190.659,168.016 191.212,168.294 191.472 C 169.508 192.602,172.956 192.832,182.430 192.415 C 188.157 192.162,224.019 192.001,274.671 192.001 C 347.801 192.000,357.613 191.929,358.143 191.400 C 358.473 191.070,358.891 190.800,359.071 190.800 C 359.629 190.799,362.276 187.851,362.573 186.900 C 362.728 186.405,362.998 186.000,363.175 186.000 C 363.352 186.000,363.727 185.175,364.009 184.167 C 364.291 183.160,364.810 182.047,365.161 181.695 C 365.675 181.180,365.811 180.030,365.854 175.827 C 366.135 148.650,366.797 121.049,367.175 120.815 C 367.776 120.444,368.544 90.447,368.063 86.148 C 367.715 83.039,366.522 80.800,365.211 80.800 C 365.017 80.800,364.488 80.330,364.036 79.755 C 363.194 78.684,360.900 77.649,359.300 77.618 C 358.805 77.608,358.400 77.420,358.400 77.200 C 358.400 76.934,323.733 76.800,255.200 76.800 C 197.858 76.800,152.000 76.953,152.000 77.144 M357.999 80.246 C 361.428 81.618,362.800 83.728,362.800 87.626 C 362.800 88.942,362.978 90.000,363.200 90.000 C 363.724 90.000,363.722 94.293,363.198 94.467 C 362.957 94.548,362.712 97.651,362.586 102.201 C 362.310 112.250,361.596 122.545,361.157 122.822 C 360.964 122.944,360.606 133.654,360.363 146.622 C 359.827 175.194,359.646 180.800,359.259 180.800 C 359.095 180.800,358.733 181.430,358.455 182.200 C 357.598 184.568,362.670 184.433,271.576 184.519 C 210.043 184.578,186.693 184.722,186.485 185.043 C 186.154 185.558,180.088 186.333,175.266 186.477 L 171.932 186.576 170.205 184.988 C 169.255 184.115,168.247 182.815,167.964 182.100 C 167.682 181.385,167.326 180.800,167.173 180.800 C 167.021 180.800,166.766 178.717,166.607 176.172 C 166.217 169.938,164.707 168.345,158.588 167.714 C 157.385 167.590,156.400 167.347,156.400 167.175 C 156.400 167.003,155.789 166.660,155.042 166.414 C 152.589 165.604,151.600 164.419,151.600 162.287 C 151.600 161.249,151.420 160.400,151.200 160.400 C 150.980 160.400,150.800 159.578,150.800 158.574 C 150.800 154.692,148.073 152.350,142.829 151.729 C 141.713 151.597,140.800 151.357,140.800 151.196 C 140.800 151.035,138.973 150.773,136.739 150.615 C 129.851 150.127,130.439 151.562,130.041 134.264 C 129.849 125.880,129.575 120.627,129.323 120.464 C 128.644 120.023,127.892 109.263,128.209 104.516 L 128.497 100.200 130.253 98.456 L 132.009 96.712 136.904 96.403 C 141.974 96.082,142.830 95.895,144.079 94.831 C 146.195 93.029,146.800 92.208,146.800 91.142 C 146.800 90.514,146.955 90.000,147.145 90.000 C 147.334 90.000,147.610 88.827,147.757 87.393 C 148.093 84.111,148.547 83.119,150.134 82.196 C 150.830 81.791,151.508 81.300,151.640 81.104 C 152.598 79.680,153.104 79.672,256.092 79.636 C 347.557 79.603,356.526 79.657,357.999 80.246 " stroke="none" fill="#daecfa" fill-rule="evenodd"></path><path id="path3" d="M153.840 80.210 C 152.762 80.506,151.772 80.908,151.640 81.104 C 151.508 81.300,150.830 81.791,150.134 82.196 C 148.547 83.119,148.093 84.111,147.757 87.393 C 147.610 88.827,147.334 90.000,147.145 90.000 C 146.955 90.000,146.800 90.514,146.800 91.142 C 146.800 92.208,146.195 93.029,144.079 94.831 C 142.830 95.895,141.974 96.082,136.904 96.403 L 132.009 96.712 130.253 98.456 L 128.497 100.200 128.209 104.516 C 127.892 109.263,128.644 120.023,129.323 120.464 C 129.575 120.627,129.849 125.880,130.041 134.264 C 130.439 151.562,129.851 150.127,136.739 150.615 C 138.973 150.773,140.800 151.035,140.800 151.196 C 140.800 151.357,141.713 151.597,142.829 151.729 C 148.073 152.350,150.800 154.692,150.800 158.574 C 150.800 159.578,150.980 160.400,151.200 160.400 C 151.420 160.400,151.600 161.249,151.600 162.287 C 151.600 164.419,152.589 165.604,155.042 166.414 C 155.789 166.660,156.400 167.003,156.400 167.175 C 156.400 167.347,157.385 167.590,158.588 167.714 C 164.707 168.345,166.217 169.938,166.607 176.172 C 166.766 178.717,167.021 180.800,167.173 180.800 C 167.326 180.800,167.682 181.385,167.964 182.100 C 168.247 182.815,169.255 184.115,170.205 184.988 L 171.932 186.576 175.266 186.477 C 180.088 186.333,186.154 185.558,186.485 185.043 C 186.693 184.722,210.043 184.578,271.576 184.519 C 362.670 184.433,357.598 184.568,358.455 182.200 C 358.733 181.430,359.095 180.800,359.259 180.800 C 359.646 180.800,359.827 175.194,360.363 146.622 C 360.606 133.654,360.964 122.944,361.157 122.822 C 361.596 122.545,362.310 112.250,362.586 102.201 C 362.712 97.651,362.957 94.548,363.198 94.467 C 363.722 94.293,363.724 90.000,363.200 90.000 C 362.978 90.000,362.800 88.942,362.800 87.626 C 362.800 83.728,361.428 81.618,357.999 80.246 C 355.758 79.350,157.102 79.314,153.840 80.210 M357.000 81.994 C 359.937 82.053,361.326 88.701,360.218 97.400 C 359.882 100.040,359.605 104.585,359.603 107.500 C 359.601 110.415,359.459 112.800,359.287 112.800 C 358.931 112.800,357.999 120.113,357.708 125.200 C 357.600 127.070,357.336 128.711,357.119 128.846 C 356.876 128.999,356.641 136.118,356.502 147.479 L 356.279 165.866 355.339 165.686 C 354.823 165.588,354.400 165.368,354.400 165.199 C 354.400 165.029,353.612 164.773,352.650 164.628 C 350.392 164.290,350.410 164.403,350.404 150.755 L 350.400 140.109 349.345 139.055 L 348.291 138.000 248.612 138.000 C 150.120 138.000,144.793 138.063,144.000 139.228 C 143.240 140.344,140.075 140.050,139.809 138.839 C 139.659 138.158,139.405 137.600,139.244 137.600 C 139.083 137.600,138.618 136.475,138.211 135.100 C 137.803 133.725,137.323 132.501,137.143 132.381 C 136.962 132.261,136.606 130.326,136.351 128.081 C 136.023 125.196,135.732 124.000,135.358 124.000 C 135.066 124.000,134.631 123.631,134.390 123.181 C 134.149 122.730,133.532 122.202,133.020 122.007 C 132.184 121.690,132.058 121.310,131.796 118.327 C 131.636 116.497,131.314 114.880,131.081 114.733 C 130.469 114.346,130.453 102.862,131.064 102.484 C 131.319 102.326,131.589 101.658,131.664 100.999 C 131.796 99.838,131.874 99.796,134.100 99.680 C 135.365 99.614,136.400 99.389,136.400 99.180 C 136.400 98.971,137.442 98.800,138.716 98.800 C 141.430 98.800,145.408 97.849,146.260 96.997 C 146.589 96.669,147.119 96.400,147.438 96.400 C 147.758 96.400,148.191 95.950,148.400 95.400 C 148.609 94.850,148.958 94.400,149.175 94.400 C 149.669 94.400,150.255 92.152,150.608 88.900 C 150.757 87.525,151.041 86.400,151.239 86.400 C 151.438 86.400,151.600 85.950,151.600 85.400 C 151.600 84.255,152.760 82.946,154.377 82.267 C 155.209 81.917,340.687 81.667,357.000 81.994 M160.019 152.381 C 163.038 155.400,162.522 157.413,157.783 161.100 C 156.132 162.385,156.077 162.322,155.932 158.989 C 155.530 149.810,156.263 148.625,160.019 152.381 M174.684 167.500 C 175.389 168.132,176.135 169.366,176.436 170.400 C 176.724 171.390,177.194 172.344,177.480 172.520 C 177.766 172.696,178.000 173.068,178.000 173.348 C 178.000 173.627,178.430 174.230,178.955 174.686 C 179.481 175.143,180.125 176.166,180.386 176.958 C 180.648 177.751,181.007 178.400,181.184 178.400 C 181.362 178.400,181.589 178.829,181.689 179.354 C 181.889 180.399,180.462 180.800,176.544 180.800 C 175.585 180.800,174.800 180.980,174.800 181.200 C 174.800 181.959,172.413 181.613,171.525 180.725 C 170.962 180.162,170.819 179.794,171.125 179.692 C 171.428 179.591,171.601 178.568,171.602 176.867 C 171.610 166.957,172.172 165.249,174.684 167.500 " stroke="none" fill="#b4e4f4" fill-rule="evenodd"></path><path id="path4" d="M155.600 84.900 C 155.600 85.285,155.455 85.600,155.278 85.600 C 154.927 85.600,153.600 92.018,153.600 93.715 C 153.600 95.511,154.442 98.784,155.063 99.406 C 155.585 99.928,167.410 100.000,252.823 100.000 L 349.988 100.000 350.442 101.800 C 350.691 102.790,351.030 103.600,351.195 103.600 C 351.360 103.600,351.792 104.662,352.156 105.959 C 352.693 107.871,353.006 108.365,353.809 108.567 C 354.354 108.703,354.800 108.992,354.800 109.208 C 354.800 109.423,355.137 109.600,355.550 109.600 C 356.240 109.600,356.313 109.140,356.475 103.770 C 356.588 100.014,356.812 97.840,357.106 97.658 C 358.201 96.981,358.289 87.473,357.207 86.804 C 357.023 86.690,356.811 86.096,356.736 85.483 L 356.600 84.368 256.100 84.284 C 160.620 84.204,155.600 84.235,155.600 84.900 " stroke="none" fill="#74cce4" fill-rule="evenodd">
    </path>
    </g>
</svg>