<svg id="svg" version="1.1" xmlns="http://www.w3.org/2000/svg" xmlns:xlink="http://www.w3.org/1999/xlink" width="400" height="400" viewBox="0, 0, 400,400"><g id="svgg">
    <path id="path0" d="M183.064 44.681 C 180.863 45.254,180.609 46.114,180.467 53.467 L 180.335 60.335 173.467 60.467 C 164.167 60.647,164.647 60.165,164.467 69.493 L 164.334 76.388 113.467 76.494 L 62.600 76.600 61.600 77.600 L 60.600 78.600 60.600 88.200 L 60.600 97.800 61.600 98.800 L 62.600 99.800 93.467 99.910 L 124.334 100.019 124.467 106.910 C 124.597 113.644,124.623 113.825,125.599 114.801 L 126.599 115.800 137.489 115.923 L 148.378 116.047 148.489 142.924 L 148.600 169.800 149.599 170.800 C 150.575 171.777,150.756 171.803,157.467 171.933 L 164.335 172.065 164.467 178.933 C 164.647 188.230,164.170 187.753,173.467 187.933 L 180.335 188.065 180.467 194.933 C 180.597 201.644,180.623 201.825,181.600 202.801 L 182.600 203.800 208.200 203.800 L 233.800 203.800 234.800 202.801 C 235.777 201.824,235.803 201.646,235.933 194.901 L 236.066 188.000 252.233 188.000 L 268.400 188.000 268.400 194.400 C 268.400 198.400,268.550 200.800,268.800 200.800 C 269.020 200.800,269.206 201.115,269.213 201.500 C 269.257 203.950,266.984 203.800,304.117 203.800 L 337.800 203.800 338.800 202.800 L 339.800 201.800 339.800 183.971 C 339.800 166.896,339.767 166.110,339.029 165.371 C 338.308 164.650,337.599 164.600,328.200 164.600 C 315.469 164.600,316.642 163.732,316.475 173.270 L 316.350 180.400 304.175 180.400 L 292.000 180.400 292.000 173.860 C 292.000 163.906,292.504 164.400,282.350 164.400 L 276.000 164.400 276.000 131.000 L 276.000 97.600 304.200 97.600 C 328.373 97.600,332.400 97.518,332.400 97.029 C 332.400 96.714,332.710 96.148,333.088 95.769 C 333.647 95.210,333.831 93.953,334.070 89.041 C 334.385 82.566,334.684 80.346,335.295 79.952 C 335.506 79.815,335.778 77.070,335.898 73.852 L 336.118 68.000 337.170 68.000 C 339.625 68.000,339.800 67.226,339.800 56.400 L 339.800 46.600 338.800 45.600 L 337.800 44.600 260.800 44.544 C 218.450 44.514,183.469 44.575,183.064 44.681 M336.613 47.786 L 338.200 49.372 338.340 54.722 C 338.680 67.695,341.173 66.800,304.695 66.800 C 278.110 66.800,276.254 66.845,275.757 67.500 C 275.326 68.068,275.223 74.107,275.213 99.500 C 275.204 120.092,275.063 130.800,274.800 130.800 C 274.540 130.800,274.400 136.593,274.400 147.379 L 274.400 163.959 275.307 164.938 C 276.171 165.870,276.480 165.924,281.740 166.059 C 286.437 166.179,287.342 166.305,287.777 166.900 C 288.058 167.285,288.450 167.600,288.648 167.600 C 289.724 167.600,290.189 169.566,290.332 174.722 C 290.467 179.588,290.557 180.129,291.386 181.022 L 292.292 182.000 304.246 181.993 C 319.072 181.985,317.854 182.624,318.059 174.746 L 318.200 169.319 319.760 167.759 L 321.320 166.200 328.173 166.200 L 335.027 166.200 336.613 167.787 L 338.200 169.373 338.200 184.200 L 338.200 199.027 336.613 200.613 L 335.027 202.200 305.413 202.318 C 272.329 202.449,273.878 202.533,271.753 200.492 L 270.200 199.000 270.062 193.535 C 269.863 185.620,271.804 186.399,252.284 186.407 L 236.200 186.414 235.341 187.320 C 234.568 188.137,234.469 188.760,234.341 193.627 L 234.200 199.028 232.613 200.614 L 231.027 202.200 208.200 202.200 L 185.373 202.200 183.787 200.614 L 182.200 199.028 182.058 193.618 C 181.868 186.347,182.053 186.532,174.782 186.342 L 169.372 186.200 167.786 184.614 L 166.200 183.028 166.058 177.618 C 165.868 170.347,166.053 170.532,158.782 170.342 L 153.372 170.200 151.786 168.614 L 150.200 167.027 150.088 141.647 L 149.977 116.268 149.070 115.361 C 148.188 114.479,147.915 114.451,138.768 114.327 L 129.372 114.200 127.786 112.614 L 126.200 111.028 126.058 105.618 C 125.929 100.653,125.843 100.134,125.023 99.314 L 124.129 98.420 94.751 98.310 L 65.373 98.200 63.787 96.613 L 62.200 95.027 62.200 88.200 L 62.200 81.373 63.787 79.787 L 65.373 78.200 114.747 78.094 L 164.121 77.988 165.019 77.090 C 165.844 76.265,165.928 75.754,166.058 70.782 L 166.200 65.372 167.786 63.786 L 169.372 62.200 174.782 62.058 C 182.053 61.868,181.868 62.053,182.058 54.782 L 182.200 49.372 183.647 47.926 C 184.443 47.130,185.433 46.391,185.847 46.284 C 186.261 46.176,219.996 46.114,260.813 46.144 L 335.027 46.200 336.613 47.786 M187.500 67.633 C 186.923 68.265,186.800 69.165,186.800 72.740 C 186.800 81.124,185.083 82.768,176.300 82.790 C 170.261 82.805,170.973 77.609,170.633 124.164 L 170.342 164.051 171.275 164.984 C 172.144 165.853,172.581 165.927,177.644 166.058 L 183.081 166.200 184.641 167.759 L 186.200 169.319 186.341 174.746 C 186.469 179.640,186.567 180.262,187.341 181.080 L 188.200 181.986 208.200 181.986 L 228.200 181.986 229.059 181.080 C 229.833 180.262,229.931 179.640,230.059 174.746 L 230.200 169.319 231.759 167.759 L 233.318 166.200 242.731 166.073 C 251.767 165.951,252.181 165.911,253.069 165.073 L 253.994 164.200 253.731 116.234 C 253.479 70.441,253.434 68.234,252.734 67.534 C 251.564 66.364,188.571 66.461,187.500 67.633 M252.400 130.982 L 252.400 164.364 241.271 164.482 C 227.298 164.630,228.643 163.706,228.475 173.270 L 228.350 180.400 208.200 180.400 L 188.050 180.400 187.925 173.270 C 187.761 163.942,188.458 164.639,179.130 164.475 L 172.000 164.350 172.000 130.975 L 172.000 97.600 212.200 97.600 L 252.400 97.600 252.400 130.982 " stroke="none" fill="#f4f4f4" fill-rule="evenodd"></path>
    <path id="path2" d="M187.264 51.400 C 186.104 52.624,186.051 60.884,187.200 61.609 C 187.564 61.839,200.450 61.991,220.000 61.996 C 257.470 62.006,256.648 61.906,257.958 66.623 C 258.574 68.842,258.574 163.558,257.958 165.777 C 256.874 169.679,254.753 170.393,244.200 170.405 C 233.967 170.416,234.262 170.224,234.464 176.761 C 234.539 179.167,234.750 181.285,234.933 181.468 C 235.116 181.650,243.036 181.890,252.533 182.001 C 262.030 182.111,270.118 182.356,270.506 182.546 C 273.413 183.964,274.394 186.369,274.398 192.079 C 274.400 195.602,274.487 196.053,275.346 196.979 L 276.292 198.000 304.246 197.993 L 332.200 197.986 333.100 197.037 C 333.992 196.095,334.000 195.986,333.993 184.144 L 333.986 172.200 333.037 171.300 C 332.183 170.491,331.691 170.401,328.144 170.407 C 322.735 170.416,322.401 170.756,322.398 176.256 C 322.394 182.448,321.147 185.022,317.683 185.984 C 315.842 186.495,292.695 186.543,290.938 186.040 C 289.520 185.633,287.200 183.726,287.200 182.967 C 287.200 182.692,286.975 182.392,286.700 182.300 C 286.346 182.182,286.159 180.667,286.060 177.099 C 285.874 170.422,285.855 170.400,280.282 170.400 C 274.864 170.400,271.200 169.015,271.200 166.967 C 271.200 166.692,270.975 166.392,270.700 166.300 C 270.304 166.168,270.200 155.791,270.200 116.200 C 270.200 76.609,270.304 66.232,270.700 66.100 C 270.975 66.008,271.200 65.708,271.200 65.433 C 271.200 64.674,273.520 62.767,274.938 62.360 C 275.630 62.162,288.760 62.000,304.141 62.000 L 332.087 62.000 333.037 61.100 C 333.913 60.270,333.986 59.890,333.986 56.200 C 333.986 52.510,333.913 52.130,333.037 51.300 L 332.087 50.400 260.144 50.407 L 188.200 50.414 187.264 51.400 M171.264 67.379 C 170.104 68.629,170.052 76.885,171.200 77.609 C 172.605 78.495,180.130 78.060,181.100 77.037 C 182.076 76.007,182.462 68.551,181.609 67.200 C 180.852 66.000,172.409 66.146,171.264 67.379 M67.300 83.360 C 66.494 84.214,66.400 84.718,66.400 88.200 C 66.400 91.683,66.494 92.186,67.300 93.037 L 68.200 93.986 96.200 93.995 C 131.880 94.007,130.392 93.565,130.398 104.144 C 130.401 110.141,130.138 109.984,140.200 109.995 C 155.357 110.013,154.392 107.961,154.405 140.200 L 154.414 164.200 155.400 165.136 C 156.420 166.103,164.566 166.371,165.468 165.467 C 165.946 164.987,166.088 83.947,165.612 83.200 C 165.276 82.673,159.331 82.588,116.715 82.504 L 68.200 82.407 67.300 83.360 M171.541 170.668 C 169.954 171.089,169.839 179.655,171.400 181.136 C 172.420 182.102,180.564 182.371,181.468 181.468 C 182.371 180.564,182.102 172.420,181.136 171.400 C 180.228 170.443,174.138 169.978,171.541 170.668 M187.541 186.663 C 186.022 187.078,185.826 195.482,187.300 197.037 L 188.200 197.986 208.200 197.986 L 228.200 197.986 229.136 197.000 C 230.103 195.980,230.371 187.834,229.467 186.932 C 229.127 186.594,188.743 186.334,187.541 186.663 " stroke="none" fill="#040404" fill-rule="evenodd"></path><path id="path3" d="M187.933 47.100 C 187.860 47.265,187.143 47.733,186.341 48.141 C 185.479 48.579,184.579 49.479,184.141 50.341 C 183.733 51.143,183.265 51.860,183.100 51.933 C 182.935 52.007,182.800 54.184,182.800 56.771 C 182.800 62.909,182.911 62.800,176.702 62.800 C 174.152 62.800,172.007 62.935,171.933 63.100 C 171.860 63.265,171.143 63.733,170.341 64.141 C 169.479 64.579,168.579 65.479,168.141 66.341 C 167.733 67.143,167.265 67.860,167.100 67.933 C 166.935 68.007,166.800 70.184,166.800 72.771 C 166.800 79.612,173.548 78.800,116.702 78.800 C 89.952 78.800,68.007 78.935,67.933 79.100 C 67.860 79.265,67.143 79.733,66.341 80.141 C 65.479 80.579,64.579 81.479,64.141 82.341 C 63.733 83.143,63.265 83.860,63.100 83.933 C 62.935 84.007,62.800 85.927,62.800 88.200 C 62.800 90.473,62.935 92.393,63.100 92.467 C 63.265 92.540,63.733 93.257,64.141 94.059 C 64.579 94.921,65.479 95.821,66.341 96.259 C 67.143 96.667,67.860 97.135,67.933 97.300 C 68.007 97.465,80.840 97.600,96.452 97.600 L 124.836 97.600 125.818 98.582 C 126.741 99.505,126.800 99.826,126.800 103.948 C 126.800 106.360,126.935 108.393,127.100 108.467 C 127.265 108.540,127.733 109.257,128.141 110.059 C 128.579 110.921,129.479 111.821,130.341 112.259 C 131.143 112.667,131.860 113.135,131.933 113.300 C 132.007 113.465,135.840 113.600,140.452 113.600 C 148.821 113.600,148.838 113.602,149.818 114.582 L 150.800 115.564 150.800 139.948 C 150.800 153.360,150.935 164.393,151.100 164.467 C 151.265 164.540,151.733 165.257,152.141 166.059 C 152.579 166.921,153.479 167.821,154.341 168.259 C 155.143 168.667,155.860 169.135,155.933 169.300 C 156.007 169.465,158.184 169.600,160.771 169.600 C 166.909 169.600,166.800 169.489,166.800 175.698 C 166.800 178.248,166.935 180.393,167.100 180.467 C 167.265 180.540,167.733 181.257,168.141 182.059 C 168.579 182.921,169.479 183.821,170.341 184.259 C 171.143 184.667,171.860 185.135,171.933 185.300 C 172.007 185.465,174.184 185.600,176.771 185.600 C 182.909 185.600,182.800 185.489,182.800 191.698 C 182.800 194.248,182.935 196.393,183.100 196.467 C 183.265 196.540,183.733 197.257,184.141 198.059 C 184.579 198.921,185.479 199.821,186.341 200.259 C 187.143 200.667,187.860 201.135,187.933 201.300 C 188.108 201.692,228.292 201.692,228.467 201.300 C 228.540 201.135,229.257 200.667,230.059 200.259 C 230.921 199.821,231.821 198.921,232.259 198.059 C 232.667 197.257,233.135 196.540,233.300 196.467 C 233.465 196.393,233.600 194.216,233.600 191.629 C 233.600 184.962,231.647 185.600,252.065 185.600 L 269.068 185.600 270.134 186.797 C 271.137 187.922,271.200 188.228,271.200 191.970 C 271.200 197.212,272.417 199.916,275.076 200.583 C 275.584 200.711,276.000 200.992,276.000 201.208 C 276.000 201.673,332.260 201.765,332.467 201.300 C 332.540 201.135,333.257 200.667,334.059 200.259 C 334.921 199.821,335.821 198.921,336.259 198.059 C 336.667 197.257,337.135 196.540,337.300 196.467 C 337.692 196.292,337.692 172.108,337.300 171.933 C 337.135 171.860,336.667 171.143,336.259 170.341 C 335.821 169.479,334.921 168.579,334.059 168.141 C 333.257 167.733,332.540 167.265,332.467 167.100 C 332.393 166.935,330.473 166.800,328.200 166.800 C 325.927 166.800,324.007 166.935,323.933 167.100 C 323.860 167.265,323.143 167.733,322.341 168.141 C 321.479 168.579,320.579 169.479,320.141 170.341 C 319.733 171.143,319.265 171.860,319.100 171.933 C 318.935 172.007,318.800 174.040,318.800 176.452 C 318.800 180.574,318.741 180.895,317.818 181.818 L 316.836 182.800 304.318 182.791 C 288.673 182.780,289.883 183.314,289.600 176.295 C 289.438 172.284,289.266 171.208,288.697 170.640 C 288.311 170.254,287.816 169.603,287.597 169.195 C 287.378 168.786,286.570 168.224,285.800 167.945 C 285.030 167.667,284.400 167.295,284.400 167.120 C 284.400 166.944,282.446 166.800,280.058 166.800 C 276.004 166.800,275.647 166.735,274.658 165.819 L 273.600 164.838 273.600 116.467 L 273.600 68.095 274.876 66.847 L 276.152 65.600 304.476 65.600 C 323.092 65.600,332.800 65.463,332.800 65.200 C 332.800 64.980,333.036 64.800,333.324 64.800 C 334.101 64.800,336.375 62.438,336.649 61.347 C 336.780 60.826,337.047 60.400,337.243 60.400 C 337.673 60.400,337.728 52.124,337.300 51.933 C 337.135 51.860,336.667 51.143,336.259 50.341 C 335.821 49.479,334.921 48.579,334.059 48.141 C 333.257 47.733,332.540 47.265,332.467 47.100 C 332.292 46.708,188.108 46.708,187.933 47.100 M333.037 51.300 C 333.913 52.130,333.986 52.510,333.986 56.200 C 333.986 59.890,333.913 60.270,333.037 61.100 L 332.087 62.000 304.141 62.000 C 288.760 62.000,275.630 62.162,274.938 62.360 C 273.520 62.767,271.200 64.674,271.200 65.433 C 271.200 65.708,270.975 66.008,270.700 66.100 C 270.304 66.232,270.200 76.609,270.200 116.200 C 270.200 155.791,270.304 166.168,270.700 166.300 C 270.975 166.392,271.200 166.692,271.200 166.967 C 271.200 169.015,274.864 170.400,280.282 170.400 C 285.855 170.400,285.874 170.422,286.060 177.099 C 286.159 180.667,286.346 182.182,286.700 182.300 C 286.975 182.392,287.200 182.692,287.200 182.967 C 287.200 183.726,289.520 185.633,290.938 186.040 C 292.695 186.543,315.842 186.495,317.683 185.984 C 321.147 185.022,322.394 182.448,322.398 176.256 C 322.401 170.756,322.735 170.416,328.144 170.407 C 331.691 170.401,332.183 170.491,333.037 171.300 L 333.986 172.200 333.993 184.144 C 334.000 195.986,333.992 196.095,333.100 197.037 L 332.200 197.986 304.246 197.993 L 276.292 198.000 275.346 196.979 C 274.487 196.053,274.400 195.602,274.398 192.079 C 274.394 186.369,273.413 183.964,270.506 182.546 C 270.118 182.356,262.030 182.111,252.533 182.001 C 243.036 181.890,235.116 181.650,234.933 181.468 C 234.750 181.285,234.539 179.167,234.464 176.761 C 234.262 170.224,233.967 170.416,244.200 170.405 C 254.753 170.393,256.874 169.679,257.958 165.777 C 258.574 163.558,258.574 68.842,257.958 66.623 C 256.648 61.906,257.470 62.006,220.000 61.996 C 200.450 61.991,187.564 61.839,187.200 61.609 C 186.051 60.884,186.104 52.624,187.264 51.400 L 188.200 50.414 260.144 50.407 L 332.087 50.400 333.037 51.300 M253.744 66.973 L 255.200 68.346 255.200 116.430 L 255.200 164.513 254.004 165.657 L 252.807 166.800 244.437 166.800 C 239.833 166.800,236.007 166.935,235.933 167.100 C 235.860 167.265,235.143 167.733,234.341 168.141 C 233.479 168.579,232.579 169.479,232.141 170.341 C 231.733 171.143,231.265 171.860,231.100 171.933 C 230.935 172.007,230.800 174.152,230.800 176.702 C 230.800 183.509,233.421 182.800,208.270 182.800 C 183.012 182.800,185.600 183.488,185.600 176.771 C 185.600 174.184,185.465 172.007,185.300 171.933 C 185.135 171.860,184.667 171.143,184.259 170.341 C 183.821 169.479,182.921 168.579,182.059 168.141 C 181.257 167.733,180.540 167.265,180.467 167.100 C 180.393 166.935,178.216 166.800,175.629 166.800 C 171.565 166.800,170.833 166.700,170.256 166.062 C 169.360 165.072,169.421 83.220,170.319 82.320 C 170.671 81.967,172.405 81.756,175.717 81.664 C 178.401 81.590,180.688 81.410,180.798 81.264 C 180.909 81.119,181.660 80.695,182.466 80.323 C 183.502 79.844,184.083 79.229,184.446 78.223 C 184.729 77.440,185.105 76.800,185.280 76.800 C 185.456 76.800,185.600 74.722,185.600 72.182 C 185.600 67.812,185.653 67.511,186.582 66.582 L 187.564 65.600 219.926 65.600 L 252.288 65.600 253.744 66.973 M181.609 67.200 C 182.462 68.551,182.076 76.007,181.100 77.037 C 180.130 78.060,172.605 78.495,171.200 77.609 C 170.052 76.885,170.104 68.629,171.264 67.379 C 172.409 66.146,180.852 66.000,181.609 67.200 M165.612 83.200 C 166.088 83.947,165.946 164.987,165.468 165.467 C 164.566 166.371,156.420 166.103,155.400 165.136 L 154.414 164.200 154.405 140.200 C 154.392 107.961,155.357 110.013,140.200 109.995 C 130.138 109.984,130.401 110.141,130.398 104.144 C 130.392 93.565,131.880 94.007,96.200 93.995 L 68.200 93.986 67.300 93.037 C 66.494 92.186,66.400 91.683,66.400 88.200 C 66.400 84.718,66.494 84.214,67.300 83.360 L 68.200 82.407 116.715 82.504 C 159.331 82.588,165.276 82.673,165.612 83.200 M181.136 171.400 C 182.102 172.420,182.371 180.564,181.468 181.468 C 180.564 182.371,172.420 182.102,171.400 181.136 C 169.839 179.655,169.954 171.089,171.541 170.668 C 174.138 169.978,180.228 170.443,181.136 171.400 M229.467 186.932 C 230.371 187.834,230.103 195.980,229.136 197.000 L 228.200 197.986 208.200 197.986 L 188.200 197.986 187.300 197.037 C 185.826 195.482,186.022 187.078,187.541 186.663 C 188.743 186.334,229.127 186.594,229.467 186.932 " stroke="none" fill="#3c8480" fill-rule="evenodd"></path><path id="path4" d="" stroke="none" fill="#bcfc100" fill-rule="evenodd"></path></g></svg>