<svg id="svg" version="1.1" xmlns="http://www.w3.org/2000/svg" xmlns:xlink="http://www.w3.org/1999/xlink" width="400" height="400" viewBox="0, 0, 400,400"><g id="svgg">
    <path id="path1" d="M203.277 96.665 C 201.141 97.551,200.604 98.847,200.485 103.400 C 200.289 110.861,198.861 112.289,191.400 112.485 C 187.111 112.597,186.970 112.630,185.800 113.800 L 184.600 115.000 184.600 132.200 L 184.600 149.400 185.800 150.600 C 186.978 151.778,187.085 151.802,191.726 151.934 C 195.689 152.047,196.492 152.176,196.701 152.734 C 196.838 153.100,197.232 153.610,197.575 153.867 C 198.069 154.235,198.242 155.475,198.400 159.782 C 198.531 163.360,198.763 165.331,199.075 165.523 C 199.336 165.684,199.738 166.311,199.968 166.915 C 200.198 167.520,200.880 168.202,201.485 168.432 C 202.089 168.662,202.717 169.064,202.880 169.325 C 203.267 169.947,215.133 169.949,215.530 169.327 C 216.056 168.502,219.193 168.309,236.200 168.056 L 253.400 167.800 254.600 166.662 L 255.800 165.523 255.909 139.810 C 256.025 112.200,256.021 112.144,254.007 111.741 C 253.343 111.609,252.800 111.352,252.800 111.171 C 252.800 110.990,248.759 110.788,243.819 110.721 C 232.986 110.575,233.841 111.092,233.667 104.581 C 233.594 101.842,233.369 99.600,233.167 99.600 C 232.965 99.600,232.794 99.285,232.787 98.900 C 232.746 96.602,232.775 96.607,217.683 96.524 C 210.047 96.482,203.565 96.546,203.277 96.665 M291.214 96.686 C 290.446 96.998,289.230 98.465,289.213 99.100 C 289.206 99.375,289.020 99.600,288.800 99.600 C 288.559 99.600,288.400 101.251,288.400 103.754 C 288.400 110.997,287.038 112.282,279.144 112.489 C 274.762 112.603,273.262 113.264,273.213 115.100 C 273.206 115.375,273.020 115.600,272.800 115.600 C 272.540 115.600,272.400 121.400,272.400 132.200 C 272.400 143.000,272.540 148.800,272.800 148.800 C 273.020 148.800,273.206 149.025,273.213 149.300 C 273.264 151.197,274.722 151.793,279.813 152.000 C 282.521 152.110,284.796 152.290,284.868 152.400 C 286.221 154.453,286.400 155.313,286.400 159.762 C 286.400 162.313,286.551 164.400,286.736 164.400 C 286.921 164.400,287.316 165.140,287.614 166.044 C 288.026 167.292,288.499 167.846,289.579 168.344 C 290.360 168.705,291.263 169.250,291.585 169.556 C 292.267 170.205,303.123 169.962,303.554 169.287 C 304.028 168.548,307.107 168.321,320.200 168.062 L 333.400 167.800 334.600 166.600 L 335.800 165.400 335.800 139.117 C 335.800 110.225,335.920 111.657,333.500 111.613 C 333.115 111.606,332.800 111.435,332.800 111.233 C 332.800 111.031,330.558 110.806,327.819 110.733 C 321.557 110.566,321.834 110.843,321.667 104.581 C 321.594 101.842,321.369 99.600,321.167 99.600 C 320.965 99.600,320.794 99.285,320.787 98.900 C 320.746 96.602,320.775 96.607,305.683 96.524 C 298.047 96.482,291.536 96.555,291.214 96.686 M230.081 114.320 C 230.490 114.730,230.600 118.474,230.600 132.006 C 230.600 152.509,231.226 150.540,224.650 150.733 L 220.127 150.866 218.864 149.602 L 217.600 148.338 217.600 132.395 C 217.600 115.831,217.707 114.665,219.294 113.998 C 220.663 113.423,229.447 113.685,230.081 114.320 M318.081 114.320 C 318.490 114.730,318.600 118.474,318.600 132.006 C 318.600 152.509,319.226 150.540,312.650 150.733 L 308.127 150.866 306.864 149.602 L 305.600 148.338 305.600 132.395 C 305.600 115.831,305.707 114.665,307.294 113.998 C 308.663 113.423,317.447 113.685,318.081 114.320 " stroke="none" fill="#ccd4d4" fill-rule="evenodd"></path><path id="path2" d="M170.336 82.335 L 168.873 83.844 168.736 88.470 L 168.600 93.096 166.848 94.848 L 165.096 96.600 160.465 96.736 L 155.833 96.873 154.353 98.353 L 152.873 99.833 152.736 104.465 L 152.600 109.096 150.847 110.848 L 149.094 112.600 124.491 112.709 L 99.888 112.818 98.344 114.362 L 96.800 115.906 96.800 120.200 L 96.800 124.494 98.316 126.011 L 99.833 127.527 104.465 127.664 L 109.096 127.800 110.848 129.552 L 112.600 131.304 112.723 139.922 L 112.845 148.539 114.367 150.061 L 115.888 151.582 140.491 151.691 L 165.094 151.800 166.847 153.552 L 168.600 155.305 168.716 167.916 L 168.833 180.527 170.369 182.063 L 171.906 183.600 212.182 183.600 C 247.179 183.600,252.535 183.523,253.048 183.009 C 253.373 182.684,254.035 182.141,254.520 181.802 C 255.325 181.240,255.417 180.764,255.600 176.258 L 255.800 171.328 257.533 169.663 C 259.662 167.619,260.157 167.489,265.130 167.662 L 269.102 167.800 270.751 169.400 C 271.658 170.280,272.399 171.225,272.400 171.500 C 272.400 171.775,272.580 172.000,272.800 172.000 C 273.042 172.000,273.200 173.738,273.200 176.413 L 273.200 180.827 274.587 182.213 L 275.973 183.600 316.234 183.600 L 356.494 183.600 358.047 182.047 L 359.600 180.494 359.600 132.200 L 359.600 83.906 358.047 82.353 L 356.494 80.800 264.147 80.813 L 171.800 80.827 170.336 82.335 M232.009 97.200 C 232.260 97.598,232.390 97.632,232.394 97.300 C 232.399 96.913,234.670 96.800,242.400 96.800 C 248.800 96.800,252.400 96.944,252.400 97.200 C 252.400 97.420,252.625 97.606,252.900 97.613 C 255.747 97.689,255.784 98.218,255.794 139.462 L 255.800 165.523 254.600 166.662 L 253.400 167.800 236.200 168.056 C 219.193 168.309,216.056 168.502,215.530 169.327 C 215.133 169.949,203.267 169.947,202.880 169.325 C 202.717 169.064,202.089 168.662,201.485 168.432 C 200.880 168.202,200.198 167.520,199.968 166.915 C 199.738 166.311,199.336 165.684,199.075 165.523 C 198.763 165.331,198.531 163.360,198.400 159.782 C 198.242 155.475,198.069 154.235,197.575 153.867 C 197.232 153.610,196.838 153.100,196.701 152.734 C 196.492 152.176,195.689 152.047,191.726 151.934 C 187.085 151.802,186.978 151.778,185.800 150.600 L 184.600 149.400 184.600 132.200 L 184.600 115.000 185.800 113.800 C 186.970 112.630,187.111 112.597,191.400 112.485 C 198.861 112.289,200.289 110.861,200.485 103.400 C 200.604 98.847,201.141 97.551,203.277 96.665 C 204.651 96.095,231.628 96.597,232.009 97.200 M320.009 97.200 C 320.260 97.598,320.390 97.632,320.394 97.300 C 320.398 96.922,321.870 96.800,326.400 96.800 C 329.700 96.800,332.400 96.937,332.400 97.105 C 332.400 97.273,332.805 97.588,333.300 97.805 C 333.795 98.022,334.378 98.605,334.595 99.100 C 334.812 99.595,335.127 100.000,335.295 100.000 C 335.463 100.000,335.600 102.700,335.600 106.000 C 335.600 110.530,335.478 112.002,335.100 112.006 C 334.768 112.010,334.802 112.140,335.200 112.392 C 335.723 112.722,335.800 116.130,335.800 139.085 L 335.800 165.400 334.600 166.600 L 333.400 167.800 320.200 168.062 C 307.107 168.321,304.028 168.548,303.554 169.287 C 303.123 169.962,292.267 170.205,291.585 169.556 C 291.263 169.250,290.360 168.705,289.579 168.344 C 288.499 167.846,288.026 167.292,287.614 166.044 C 287.316 165.140,286.921 164.400,286.736 164.400 C 286.551 164.400,286.400 162.313,286.400 159.762 C 286.400 155.313,286.221 154.453,284.868 152.400 C 284.796 152.290,282.521 152.110,279.813 152.000 C 274.722 151.793,273.264 151.197,273.213 149.300 C 273.206 149.025,273.020 148.800,272.800 148.800 C 272.540 148.800,272.400 143.000,272.400 132.200 C 272.400 121.400,272.540 115.600,272.800 115.600 C 273.020 115.600,273.206 115.375,273.213 115.100 C 273.262 113.264,274.762 112.603,279.144 112.489 C 287.038 112.282,288.400 110.997,288.400 103.754 C 288.400 101.251,288.559 99.600,288.800 99.600 C 289.020 99.600,289.206 99.375,289.213 99.100 C 289.230 98.465,290.446 96.998,291.214 96.686 C 292.652 96.102,319.619 96.583,320.009 97.200 " stroke="none" fill="#fcd4cc" fill-rule="evenodd"></path><path id="path3" d="M232.618 98.100 C 232.774 98.815,233.042 99.491,233.215 99.602 C 233.387 99.712,233.590 101.999,233.664 104.683 C 233.842 111.071,233.016 110.575,243.709 110.722 C 248.588 110.790,252.675 110.992,252.790 111.172 C 252.906 111.352,253.598 111.629,254.328 111.788 L 255.656 112.076 255.528 105.682 C 255.394 98.975,254.968 97.668,252.900 97.613 C 252.625 97.606,252.400 97.420,252.400 97.200 C 252.400 96.944,248.789 96.800,242.368 96.800 L 232.336 96.800 232.618 98.100 M320.618 98.100 C 320.774 98.815,321.042 99.491,321.215 99.602 C 321.387 99.712,321.590 101.999,321.664 104.683 C 321.835 110.817,321.583 110.565,327.717 110.736 C 330.401 110.810,332.688 111.013,332.798 111.185 C 332.909 111.358,333.585 111.626,334.300 111.782 L 335.600 112.064 335.600 106.032 C 335.600 102.714,335.463 100.000,335.295 100.000 C 335.127 100.000,334.812 99.595,334.595 99.100 C 334.378 98.605,333.795 98.022,333.300 97.805 C 332.805 97.588,332.400 97.273,332.400 97.105 C 332.400 96.937,329.686 96.800,326.368 96.800 L 320.336 96.800 320.618 98.100 M219.294 113.998 C 217.707 114.665,217.600 115.831,217.600 132.395 L 217.600 148.338 218.864 149.602 L 220.127 150.866 224.650 150.733 C 231.226 150.540,230.600 152.509,230.600 132.006 C 230.600 118.474,230.490 114.730,230.081 114.320 C 229.447 113.685,220.663 113.423,219.294 113.998 M307.294 113.998 C 305.707 114.665,305.600 115.831,305.600 132.395 L 305.600 148.338 306.864 149.602 L 308.127 150.866 312.650 150.733 C 319.226 150.540,318.600 152.509,318.600 132.006 C 318.600 118.474,318.490 114.730,318.081 114.320 C 317.447 113.685,308.663 113.423,307.294 113.998 " stroke="none" fill="#e4ecec" fill-rule="evenodd"></path><path id="path4" d="" stroke="none" fill="#100f8f0" fill-rule="evenodd"></path></g></svg>