<svg id="svg" version="1.1" xmlns="http://www.w3.org/2000/svg" xmlns:xlink="http://www.w3.org/1999/xlink" width="400" height="400" viewBox="0, 0, 400,400"><g id="svgg">
    <path id="path1" d="M308.000 25.105 C 308.000 25.273,307.595 25.588,307.100 25.805 C 306.605 26.022,306.022 26.605,305.805 27.100 C 305.588 27.595,305.273 28.000,305.105 28.000 C 304.937 28.000,304.800 31.710,304.800 36.246 C 304.800 47.897,304.207 48.800,296.551 48.800 C 294.249 48.800,292.149 48.980,291.883 49.200 C 291.617 49.420,290.950 49.944,290.400 50.364 C 289.446 51.092,289.394 51.350,289.267 55.964 C 289.193 58.624,289.009 60.800,288.857 60.800 C 288.706 60.800,288.266 61.385,287.881 62.100 C 286.702 64.287,285.309 64.800,280.551 64.800 C 278.249 64.800,276.149 64.980,275.883 65.200 C 275.617 65.420,274.950 65.944,274.400 66.364 C 273.446 67.092,273.394 67.350,273.267 71.964 C 273.193 74.624,273.009 76.800,272.857 76.800 C 272.706 76.800,272.266 77.385,271.881 78.100 C 270.702 80.287,269.309 80.800,264.551 80.800 C 262.249 80.800,260.149 80.980,259.883 81.200 C 259.617 81.420,258.950 81.944,258.400 82.364 C 257.446 83.092,257.394 83.350,257.267 87.964 C 257.193 90.624,257.009 92.800,256.857 92.800 C 256.706 92.800,256.257 93.403,255.860 94.141 C 254.346 96.953,256.852 96.800,212.186 96.800 C 190.084 96.800,172.000 96.937,172.000 97.105 C 172.000 97.273,171.595 97.588,171.100 97.805 C 170.605 98.022,170.022 98.605,169.805 99.100 C 169.588 99.595,169.273 100.000,169.105 100.000 C 168.937 100.000,168.800 101.902,168.800 104.226 C 168.800 108.552,168.546 109.536,167.041 111.041 C 165.229 112.853,166.762 112.800,116.226 112.800 C 89.702 112.800,68.000 112.937,68.000 113.105 C 68.000 113.273,67.595 113.588,67.100 113.805 C 66.605 114.022,66.022 114.605,65.805 115.100 C 65.588 115.595,65.273 116.000,65.105 116.000 C 64.937 116.000,64.800 117.890,64.800 120.200 C 64.800 122.510,64.937 124.400,65.105 124.400 C 65.273 124.400,65.588 124.805,65.805 125.300 C 66.022 125.795,66.605 126.378,67.100 126.595 C 67.595 126.812,68.000 127.127,68.000 127.295 C 68.000 127.463,93.302 127.600,124.226 127.600 C 183.176 127.600,181.224 127.542,183.041 129.359 C 184.692 131.010,184.800 131.672,184.800 140.174 C 184.800 144.698,184.937 148.400,185.105 148.400 C 185.273 148.400,185.588 148.805,185.805 149.300 C 186.022 149.795,186.605 150.378,187.100 150.595 C 187.595 150.812,188.000 151.127,188.000 151.295 C 188.000 151.463,189.902 151.600,192.226 151.600 C 199.289 151.600,200.800 153.111,200.800 160.174 C 200.800 162.498,200.937 164.400,201.105 164.400 C 201.273 164.400,201.588 164.805,201.805 165.300 C 202.022 165.795,202.605 166.378,203.100 166.595 C 203.595 166.812,204.000 167.127,204.000 167.295 C 204.000 167.463,209.490 167.600,216.200 167.600 C 222.910 167.600,228.400 167.463,228.400 167.295 C 228.400 167.127,228.805 166.812,229.300 166.595 C 229.795 166.378,230.378 165.795,230.595 165.300 C 230.812 164.805,231.127 164.400,231.295 164.400 C 231.463 164.400,231.600 162.498,231.600 160.174 C 231.600 155.848,231.854 154.864,233.359 153.359 C 235.010 151.708,235.672 151.600,244.174 151.600 C 249.391 151.600,252.400 151.454,252.400 151.200 C 252.400 150.980,252.625 150.794,252.900 150.787 C 253.175 150.779,253.850 150.399,254.400 149.942 L 255.400 149.111 255.615 132.055 C 255.733 122.675,255.868 114.981,255.915 114.958 C 255.962 114.936,256.480 114.399,257.066 113.767 C 258.808 111.887,259.758 111.600,264.246 111.600 C 266.749 111.600,268.400 111.441,268.400 111.200 C 268.400 110.980,268.625 110.794,268.900 110.787 C 270.736 110.738,271.397 109.238,271.511 104.856 C 271.718 96.962,273.003 95.600,280.246 95.600 C 282.749 95.600,284.400 95.441,284.400 95.200 C 284.400 94.980,284.625 94.794,284.900 94.787 C 286.736 94.738,287.397 93.238,287.511 88.856 C 287.718 80.962,289.003 79.600,296.246 79.600 C 298.749 79.600,300.400 79.441,300.400 79.200 C 300.400 78.980,300.625 78.794,300.900 78.787 C 302.736 78.738,303.397 77.238,303.511 72.856 C 303.650 67.559,303.747 67.119,305.102 65.673 C 306.816 63.842,307.643 63.600,312.174 63.600 C 314.498 63.600,316.400 63.463,316.400 63.295 C 316.400 63.127,316.805 62.812,317.300 62.595 C 317.795 62.378,318.378 61.795,318.595 61.300 C 318.812 60.805,319.127 60.400,319.295 60.400 C 319.463 60.400,319.600 53.110,319.600 44.200 C 319.600 35.290,319.463 28.000,319.295 28.000 C 319.127 28.000,318.812 27.595,318.595 27.100 C 318.378 26.605,317.795 26.022,317.300 25.805 C 316.805 25.588,316.400 25.273,316.400 25.105 C 316.400 24.937,314.510 24.800,312.200 24.800 C 309.890 24.800,308.000 24.937,308.000 25.105 " stroke="none" fill="#040404" fill-rule="evenodd"></path><path id="path2" d="" stroke="none" fill="#bc10080" fill-rule="evenodd"></path><path id="path3" d="" stroke="none" fill="#bc10080" fill-rule="evenodd"></path><path id="path4" d="" stroke="none" fill="#bc10080" fill-rule="evenodd"></path></g></svg>