<svg id="svg" version="1.1" xmlns="http://www.w3.org/2000/svg" xmlns:xlink="http://www.w3.org/1999/xlink" width="400" height="400" viewBox="0, 0, 400,400"><g id="svgg">
    <path id="path0" d="M185.814 46.292 C 184.374 46.658,182.478 48.954,182.234 50.628 C 182.047 51.915,182.071 52.002,182.366 51.108 C 182.699 50.100,182.943 49.744,184.281 48.314 C 185.268 47.259,186.087 46.707,187.128 46.392 C 188.330 46.029,187.191 45.943,185.814 46.292 M301.539 46.426 C 302.716 46.793,303.404 47.370,305.236 49.528 C 305.483 49.819,305.844 50.539,306.039 51.128 C 306.323 51.985,306.349 51.885,306.166 50.628 C 305.858 48.515,303.883 46.541,301.772 46.236 L 300.200 46.009 301.539 46.426 M181.029 61.029 C 180.249 61.809,180.230 62.040,180.969 61.757 C 181.282 61.636,181.636 61.282,181.757 60.969 C 182.040 60.230,181.809 60.249,181.029 61.029 M306.651 60.989 C 306.767 61.291,307.109 61.633,307.411 61.749 C 307.757 61.882,307.882 61.757,307.749 61.411 C 307.633 61.109,307.291 60.767,306.989 60.651 C 306.643 60.518,306.518 60.643,306.651 60.989 M153.814 62.292 C 152.374 62.658,150.478 64.954,150.234 66.628 C 150.047 67.915,150.071 68.002,150.366 67.108 C 150.699 66.100,150.943 65.744,152.281 64.314 C 153.268 63.259,154.087 62.707,155.128 62.392 C 156.330 62.029,155.191 61.943,153.814 62.292 M333.272 62.361 C 334.319 62.707,335.149 63.277,336.119 64.314 C 337.457 65.744,337.701 66.100,338.034 67.108 C 338.329 68.002,338.353 67.915,338.166 66.628 C 337.858 64.517,335.883 62.542,333.772 62.234 C 332.515 62.051,332.415 62.077,333.272 62.361 M149.029 77.029 C 148.249 77.809,148.230 78.040,148.969 77.757 C 149.282 77.636,149.636 77.282,149.757 76.969 C 150.040 76.230,149.809 76.249,149.029 77.029 M338.651 76.989 C 338.767 77.291,339.109 77.633,339.411 77.749 C 339.757 77.882,339.882 77.757,339.749 77.411 C 339.633 77.109,339.291 76.767,338.989 76.651 C 338.643 76.518,338.518 76.643,338.651 76.989 M129.814 78.292 C 128.374 78.658,126.478 80.954,126.234 82.628 C 126.047 83.915,126.071 84.002,126.366 83.108 C 126.699 82.100,126.943 81.744,128.281 80.314 C 129.268 79.259,130.087 78.707,131.128 78.392 C 132.330 78.029,131.191 77.943,129.814 78.292 M357.272 78.361 C 358.319 78.707,359.149 79.277,360.119 80.314 C 361.457 81.744,361.701 82.100,362.034 83.108 C 362.329 84.002,362.353 83.915,362.166 82.628 C 361.858 80.517,359.883 78.542,357.772 78.234 C 356.515 78.051,356.415 78.077,357.272 78.361 M155.782 84.102 C 155.676 84.379,155.639 90.545,155.700 97.803 L 155.811 111.000 155.906 97.500 L 156.000 84.000 244.195 84.000 L 332.389 84.000 332.503 97.400 L 332.616 110.800 332.608 97.300 L 332.600 83.800 244.288 83.699 C 173.565 83.618,155.937 83.699,155.782 84.102 M125.029 93.029 C 124.249 93.809,124.230 94.040,124.969 93.757 C 125.282 93.636,125.636 93.282,125.757 92.969 C 126.040 92.230,125.809 92.249,125.029 93.029 M65.814 94.292 C 64.374 94.658,62.478 96.954,62.234 98.628 C 62.047 99.915,62.071 100.002,62.366 99.108 C 62.699 98.100,62.943 97.744,64.281 96.314 C 65.268 95.259,66.087 94.707,67.128 94.392 C 68.330 94.029,67.191 93.943,65.814 94.292 M62.234 109.772 C 62.542 111.883,64.517 113.858,66.628 114.166 C 67.915 114.353,68.002 114.329,67.108 114.034 C 66.100 113.701,65.744 113.457,64.314 112.119 C 63.277 111.149,62.707 110.319,62.361 109.272 C 62.077 108.415,62.051 108.515,62.234 109.772 M156.000 121.396 L 156.000 130.392 237.529 130.496 C 314.562 130.594,319.096 130.639,319.757 131.300 C 320.142 131.685,320.714 132.000,321.029 132.000 C 321.505 132.000,321.600 133.360,321.600 140.200 L 321.600 148.400 327.000 148.400 L 332.400 148.400 332.400 130.400 L 332.400 112.400 244.200 112.400 L 156.000 112.400 156.000 121.396 M108.651 114.989 C 108.767 115.291,109.109 115.633,109.411 115.749 C 109.757 115.882,109.882 115.757,109.749 115.411 C 109.633 115.109,109.291 114.767,108.989 114.651 C 108.643 114.518,108.518 114.643,108.651 114.989 M110.234 125.772 C 110.385 126.810,110.903 127.783,111.760 128.640 C 112.617 129.497,113.590 130.015,114.628 130.166 C 115.915 130.353,116.002 130.329,115.108 130.034 C 114.100 129.701,113.744 129.457,112.314 128.119 C 111.277 127.149,110.707 126.319,110.361 125.272 C 110.077 124.415,110.051 124.515,110.234 125.772 M124.651 130.989 C 124.767 131.291,125.109 131.633,125.411 131.749 C 125.757 131.882,125.882 131.757,125.749 131.411 C 125.633 131.109,125.291 130.767,124.989 130.651 C 124.643 130.518,124.518 130.643,124.651 130.989 M362.000 149.139 C 362.000 150.518,359.227 153.392,357.272 154.039 C 356.415 154.323,356.515 154.349,357.772 154.166 C 359.785 153.873,361.834 151.891,362.213 149.872 C 362.365 149.062,362.379 148.400,362.245 148.400 C 362.110 148.400,362.000 148.732,362.000 149.139 M172.000 157.600 L 172.000 164.400 178.400 164.400 L 184.800 164.400 184.798 160.500 C 184.795 154.991,183.464 151.600,181.304 151.600 C 181.027 151.600,180.800 151.420,180.800 151.200 C 180.800 150.958,179.067 150.800,176.400 150.800 L 172.000 150.800 172.000 157.600 M339.029 155.029 C 338.249 155.809,338.230 156.040,338.969 155.757 C 339.282 155.636,339.636 155.282,339.757 154.969 C 340.040 154.230,339.809 154.249,339.029 155.029 M126.234 165.772 C 126.385 166.810,126.903 167.783,127.760 168.640 C 128.617 169.497,129.590 170.015,130.628 170.166 C 131.915 170.353,132.002 170.329,131.108 170.034 C 130.100 169.701,129.744 169.457,128.314 168.119 C 127.277 167.149,126.707 166.319,126.361 165.272 C 126.077 164.415,126.051 164.515,126.234 165.772 M260.000 174.000 L 260.000 180.400 280.200 180.400 L 300.400 180.400 300.400 174.000 L 300.400 167.600 280.200 167.600 L 260.000 167.600 260.000 174.000 M148.651 170.989 C 148.767 171.291,149.109 171.633,149.411 171.749 C 149.757 171.882,149.882 171.757,149.749 171.411 C 149.633 171.109,149.291 170.767,148.989 170.651 C 148.643 170.518,148.518 170.643,148.651 170.989 M188.000 176.200 L 188.000 180.400 208.200 180.400 L 228.400 180.400 228.400 176.200 L 228.400 172.000 208.200 172.000 L 188.000 172.000 188.000 176.200 M150.234 181.772 C 150.385 182.810,150.903 183.783,151.760 184.640 C 152.617 185.497,153.590 186.015,154.628 186.166 C 155.915 186.353,156.002 186.329,155.108 186.034 C 154.100 185.701,153.744 185.457,152.314 184.119 C 151.277 183.149,150.707 182.319,150.361 181.272 C 150.077 180.415,150.051 180.515,150.234 181.772 M338.000 181.139 C 338.000 182.518,335.227 185.392,333.272 186.039 C 332.415 186.323,332.515 186.349,333.772 186.166 C 335.785 185.873,337.834 183.891,338.213 181.872 C 338.365 181.062,338.379 180.400,338.245 180.400 C 338.110 180.400,338.000 180.732,338.000 181.139 M164.651 186.989 C 164.767 187.291,165.109 187.633,165.411 187.749 C 165.757 187.882,165.882 187.757,165.749 187.411 C 165.633 187.109,165.291 186.767,164.989 186.651 C 164.643 186.518,164.518 186.643,164.651 186.989 M235.029 187.029 C 234.249 187.809,234.230 188.040,234.969 187.757 C 235.282 187.636,235.636 187.282,235.757 186.969 C 236.040 186.230,235.809 186.249,235.029 187.029 M252.651 186.989 C 252.767 187.291,253.109 187.633,253.411 187.749 C 253.757 187.882,253.882 187.757,253.749 187.411 C 253.633 187.109,253.291 186.767,252.989 186.651 C 252.643 186.518,252.518 186.643,252.651 186.989 M323.029 187.029 C 322.249 187.809,322.230 188.040,322.969 187.757 C 323.282 187.636,323.636 187.282,323.757 186.969 C 324.040 186.230,323.809 186.249,323.029 187.029 M166.234 197.772 C 166.385 198.810,166.903 199.783,167.760 200.640 C 168.617 201.497,169.590 202.015,170.628 202.166 C 171.915 202.353,172.002 202.329,171.108 202.034 C 170.100 201.701,169.744 201.457,168.314 200.119 C 167.277 199.149,166.707 198.319,166.361 197.272 C 166.077 196.415,166.051 196.515,166.234 197.772 M234.000 197.139 C 234.000 198.518,231.227 201.392,229.272 202.039 C 228.415 202.323,228.515 202.349,229.772 202.166 C 231.785 201.873,233.834 199.891,234.213 197.872 C 234.365 197.062,234.379 196.400,234.245 196.400 C 234.110 196.400,234.000 196.732,234.000 197.139 M254.280 197.930 C 254.557 200.130,258.771 203.363,259.895 202.238 C 260.026 202.107,259.742 202.000,259.263 202.000 C 258.784 202.000,258.084 201.640,257.707 201.200 C 257.330 200.760,256.814 200.400,256.560 200.400 C 256.305 200.400,255.873 199.860,255.600 199.200 C 255.327 198.540,254.957 198.000,254.779 198.000 C 254.601 198.000,254.378 197.685,254.284 197.300 C 254.189 196.915,254.187 197.199,254.280 197.930 M322.000 197.139 C 322.000 198.518,319.227 201.392,317.272 202.039 C 316.415 202.323,316.515 202.349,317.772 202.166 C 319.785 201.873,321.834 199.891,322.213 197.872 C 322.365 197.062,322.379 196.400,322.245 196.400 C 322.110 196.400,322.000 196.732,322.000 197.139 " stroke="none" fill="#bcd4ec" fill-rule="evenodd"></path>
    <path id="path1" d="M187.128 46.392 C 185.830 46.784,185.192 47.284,183.272 49.413 C 182.357 50.428,182.000 52.466,182.000 56.669 C 182.000 62.454,183.135 62.000,168.669 62.000 C 154.151 62.000,154.392 61.953,151.272 65.413 C 150.357 66.428,150.000 68.466,150.000 72.669 C 150.000 78.320,150.560 78.000,140.669 78.000 C 132.693 78.000,130.556 78.242,129.413 79.272 C 126.270 82.106,126.000 82.849,126.000 88.669 C 126.000 94.630,129.465 94.000,96.669 94.000 C 64.611 94.000,66.526 93.804,63.272 97.413 C 61.502 99.377,61.502 109.023,63.272 110.987 C 66.478 114.543,65.417 114.400,88.669 114.400 C 112.298 114.400,110.000 113.826,110.000 119.731 C 110.000 123.934,110.357 125.972,111.272 126.987 C 114.106 130.130,114.849 130.400,120.669 130.400 C 126.528 130.400,126.000 128.685,126.000 147.731 C 126.000 163.324,126.161 165.754,127.272 166.987 C 130.302 170.347,130.509 170.400,140.669 170.400 C 150.560 170.400,150.000 170.080,150.000 175.731 C 150.000 179.934,150.357 181.972,151.272 182.987 C 154.106 186.130,154.849 186.400,160.669 186.400 C 165.998 186.400,166.000 186.402,166.000 191.731 C 166.000 195.934,166.357 197.972,167.272 198.987 C 170.524 202.593,168.659 202.400,200.200 202.400 C 227.065 202.400,229.697 202.291,230.987 201.128 C 234.130 198.294,234.400 197.551,234.400 191.731 C 234.400 186.061,233.783 186.399,244.129 186.406 C 254.555 186.414,253.749 185.931,254.010 192.324 C 254.177 196.392,254.361 197.618,254.884 198.141 C 255.249 198.506,255.662 199.164,255.801 199.602 C 255.940 200.041,256.317 200.400,256.640 200.400 C 256.962 200.400,257.327 200.666,257.452 200.992 C 257.945 202.276,260.568 202.396,288.203 202.398 C 315.068 202.400,317.696 202.291,318.987 201.128 C 322.130 198.294,322.400 197.551,322.400 191.731 C 322.400 188.561,322.539 187.518,323.029 187.029 C 323.518 186.539,324.561 186.400,327.731 186.400 C 331.934 186.400,333.972 186.043,334.987 185.128 C 338.447 182.008,338.400 182.249,338.400 167.731 C 338.400 152.800,337.280 154.400,347.731 154.400 C 355.707 154.400,357.844 154.158,358.987 153.128 C 362.612 149.859,362.400 152.151,362.400 116.200 C 362.400 85.404,362.302 82.715,361.128 81.413 C 358.098 78.053,357.891 78.000,347.731 78.000 C 337.840 78.000,338.400 78.320,338.400 72.669 C 338.400 68.466,338.043 66.428,337.128 65.413 C 334.008 61.953,334.249 62.000,319.731 62.000 C 305.265 62.000,306.400 62.454,306.400 56.669 C 306.400 52.598,306.055 50.496,305.227 49.519 C 303.396 47.358,302.711 46.813,301.349 46.435 C 299.498 45.921,188.827 45.879,187.128 46.392 M300.400 49.136 C 300.400 49.320,300.850 49.677,301.400 49.927 C 301.950 50.178,302.400 50.637,302.400 50.949 C 302.400 51.260,302.655 51.612,302.966 51.732 C 303.399 51.898,303.563 53.071,303.666 56.742 L 303.800 61.536 305.333 63.068 L 306.866 64.600 319.526 64.717 C 330.119 64.814,332.240 64.928,332.513 65.417 C 332.693 65.737,333.105 66.000,333.430 66.000 C 333.754 66.000,334.191 66.450,334.400 67.000 C 334.609 67.550,334.965 68.000,335.190 68.000 C 335.445 68.000,335.600 69.662,335.600 72.400 C 335.600 75.067,335.442 76.800,335.200 76.800 C 334.980 76.800,334.800 77.076,334.800 77.414 C 334.800 77.752,334.509 78.472,334.154 79.014 L 333.508 80.000 244.200 80.000 L 154.892 80.000 154.246 79.014 C 153.891 78.472,153.600 77.752,153.600 77.414 C 153.600 77.076,153.420 76.800,153.200 76.800 C 152.958 76.800,152.800 75.067,152.800 72.400 C 152.800 69.662,152.955 68.000,153.210 68.000 C 153.435 68.000,153.791 67.550,154.000 67.000 C 154.209 66.450,154.646 66.000,154.970 66.000 C 155.295 66.000,155.707 65.737,155.887 65.417 C 156.160 64.928,158.281 64.814,168.874 64.717 L 181.534 64.600 183.067 63.068 L 184.600 61.536 184.735 56.868 C 184.836 53.375,185.013 52.120,185.435 51.880 C 185.746 51.704,186.000 51.295,186.000 50.970 C 186.000 50.646,186.450 50.209,187.000 50.000 C 187.550 49.791,188.000 49.435,188.000 49.210 C 188.000 48.932,206.095 48.800,244.200 48.800 C 275.110 48.800,300.400 48.951,300.400 49.136 M148.800 81.200 C 148.800 81.420,149.076 81.600,149.414 81.600 C 149.752 81.600,150.472 81.891,151.014 82.246 L 152.000 82.892 152.000 115.451 C 152.000 149.880,151.935 148.644,153.845 150.555 C 155.469 152.178,156.277 152.400,160.566 152.400 L 164.743 152.400 166.272 153.840 L 167.800 155.280 168.000 160.154 L 168.200 165.028 169.786 166.614 L 171.372 168.200 176.186 168.400 L 181.000 168.600 182.400 169.983 L 183.800 171.365 184.000 176.197 L 184.200 181.028 185.786 182.614 L 187.373 184.200 208.725 184.310 L 230.077 184.420 230.526 185.610 C 230.773 186.265,231.116 186.800,231.288 186.800 C 231.459 186.800,231.600 188.960,231.600 191.600 C 231.600 194.611,231.447 196.400,231.190 196.400 C 230.965 196.400,230.609 196.850,230.400 197.400 C 230.191 197.950,229.740 198.400,229.397 198.400 C 229.055 198.400,228.671 198.670,228.545 199.000 C 228.260 199.741,172.000 199.930,172.000 199.190 C 172.000 198.965,171.550 198.609,171.000 198.400 C 170.450 198.191,170.000 197.754,170.000 197.430 C 170.000 197.105,169.746 196.696,169.435 196.520 C 169.013 196.280,168.836 195.025,168.735 191.532 L 168.600 186.864 167.068 185.332 L 165.536 183.800 160.868 183.665 C 157.375 183.564,156.120 183.387,155.880 182.965 C 155.704 182.654,155.295 182.400,154.970 182.400 C 154.646 182.400,154.209 181.950,154.000 181.400 C 153.791 180.850,153.450 180.400,153.243 180.400 C 153.036 180.400,152.807 178.254,152.733 175.632 L 152.600 170.864 151.067 169.332 L 149.535 167.800 140.767 167.678 C 135.450 167.605,132.000 167.404,132.000 167.168 C 132.000 166.955,131.550 166.609,131.000 166.400 C 130.450 166.191,130.000 165.754,130.000 165.430 C 130.000 165.105,129.736 164.692,129.413 164.511 C 128.914 164.232,128.809 161.671,128.713 147.524 L 128.600 130.866 127.068 129.333 L 125.536 127.800 120.868 127.665 C 117.375 127.564,116.120 127.387,115.880 126.965 C 115.704 126.654,115.295 126.400,114.970 126.400 C 114.646 126.400,114.209 125.950,114.000 125.400 C 113.791 124.850,113.450 124.400,113.243 124.400 C 113.036 124.400,112.807 122.254,112.733 119.632 L 112.600 114.864 111.067 113.332 L 109.534 111.800 88.877 111.689 C 71.176 111.595,68.173 111.494,67.890 110.989 C 67.709 110.665,67.295 110.400,66.970 110.400 C 66.646 110.400,66.209 109.950,66.000 109.400 C 65.791 108.850,65.435 108.400,65.210 108.400 C 64.956 108.400,64.800 106.801,64.800 104.200 C 64.800 101.599,64.956 100.000,65.210 100.000 C 65.435 100.000,65.791 99.550,66.000 99.000 C 66.209 98.450,66.646 98.000,66.970 98.000 C 67.295 98.000,67.709 97.734,67.892 97.408 C 68.179 96.895,72.069 96.801,96.878 96.708 L 125.534 96.600 127.067 95.068 L 128.600 93.536 128.735 88.868 C 128.836 85.375,129.013 84.120,129.435 83.880 C 129.746 83.704,130.000 83.295,130.000 82.970 C 130.000 82.646,130.450 82.209,131.000 82.000 C 131.550 81.791,132.000 81.435,132.000 81.210 C 132.000 80.943,134.931 80.800,140.400 80.800 C 145.733 80.800,148.800 80.946,148.800 81.200 M356.545 81.400 C 356.671 81.730,357.055 82.000,357.397 82.000 C 357.740 82.000,358.191 82.450,358.400 83.000 C 358.609 83.550,358.965 84.000,359.190 84.000 C 359.467 84.000,359.600 94.482,359.600 116.200 C 359.600 137.918,359.467 148.400,359.190 148.400 C 358.965 148.400,358.609 148.850,358.400 149.400 C 358.191 149.950,357.740 150.400,357.397 150.400 C 357.055 150.400,356.671 150.670,356.545 151.000 C 356.293 151.656,338.800 151.939,338.800 151.288 C 338.800 151.116,338.260 150.772,337.600 150.522 L 336.400 150.069 336.400 116.481 L 336.400 82.892 337.386 82.246 C 337.928 81.891,338.648 81.600,338.986 81.600 C 339.324 81.600,339.600 81.420,339.600 81.200 C 339.600 80.479,356.267 80.676,356.545 81.400 M332.603 84.006 C 332.741 84.229,332.724 98.809,332.565 116.406 L 332.276 148.400 326.938 148.400 L 321.600 148.400 321.600 140.200 C 321.600 133.360,321.505 132.000,321.029 132.000 C 320.714 132.000,320.142 131.685,319.757 131.300 C 319.096 130.639,314.565 130.594,237.593 130.496 L 156.130 130.392 155.865 115.696 C 155.527 96.879,155.528 84.206,155.867 83.867 C 156.323 83.410,332.321 83.549,332.603 84.006 M180.800 151.200 C 180.800 151.420,181.027 151.600,181.304 151.600 C 183.464 151.600,184.795 154.991,184.798 160.500 L 184.800 164.400 178.400 164.400 L 172.000 164.400 172.000 157.600 L 172.000 150.800 176.400 150.800 C 179.067 150.800,180.800 150.958,180.800 151.200 M334.522 153.600 C 334.772 154.260,335.116 154.800,335.288 154.800 C 335.459 154.800,335.600 160.560,335.600 167.600 C 335.600 176.073,335.461 180.400,335.190 180.400 C 334.965 180.400,334.609 180.850,334.400 181.400 C 334.191 181.950,333.754 182.400,333.430 182.400 C 333.105 182.400,332.696 182.654,332.520 182.965 C 332.280 183.387,331.025 183.564,327.532 183.665 L 322.864 183.800 321.332 185.332 L 319.800 186.864 319.665 191.532 C 319.564 195.025,319.387 196.280,318.965 196.520 C 318.654 196.696,318.400 197.105,318.400 197.430 C 318.400 197.754,317.950 198.191,317.400 198.400 C 316.850 198.609,316.400 198.965,316.400 199.190 C 316.400 199.930,260.140 199.741,259.855 199.000 C 259.729 198.670,259.363 198.400,259.042 198.400 C 257.090 198.400,256.352 187.199,258.139 184.715 C 258.173 184.669,267.838 184.534,279.617 184.415 L 301.035 184.200 302.617 182.663 L 304.200 181.126 304.400 176.203 L 304.600 171.280 306.128 169.840 L 307.657 168.400 311.834 168.400 C 316.107 168.400,316.907 168.183,318.555 166.575 C 320.044 165.122,320.367 163.900,320.485 159.271 C 320.574 155.749,320.733 154.668,321.200 154.406 C 321.530 154.221,322.233 153.694,322.761 153.235 C 323.629 152.481,324.224 152.400,328.896 152.400 L 334.069 152.400 334.522 153.600 M300.400 174.000 L 300.400 180.400 280.200 180.400 L 260.000 180.400 260.000 174.000 L 260.000 167.600 280.200 167.600 L 300.400 167.600 300.400 174.000 M253.600 169.200 C 254.107 169.640,254.646 170.000,254.797 170.000 C 255.557 170.000,256.000 172.445,256.000 176.645 C 256.000 181.517,255.664 182.800,254.386 182.800 C 253.954 182.800,253.600 182.980,253.600 183.200 C 253.600 183.455,250.200 183.600,244.200 183.600 C 239.030 183.600,234.800 183.459,234.800 183.288 C 234.800 183.116,234.260 182.772,233.600 182.522 L 232.400 182.069 232.400 176.897 C 232.400 171.957,232.445 171.672,233.400 170.562 C 233.949 169.923,234.399 169.278,234.400 169.129 C 234.401 168.044,252.343 168.110,253.600 169.200 M228.400 176.200 L 228.400 180.400 208.200 180.400 L 188.000 180.400 188.000 176.200 L 188.000 172.000 208.200 172.000 L 228.400 172.000 228.400 176.200 " stroke="none" fill="#b4ccec" fill-rule="evenodd"></path>
    <path id="path3" d="M188.000 49.210 C 188.000 49.435,187.550 49.791,187.000 50.000 C 186.450 50.209,186.000 50.646,186.000 50.970 C 186.000 51.295,185.746 51.704,185.435 51.880 C 185.013 52.120,184.836 53.375,184.735 56.868 L 184.600 61.536 183.067 63.068 L 181.534 64.600 168.874 64.717 C 158.281 64.814,156.160 64.928,155.887 65.417 C 155.707 65.737,155.295 66.000,154.970 66.000 C 154.646 66.000,154.209 66.450,154.000 67.000 C 153.791 67.550,153.435 68.000,153.210 68.000 C 152.955 68.000,152.800 69.662,152.800 72.400 C 152.800 75.067,152.958 76.800,153.200 76.800 C 153.420 76.800,153.600 77.076,153.600 77.414 C 153.600 77.752,153.891 78.472,154.246 79.014 L 154.892 80.000 244.200 80.000 L 333.508 80.000 334.154 79.014 C 334.509 78.472,334.800 77.752,334.800 77.414 C 334.800 77.076,334.980 76.800,335.200 76.800 C 335.442 76.800,335.600 75.067,335.600 72.400 C 335.600 69.662,335.445 68.000,335.190 68.000 C 334.965 68.000,334.609 67.550,334.400 67.000 C 334.191 66.450,333.754 66.000,333.430 66.000 C 333.105 66.000,332.693 65.737,332.513 65.417 C 332.240 64.928,330.119 64.814,319.526 64.717 L 306.866 64.600 305.333 63.068 L 303.800 61.536 303.666 56.742 C 303.563 53.071,303.399 51.898,302.966 51.732 C 302.655 51.612,302.400 51.260,302.400 50.949 C 302.400 50.637,301.950 50.178,301.400 49.927 C 300.850 49.677,300.400 49.320,300.400 49.136 C 300.400 48.951,275.110 48.800,244.200 48.800 C 206.095 48.800,188.000 48.932,188.000 49.210 M132.000 81.210 C 132.000 81.435,131.550 81.791,131.000 82.000 C 130.450 82.209,130.000 82.646,130.000 82.970 C 130.000 83.295,129.746 83.704,129.435 83.880 C 129.013 84.120,128.836 85.375,128.735 88.868 L 128.600 93.536 127.067 95.068 L 125.534 96.600 96.878 96.708 C 72.069 96.801,68.179 96.895,67.892 97.408 C 67.709 97.734,67.295 98.000,66.970 98.000 C 66.646 98.000,66.209 98.450,66.000 99.000 C 65.791 99.550,65.435 100.000,65.210 100.000 C 64.956 100.000,64.800 101.599,64.800 104.200 C 64.800 106.801,64.956 108.400,65.210 108.400 C 65.435 108.400,65.791 108.850,66.000 109.400 C 66.209 109.950,66.646 110.400,66.970 110.400 C 67.295 110.400,67.709 110.665,67.890 110.989 C 68.173 111.494,71.176 111.595,88.877 111.689 L 109.534 111.800 111.067 113.332 L 112.600 114.864 112.733 119.632 C 112.807 122.254,113.036 124.400,113.243 124.400 C 113.450 124.400,113.791 124.850,114.000 125.400 C 114.209 125.950,114.646 126.400,114.970 126.400 C 115.295 126.400,115.704 126.654,115.880 126.965 C 116.120 127.387,117.375 127.564,120.868 127.665 L 125.536 127.800 127.068 129.333 L 128.600 130.866 128.713 147.524 C 128.809 161.671,128.914 164.232,129.413 164.511 C 129.736 164.692,130.000 165.105,130.000 165.430 C 130.000 165.754,130.450 166.191,131.000 166.400 C 131.550 166.609,132.000 166.955,132.000 167.168 C 132.000 167.404,135.450 167.605,140.767 167.678 L 149.535 167.800 151.067 169.332 L 152.600 170.864 152.733 175.632 C 152.807 178.254,153.036 180.400,153.243 180.400 C 153.450 180.400,153.791 180.850,154.000 181.400 C 154.209 181.950,154.646 182.400,154.970 182.400 C 155.295 182.400,155.704 182.654,155.880 182.965 C 156.120 183.387,157.375 183.564,160.868 183.665 L 165.536 183.800 167.068 185.332 L 168.600 186.864 168.735 191.532 C 168.836 195.025,169.013 196.280,169.435 196.520 C 169.746 196.696,170.000 197.105,170.000 197.430 C 170.000 197.754,170.450 198.191,171.000 198.400 C 171.550 198.609,172.000 198.965,172.000 199.190 C 172.000 199.930,228.260 199.741,228.545 199.000 C 228.671 198.670,229.055 198.400,229.397 198.400 C 229.740 198.400,230.191 197.950,230.400 197.400 C 230.609 196.850,230.965 196.400,231.190 196.400 C 231.447 196.400,231.600 194.611,231.600 191.600 C 231.600 188.960,231.459 186.800,231.288 186.800 C 231.116 186.800,230.773 186.265,230.526 185.610 L 230.077 184.420 208.725 184.310 L 187.373 184.200 185.786 182.614 L 184.200 181.028 184.000 176.197 L 183.800 171.365 182.400 169.983 L 181.000 168.600 176.186 168.400 L 171.372 168.200 169.786 166.614 L 168.200 165.028 168.000 160.154 L 167.800 155.280 166.272 153.840 L 164.743 152.400 160.566 152.400 C 156.277 152.400,155.469 152.178,153.845 150.555 C 151.935 148.644,152.000 149.880,152.000 115.451 L 152.000 82.892 151.014 82.246 C 150.472 81.891,149.752 81.600,149.414 81.600 C 149.076 81.600,148.800 81.420,148.800 81.200 C 148.800 80.946,145.733 80.800,140.400 80.800 C 134.931 80.800,132.000 80.943,132.000 81.210 M339.600 81.200 C 339.600 81.420,339.324 81.600,338.986 81.600 C 338.648 81.600,337.928 81.891,337.386 82.246 L 336.400 82.892 336.400 116.481 L 336.400 150.069 337.600 150.522 C 338.260 150.772,338.800 151.116,338.800 151.288 C 338.800 151.939,356.293 151.656,356.545 151.000 C 356.671 150.670,357.055 150.400,357.397 150.400 C 357.740 150.400,358.191 149.950,358.400 149.400 C 358.609 148.850,358.965 148.400,359.190 148.400 C 359.467 148.400,359.600 137.918,359.600 116.200 C 359.600 94.482,359.467 84.000,359.190 84.000 C 358.965 84.000,358.609 83.550,358.400 83.000 C 358.191 82.450,357.740 82.000,357.397 82.000 C 357.055 82.000,356.671 81.730,356.545 81.400 C 356.267 80.676,339.600 80.479,339.600 81.200 M322.761 153.235 C 322.233 153.694,321.530 154.221,321.200 154.406 C 320.733 154.668,320.574 155.749,320.485 159.271 C 320.367 163.900,320.044 165.122,318.555 166.575 C 316.907 168.183,316.107 168.400,311.834 168.400 L 307.657 168.400 306.128 169.840 L 304.600 171.280 304.400 176.203 L 304.200 181.126 302.617 182.663 L 301.035 184.200 279.617 184.415 C 267.838 184.534,258.173 184.669,258.139 184.715 C 256.352 187.199,257.090 198.400,259.042 198.400 C 259.363 198.400,259.729 198.670,259.855 199.000 C 260.140 199.741,316.400 199.930,316.400 199.190 C 316.400 198.965,316.850 198.609,317.400 198.400 C 317.950 198.191,318.400 197.754,318.400 197.430 C 318.400 197.105,318.654 196.696,318.965 196.520 C 319.387 196.280,319.564 195.025,319.665 191.532 L 319.800 186.864 321.332 185.332 L 322.864 183.800 327.532 183.665 C 331.025 183.564,332.280 183.387,332.520 182.965 C 332.696 182.654,333.105 182.400,333.430 182.400 C 333.754 182.400,334.191 181.950,334.400 181.400 C 334.609 180.850,334.965 180.400,335.190 180.400 C 335.461 180.400,335.600 176.073,335.600 167.600 C 335.600 160.560,335.459 154.800,335.288 154.800 C 335.116 154.800,334.772 154.260,334.522 153.600 L 334.069 152.400 328.896 152.400 C 324.224 152.400,323.629 152.481,322.761 153.235 M235.100 168.676 C 234.715 168.776,234.400 168.980,234.400 169.129 C 234.399 169.278,233.949 169.923,233.400 170.562 C 232.445 171.672,232.400 171.957,232.400 176.897 L 232.400 182.069 233.600 182.522 C 234.260 182.772,234.800 183.116,234.800 183.288 C 234.800 183.459,239.030 183.600,244.200 183.600 C 250.200 183.600,253.600 183.455,253.600 183.200 C 253.600 182.980,253.954 182.800,254.386 182.800 C 255.664 182.800,256.000 181.517,256.000 176.645 C 256.000 172.445,255.557 170.000,254.797 170.000 C 254.646 170.000,254.107 169.640,253.600 169.200 C 252.713 168.431,237.668 168.005,235.100 168.676 " stroke="none" fill="#0c0c0c" fill-rule="evenodd"></path><path id="path4" d="M186.400 45.200 C 186.400 45.420,186.098 45.600,185.728 45.600 C 183.382 45.600,181.600 47.382,181.600 49.728 C 181.600 50.098,181.425 50.400,181.212 50.400 C 180.987 50.400,180.777 52.548,180.712 55.500 L 180.600 60.600 167.500 60.705 C 159.226 60.772,154.400 60.956,154.400 61.205 C 154.400 61.422,154.098 61.600,153.728 61.600 C 151.382 61.600,149.600 63.382,149.600 65.728 C 149.600 66.098,149.425 66.400,149.212 66.400 C 148.987 66.400,148.777 68.548,148.712 71.500 L 148.600 76.600 139.500 76.708 C 133.889 76.774,130.400 76.966,130.400 77.208 C 130.400 77.423,130.098 77.600,129.728 77.600 C 127.382 77.600,125.600 79.382,125.600 81.728 C 125.600 82.098,125.425 82.400,125.212 82.400 C 124.987 82.400,124.777 84.548,124.712 87.500 L 124.600 92.600 95.500 92.703 C 76.563 92.769,66.400 92.944,66.400 93.203 C 66.400 93.421,66.098 93.600,65.728 93.600 C 63.382 93.600,61.600 95.382,61.600 97.728 C 61.600 98.098,61.420 98.400,61.200 98.400 C 60.952 98.400,60.800 100.600,60.800 104.200 C 60.800 107.800,60.952 110.000,61.200 110.000 C 61.420 110.000,61.600 110.302,61.600 110.672 C 61.600 113.018,63.382 114.800,65.728 114.800 C 66.098 114.800,66.400 114.978,66.400 115.196 C 66.400 115.452,73.895 115.630,87.500 115.696 L 108.600 115.800 108.712 120.900 C 108.777 123.852,108.987 126.000,109.212 126.000 C 109.425 126.000,109.600 126.302,109.600 126.672 C 109.600 129.018,111.382 130.800,113.728 130.800 C 114.098 130.800,114.400 130.975,114.400 131.188 C 114.400 131.413,116.548 131.623,119.500 131.688 L 124.600 131.800 124.704 148.900 C 124.771 159.839,124.951 166.000,125.204 166.000 C 125.422 166.000,125.600 166.302,125.600 166.672 C 125.600 169.018,127.382 170.800,129.728 170.800 C 130.098 170.800,130.400 170.977,130.400 171.192 C 130.400 171.434,133.889 171.626,139.500 171.692 L 148.600 171.800 148.712 176.900 C 148.777 179.852,148.987 182.000,149.212 182.000 C 149.425 182.000,149.600 182.302,149.600 182.672 C 149.600 185.018,151.382 186.800,153.728 186.800 C 154.098 186.800,154.400 186.975,154.400 187.188 C 154.400 187.413,156.548 187.623,159.500 187.688 L 164.600 187.800 164.712 192.900 C 164.777 195.852,164.987 198.000,165.212 198.000 C 165.425 198.000,165.600 198.302,165.600 198.672 C 165.600 201.018,167.382 202.800,169.728 202.800 C 170.098 202.800,170.400 202.980,170.400 203.200 C 170.400 203.463,180.600 203.600,200.200 203.600 C 219.800 203.600,230.000 203.463,230.000 203.200 C 230.000 202.980,230.302 202.800,230.672 202.800 C 233.018 202.800,234.800 201.018,234.800 198.672 C 234.800 198.302,234.975 198.000,235.188 198.000 C 235.413 198.000,235.623 195.852,235.688 192.900 L 235.800 187.800 244.200 187.800 L 252.600 187.800 252.712 192.900 C 252.777 195.852,252.987 198.000,253.212 198.000 C 253.425 198.000,253.600 198.302,253.600 198.672 C 253.600 201.018,255.382 202.800,257.728 202.800 C 258.098 202.800,258.400 202.980,258.400 203.200 C 258.400 203.463,268.600 203.600,288.200 203.600 C 307.800 203.600,318.000 203.463,318.000 203.200 C 318.000 202.980,318.302 202.800,318.672 202.800 C 321.018 202.800,322.800 201.018,322.800 198.672 C 322.800 198.302,322.975 198.000,323.188 198.000 C 323.413 198.000,323.623 195.852,323.688 192.900 L 323.800 187.800 328.900 187.688 C 331.852 187.623,334.000 187.413,334.000 187.188 C 334.000 186.975,334.302 186.800,334.672 186.800 C 337.018 186.800,338.800 185.018,338.800 182.672 C 338.800 182.302,338.978 182.000,339.195 182.000 C 339.444 182.000,339.628 177.174,339.695 168.900 L 339.800 155.800 348.900 155.692 C 354.511 155.626,358.000 155.434,358.000 155.192 C 358.000 154.977,358.302 154.800,358.672 154.800 C 361.018 154.800,362.800 153.018,362.800 150.672 C 362.800 150.302,362.980 150.000,363.200 150.000 C 363.464 150.000,363.600 138.467,363.600 116.200 C 363.600 93.933,363.464 82.400,363.200 82.400 C 362.980 82.400,362.800 82.098,362.800 81.728 C 362.800 79.382,361.018 77.600,358.672 77.600 C 358.302 77.600,358.000 77.423,358.000 77.208 C 358.000 76.966,354.511 76.774,348.900 76.708 L 339.800 76.600 339.688 71.500 C 339.623 68.548,339.413 66.400,339.188 66.400 C 338.975 66.400,338.800 66.098,338.800 65.728 C 338.800 63.382,337.018 61.600,334.672 61.600 C 334.302 61.600,334.000 61.422,334.000 61.205 C 334.000 60.956,329.174 60.772,320.900 60.705 L 307.800 60.600 307.688 55.500 C 307.623 52.548,307.413 50.400,307.188 50.400 C 306.975 50.400,306.800 50.098,306.800 49.728 C 306.800 47.382,305.018 45.600,302.672 45.600 C 302.302 45.600,302.000 45.420,302.000 45.200 C 302.000 44.935,282.467 44.800,244.200 44.800 C 205.933 44.800,186.400 44.935,186.400 45.200 M304.640 47.759 L 306.200 49.319 306.342 54.756 C 306.546 62.623,305.100 61.931,321.666 62.080 L 335.081 62.200 336.641 63.759 L 338.200 65.319 338.342 70.756 C 338.542 78.435,337.731 77.911,349.659 78.073 L 359.082 78.200 360.641 79.760 L 362.200 81.320 362.200 116.200 L 362.200 151.080 360.641 152.640 L 359.082 154.200 349.659 154.327 C 337.099 154.497,338.473 152.639,338.320 169.666 L 338.200 183.081 336.641 184.641 L 335.081 186.200 329.644 186.342 C 322.339 186.532,322.532 186.339,322.342 193.644 L 322.200 199.081 320.640 200.641 L 319.080 202.200 289.440 202.318 C 256.397 202.449,257.810 202.525,255.719 200.496 L 254.200 199.021 254.059 193.624 C 253.859 185.992,254.435 186.414,244.200 186.414 C 233.960 186.414,234.541 185.987,234.341 193.654 L 234.200 199.081 232.640 200.641 L 231.080 202.200 200.200 202.200 L 169.320 202.200 167.760 200.641 L 166.200 199.081 166.058 193.644 C 165.868 186.339,166.061 186.532,158.756 186.342 L 153.319 186.200 151.759 184.641 L 150.200 183.081 150.058 177.644 C 149.858 169.965,150.669 170.489,138.741 170.327 L 129.318 170.200 127.759 168.640 L 126.200 167.081 126.084 149.670 C 125.942 128.458,126.735 130.549,118.756 130.342 L 113.319 130.200 111.759 128.641 L 110.200 127.081 110.058 121.644 C 109.929 116.658,109.843 116.134,109.026 115.317 L 108.136 114.427 86.728 114.313 L 65.319 114.200 63.760 112.640 L 62.200 111.080 62.200 104.200 L 62.200 97.320 63.760 95.760 L 65.320 94.200 94.724 94.090 L 124.129 93.980 125.023 93.086 C 125.844 92.265,125.928 91.748,126.058 86.756 L 126.200 81.319 127.759 79.759 L 129.318 78.200 138.741 78.073 C 150.669 77.911,149.858 78.435,150.058 70.756 L 150.200 65.319 151.759 63.759 L 153.319 62.200 166.734 62.080 C 183.300 61.931,181.854 62.623,182.058 54.756 L 182.200 49.319 183.614 47.905 C 185.577 45.943,180.767 46.082,244.840 46.144 L 303.080 46.200 304.640 47.759 M156.000 98.200 L 156.000 112.400 244.200 112.400 L 332.400 112.400 332.400 98.200 L 332.400 84.000 244.200 84.000 L 156.000 84.000 156.000 98.200 " stroke="none" fill="#ccdcf4" fill-rule="evenodd"></path></g></svg>