<svg
        name="man_43"
        id="man_43"
        version="1.2"
        xmlns="http://www.w3.org/2000/svg" xmlns:xlink="http://www.w3.org/1999/xlink"
        width="400"
        height="400"
        viewBox="0, 0, 400, 400">
        <g id="svgg">
            <path id="path0"
                    d="M0.000 200.000 L 0.000 400.000 15.973 400.000 L 31.946 400.000 32.073 393.468 L 32.200 386.936 33.568 385.568 L 34.937 384.200 43.568 384.085 C 49.972 384.000,52.303 383.838,52.600 383.460 C 52.820 383.180,53.319 382.831,53.709 382.684 C 54.099 382.538,54.538 382.099,54.684 381.709 C 54.831 381.319,55.175 380.820,55.450 380.600 C 55.783 380.333,55.991 378.656,56.075 375.568 L 56.200 370.936 57.568 369.568 L 58.936 368.200 63.568 368.075 C 66.656 367.991,68.333 367.783,68.600 367.450 C 68.820 367.175,69.319 366.831,69.709 366.684 C 70.099 366.538,70.538 366.099,70.684 365.709 C 70.831 365.319,71.188 364.820,71.479 364.600 C 71.915 364.270,71.990 349.391,71.904 279.800 L 71.800 195.400 70.400 194.008 L 69.000 192.615 63.969 192.408 L 58.938 192.200 57.569 190.831 L 56.200 189.462 56.200 164.200 L 56.200 138.938 57.569 137.569 L 58.938 136.200 63.969 135.992 L 69.000 135.785 70.400 134.392 L 71.800 133.000 72.000 75.969 L 72.200 18.938 73.568 17.569 L 74.937 16.200 87.968 16.000 L 101.000 15.800 102.400 14.400 C 103.818 12.982,104.423 6.891,103.188 6.467 C 102.975 6.393,102.800 4.908,102.800 3.167 L 102.800 0.000 51.400 0.000 L 0.000 0.000 0.000 200.000 M329.600 3.167 C 329.600 5.344,329.444 6.385,329.100 6.500 C 328.716 6.628,328.600 9.256,328.600 17.833 L 328.600 29.000 330.000 30.392 L 331.400 31.785 336.431 31.992 L 341.462 32.200 342.831 33.568 L 344.200 34.936 344.400 43.968 L 344.600 53.000 346.000 54.400 L 347.400 55.800 356.432 56.000 L 365.464 56.200 366.832 57.569 L 368.200 58.938 368.200 212.200 L 368.200 365.462 366.832 366.831 L 365.464 368.200 356.432 368.400 L 347.400 368.600 346.008 370.000 L 344.615 371.400 344.408 376.431 L 344.200 381.462 342.831 382.831 L 341.462 384.200 336.376 384.400 C 331.140 384.606,329.668 385.184,329.613 387.057 C 329.606 387.309,329.330 387.618,329.000 387.745 C 328.503 387.935,328.400 389.012,328.400 393.987 L 328.400 400.000 364.200 400.000 L 400.000 400.000 400.000 200.000 L 400.000 0.000 364.800 0.000 L 329.600 0.000 329.600 3.167 "
                    stroke="none"
                    fill="#c8bfb6"
                    fill-rule="evenodd"></path><path id="path1"
                    d="M139.526 35.607 C 138.943 36.248,138.835 37.622,138.722 45.874 C 138.532 59.711,140.042 58.559,121.880 58.720 C 109.144 58.833,108.316 58.884,107.588 59.612 C 106.838 60.362,106.813 61.444,106.708 97.892 C 106.591 138.439,106.676 136.935,104.456 138.035 C 103.799 138.360,101.306 138.619,97.861 138.718 C 89.915 138.948,90.800 135.754,90.800 164.200 C 90.800 192.646,89.915 189.452,97.861 189.682 C 104.035 189.860,105.261 190.229,106.073 192.152 C 106.504 193.173,106.600 210.665,106.600 288.200 C 106.600 365.735,106.504 383.227,106.073 384.248 C 105.261 386.171,104.035 386.540,97.861 386.718 C 90.478 386.932,90.800 386.590,90.800 394.200 L 90.800 400.000 192.200 400.000 L 293.600 400.000 293.600 385.226 C 293.600 364.152,292.300 365.600,311.219 365.600 C 327.306 365.600,325.507 366.978,325.678 354.526 C 325.856 341.575,325.604 341.940,334.539 341.682 C 339.318 341.543,340.183 341.417,340.839 340.761 C 342.035 339.565,342.035 76.835,340.839 75.639 C 340.183 74.983,339.318 74.857,334.539 74.718 C 326.127 74.475,325.925 74.273,325.682 65.861 C 325.472 58.604,325.796 58.928,318.539 58.718 C 309.604 58.460,309.856 58.825,309.678 45.874 C 309.557 37.088,309.487 36.287,308.774 35.574 C 307.586 34.386,140.608 34.419,139.526 35.607 M222.800 101.200 C 222.800 101.420,223.025 101.606,223.300 101.613 C 223.575 101.621,224.250 102.001,224.800 102.459 L 225.800 103.291 225.800 111.660 C 225.800 117.249,225.655 120.124,225.365 120.315 C 224.242 121.051,224.000 124.609,224.000 140.357 C 224.000 153.218,223.896 156.423,223.470 156.680 C 223.178 156.856,222.822 157.319,222.679 157.709 C 222.535 158.099,222.099 158.535,221.709 158.679 C 221.319 158.822,220.856 159.178,220.680 159.470 C 220.194 160.275,196.069 160.246,195.760 159.439 C 195.641 159.131,195.198 158.788,194.774 158.677 C 194.351 158.567,193.882 158.144,193.732 157.738 C 193.583 157.332,193.222 156.856,192.930 156.680 C 192.504 156.423,192.400 153.218,192.400 140.357 C 192.400 124.609,192.158 121.050,191.035 120.315 C 190.446 119.928,190.434 106.086,191.023 105.687 C 191.255 105.529,191.686 104.807,191.979 104.081 C 192.273 103.356,193.027 102.496,193.656 102.171 C 194.285 101.846,194.800 101.404,194.800 101.190 C 194.800 100.944,199.979 100.800,208.800 100.800 C 217.867 100.800,222.800 100.941,222.800 101.200 M310.800 101.200 C 310.800 101.420,311.025 101.606,311.300 101.613 C 311.575 101.621,312.250 102.001,312.800 102.459 L 313.800 103.291 313.800 111.660 C 313.800 117.249,313.655 120.124,313.365 120.315 C 312.242 121.051,312.000 124.609,312.000 140.357 C 312.000 153.218,311.896 156.423,311.470 156.680 C 311.178 156.856,310.822 157.319,310.679 157.709 C 310.535 158.099,310.099 158.535,309.709 158.679 C 309.319 158.822,308.856 159.178,308.680 159.470 C 308.194 160.275,284.069 160.246,283.760 159.439 C 283.641 159.131,283.199 158.789,282.777 158.678 C 282.355 158.568,281.832 158.010,281.615 157.439 C 281.398 156.867,281.041 156.400,280.823 156.400 C 280.568 156.400,280.378 150.402,280.293 139.700 C 280.165 123.462,279.766 118.000,278.708 118.000 C 278.539 118.000,278.400 115.480,278.400 112.400 C 278.400 109.320,278.538 106.800,278.706 106.800 C 278.874 106.800,279.321 105.930,279.699 104.867 C 280.216 103.411,280.732 102.747,281.793 102.176 C 282.567 101.759,283.200 101.279,283.200 101.109 C 283.200 100.939,289.410 100.800,297.000 100.800 C 305.933 100.800,310.800 100.941,310.800 101.200 M278.315 191.040 C 278.472 191.282,279.005 191.694,279.500 191.954 C 279.995 192.215,280.400 192.627,280.400 192.870 C 280.400 193.113,280.715 193.542,281.100 193.824 C 281.712 194.271,281.800 195.076,281.800 200.200 C 281.800 205.324,281.712 206.129,281.100 206.576 C 280.715 206.858,280.400 207.287,280.400 207.530 C 280.400 207.773,279.995 208.185,279.500 208.446 C 279.005 208.706,278.472 209.118,278.315 209.360 C 277.765 210.207,242.430 209.954,241.952 209.100 C 241.737 208.715,241.295 208.400,240.970 208.400 C 240.646 208.400,240.216 207.969,240.016 207.442 C 239.816 206.915,239.415 206.405,239.126 206.309 C 238.221 206.007,238.383 194.465,239.300 193.952 C 239.685 193.737,240.000 193.295,240.000 192.970 C 240.000 192.646,240.450 192.209,241.000 192.000 C 241.550 191.791,242.000 191.448,242.000 191.238 C 242.000 190.351,277.743 190.157,278.315 191.040 M132.680 280.930 C 132.856 281.222,133.319 281.578,133.709 281.721 C 134.099 281.865,134.538 282.301,134.684 282.691 C 134.831 283.081,135.210 283.595,135.527 283.832 C 136.605 284.641,136.012 293.588,134.800 294.800 C 133.588 296.012,124.641 296.605,123.832 295.527 C 123.595 295.210,123.081 294.831,122.691 294.684 C 122.301 294.538,121.865 294.099,121.721 293.709 C 121.578 293.319,121.222 292.856,120.930 292.680 C 120.544 292.447,120.400 291.227,120.400 288.200 C 120.400 285.173,120.544 283.953,120.930 283.720 C 121.222 283.544,121.578 283.081,121.721 282.691 C 121.865 282.301,122.301 281.865,122.691 281.721 C 123.081 281.578,123.544 281.222,123.720 280.930 C 123.953 280.544,125.173 280.400,128.200 280.400 C 131.227 280.400,132.447 280.544,132.680 280.930 M172.640 296.961 C 172.759 297.269,173.202 297.612,173.626 297.723 C 174.049 297.833,174.518 298.256,174.668 298.662 C 174.817 299.068,175.178 299.544,175.470 299.720 C 176.224 300.175,176.224 308.225,175.470 308.680 C 175.178 308.856,174.822 309.319,174.679 309.709 C 174.535 310.099,174.099 310.535,173.709 310.679 C 173.319 310.822,172.856 311.178,172.680 311.470 C 172.192 312.278,140.070 312.249,139.760 311.439 C 139.641 311.131,139.198 310.788,138.774 310.677 C 138.351 310.567,137.879 310.144,137.727 309.738 C 137.574 309.332,137.190 308.805,136.873 308.568 C 134.832 307.037,136.825 297.152,139.268 296.686 C 141.992 296.168,172.432 296.418,172.640 296.961 M220.680 328.930 C 220.856 329.222,221.319 329.578,221.709 329.721 C 222.099 329.865,222.538 330.301,222.684 330.691 C 222.831 331.081,223.175 331.580,223.450 331.800 C 223.783 332.067,223.991 333.744,224.075 336.832 L 224.200 341.464 225.569 342.832 L 226.938 344.200 259.798 344.400 C 290.241 344.585,292.708 344.651,293.348 345.291 C 293.729 345.671,294.256 346.121,294.520 346.291 C 295.808 347.119,296.000 348.425,296.000 356.345 L 296.000 364.300 294.832 364.534 C 294.139 364.672,293.559 365.099,293.405 365.584 C 293.263 366.033,292.978 366.400,292.773 366.400 C 292.568 366.400,292.400 366.760,292.400 367.200 C 292.400 368.253,212.163 368.491,211.760 367.439 C 211.641 367.131,211.198 366.788,210.774 366.677 C 210.351 366.567,209.882 366.144,209.732 365.738 C 209.583 365.332,209.222 364.856,208.930 364.680 C 208.149 364.209,208.149 332.191,208.930 331.720 C 209.222 331.544,209.578 331.081,209.721 330.691 C 209.865 330.301,210.301 329.865,210.691 329.721 C 211.081 329.578,211.544 329.222,211.720 328.930 C 211.953 328.544,213.173 328.400,216.200 328.400 C 219.227 328.400,220.447 328.544,220.680 328.930 "
                    stroke="none"
                    fill="#dc8c44"
                    fill-rule="evenodd"></path><path id="path2"
                    d="M107.892 12.598 C 107.669 17.128,107.647 17.215,106.364 18.498 L 105.062 19.800 90.540 19.931 L 76.018 20.061 75.909 78.561 L 75.800 137.062 74.458 138.403 L 73.117 139.745 66.558 139.924 L 60.000 140.104 60.000 164.200 L 60.000 188.296 66.558 188.476 L 73.117 188.655 74.458 189.997 L 75.800 191.338 75.800 279.884 C 75.800 342.483,75.674 368.513,75.371 368.715 C 75.135 368.872,74.824 369.319,74.680 369.709 C 74.536 370.099,74.099 370.536,73.709 370.680 C 73.319 370.824,72.886 371.111,72.747 371.318 C 72.608 371.525,69.708 371.789,66.303 371.903 L 60.111 372.111 59.903 378.303 C 59.789 381.708,59.525 384.608,59.318 384.747 C 59.111 384.886,58.824 385.319,58.680 385.709 C 58.536 386.099,58.099 386.536,57.709 386.680 C 57.319 386.824,56.872 387.134,56.716 387.368 C 56.532 387.645,52.846 387.846,46.216 387.941 L 36.000 388.088 36.000 394.044 L 36.000 400.000 60.400 400.000 L 84.800 400.000 84.800 392.800 C 84.800 388.267,84.948 385.600,85.200 385.600 C 85.420 385.600,85.600 385.142,85.600 384.582 C 85.600 383.271,87.271 381.600,88.582 381.600 C 89.142 381.600,89.600 381.425,89.600 381.211 C 89.600 380.984,91.883 380.776,95.100 380.711 L 100.600 380.600 100.598 360.500 C 100.597 349.445,100.552 307.938,100.498 268.262 L 100.400 196.124 94.332 195.875 C 90.994 195.738,88.159 195.465,88.032 195.267 C 87.904 195.069,87.404 194.784,86.920 194.633 C 86.437 194.483,85.917 193.963,85.767 193.480 C 85.616 192.996,85.291 192.472,85.046 192.315 C 84.725 192.109,84.600 184.232,84.600 164.200 C 84.600 144.168,84.725 136.291,85.046 136.085 C 85.291 135.928,85.616 135.404,85.767 134.920 C 85.917 134.437,86.437 133.917,86.920 133.767 C 87.404 133.616,87.904 133.331,88.032 133.133 C 88.159 132.935,90.986 132.662,94.313 132.525 L 100.363 132.277 100.481 94.324 C 100.567 66.962,100.724 56.291,101.046 56.085 C 101.291 55.928,101.616 55.404,101.767 54.920 C 101.917 54.437,102.437 53.917,102.920 53.767 C 103.404 53.616,103.928 53.291,104.085 53.046 C 104.283 52.736,108.643 52.557,118.334 52.458 L 132.297 52.317 132.476 42.327 C 132.589 36.000,132.808 32.239,133.073 32.069 C 133.304 31.921,133.616 31.404,133.767 30.920 C 133.917 30.437,134.437 29.917,134.920 29.767 C 135.404 29.616,135.928 29.291,136.085 29.046 C 136.494 28.408,311.906 28.408,312.315 29.046 C 312.472 29.291,312.996 29.616,313.480 29.767 C 313.963 29.917,314.483 30.437,314.633 30.920 C 314.784 31.404,315.096 31.921,315.327 32.069 C 315.592 32.239,315.811 35.994,315.924 42.308 L 316.102 52.280 322.119 52.527 C 325.429 52.663,328.241 52.935,328.368 53.133 C 328.496 53.331,328.996 53.616,329.480 53.767 C 329.963 53.917,330.483 54.437,330.633 54.920 C 330.784 55.404,331.069 55.904,331.267 56.032 C 331.465 56.159,331.737 58.967,331.873 62.272 L 332.119 68.281 338.128 68.527 C 341.433 68.663,344.241 68.935,344.368 69.133 C 344.496 69.331,344.996 69.616,345.480 69.767 C 345.963 69.917,346.483 70.437,346.633 70.920 C 346.784 71.404,347.109 71.928,347.354 72.085 C 347.681 72.294,347.800 108.729,347.800 208.200 C 347.800 307.671,347.681 344.106,347.354 344.315 C 347.109 344.472,346.784 344.996,346.633 345.480 C 346.483 345.963,345.963 346.483,345.480 346.633 C 344.996 346.784,344.496 347.069,344.368 347.267 C 344.241 347.465,341.429 347.737,338.119 347.873 L 332.102 348.120 331.924 358.092 C 331.811 364.406,331.592 368.161,331.327 368.331 C 331.096 368.479,330.784 368.996,330.633 369.480 C 330.483 369.963,329.963 370.483,329.480 370.633 C 328.996 370.784,328.472 371.109,328.315 371.354 C 328.117 371.663,323.759 371.843,314.076 371.942 L 300.122 372.083 299.862 378.342 C 299.719 381.784,299.602 388.065,299.601 392.300 L 299.600 400.000 311.947 400.000 L 324.293 400.000 324.478 391.637 L 324.664 383.275 325.974 381.965 L 327.283 380.655 333.791 380.477 L 340.299 380.299 340.477 373.791 L 340.655 367.283 341.996 365.942 L 343.338 364.600 353.869 364.461 L 364.400 364.322 364.400 212.200 L 364.400 60.078 353.869 59.939 L 343.338 59.800 341.969 58.431 L 340.600 57.062 340.462 46.582 L 340.323 36.102 333.803 35.923 L 327.283 35.745 325.942 34.404 L 324.600 33.062 324.466 20.531 L 324.331 8.000 216.225 8.000 L 108.119 8.000 107.892 12.598 "
                    stroke="none"
                    fill="#040404"
                    fill-rule="evenodd"></path><path id="path3"
                    d="M105.600 6.367 C 105.600 9.868,105.465 12.793,105.300 12.867 C 105.135 12.940,104.695 13.660,104.323 14.466 C 103.844 15.502,103.229 16.083,102.223 16.446 C 101.440 16.729,100.800 17.105,100.800 17.280 C 100.800 17.456,95.234 17.600,88.431 17.600 L 76.062 17.600 74.831 18.831 L 73.600 20.062 73.600 76.397 C 73.600 107.382,73.465 132.793,73.300 132.867 C 73.135 132.940,72.695 133.660,72.323 134.466 C 71.844 135.502,71.229 136.083,70.223 136.446 C 69.440 136.729,68.800 137.105,68.800 137.280 C 68.800 137.456,66.834 137.600,64.431 137.600 C 60.085 137.600,60.055 137.607,58.831 138.831 L 57.600 140.062 57.600 164.200 L 57.600 188.338 58.831 189.569 C 60.054 190.792,60.089 190.800,64.397 190.800 C 66.782 190.800,68.793 190.935,68.867 191.100 C 68.940 191.265,69.660 191.705,70.466 192.077 C 71.502 192.556,72.083 193.171,72.446 194.177 C 72.729 194.960,73.105 195.600,73.280 195.600 C 73.686 195.600,73.705 364.687,73.300 364.867 C 73.135 364.940,72.695 365.660,72.323 366.466 C 71.844 367.502,71.229 368.083,70.223 368.446 C 69.440 368.729,68.800 369.105,68.800 369.280 C 68.800 369.456,66.834 369.600,64.431 369.600 C 58.193 369.600,57.600 370.190,57.600 376.397 C 57.600 378.782,57.465 380.793,57.300 380.867 C 57.135 380.940,56.695 381.660,56.323 382.466 C 55.844 383.502,55.229 384.083,54.223 384.446 C 53.440 384.729,52.800 385.105,52.800 385.280 C 52.800 385.456,49.034 385.600,44.431 385.600 L 36.062 385.600 34.831 386.831 L 33.600 388.062 33.600 394.031 L 33.600 400.000 34.800 400.000 L 36.000 400.000 36.000 394.044 L 36.000 388.088 46.216 387.941 C 52.846 387.846,56.532 387.645,56.716 387.368 C 56.872 387.134,57.319 386.824,57.709 386.680 C 58.099 386.536,58.536 386.099,58.680 385.709 C 58.824 385.319,59.111 384.886,59.318 384.747 C 59.525 384.608,59.789 381.708,59.903 378.303 L 60.111 372.111 66.303 371.903 C 69.708 371.789,72.608 371.525,72.747 371.318 C 72.886 371.111,73.319 370.824,73.709 370.680 C 74.099 370.536,74.536 370.099,74.680 369.709 C 74.824 369.319,75.135 368.872,75.371 368.715 C 75.674 368.513,75.800 342.483,75.800 279.884 L 75.800 191.338 74.458 189.997 L 73.117 188.655 66.558 188.476 L 60.000 188.296 60.000 164.200 L 60.000 140.104 66.558 139.924 L 73.117 139.745 74.458 138.403 L 75.800 137.062 75.909 78.561 L 76.018 20.061 90.540 19.931 L 105.062 19.800 106.364 18.498 C 107.647 17.215,107.669 17.128,107.892 12.598 L 108.119 8.000 216.225 8.000 L 324.331 8.000 324.466 20.531 L 324.600 33.062 325.942 34.404 L 327.283 35.745 333.803 35.923 L 340.323 36.102 340.462 46.582 L 340.600 57.062 341.969 58.431 L 343.338 59.800 353.869 59.939 L 364.400 60.078 364.400 212.200 L 364.400 364.322 353.869 364.461 L 343.338 364.600 341.996 365.942 L 340.655 367.283 340.477 373.791 L 340.299 380.299 333.791 380.477 L 327.283 380.655 325.974 381.965 L 324.664 383.275 324.478 391.637 L 324.293 400.000 325.547 400.000 L 326.800 400.000 326.800 393.800 C 326.800 390.390,326.944 387.600,327.120 387.600 C 327.295 387.600,327.671 386.960,327.954 386.177 C 328.317 385.171,328.898 384.556,329.934 384.077 C 330.740 383.705,331.460 383.265,331.533 383.100 C 331.607 382.935,333.618 382.800,336.003 382.800 C 342.210 382.800,342.800 382.207,342.800 375.969 C 342.800 373.566,342.944 371.600,343.120 371.600 C 343.295 371.600,343.671 370.960,343.954 370.177 C 344.317 369.171,344.898 368.556,345.934 368.077 C 346.740 367.705,347.460 367.265,347.533 367.100 C 347.607 366.935,351.418 366.800,356.003 366.800 L 364.338 366.800 365.569 365.569 L 366.800 364.338 366.800 212.200 L 366.800 60.062 365.569 58.831 L 364.338 57.600 356.003 57.600 C 351.418 57.600,347.607 57.465,347.533 57.300 C 347.460 57.135,346.740 56.695,345.934 56.323 C 344.898 55.844,344.317 55.229,343.954 54.223 C 343.671 53.440,343.295 52.800,343.120 52.800 C 342.944 52.800,342.800 49.034,342.800 44.431 L 342.800 36.062 341.569 34.831 C 340.346 33.608,340.311 33.600,336.003 33.600 C 333.618 33.600,331.607 33.465,331.533 33.300 C 331.460 33.135,330.740 32.695,329.934 32.323 C 328.898 31.844,328.317 31.229,327.954 30.223 C 327.671 29.440,327.295 28.800,327.120 28.800 C 326.944 28.800,326.800 22.320,326.800 14.400 L 326.800 0.000 216.200 0.000 L 105.600 0.000 105.600 6.367 M138.100 28.690 C 136.945 28.774,136.000 28.993,136.000 29.178 C 136.000 29.362,135.562 29.623,135.027 29.758 C 134.491 29.892,133.927 30.406,133.773 30.901 C 133.618 31.395,133.304 31.921,133.073 32.069 C 132.808 32.239,132.589 36.000,132.476 42.327 L 132.297 52.317 118.334 52.458 C 108.643 52.557,104.283 52.736,104.085 53.046 C 103.928 53.291,103.404 53.616,102.920 53.767 C 102.437 53.917,101.917 54.437,101.767 54.920 C 101.616 55.404,101.291 55.928,101.046 56.085 C 100.724 56.291,100.567 66.962,100.481 94.324 L 100.363 132.277 94.313 132.525 C 90.986 132.662,88.159 132.935,88.032 133.133 C 87.904 133.331,87.404 133.616,86.920 133.767 C 86.437 133.917,85.917 134.437,85.767 134.920 C 85.616 135.404,85.291 135.928,85.046 136.085 C 84.411 136.491,84.411 191.909,85.046 192.315 C 85.291 192.472,85.616 192.996,85.767 193.480 C 85.917 193.963,86.437 194.483,86.920 194.633 C 87.404 194.784,87.904 195.069,88.032 195.267 C 88.159 195.465,90.994 195.738,94.332 195.875 L 100.400 196.124 100.498 268.262 C 100.552 307.938,100.597 349.445,100.598 360.500 L 100.600 380.600 95.100 380.711 C 91.883 380.776,89.600 380.984,89.600 381.211 C 89.600 381.425,89.142 381.600,88.582 381.600 C 87.271 381.600,85.600 383.271,85.600 384.582 C 85.600 385.142,85.420 385.600,85.200 385.600 C 84.948 385.600,84.800 388.267,84.800 392.800 L 84.800 400.000 86.372 400.000 L 87.945 400.000 88.072 393.686 L 88.200 387.371 89.786 385.786 L 91.372 384.200 96.186 384.000 L 101.000 383.800 102.503 382.236 L 104.005 380.672 103.903 288.036 L 103.800 195.400 102.400 194.000 L 101.000 192.600 96.800 192.489 C 90.989 192.335,89.843 191.895,88.448 189.290 C 87.815 188.107,87.815 140.293,88.448 139.110 C 89.843 136.505,90.989 136.065,96.800 135.911 L 101.000 135.800 102.400 134.400 L 103.800 133.000 104.007 96.000 C 104.121 75.650,104.256 58.969,104.307 58.931 C 104.400 58.861,106.800 56.472,106.931 56.319 C 106.969 56.274,112.850 56.139,120.000 56.019 L 133.000 55.800 134.400 54.400 L 135.800 53.000 135.903 44.800 C 136.032 34.616,136.189 34.012,139.110 32.448 C 140.307 31.808,308.093 31.808,309.290 32.448 C 312.211 34.012,312.368 34.616,312.497 44.800 L 312.600 53.000 314.000 54.400 L 315.400 55.800 319.600 55.911 C 327.500 56.121,328.279 56.900,328.489 64.800 L 328.600 69.000 330.000 70.400 L 331.400 71.800 335.600 71.911 C 341.411 72.065,342.557 72.505,343.952 75.110 C 344.593 76.309,344.593 340.091,343.952 341.290 C 342.557 343.895,341.411 344.335,335.600 344.489 L 331.400 344.600 330.000 346.000 L 328.600 347.400 328.497 355.600 C 328.379 364.933,328.357 365.098,327.073 366.483 C 325.324 368.371,325.100 368.400,312.291 368.400 L 300.129 368.400 298.664 369.651 C 297.859 370.339,297.200 371.149,297.200 371.451 C 297.200 371.753,297.020 372.000,296.800 372.000 C 296.541 372.000,296.400 376.933,296.400 386.000 L 296.400 400.000 298.000 400.000 L 299.600 400.000 299.601 392.300 C 299.602 388.065,299.719 381.784,299.862 378.342 L 300.122 372.083 314.076 371.942 C 323.759 371.843,328.117 371.663,328.315 371.354 C 328.472 371.109,328.996 370.784,329.480 370.633 C 329.963 370.483,330.483 369.963,330.633 369.480 C 330.784 368.996,331.096 368.479,331.327 368.331 C 331.592 368.161,331.811 364.406,331.924 358.092 L 332.102 348.120 338.119 347.873 C 341.429 347.737,344.241 347.465,344.368 347.267 C 344.496 347.069,344.996 346.784,345.480 346.633 C 345.963 346.483,346.483 345.963,346.633 345.480 C 346.784 344.996,347.109 344.472,347.354 344.315 C 347.992 343.906,347.992 72.494,347.354 72.085 C 347.109 71.928,346.784 71.404,346.633 70.920 C 346.483 70.437,345.963 69.917,345.480 69.767 C 344.996 69.616,344.496 69.331,344.368 69.133 C 344.241 68.935,341.433 68.663,338.128 68.527 L 332.119 68.281 331.873 62.272 C 331.737 58.967,331.465 56.159,331.267 56.032 C 331.069 55.904,330.784 55.404,330.633 54.920 C 330.483 54.437,329.963 53.917,329.480 53.767 C 328.996 53.616,328.496 53.331,328.368 53.133 C 328.241 52.935,325.429 52.663,322.119 52.527 L 316.102 52.280 315.924 42.308 C 315.811 35.994,315.592 32.239,315.327 32.069 C 315.096 31.921,314.784 31.404,314.633 30.920 C 314.483 30.437,313.963 29.917,313.480 29.767 C 312.996 29.616,312.472 29.291,312.315 29.046 C 312.045 28.625,143.780 28.281,138.100 28.690 "
                    stroke="none"
                    fill="#141414"
                    fill-rule="evenodd"></path><path id="path4"
                    d="M194.800 101.190 C 194.800 101.404,194.285 101.846,193.656 102.171 C 193.027 102.496,192.273 103.356,191.979 104.081 C 191.686 104.807,191.255 105.529,191.023 105.687 C 190.434 106.086,190.446 119.928,191.035 120.315 C 192.158 121.050,192.400 124.609,192.400 140.357 C 192.400 153.218,192.504 156.423,192.930 156.680 C 193.222 156.856,193.583 157.332,193.732 157.738 C 193.882 158.144,194.351 158.567,194.774 158.677 C 195.198 158.788,195.641 159.131,195.760 159.439 C 196.069 160.246,220.194 160.275,220.680 159.470 C 220.856 159.178,221.319 158.822,221.709 158.679 C 222.099 158.535,222.535 158.099,222.679 157.709 C 222.822 157.319,223.178 156.856,223.470 156.680 C 223.896 156.423,224.000 153.218,224.000 140.357 C 224.000 124.609,224.242 121.051,225.365 120.315 C 225.655 120.124,225.800 117.249,225.800 111.660 L 225.800 103.291 224.800 102.459 C 224.250 102.001,223.575 101.621,223.300 101.613 C 223.025 101.606,222.800 101.420,222.800 101.200 C 222.800 100.941,217.867 100.800,208.800 100.800 C 199.979 100.800,194.800 100.944,194.800 101.190 M283.200 101.109 C 283.200 101.279,282.567 101.759,281.793 102.176 C 280.732 102.747,280.216 103.411,279.699 104.867 C 279.321 105.930,278.874 106.800,278.706 106.800 C 278.538 106.800,278.400 109.320,278.400 112.400 C 278.400 115.480,278.539 118.000,278.708 118.000 C 279.766 118.000,280.165 123.462,280.293 139.700 C 280.378 150.402,280.568 156.400,280.823 156.400 C 281.041 156.400,281.398 156.867,281.615 157.439 C 281.832 158.010,282.355 158.568,282.777 158.678 C 283.199 158.789,283.641 159.131,283.760 159.439 C 284.069 160.246,308.194 160.275,308.680 159.470 C 308.856 159.178,309.319 158.822,309.709 158.679 C 310.099 158.535,310.535 158.099,310.679 157.709 C 310.822 157.319,311.178 156.856,311.470 156.680 C 311.896 156.423,312.000 153.218,312.000 140.357 C 312.000 124.609,312.242 121.051,313.365 120.315 C 313.655 120.124,313.800 117.249,313.800 111.660 L 313.800 103.291 312.800 102.459 C 312.250 102.001,311.575 101.621,311.300 101.613 C 311.025 101.606,310.800 101.420,310.800 101.200 C 310.800 100.941,305.933 100.800,297.000 100.800 C 289.410 100.800,283.200 100.939,283.200 101.109 M242.900 190.676 C 242.405 190.775,242.000 191.028,242.000 191.238 C 242.000 191.448,241.550 191.791,241.000 192.000 C 240.450 192.209,240.000 192.646,240.000 192.970 C 240.000 193.295,239.685 193.737,239.300 193.952 C 238.383 194.465,238.221 206.007,239.126 206.309 C 239.415 206.405,239.816 206.915,240.016 207.442 C 240.216 207.969,240.646 208.400,240.970 208.400 C 241.295 208.400,241.737 208.715,241.952 209.100 C 242.430 209.954,277.765 210.207,278.315 209.360 C 278.472 209.118,279.005 208.706,279.500 208.446 C 279.995 208.185,280.400 207.773,280.400 207.530 C 280.400 207.287,280.715 206.858,281.100 206.576 C 281.712 206.129,281.800 205.324,281.800 200.200 C 281.800 195.076,281.712 194.271,281.100 193.824 C 280.715 193.542,280.400 193.113,280.400 192.870 C 280.400 192.627,279.995 192.215,279.500 191.954 C 279.005 191.694,278.472 191.282,278.315 191.040 C 278.033 190.605,244.961 190.265,242.900 190.676 M123.720 280.930 C 123.544 281.222,123.081 281.578,122.691 281.721 C 122.301 281.865,121.865 282.301,121.721 282.691 C 121.578 283.081,121.222 283.544,120.930 283.720 C 120.544 283.953,120.400 285.173,120.400 288.200 C 120.400 291.227,120.544 292.447,120.930 292.680 C 121.222 292.856,121.578 293.319,121.721 293.709 C 121.865 294.099,122.301 294.538,122.691 294.684 C 123.081 294.831,123.595 295.210,123.832 295.527 C 124.641 296.605,133.588 296.012,134.800 294.800 C 136.012 293.588,136.605 284.641,135.527 283.832 C 135.210 283.595,134.831 283.081,134.684 282.691 C 134.538 282.301,134.099 281.865,133.709 281.721 C 133.319 281.578,132.856 281.222,132.680 280.930 C 132.447 280.544,131.227 280.400,128.200 280.400 C 125.173 280.400,123.953 280.544,123.720 280.930 M139.268 296.686 C 136.825 297.152,134.832 307.037,136.873 308.568 C 137.190 308.805,137.574 309.332,137.727 309.738 C 137.879 310.144,138.351 310.567,138.774 310.677 C 139.198 310.788,139.641 311.131,139.760 311.439 C 140.070 312.249,172.192 312.278,172.680 311.470 C 172.856 311.178,173.319 310.822,173.709 310.679 C 174.099 310.535,174.535 310.099,174.679 309.709 C 174.822 309.319,175.178 308.856,175.470 308.680 C 176.224 308.225,176.224 300.175,175.470 299.720 C 175.178 299.544,174.817 299.068,174.668 298.662 C 174.518 298.256,174.049 297.833,173.626 297.723 C 173.202 297.612,172.759 297.269,172.640 296.961 C 172.432 296.418,141.992 296.168,139.268 296.686 M211.720 328.930 C 211.544 329.222,211.081 329.578,210.691 329.721 C 210.301 329.865,209.865 330.301,209.721 330.691 C 209.578 331.081,209.222 331.544,208.930 331.720 C 208.149 332.191,208.149 364.209,208.930 364.680 C 209.222 364.856,209.583 365.332,209.732 365.738 C 209.882 366.144,210.351 366.567,210.774 366.677 C 211.198 366.788,211.641 367.131,211.760 367.439 C 212.163 368.491,292.400 368.253,292.400 367.200 C 292.400 366.760,292.568 366.400,292.773 366.400 C 292.978 366.400,293.263 366.033,293.405 365.584 C 293.559 365.099,294.139 364.672,294.832 364.534 L 296.000 364.300 296.000 356.345 C 296.000 348.425,295.808 347.119,294.520 346.291 C 294.256 346.121,293.729 345.671,293.348 345.291 C 292.708 344.651,290.241 344.585,259.798 344.400 L 226.938 344.200 225.569 342.832 L 224.200 341.464 224.075 336.832 C 223.991 333.744,223.783 332.067,223.450 331.800 C 223.175 331.580,222.831 331.081,222.684 330.691 C 222.538 330.301,222.099 329.865,221.709 329.721 C 221.319 329.578,220.856 329.222,220.680 328.930 C 220.447 328.544,219.227 328.400,216.200 328.400 C 213.173 328.400,211.953 328.544,211.720 328.930 "
                    stroke="none"
                    fill="#dc8c4c"
                    fill-rule="evenodd"></path><path id="path5"
                    d=""
                    stroke="none"
                    fill="#f04824"
                    fill-rule="evenodd"></path><path id="path6"
                    d="M102.800 3.167 C 102.800 4.908,102.975 6.393,103.188 6.467 C 104.423 6.891,103.818 12.982,102.400 14.400 L 101.000 15.800 87.968 16.000 L 74.937 16.200 73.568 17.569 L 72.200 18.938 72.000 75.969 L 71.800 133.000 70.400 134.392 L 69.000 135.785 63.969 135.992 L 58.938 136.200 57.569 137.569 L 56.200 138.938 56.200 164.200 L 56.200 189.462 57.569 190.831 L 58.938 192.200 63.969 192.408 L 69.000 192.615 70.400 194.008 L 71.800 195.400 71.904 279.800 C 71.990 349.391,71.915 364.270,71.479 364.600 C 71.188 364.820,70.831 365.319,70.684 365.709 C 70.538 366.099,70.099 366.538,69.709 366.684 C 69.319 366.831,68.820 367.175,68.600 367.450 C 68.333 367.783,66.656 367.991,63.568 368.075 L 58.936 368.200 57.568 369.568 L 56.200 370.936 56.075 375.568 C 55.991 378.656,55.783 380.333,55.450 380.600 C 55.175 380.820,54.831 381.319,54.684 381.709 C 54.538 382.099,54.099 382.538,53.709 382.684 C 53.319 382.831,52.820 383.180,52.600 383.460 C 52.303 383.838,49.972 384.000,43.568 384.085 L 34.937 384.200 33.568 385.568 L 32.200 386.936 32.073 393.468 C 31.949 399.845,31.966 400.000,32.773 400.000 C 33.572 400.000,33.600 399.798,33.600 394.031 L 33.600 388.062 34.831 386.831 L 36.062 385.600 44.431 385.600 C 49.034 385.600,52.800 385.456,52.800 385.280 C 52.800 385.105,53.440 384.729,54.223 384.446 C 55.229 384.083,55.844 383.502,56.323 382.466 C 56.695 381.660,57.135 380.940,57.300 380.867 C 57.465 380.793,57.600 378.782,57.600 376.397 C 57.600 370.190,58.193 369.600,64.431 369.600 C 66.834 369.600,68.800 369.456,68.800 369.280 C 68.800 369.105,69.440 368.729,70.223 368.446 C 71.229 368.083,71.844 367.502,72.323 366.466 C 72.695 365.660,73.135 364.940,73.300 364.867 C 73.705 364.687,73.686 195.600,73.280 195.600 C 73.105 195.600,72.729 194.960,72.446 194.177 C 72.083 193.171,71.502 192.556,70.466 192.077 C 69.660 191.705,68.940 191.265,68.867 191.100 C 68.793 190.935,66.782 190.800,64.397 190.800 C 60.089 190.800,60.054 190.792,58.831 189.569 L 57.600 188.338 57.600 164.200 L 57.600 140.062 58.831 138.831 C 60.055 137.607,60.085 137.600,64.431 137.600 C 66.834 137.600,68.800 137.456,68.800 137.280 C 68.800 137.105,69.440 136.729,70.223 136.446 C 71.229 136.083,71.844 135.502,72.323 134.466 C 72.695 133.660,73.135 132.940,73.300 132.867 C 73.465 132.793,73.600 107.382,73.600 76.397 L 73.600 20.062 74.831 18.831 L 76.062 17.600 88.431 17.600 C 95.234 17.600,100.800 17.456,100.800 17.280 C 100.800 17.105,101.440 16.729,102.223 16.446 C 103.229 16.083,103.844 15.502,104.323 14.466 C 104.695 13.660,105.135 12.940,105.300 12.867 C 105.465 12.793,105.600 9.868,105.600 6.367 L 105.600 0.000 104.200 0.000 L 102.800 0.000 102.800 3.167 M326.800 14.367 C 326.800 22.268,326.935 28.793,327.100 28.867 C 327.265 28.940,327.705 29.660,328.077 30.466 C 328.556 31.502,329.171 32.083,330.177 32.446 C 330.960 32.729,331.600 33.105,331.600 33.280 C 331.600 33.456,333.566 33.600,335.969 33.600 C 340.315 33.600,340.345 33.607,341.569 34.831 L 342.800 36.062 342.800 44.397 C 342.800 48.982,342.935 52.793,343.100 52.867 C 343.265 52.940,343.705 53.660,344.077 54.466 C 344.556 55.502,345.171 56.083,346.177 56.446 C 346.960 56.729,347.600 57.105,347.600 57.280 C 347.600 57.456,351.366 57.600,355.969 57.600 L 364.338 57.600 365.569 58.831 L 366.800 60.062 366.800 212.200 L 366.800 364.338 365.569 365.569 L 364.338 366.800 355.969 366.800 C 351.366 366.800,347.600 366.944,347.600 367.120 C 347.600 367.295,346.960 367.671,346.177 367.954 C 345.171 368.317,344.556 368.898,344.077 369.934 C 343.705 370.740,343.265 371.460,343.100 371.533 C 342.935 371.607,342.800 373.618,342.800 376.003 C 342.800 382.210,342.207 382.800,335.969 382.800 C 333.566 382.800,331.600 382.944,331.600 383.120 C 331.600 383.295,330.960 383.671,330.177 383.954 C 329.171 384.317,328.556 384.898,328.077 385.934 C 327.705 386.740,327.265 387.460,327.100 387.533 C 326.289 387.894,326.775 400.000,327.600 400.000 C 328.365 400.000,328.400 399.733,328.400 393.987 C 328.400 389.012,328.503 387.935,329.000 387.745 C 329.330 387.618,329.606 387.309,329.613 387.057 C 329.668 385.184,331.140 384.606,336.376 384.400 L 341.462 384.200 342.831 382.831 L 344.200 381.462 344.408 376.431 L 344.615 371.400 346.008 370.000 L 347.400 368.600 356.432 368.400 L 365.464 368.200 366.832 366.831 L 368.200 365.462 368.200 212.200 L 368.200 58.938 366.832 57.569 L 365.464 56.200 356.432 56.000 L 347.400 55.800 346.000 54.400 L 344.600 53.000 344.400 43.968 L 344.200 34.936 342.831 33.568 L 341.462 32.200 336.431 31.992 L 331.400 31.785 330.000 30.392 L 328.600 29.000 328.600 17.833 C 328.600 9.256,328.716 6.628,329.100 6.500 C 329.444 6.385,329.600 5.344,329.600 3.167 L 329.600 0.000 328.200 0.000 L 326.800 0.000 326.800 14.367 M139.022 32.476 C 136.159 34.136,136.031 34.642,135.903 44.800 L 135.800 53.000 134.400 54.400 L 133.000 55.800 120.000 56.019 C 112.850 56.139,106.969 56.274,106.931 56.319 C 106.800 56.472,104.400 58.861,104.307 58.931 C 104.256 58.969,104.121 75.650,104.007 96.000 L 103.800 133.000 102.400 134.400 L 101.000 135.800 96.800 135.911 C 90.989 136.065,89.843 136.505,88.448 139.110 C 87.815 140.293,87.815 188.107,88.448 189.290 C 89.843 191.895,90.989 192.335,96.800 192.489 L 101.000 192.600 102.400 194.000 L 103.800 195.400 103.903 288.036 L 104.005 380.672 102.503 382.236 L 101.000 383.800 96.186 384.000 L 91.372 384.200 89.786 385.786 L 88.200 387.371 88.072 393.686 L 87.945 400.000 89.372 400.000 L 90.800 400.000 90.800 394.200 C 90.800 386.590,90.478 386.932,97.861 386.718 C 104.035 386.540,105.261 386.171,106.073 384.248 C 106.854 382.398,106.854 194.002,106.073 192.152 C 105.261 190.229,104.035 189.860,97.861 189.682 C 89.915 189.452,90.800 192.646,90.800 164.200 C 90.800 135.754,89.915 138.948,97.861 138.718 C 101.306 138.619,103.799 138.360,104.456 138.035 C 106.676 136.935,106.591 138.439,106.708 97.892 C 106.813 61.444,106.838 60.362,107.588 59.612 C 108.316 58.884,109.144 58.833,121.880 58.720 C 140.042 58.559,138.532 59.711,138.722 45.874 C 138.843 37.088,138.913 36.287,139.626 35.574 C 140.843 34.357,307.557 34.357,308.774 35.574 C 309.487 36.287,309.557 37.088,309.678 45.874 C 309.856 58.825,309.604 58.460,318.539 58.718 C 325.796 58.928,325.472 58.604,325.682 65.861 C 325.925 74.273,326.127 74.475,334.539 74.718 C 339.318 74.857,340.183 74.983,340.839 75.639 C 342.035 76.835,342.035 339.565,340.839 340.761 C 340.183 341.417,339.318 341.543,334.539 341.682 C 325.604 341.940,325.856 341.575,325.678 354.526 C 325.507 366.978,327.306 365.600,311.219 365.600 C 292.300 365.600,293.600 364.152,293.600 385.226 L 293.600 400.000 295.000 400.000 L 296.400 400.000 296.400 386.000 C 296.400 376.933,296.541 372.000,296.800 372.000 C 297.020 372.000,297.200 371.753,297.200 371.451 C 297.200 371.149,297.859 370.339,298.664 369.651 L 300.129 368.400 312.291 368.400 C 325.100 368.400,325.324 368.371,327.073 366.483 C 328.357 365.098,328.379 364.933,328.497 355.600 L 328.600 347.400 330.000 346.000 L 331.400 344.600 335.600 344.489 C 341.411 344.335,342.557 343.895,343.952 341.290 C 344.593 340.091,344.593 76.309,343.952 75.110 C 342.557 72.505,341.411 72.065,335.600 71.911 L 331.400 71.800 330.000 70.400 L 328.600 69.000 328.489 64.800 C 328.279 56.900,327.500 56.121,319.600 55.911 L 315.400 55.800 314.000 54.400 L 312.600 53.000 312.497 44.800 C 312.368 34.616,312.211 34.012,309.290 32.448 C 308.088 31.805,140.131 31.832,139.022 32.476 "
                    stroke="none"
                    fill="#a49024"
                    fill-rule="evenodd"></path><path id="path7"
                    d="M102.800 3.167 C 102.800 4.908,102.975 6.393,103.188 6.467 C 104.423 6.891,103.818 12.982,102.400 14.400 L 101.000 15.800 87.968 16.000 L 74.937 16.200 73.568 17.569 L 72.200 18.938 72.000 75.969 L 71.800 133.000 70.400 134.392 L 69.000 135.785 63.969 135.992 L 58.938 136.200 57.569 137.569 L 56.200 138.938 56.200 164.200 L 56.200 189.462 57.569 190.831 L 58.938 192.200 63.969 192.408 L 69.000 192.615 70.400 194.008 L 71.800 195.400 71.904 279.800 C 71.990 349.391,71.915 364.270,71.479 364.600 C 71.188 364.820,70.831 365.319,70.684 365.709 C 70.538 366.099,70.099 366.538,69.709 366.684 C 69.319 366.831,68.820 367.175,68.600 367.450 C 68.333 367.783,66.656 367.991,63.568 368.075 L 58.936 368.200 57.568 369.568 L 56.200 370.936 56.075 375.568 C 55.991 378.656,55.783 380.333,55.450 380.600 C 55.175 380.820,54.831 381.319,54.684 381.709 C 54.538 382.099,54.099 382.538,53.709 382.684 C 53.319 382.831,52.820 383.180,52.600 383.460 C 52.303 383.838,49.972 384.000,43.568 384.085 L 34.937 384.200 33.568 385.568 L 32.200 386.936 32.073 393.468 C 31.949 399.845,31.966 400.000,32.773 400.000 C 33.572 400.000,33.600 399.798,33.600 394.031 L 33.600 388.062 34.831 386.831 L 36.062 385.600 44.431 385.600 C 49.034 385.600,52.800 385.456,52.800 385.280 C 52.800 385.105,53.440 384.729,54.223 384.446 C 55.229 384.083,55.844 383.502,56.323 382.466 C 56.695 381.660,57.135 380.940,57.300 380.867 C 57.465 380.793,57.600 378.782,57.600 376.397 C 57.600 370.190,58.193 369.600,64.431 369.600 C 66.834 369.600,68.800 369.456,68.800 369.280 C 68.800 369.105,69.440 368.729,70.223 368.446 C 71.229 368.083,71.844 367.502,72.323 366.466 C 72.695 365.660,73.135 364.940,73.300 364.867 C 73.705 364.687,73.686 195.600,73.280 195.600 C 73.105 195.600,72.729 194.960,72.446 194.177 C 72.083 193.171,71.502 192.556,70.466 192.077 C 69.660 191.705,68.940 191.265,68.867 191.100 C 68.793 190.935,66.782 190.800,64.397 190.800 C 60.089 190.800,60.054 190.792,58.831 189.569 L 57.600 188.338 57.600 164.200 L 57.600 140.062 58.831 138.831 C 60.055 137.607,60.085 137.600,64.431 137.600 C 66.834 137.600,68.800 137.456,68.800 137.280 C 68.800 137.105,69.440 136.729,70.223 136.446 C 71.229 136.083,71.844 135.502,72.323 134.466 C 72.695 133.660,73.135 132.940,73.300 132.867 C 73.465 132.793,73.600 107.382,73.600 76.397 L 73.600 20.062 74.831 18.831 L 76.062 17.600 88.431 17.600 C 95.234 17.600,100.800 17.456,100.800 17.280 C 100.800 17.105,101.440 16.729,102.223 16.446 C 103.229 16.083,103.844 15.502,104.323 14.466 C 104.695 13.660,105.135 12.940,105.300 12.867 C 105.465 12.793,105.600 9.868,105.600 6.367 L 105.600 0.000 104.200 0.000 L 102.800 0.000 102.800 3.167 M326.800 14.367 C 326.800 22.268,326.935 28.793,327.100 28.867 C 327.265 28.940,327.705 29.660,328.077 30.466 C 328.556 31.502,329.171 32.083,330.177 32.446 C 330.960 32.729,331.600 33.105,331.600 33.280 C 331.600 33.456,333.566 33.600,335.969 33.600 C 340.315 33.600,340.345 33.607,341.569 34.831 L 342.800 36.062 342.800 44.397 C 342.800 48.982,342.935 52.793,343.100 52.867 C 343.265 52.940,343.705 53.660,344.077 54.466 C 344.556 55.502,345.171 56.083,346.177 56.446 C 346.960 56.729,347.600 57.105,347.600 57.280 C 347.600 57.456,351.366 57.600,355.969 57.600 L 364.338 57.600 365.569 58.831 L 366.800 60.062 366.800 212.200 L 366.800 364.338 365.569 365.569 L 364.338 366.800 355.969 366.800 C 351.366 366.800,347.600 366.944,347.600 367.120 C 347.600 367.295,346.960 367.671,346.177 367.954 C 345.171 368.317,344.556 368.898,344.077 369.934 C 343.705 370.740,343.265 371.460,343.100 371.533 C 342.935 371.607,342.800 373.618,342.800 376.003 C 342.800 382.210,342.207 382.800,335.969 382.800 C 333.566 382.800,331.600 382.944,331.600 383.120 C 331.600 383.295,330.960 383.671,330.177 383.954 C 329.171 384.317,328.556 384.898,328.077 385.934 C 327.705 386.740,327.265 387.460,327.100 387.533 C 326.289 387.894,326.775 400.000,327.600 400.000 C 328.365 400.000,328.400 399.733,328.400 393.987 C 328.400 389.012,328.503 387.935,329.000 387.745 C 329.330 387.618,329.606 387.309,329.613 387.057 C 329.668 385.184,331.140 384.606,336.376 384.400 L 341.462 384.200 342.831 382.831 L 344.200 381.462 344.408 376.431 L 344.615 371.400 346.008 370.000 L 347.400 368.600 356.432 368.400 L 365.464 368.200 366.832 366.831 L 368.200 365.462 368.200 212.200 L 368.200 58.938 366.832 57.569 L 365.464 56.200 356.432 56.000 L 347.400 55.800 346.000 54.400 L 344.600 53.000 344.400 43.968 L 344.200 34.936 342.831 33.568 L 341.462 32.200 336.431 31.992 L 331.400 31.785 330.000 30.392 L 328.600 29.000 328.600 17.833 C 328.600 9.256,328.716 6.628,329.100 6.500 C 329.444 6.385,329.600 5.344,329.600 3.167 L 329.600 0.000 328.200 0.000 L 326.800 0.000 326.800 14.367 M139.022 32.476 C 136.159 34.136,136.031 34.642,135.903 44.800 L 135.800 53.000 134.400 54.400 L 133.000 55.800 120.000 56.019 C 112.850 56.139,106.969 56.274,106.931 56.319 C 106.800 56.472,104.400 58.861,104.307 58.931 C 104.256 58.969,104.121 75.650,104.007 96.000 L 103.800 133.000 102.400 134.400 L 101.000 135.800 96.800 135.911 C 90.989 136.065,89.843 136.505,88.448 139.110 C 87.815 140.293,87.815 188.107,88.448 189.290 C 89.843 191.895,90.989 192.335,96.800 192.489 L 101.000 192.600 102.400 194.000 L 103.800 195.400 103.903 288.036 L 104.005 380.672 102.503 382.236 L 101.000 383.800 96.186 384.000 L 91.372 384.200 89.786 385.786 L 88.200 387.371 88.072 393.686 L 87.945 400.000 89.372 400.000 L 90.800 400.000 90.800 394.200 C 90.800 386.590,90.478 386.932,97.861 386.718 C 104.035 386.540,105.261 386.171,106.073 384.248 C 106.854 382.398,106.854 194.002,106.073 192.152 C 105.261 190.229,104.035 189.860,97.861 189.682 C 89.915 189.452,90.800 192.646,90.800 164.200 C 90.800 135.754,89.915 138.948,97.861 138.718 C 101.306 138.619,103.799 138.360,104.456 138.035 C 106.676 136.935,106.591 138.439,106.708 97.892 C 106.813 61.444,106.838 60.362,107.588 59.612 C 108.316 58.884,109.144 58.833,121.880 58.720 C 140.042 58.559,138.532 59.711,138.722 45.874 C 138.843 37.088,138.913 36.287,139.626 35.574 C 140.843 34.357,307.557 34.357,308.774 35.574 C 309.487 36.287,309.557 37.088,309.678 45.874 C 309.856 58.825,309.604 58.460,318.539 58.718 C 325.796 58.928,325.472 58.604,325.682 65.861 C 325.925 74.273,326.127 74.475,334.539 74.718 C 339.318 74.857,340.183 74.983,340.839 75.639 C 342.035 76.835,342.035 339.565,340.839 340.761 C 340.183 341.417,339.318 341.543,334.539 341.682 C 325.604 341.940,325.856 341.575,325.678 354.526 C 325.507 366.978,327.306 365.600,311.219 365.600 C 292.300 365.600,293.600 364.152,293.600 385.226 L 293.600 400.000 295.000 400.000 L 296.400 400.000 296.400 386.000 C 296.400 376.933,296.541 372.000,296.800 372.000 C 297.020 372.000,297.200 371.753,297.200 371.451 C 297.200 371.149,297.859 370.339,298.664 369.651 L 300.129 368.400 312.291 368.400 C 325.100 368.400,325.324 368.371,327.073 366.483 C 328.357 365.098,328.379 364.933,328.497 355.600 L 328.600 347.400 330.000 346.000 L 331.400 344.600 335.600 344.489 C 341.411 344.335,342.557 343.895,343.952 341.290 C 344.593 340.091,344.593 76.309,343.952 75.110 C 342.557 72.505,341.411 72.065,335.600 71.911 L 331.400 71.800 330.000 70.400 L 328.600 69.000 328.489 64.800 C 328.279 56.900,327.500 56.121,319.600 55.911 L 315.400 55.800 314.000 54.400 L 312.600 53.000 312.497 44.800 C 312.368 34.616,312.211 34.012,309.290 32.448 C 308.088 31.805,140.131 31.832,139.022 32.476 "
                    stroke="none"
                    fill="#a49024"
                    fill-rule="evenodd"></path><path id="path8"
                    d="M102.800 3.167 C 102.800 4.908,102.975 6.393,103.188 6.467 C 104.423 6.891,103.818 12.982,102.400 14.400 L 101.000 15.800 87.968 16.000 L 74.937 16.200 73.568 17.569 L 72.200 18.938 72.000 75.969 L 71.800 133.000 70.400 134.392 L 69.000 135.785 63.969 135.992 L 58.938 136.200 57.569 137.569 L 56.200 138.938 56.200 164.200 L 56.200 189.462 57.569 190.831 L 58.938 192.200 63.969 192.408 L 69.000 192.615 70.400 194.008 L 71.800 195.400 71.904 279.800 C 71.990 349.391,71.915 364.270,71.479 364.600 C 71.188 364.820,70.831 365.319,70.684 365.709 C 70.538 366.099,70.099 366.538,69.709 366.684 C 69.319 366.831,68.820 367.175,68.600 367.450 C 68.333 367.783,66.656 367.991,63.568 368.075 L 58.936 368.200 57.568 369.568 L 56.200 370.936 56.075 375.568 C 55.991 378.656,55.783 380.333,55.450 380.600 C 55.175 380.820,54.831 381.319,54.684 381.709 C 54.538 382.099,54.099 382.538,53.709 382.684 C 53.319 382.831,52.820 383.180,52.600 383.460 C 52.303 383.838,49.972 384.000,43.568 384.085 L 34.937 384.200 33.568 385.568 L 32.200 386.936 32.073 393.468 C 31.949 399.845,31.966 400.000,32.773 400.000 C 33.572 400.000,33.600 399.798,33.600 394.031 L 33.600 388.062 34.831 386.831 L 36.062 385.600 44.431 385.600 C 49.034 385.600,52.800 385.456,52.800 385.280 C 52.800 385.105,53.440 384.729,54.223 384.446 C 55.229 384.083,55.844 383.502,56.323 382.466 C 56.695 381.660,57.135 380.940,57.300 380.867 C 57.465 380.793,57.600 378.782,57.600 376.397 C 57.600 370.190,58.193 369.600,64.431 369.600 C 66.834 369.600,68.800 369.456,68.800 369.280 C 68.800 369.105,69.440 368.729,70.223 368.446 C 71.229 368.083,71.844 367.502,72.323 366.466 C 72.695 365.660,73.135 364.940,73.300 364.867 C 73.705 364.687,73.686 195.600,73.280 195.600 C 73.105 195.600,72.729 194.960,72.446 194.177 C 72.083 193.171,71.502 192.556,70.466 192.077 C 69.660 191.705,68.940 191.265,68.867 191.100 C 68.793 190.935,66.782 190.800,64.397 190.800 C 60.089 190.800,60.054 190.792,58.831 189.569 L 57.600 188.338 57.600 164.200 L 57.600 140.062 58.831 138.831 C 60.055 137.607,60.085 137.600,64.431 137.600 C 66.834 137.600,68.800 137.456,68.800 137.280 C 68.800 137.105,69.440 136.729,70.223 136.446 C 71.229 136.083,71.844 135.502,72.323 134.466 C 72.695 133.660,73.135 132.940,73.300 132.867 C 73.465 132.793,73.600 107.382,73.600 76.397 L 73.600 20.062 74.831 18.831 L 76.062 17.600 88.431 17.600 C 95.234 17.600,100.800 17.456,100.800 17.280 C 100.800 17.105,101.440 16.729,102.223 16.446 C 103.229 16.083,103.844 15.502,104.323 14.466 C 104.695 13.660,105.135 12.940,105.300 12.867 C 105.465 12.793,105.600 9.868,105.600 6.367 L 105.600 0.000 104.200 0.000 L 102.800 0.000 102.800 3.167 M326.800 14.367 C 326.800 22.268,326.935 28.793,327.100 28.867 C 327.265 28.940,327.705 29.660,328.077 30.466 C 328.556 31.502,329.171 32.083,330.177 32.446 C 330.960 32.729,331.600 33.105,331.600 33.280 C 331.600 33.456,333.566 33.600,335.969 33.600 C 340.315 33.600,340.345 33.607,341.569 34.831 L 342.800 36.062 342.800 44.397 C 342.800 48.982,342.935 52.793,343.100 52.867 C 343.265 52.940,343.705 53.660,344.077 54.466 C 344.556 55.502,345.171 56.083,346.177 56.446 C 346.960 56.729,347.600 57.105,347.600 57.280 C 347.600 57.456,351.366 57.600,355.969 57.600 L 364.338 57.600 365.569 58.831 L 366.800 60.062 366.800 212.200 L 366.800 364.338 365.569 365.569 L 364.338 366.800 355.969 366.800 C 351.366 366.800,347.600 366.944,347.600 367.120 C 347.600 367.295,346.960 367.671,346.177 367.954 C 345.171 368.317,344.556 368.898,344.077 369.934 C 343.705 370.740,343.265 371.460,343.100 371.533 C 342.935 371.607,342.800 373.618,342.800 376.003 C 342.800 382.210,342.207 382.800,335.969 382.800 C 333.566 382.800,331.600 382.944,331.600 383.120 C 331.600 383.295,330.960 383.671,330.177 383.954 C 329.171 384.317,328.556 384.898,328.077 385.934 C 327.705 386.740,327.265 387.460,327.100 387.533 C 326.289 387.894,326.775 400.000,327.600 400.000 C 328.365 400.000,328.400 399.733,328.400 393.987 C 328.400 389.012,328.503 387.935,329.000 387.745 C 329.330 387.618,329.606 387.309,329.613 387.057 C 329.668 385.184,331.140 384.606,336.376 384.400 L 341.462 384.200 342.831 382.831 L 344.200 381.462 344.408 376.431 L 344.615 371.400 346.008 370.000 L 347.400 368.600 356.432 368.400 L 365.464 368.200 366.832 366.831 L 368.200 365.462 368.200 212.200 L 368.200 58.938 366.832 57.569 L 365.464 56.200 356.432 56.000 L 347.400 55.800 346.000 54.400 L 344.600 53.000 344.400 43.968 L 344.200 34.936 342.831 33.568 L 341.462 32.200 336.431 31.992 L 331.400 31.785 330.000 30.392 L 328.600 29.000 328.600 17.833 C 328.600 9.256,328.716 6.628,329.100 6.500 C 329.444 6.385,329.600 5.344,329.600 3.167 L 329.600 0.000 328.200 0.000 L 326.800 0.000 326.800 14.367 M139.022 32.476 C 136.159 34.136,136.031 34.642,135.903 44.800 L 135.800 53.000 134.400 54.400 L 133.000 55.800 120.000 56.019 C 112.850 56.139,106.969 56.274,106.931 56.319 C 106.800 56.472,104.400 58.861,104.307 58.931 C 104.256 58.969,104.121 75.650,104.007 96.000 L 103.800 133.000 102.400 134.400 L 101.000 135.800 96.800 135.911 C 90.989 136.065,89.843 136.505,88.448 139.110 C 87.815 140.293,87.815 188.107,88.448 189.290 C 89.843 191.895,90.989 192.335,96.800 192.489 L 101.000 192.600 102.400 194.000 L 103.800 195.400 103.903 288.036 L 104.005 380.672 102.503 382.236 L 101.000 383.800 96.186 384.000 L 91.372 384.200 89.786 385.786 L 88.200 387.371 88.072 393.686 L 87.945 400.000 89.372 400.000 L 90.800 400.000 90.800 394.200 C 90.800 386.590,90.478 386.932,97.861 386.718 C 104.035 386.540,105.261 386.171,106.073 384.248 C 106.854 382.398,106.854 194.002,106.073 192.152 C 105.261 190.229,104.035 189.860,97.861 189.682 C 89.915 189.452,90.800 192.646,90.800 164.200 C 90.800 135.754,89.915 138.948,97.861 138.718 C 101.306 138.619,103.799 138.360,104.456 138.035 C 106.676 136.935,106.591 138.439,106.708 97.892 C 106.813 61.444,106.838 60.362,107.588 59.612 C 108.316 58.884,109.144 58.833,121.880 58.720 C 140.042 58.559,138.532 59.711,138.722 45.874 C 138.843 37.088,138.913 36.287,139.626 35.574 C 140.843 34.357,307.557 34.357,308.774 35.574 C 309.487 36.287,309.557 37.088,309.678 45.874 C 309.856 58.825,309.604 58.460,318.539 58.718 C 325.796 58.928,325.472 58.604,325.682 65.861 C 325.925 74.273,326.127 74.475,334.539 74.718 C 339.318 74.857,340.183 74.983,340.839 75.639 C 342.035 76.835,342.035 339.565,340.839 340.761 C 340.183 341.417,339.318 341.543,334.539 341.682 C 325.604 341.940,325.856 341.575,325.678 354.526 C 325.507 366.978,327.306 365.600,311.219 365.600 C 292.300 365.600,293.600 364.152,293.600 385.226 L 293.600 400.000 295.000 400.000 L 296.400 400.000 296.400 386.000 C 296.400 376.933,296.541 372.000,296.800 372.000 C 297.020 372.000,297.200 371.753,297.200 371.451 C 297.200 371.149,297.859 370.339,298.664 369.651 L 300.129 368.400 312.291 368.400 C 325.100 368.400,325.324 368.371,327.073 366.483 C 328.357 365.098,328.379 364.933,328.497 355.600 L 328.600 347.400 330.000 346.000 L 331.400 344.600 335.600 344.489 C 341.411 344.335,342.557 343.895,343.952 341.290 C 344.593 340.091,344.593 76.309,343.952 75.110 C 342.557 72.505,341.411 72.065,335.600 71.911 L 331.400 71.800 330.000 70.400 L 328.600 69.000 328.489 64.800 C 328.279 56.900,327.500 56.121,319.600 55.911 L 315.400 55.800 314.000 54.400 L 312.600 53.000 312.497 44.800 C 312.368 34.616,312.211 34.012,309.290 32.448 C 308.088 31.805,140.131 31.832,139.022 32.476 "
                    stroke="none"
                    fill="#a49024"
                    fill-rule="evenodd"></path><path id="path1"
                    d="M186.900 46.680 C 186.405 46.777,186.000 47.028,186.000 47.238 C 186.000 47.448,185.550 47.791,185.000 48.000 C 184.450 48.209,184.000 48.646,184.000 48.970 C 184.000 49.295,183.694 49.731,183.320 49.941 C 182.752 50.259,182.604 51.208,182.416 55.745 C 182.136 62.516,182.518 62.136,175.710 62.418 C 171.842 62.578,170.203 62.790,170.084 63.148 C 169.992 63.425,169.485 63.816,168.958 64.016 C 168.431 64.216,168.000 64.646,168.000 64.970 C 168.000 65.295,167.694 65.731,167.320 65.941 C 166.752 66.259,166.604 67.208,166.416 71.745 C 166.266 75.373,166.021 77.339,165.676 77.684 C 165.263 78.098,155.344 78.240,115.752 78.400 C 69.232 78.588,66.321 78.641,65.952 79.300 C 65.736 79.685,65.295 80.000,64.970 80.000 C 64.646 80.000,64.216 80.431,64.016 80.958 C 63.816 81.485,63.415 81.995,63.126 82.091 C 62.221 82.393,62.383 93.935,63.300 94.448 C 63.685 94.663,64.000 95.105,64.000 95.430 C 64.000 95.754,64.431 96.184,64.958 96.384 C 65.485 96.584,65.995 96.985,66.091 97.274 C 66.233 97.701,71.741 97.821,95.289 97.910 L 124.311 98.020 125.315 99.024 C 126.261 99.970,126.327 100.314,126.459 105.042 C 126.579 109.310,126.704 110.115,127.300 110.448 C 127.685 110.664,128.000 111.105,128.000 111.430 C 128.000 111.754,128.431 112.184,128.958 112.384 C 129.485 112.584,129.995 112.985,130.091 113.274 C 130.227 113.683,132.280 113.828,139.306 113.927 L 148.345 114.054 149.361 115.070 L 150.377 116.086 150.488 141.071 C 150.593 164.383,150.647 166.083,151.300 166.448 C 151.685 166.664,152.000 167.105,152.000 167.430 C 152.000 167.754,152.431 168.184,152.958 168.384 C 153.485 168.584,153.992 168.975,154.084 169.252 C 154.203 169.610,155.842 169.822,159.710 169.982 C 166.521 170.264,166.136 169.879,166.418 176.690 C 166.578 180.558,166.790 182.197,167.148 182.316 C 167.425 182.408,167.816 182.915,168.016 183.442 C 168.216 183.969,168.646 184.400,168.970 184.400 C 169.295 184.400,169.731 184.706,169.941 185.080 C 170.259 185.648,171.208 185.796,175.745 185.984 C 182.513 186.264,182.136 185.887,182.416 192.655 C 182.604 197.192,182.752 198.141,183.320 198.459 C 183.694 198.669,184.000 199.105,184.000 199.430 C 184.000 199.754,184.431 200.184,184.958 200.384 C 185.485 200.584,185.995 200.985,186.091 201.274 C 186.401 202.203,229.927 202.032,230.448 201.100 C 230.663 200.715,231.105 200.400,231.430 200.400 C 231.754 200.400,232.184 199.969,232.384 199.442 C 232.584 198.915,232.975 198.408,233.252 198.316 C 233.610 198.197,233.822 196.558,233.982 192.690 C 234.134 189.036,234.379 187.061,234.724 186.716 C 235.124 186.315,238.940 186.175,251.827 186.087 L 268.415 185.974 269.407 187.046 C 270.337 188.049,270.400 188.390,270.400 192.458 C 270.400 195.086,270.558 196.800,270.800 196.800 C 271.020 196.800,271.200 197.042,271.200 197.339 C 271.200 198.297,272.443 200.400,273.009 200.400 C 273.312 200.400,273.737 200.715,273.952 201.100 C 274.559 202.185,333.841 202.185,334.448 201.100 C 334.663 200.715,335.105 200.400,335.430 200.400 C 335.754 200.400,336.184 199.969,336.384 199.442 C 336.584 198.915,336.985 198.405,337.274 198.309 C 338.026 198.058,338.051 169.951,337.300 169.700 C 337.025 169.608,336.800 169.313,336.800 169.043 C 336.800 166.514,333.734 165.493,326.644 165.662 L 320.846 165.800 319.557 167.119 C 318.031 168.681,317.659 170.410,317.624 176.100 C 317.588 181.992,318.548 181.600,304.144 181.600 C 290.044 181.600,291.231 182.123,291.213 175.900 C 291.205 173.308,291.041 171.600,290.800 171.600 C 290.580 171.600,290.400 171.043,290.400 170.362 C 290.400 166.779,288.678 165.842,281.774 165.669 C 276.973 165.549,276.084 165.427,275.716 164.837 C 275.407 164.343,275.409 154.391,275.720 129.873 L 276.156 95.600 304.278 95.600 L 332.400 95.600 332.400 87.000 L 332.400 78.400 304.200 78.400 L 276.000 78.400 276.000 73.200 L 276.000 68.000 304.780 68.000 C 328.559 68.000,333.616 67.906,333.880 67.458 C 334.056 67.161,334.563 66.727,335.007 66.494 C 335.450 66.262,336.061 65.381,336.363 64.536 C 336.665 63.691,337.112 62.871,337.356 62.714 C 338.182 62.182,337.945 50.425,337.100 49.952 C 336.715 49.736,336.400 49.295,336.400 48.970 C 336.400 48.646,335.969 48.216,335.442 48.016 C 334.915 47.816,334.405 47.415,334.309 47.126 C 334.139 46.618,189.462 46.181,186.900 46.680 M333.886 50.514 C 334.497 51.126,334.600 51.968,334.600 56.381 L 334.600 61.533 333.400 62.756 L 332.200 63.978 304.274 63.989 C 286.686 63.996,276.074 64.146,275.610 64.395 C 274.663 64.901,272.563 66.997,272.291 67.707 C 272.176 68.007,272.021 90.059,271.947 116.710 L 271.813 165.166 272.707 165.999 C 273.198 166.457,273.600 166.971,273.600 167.141 C 273.600 168.089,276.594 168.800,280.583 168.800 C 284.733 168.800,284.740 168.802,286.062 170.100 L 287.385 171.400 287.592 176.417 L 287.800 181.434 289.338 183.017 L 290.875 184.600 304.204 184.600 L 317.533 184.600 319.067 183.068 L 320.600 181.536 320.733 176.768 C 320.807 174.146,321.032 172.000,321.233 172.000 C 321.435 172.000,321.600 171.760,321.600 171.466 C 321.600 167.433,333.576 167.740,334.628 171.800 C 335.247 174.190,334.593 197.179,333.886 197.886 C 332.857 198.914,277.153 199.210,275.195 198.198 C 273.736 197.443,273.960 198.307,273.637 192.178 L 273.363 186.957 271.633 185.278 C 270.682 184.355,269.565 183.600,269.152 183.600 C 268.738 183.600,268.400 183.420,268.400 183.200 C 268.400 182.940,262.591 182.800,251.774 182.800 C 235.107 182.800,233.600 182.683,233.600 181.386 C 233.600 181.064,233.420 180.800,233.200 180.800 C 232.958 180.800,232.800 179.067,232.800 176.400 C 232.800 173.733,232.958 172.000,233.200 172.000 C 233.420 172.000,233.600 171.760,233.600 171.466 C 233.600 171.172,234.138 170.452,234.797 169.866 L 235.993 168.800 243.994 168.800 C 253.334 168.800,254.651 168.481,255.877 165.920 C 256.274 165.089,256.735 164.407,256.900 164.405 C 257.065 164.402,257.200 161.520,257.200 158.000 C 257.200 154.058,257.048 151.600,256.805 151.600 C 256.549 151.600,256.374 136.823,256.305 109.437 L 256.200 67.275 254.617 65.737 L 253.034 64.200 219.924 64.093 L 186.814 63.986 186.207 62.813 C 184.749 59.994,185.537 50.722,187.294 50.013 C 189.264 49.218,333.081 49.710,333.886 50.514 M182.850 66.226 L 184.061 66.852 183.931 72.126 C 183.747 79.537,183.537 79.747,176.126 79.931 L 170.852 80.061 170.226 78.850 C 168.750 75.996,169.521 66.727,171.294 66.015 C 172.916 65.363,181.485 65.520,182.850 66.226 M252.400 73.200 L 252.400 78.400 220.200 78.400 L 188.000 78.400 188.000 73.200 L 188.000 68.000 220.200 68.000 L 252.400 68.000 252.400 73.200 M166.820 82.210 L 168.000 82.821 167.999 113.710 C 167.999 130.700,167.880 149.312,167.736 155.071 L 167.473 165.542 166.237 166.208 C 164.429 167.180,155.562 166.937,154.513 165.886 C 153.847 165.219,153.793 163.556,153.691 140.586 C 153.622 124.911,153.440 116.000,153.191 116.000 C 152.976 116.000,152.800 115.670,152.800 115.267 C 152.800 114.316,150.084 111.600,149.133 111.600 C 148.730 111.600,148.400 111.430,148.400 111.222 C 148.400 111.000,144.851 110.794,139.813 110.722 C 129.183 110.571,129.853 110.976,129.666 104.587 C 129.592 102.064,129.367 100.000,129.166 100.000 C 128.965 100.000,128.800 99.670,128.800 99.267 C 128.800 98.316,126.084 95.600,125.133 95.600 C 124.730 95.600,124.400 95.424,124.400 95.208 C 124.400 94.956,114.153 94.777,95.814 94.708 C 62.221 94.581,65.864 95.285,65.669 88.887 C 65.526 84.183,65.907 82.572,67.294 82.015 C 69.040 81.313,165.452 81.503,166.820 82.210 M252.597 125.200 C 252.764 141.774,253.050 154.800,253.248 154.800 C 253.441 154.800,253.600 156.870,253.600 159.400 C 253.600 165.951,254.372 165.517,242.449 165.674 L 232.846 165.800 231.556 167.119 C 230.017 168.694,229.658 170.406,229.624 176.329 C 229.590 182.173,231.921 181.600,208.200 181.600 C 184.479 181.600,186.810 182.173,186.776 176.329 C 186.742 170.406,186.383 168.694,184.843 167.119 L 183.554 165.800 177.938 165.661 C 170.615 165.479,170.800 165.642,170.800 159.400 C 170.800 156.870,170.959 154.800,171.152 154.800 C 171.350 154.800,171.636 141.774,171.803 125.200 L 172.101 95.600 212.200 95.600 L 252.299 95.600 252.597 125.200 M181.603 169.866 C 182.262 170.452,182.800 171.172,182.800 171.466 C 182.800 171.760,182.980 172.000,183.200 172.000 C 183.442 172.000,183.600 173.733,183.600 176.400 C 183.600 179.067,183.442 180.800,183.200 180.800 C 182.980 180.800,182.800 181.064,182.800 181.386 C 182.800 183.026,172.089 183.462,170.513 181.887 C 169.438 180.811,169.223 171.966,170.227 170.100 L 170.926 168.800 175.666 168.800 C 180.235 168.800,180.450 168.839,181.603 169.866 M228.800 185.200 C 228.800 185.420,229.064 185.600,229.386 185.600 C 231.026 185.600,231.462 196.313,229.886 197.887 C 228.782 198.989,187.618 198.989,186.514 197.887 C 184.938 196.313,185.374 185.600,187.014 185.600 C 187.336 185.600,187.600 185.420,187.600 185.200 C 187.600 184.939,194.733 184.800,208.200 184.800 C 221.667 184.800,228.800 184.939,228.800 185.200 "
                    stroke="none"
                    fill="#b4b4b4"
                    fill-rule="evenodd"></path><path id="path2"
                    d="M223.868 46.300 C 243.706 46.357,276.286 46.357,296.268 46.300 C 316.251 46.243,300.020 46.196,260.200 46.196 C 220.380 46.196,204.031 46.243,223.868 46.300 M185.600 47.087 C 185.600 47.318,185.241 47.601,184.802 47.715 C 184.363 47.830,183.881 48.256,183.731 48.662 C 183.581 49.068,183.265 49.532,183.029 49.694 C 182.743 49.890,182.770 49.990,183.110 49.994 C 183.390 49.997,183.791 49.550,184.000 49.000 C 184.209 48.450,184.644 48.000,184.966 48.000 C 185.627 48.000,186.207 47.274,185.840 46.907 C 185.708 46.775,185.600 46.856,185.600 47.087 M334.406 47.137 C 334.403 47.433,334.774 47.773,335.231 47.892 C 335.688 48.012,336.223 48.535,336.421 49.055 C 336.618 49.575,337.010 49.997,337.290 49.994 C 337.630 49.990,337.657 49.890,337.371 49.694 C 337.135 49.532,336.824 49.081,336.680 48.691 C 336.536 48.301,336.099 47.864,335.709 47.720 C 335.319 47.576,334.868 47.265,334.706 47.029 C 334.514 46.748,334.410 46.785,334.406 47.137 M182.150 56.200 C 182.151 58.620,182.216 59.558,182.296 58.285 C 182.376 57.012,182.375 55.032,182.294 53.885 C 182.214 52.738,182.149 53.780,182.150 56.200 M338.150 56.200 C 338.151 58.620,338.216 59.558,338.296 58.285 C 338.376 57.012,338.375 55.032,338.294 53.885 C 338.214 52.738,338.149 53.780,338.150 56.200 M174.115 62.296 C 175.388 62.376,177.368 62.375,178.515 62.294 C 179.662 62.214,178.620 62.149,176.200 62.150 C 173.780 62.151,172.842 62.216,174.115 62.296 M169.600 63.087 C 169.600 63.318,169.241 63.601,168.802 63.715 C 168.363 63.830,167.881 64.256,167.731 64.662 C 167.581 65.068,167.265 65.532,167.029 65.694 C 166.743 65.890,166.770 65.990,167.110 65.994 C 167.390 65.997,167.791 65.550,168.000 65.000 C 168.209 64.450,168.644 64.000,168.966 64.000 C 169.627 64.000,170.207 63.274,169.840 62.907 C 169.708 62.775,169.600 62.856,169.600 63.087 M336.385 64.444 C 336.064 65.417,335.475 66.256,334.943 66.499 C 334.449 66.724,333.946 67.163,333.827 67.475 C 333.686 67.842,333.778 67.937,334.088 67.746 C 335.328 66.979,336.357 65.825,336.575 64.956 C 336.707 64.430,336.992 64.000,337.208 64.000 C 337.423 64.000,337.600 63.730,337.600 63.400 C 337.600 62.236,336.922 62.820,336.385 64.444 M166.150 72.200 C 166.151 74.620,166.216 75.558,166.296 74.285 C 166.376 73.012,166.375 71.032,166.294 69.885 C 166.214 68.738,166.149 69.780,166.150 72.200 M188.000 73.200 L 188.000 78.400 220.200 78.400 L 252.400 78.400 252.400 73.200 L 252.400 68.000 220.200 68.000 L 188.000 68.000 188.000 73.200 M276.000 73.200 L 276.000 78.400 304.200 78.400 L 332.400 78.400 332.400 87.000 L 332.400 95.600 304.200 95.600 L 276.000 95.600 276.000 104.200 L 276.000 112.800 304.137 112.800 L 332.274 112.800 332.520 103.706 C 332.675 97.959,332.919 94.560,333.183 94.472 C 333.742 94.286,333.759 80.400,333.200 80.400 C 332.951 80.400,332.800 78.067,332.800 74.200 L 332.800 68.000 304.400 68.000 L 276.000 68.000 276.000 73.200 M92.131 78.300 C 105.513 78.358,127.293 78.358,140.531 78.300 C 153.769 78.241,142.820 78.194,116.200 78.194 C 89.580 78.194,78.749 78.242,92.131 78.300 M65.600 79.087 C 65.600 79.318,65.241 79.601,64.802 79.715 C 64.363 79.830,63.881 80.256,63.731 80.662 C 63.581 81.068,63.265 81.532,63.029 81.694 C 62.743 81.890,62.770 81.990,63.110 81.994 C 63.390 81.997,63.791 81.550,64.000 81.000 C 64.209 80.450,64.644 80.000,64.966 80.000 C 65.627 80.000,66.207 79.274,65.840 78.907 C 65.708 78.775,65.600 78.856,65.600 79.087 M62.150 88.200 C 62.151 90.620,62.216 91.558,62.296 90.285 C 62.376 89.012,62.375 87.032,62.294 85.885 C 62.214 84.738,62.149 85.780,62.150 88.200 M63.029 94.706 C 63.265 94.868,63.576 95.319,63.720 95.709 C 63.864 96.099,64.301 96.536,64.691 96.680 C 65.081 96.824,65.532 97.135,65.694 97.371 C 65.890 97.657,65.990 97.630,65.994 97.290 C 65.997 97.010,65.575 96.618,65.055 96.421 C 64.535 96.223,64.012 95.688,63.892 95.231 C 63.773 94.774,63.433 94.403,63.137 94.406 C 62.785 94.410,62.748 94.514,63.029 94.706 M172.000 104.200 L 172.000 112.800 212.200 112.800 L 252.400 112.800 252.400 104.200 L 252.400 95.600 212.200 95.600 L 172.000 95.600 172.000 104.200 M82.129 98.300 C 90.011 98.361,102.791 98.361,110.529 98.300 C 118.268 98.239,111.820 98.189,96.200 98.190 C 80.580 98.190,74.248 98.239,82.129 98.300 M126.150 104.200 C 126.151 106.620,126.216 107.558,126.296 106.285 C 126.376 105.012,126.375 103.032,126.294 101.885 C 126.214 100.738,126.149 101.780,126.150 104.200 M127.029 110.706 C 127.265 110.868,127.576 111.319,127.720 111.709 C 127.864 112.099,128.301 112.536,128.691 112.680 C 129.081 112.824,129.532 113.135,129.694 113.371 C 129.890 113.657,129.990 113.630,129.994 113.290 C 129.997 113.010,129.575 112.618,129.055 112.421 C 128.535 112.223,128.012 111.688,127.892 111.231 C 127.773 110.774,127.433 110.403,127.137 110.406 C 126.785 110.410,126.748 110.514,127.029 110.706 M136.122 114.299 C 138.499 114.370,142.279 114.369,144.522 114.298 C 146.765 114.227,144.820 114.169,140.200 114.169 C 135.580 114.170,133.745 114.228,136.122 114.299 M150.188 140.200 C 150.188 153.620,150.238 159.052,150.300 152.271 C 150.361 145.490,150.361 134.510,150.300 127.871 C 150.238 121.232,150.188 126.780,150.188 140.200 M171.778 137.800 C 171.778 144.620,171.832 147.466,171.899 144.125 C 171.966 140.784,171.966 135.204,171.899 131.725 C 171.833 128.246,171.778 130.980,171.778 137.800 M252.578 137.800 C 252.578 144.620,252.632 147.466,252.699 144.125 C 252.766 140.784,252.766 135.204,252.699 131.725 C 252.633 128.246,252.578 130.980,252.578 137.800 M275.778 137.800 C 275.778 144.620,275.832 147.466,275.899 144.125 C 275.966 140.784,275.966 135.204,275.899 131.725 C 275.833 128.246,275.778 130.980,275.778 137.800 M170.800 159.400 C 170.800 165.645,170.611 165.479,177.967 165.661 L 183.612 165.800 185.058 167.379 C 186.277 168.711,186.458 168.805,186.212 167.979 C 185.852 166.774,184.946 166.021,183.500 165.725 C 182.895 165.601,182.400 165.348,182.400 165.162 C 182.400 164.975,180.015 164.773,177.100 164.712 L 171.800 164.600 171.688 159.700 C 171.543 153.393,170.800 153.142,170.800 159.400 M252.712 159.700 L 252.600 164.600 243.300 164.707 C 238.185 164.766,234.000 164.969,234.000 165.157 C 234.000 165.346,233.505 165.601,232.900 165.725 C 231.454 166.021,230.548 166.774,230.188 167.979 C 229.942 168.805,230.123 168.710,231.342 167.379 L 232.788 165.800 242.420 165.674 C 254.377 165.517,253.600 165.953,253.600 159.400 C 253.600 153.142,252.857 153.393,252.712 159.700 M275.294 159.400 C 275.203 165.793,274.881 165.484,281.815 165.666 C 287.758 165.822,288.514 166.040,289.766 167.962 L 290.443 169.000 290.172 168.000 C 289.771 166.515,289.267 166.049,287.760 165.766 C 287.012 165.626,286.400 165.356,286.400 165.167 C 286.400 164.978,284.015 164.773,281.100 164.712 L 275.800 164.600 275.581 159.600 L 275.362 154.600 275.294 159.400 M322.000 165.150 C 322.000 165.343,321.505 165.601,320.900 165.725 C 319.454 166.021,318.548 166.774,318.188 167.979 C 317.942 168.805,318.123 168.710,319.342 167.379 L 320.788 165.800 326.794 165.663 C 334.265 165.493,334.752 164.800,327.400 164.800 C 324.430 164.800,322.000 164.958,322.000 165.150 M335.464 167.199 C 336.087 167.860,336.647 168.400,336.708 168.400 C 337.057 168.400,335.449 166.428,334.941 166.233 C 334.606 166.104,334.841 166.539,335.464 167.199 M151.029 166.706 C 151.265 166.868,151.576 167.319,151.720 167.709 C 151.864 168.099,152.301 168.536,152.691 168.680 C 153.081 168.824,153.532 169.135,153.694 169.371 C 153.890 169.657,153.990 169.630,153.994 169.290 C 153.997 169.010,153.575 168.618,153.055 168.421 C 152.535 168.223,152.012 167.688,151.892 167.231 C 151.773 166.774,151.433 166.403,151.137 166.406 C 150.785 166.410,150.748 166.514,151.029 166.706 M290.400 170.600 C 290.400 171.150,290.580 171.600,290.800 171.600 C 291.020 171.600,291.200 171.150,291.200 170.600 C 291.200 170.050,291.020 169.600,290.800 169.600 C 290.580 169.600,290.400 170.050,290.400 170.600 M158.115 170.296 C 159.388 170.376,161.368 170.375,162.515 170.294 C 163.662 170.214,162.620 170.149,160.200 170.150 C 157.780 170.151,156.842 170.216,158.115 170.296 M166.150 176.200 C 166.151 178.620,166.216 179.558,166.296 178.285 C 166.376 177.012,166.375 175.032,166.294 173.885 C 166.214 172.738,166.149 173.780,166.150 176.200 M338.178 184.200 C 338.178 191.020,338.232 193.866,338.299 190.525 C 338.366 187.184,338.366 181.604,338.299 178.125 C 338.233 174.646,338.178 177.380,338.178 184.200 M167.029 182.706 C 167.265 182.868,167.576 183.319,167.720 183.709 C 167.864 184.099,168.301 184.536,168.691 184.680 C 169.081 184.824,169.532 185.135,169.694 185.371 C 169.890 185.657,169.990 185.630,169.994 185.290 C 169.997 185.010,169.575 184.618,169.055 184.421 C 168.535 184.223,168.012 183.688,167.892 183.231 C 167.773 182.774,167.433 182.403,167.137 182.406 C 166.785 182.410,166.748 182.514,167.029 182.706 M174.115 186.296 C 175.388 186.376,177.368 186.375,178.515 186.294 C 179.662 186.214,178.620 186.149,176.200 186.150 C 173.780 186.151,172.842 186.216,174.115 186.296 M244.127 186.300 C 248.707 186.364,256.087 186.364,260.527 186.299 C 264.967 186.235,261.220 186.183,252.200 186.183 C 243.180 186.183,239.547 186.235,244.127 186.300 M182.150 192.200 C 182.151 194.620,182.216 195.558,182.296 194.285 C 182.376 193.012,182.375 191.032,182.294 189.885 C 182.214 188.738,182.149 189.780,182.150 192.200 M234.150 192.200 C 234.151 194.620,234.216 195.558,234.296 194.285 C 234.376 193.012,234.375 191.032,234.294 189.885 C 234.214 188.738,234.149 189.780,234.150 192.200 M270.150 192.200 C 270.151 194.620,270.216 195.558,270.296 194.285 C 270.376 193.012,270.375 191.032,270.294 189.885 C 270.214 188.738,270.149 189.780,270.150 192.200 M270.400 197.400 C 270.400 197.730,270.580 198.000,270.800 198.000 C 271.020 198.000,271.200 197.730,271.200 197.400 C 271.200 197.070,271.020 196.800,270.800 196.800 C 270.580 196.800,270.400 197.070,270.400 197.400 M183.029 198.706 C 183.265 198.868,183.576 199.319,183.720 199.709 C 183.864 200.099,184.301 200.536,184.691 200.680 C 185.081 200.824,185.532 201.135,185.694 201.371 C 185.890 201.657,185.990 201.630,185.994 201.290 C 185.997 201.010,185.575 200.618,185.055 200.421 C 184.535 200.223,184.012 199.688,183.892 199.231 C 183.773 198.774,183.433 198.403,183.137 198.406 C 182.785 198.410,182.748 198.514,183.029 198.706 M232.421 199.345 C 232.223 199.865,231.688 200.388,231.231 200.508 C 230.774 200.627,230.403 200.967,230.406 201.263 C 230.410 201.615,230.514 201.652,230.706 201.371 C 230.868 201.135,231.319 200.824,231.709 200.680 C 232.099 200.536,232.536 200.099,232.680 199.709 C 232.824 199.319,233.135 198.868,233.371 198.706 C 233.657 198.510,233.630 198.410,233.290 198.406 C 233.010 198.403,232.618 198.825,232.421 199.345 M271.544 199.261 C 271.727 199.756,272.220 200.350,272.639 200.581 C 273.057 200.811,273.532 201.180,273.694 201.400 C 273.875 201.646,273.990 201.604,273.994 201.290 C 273.997 201.010,273.550 200.609,273.000 200.400 C 272.450 200.191,272.000 199.756,272.000 199.434 C 272.000 199.111,271.822 198.737,271.605 198.603 C 271.355 198.449,271.333 198.689,271.544 199.261 M336.421 199.345 C 336.223 199.865,335.688 200.388,335.231 200.508 C 334.774 200.627,334.403 200.967,334.406 201.263 C 334.410 201.615,334.514 201.652,334.706 201.371 C 334.868 201.135,335.319 200.824,335.709 200.680 C 336.099 200.536,336.536 200.099,336.680 199.709 C 336.824 199.319,337.135 198.868,337.371 198.706 C 337.657 198.510,337.630 198.410,337.290 198.406 C 337.010 198.403,336.618 198.825,336.421 199.345 M198.128 202.300 C 203.808 202.362,212.988 202.362,218.528 202.300 C 224.068 202.237,219.420 202.186,208.200 202.186 C 196.980 202.186,192.448 202.237,198.128 202.300 M290.129 202.300 C 298.011 202.361,310.791 202.361,318.529 202.300 C 326.268 202.239,319.820 202.189,304.200 202.190 C 288.580 202.190,282.248 202.239,290.129 202.300 "
                    stroke="none"
                    fill="#bcbcbc"
                    fill-rule="evenodd"></path><path id="path3"
                    d="M187.294 50.013 C 185.537 50.722,184.749 59.994,186.207 62.813 L 186.814 63.986 219.924 64.093 L 253.034 64.200 254.617 65.737 L 256.200 67.275 256.305 109.437 C 256.374 136.823,256.549 151.600,256.805 151.600 C 257.048 151.600,257.200 154.058,257.200 158.000 C 257.200 161.520,257.065 164.402,256.900 164.405 C 256.735 164.407,256.274 165.089,255.877 165.920 C 254.651 168.481,253.334 168.800,243.994 168.800 L 235.993 168.800 234.797 169.866 C 234.138 170.452,233.600 171.172,233.600 171.466 C 233.600 171.760,233.420 172.000,233.200 172.000 C 232.958 172.000,232.800 173.733,232.800 176.400 C 232.800 179.067,232.958 180.800,233.200 180.800 C 233.420 180.800,233.600 181.064,233.600 181.386 C 233.600 182.683,235.107 182.800,251.774 182.800 C 262.591 182.800,268.400 182.940,268.400 183.200 C 268.400 183.420,268.738 183.600,269.152 183.600 C 269.565 183.600,270.682 184.355,271.633 185.278 L 273.363 186.957 273.637 192.178 C 273.960 198.307,273.736 197.443,275.195 198.198 C 277.153 199.210,332.857 198.914,333.886 197.886 C 334.593 197.179,335.247 174.190,334.628 171.800 C 333.576 167.740,321.600 167.433,321.600 171.466 C 321.600 171.760,321.435 172.000,321.233 172.000 C 321.032 172.000,320.807 174.146,320.733 176.768 L 320.600 181.536 319.067 183.068 L 317.533 184.600 304.204 184.600 L 290.875 184.600 289.338 183.017 L 287.800 181.434 287.592 176.417 L 287.385 171.400 286.062 170.100 C 284.740 168.802,284.733 168.800,280.583 168.800 C 276.594 168.800,273.600 168.089,273.600 167.141 C 273.600 166.971,273.198 166.457,272.707 165.999 L 271.813 165.166 271.947 116.710 C 272.021 90.059,272.176 68.007,272.291 67.707 C 272.563 66.997,274.663 64.901,275.610 64.395 C 276.074 64.146,286.686 63.996,304.274 63.989 L 332.200 63.978 333.400 62.756 L 334.600 61.533 334.600 56.381 C 334.600 51.968,334.497 51.126,333.886 50.514 C 333.081 49.710,189.264 49.218,187.294 50.013 M171.294 66.015 C 169.521 66.727,168.750 75.996,170.226 78.850 L 170.852 80.061 176.126 79.931 C 183.537 79.747,183.747 79.537,183.931 72.126 L 184.061 66.852 182.850 66.226 C 181.485 65.520,172.916 65.363,171.294 66.015 M67.294 82.015 C 65.907 82.572,65.526 84.183,65.669 88.887 C 65.864 95.285,62.221 94.581,95.814 94.708 C 114.153 94.777,124.400 94.956,124.400 95.208 C 124.400 95.424,124.730 95.600,125.133 95.600 C 126.084 95.600,128.800 98.316,128.800 99.267 C 128.800 99.670,128.965 100.000,129.166 100.000 C 129.367 100.000,129.592 102.064,129.666 104.587 C 129.853 110.976,129.183 110.571,139.813 110.722 C 144.851 110.794,148.400 111.000,148.400 111.222 C 148.400 111.430,148.730 111.600,149.133 111.600 C 150.084 111.600,152.800 114.316,152.800 115.267 C 152.800 115.670,152.976 116.000,153.191 116.000 C 153.440 116.000,153.622 124.911,153.691 140.586 C 153.793 163.556,153.847 165.219,154.513 165.886 C 155.562 166.937,164.429 167.180,166.237 166.208 L 167.473 165.542 167.736 155.071 C 167.880 149.312,167.999 130.700,167.999 113.710 L 168.000 82.821 166.820 82.210 C 165.452 81.503,69.040 81.313,67.294 82.015 M170.227 170.100 C 169.223 171.966,169.438 180.811,170.513 181.887 C 172.089 183.462,182.800 183.026,182.800 181.386 C 182.800 181.064,182.980 180.800,183.200 180.800 C 183.442 180.800,183.600 179.067,183.600 176.400 C 183.600 173.733,183.442 172.000,183.200 172.000 C 182.980 172.000,182.800 171.760,182.800 171.466 C 182.800 169.628,180.585 168.800,175.666 168.800 L 170.926 168.800 170.227 170.100 M187.600 185.200 C 187.600 185.420,187.336 185.600,187.014 185.600 C 185.374 185.600,184.938 196.313,186.514 197.887 C 187.618 198.989,228.782 198.989,229.886 197.887 C 231.462 196.313,231.026 185.600,229.386 185.600 C 229.064 185.600,228.800 185.420,228.800 185.200 C 228.800 184.939,221.667 184.800,208.200 184.800 C 194.733 184.800,187.600 184.939,187.600 185.200 "
                    stroke="none"
                    fill="#040404"
                    fill-rule="evenodd"></path><path id="path4"
                    d="M188.000 45.148 C 188.000 45.340,187.121 45.614,186.047 45.756 C 183.432 46.103,182.103 47.432,181.756 50.047 C 181.614 51.121,181.340 52.000,181.148 52.000 C 180.957 52.000,180.800 53.980,180.800 56.400 L 180.800 60.800 176.400 60.800 C 173.980 60.800,172.000 60.957,172.000 61.148 C 172.000 61.340,171.121 61.614,170.047 61.756 C 167.432 62.103,166.103 63.432,165.756 66.047 C 165.614 67.121,165.340 68.000,165.148 68.000 C 164.957 68.000,164.800 69.980,164.800 72.400 L 164.800 76.800 116.400 76.800 C 89.172 76.800,68.000 76.952,68.000 77.148 C 68.000 77.340,67.121 77.614,66.047 77.756 C 63.432 78.103,62.103 79.432,61.756 82.047 C 61.614 83.121,61.340 84.000,61.148 84.000 C 60.957 84.000,60.800 85.890,60.800 88.200 C 60.800 90.510,60.957 92.400,61.148 92.400 C 61.340 92.400,61.614 93.279,61.756 94.353 C 62.103 96.968,63.432 98.297,66.047 98.644 C 67.121 98.786,68.000 99.060,68.000 99.252 C 68.000 99.446,80.533 99.600,96.400 99.600 L 124.800 99.600 124.800 104.000 C 124.800 106.420,124.957 108.400,125.148 108.400 C 125.340 108.400,125.614 109.279,125.756 110.353 C 126.103 112.968,127.432 114.297,130.047 114.644 C 131.121 114.786,132.000 115.060,132.000 115.252 C 132.000 115.443,135.780 115.600,140.400 115.600 L 148.800 115.600 148.800 140.000 C 148.800 153.594,148.954 164.400,149.148 164.400 C 149.340 164.400,149.614 165.279,149.756 166.353 C 150.103 168.968,151.432 170.297,154.047 170.644 C 155.121 170.786,156.000 171.060,156.000 171.252 C 156.000 171.443,157.980 171.600,160.400 171.600 L 164.800 171.600 164.800 176.000 C 164.800 178.420,164.957 180.400,165.148 180.400 C 165.340 180.400,165.614 181.279,165.756 182.353 C 166.103 184.968,167.432 186.297,170.047 186.644 C 171.121 186.786,172.000 187.060,172.000 187.252 C 172.000 187.443,173.980 187.600,176.400 187.600 L 180.800 187.600 180.800 192.000 C 180.800 194.420,180.957 196.400,181.148 196.400 C 181.340 196.400,181.614 197.279,181.756 198.353 C 182.103 200.968,183.432 202.297,186.047 202.644 C 187.121 202.786,188.000 203.060,188.000 203.252 C 188.000 203.445,196.991 203.600,208.200 203.600 C 219.409 203.600,228.400 203.445,228.400 203.252 C 228.400 203.060,229.279 202.786,230.353 202.644 C 232.968 202.297,234.297 200.968,234.644 198.353 C 234.786 197.279,235.060 196.400,235.252 196.400 C 235.443 196.400,235.600 194.420,235.600 192.000 L 235.600 187.600 252.400 187.600 L 269.200 187.600 269.200 191.527 C 269.200 199.452,270.392 202.159,274.098 202.651 C 275.144 202.790,276.000 203.060,276.000 203.252 C 276.000 203.446,288.447 203.600,304.200 203.600 C 319.953 203.600,332.400 203.446,332.400 203.252 C 332.400 203.060,333.279 202.786,334.353 202.644 C 336.968 202.297,338.297 200.968,338.644 198.353 C 338.786 197.279,339.060 196.400,339.252 196.400 C 339.443 196.400,339.600 190.910,339.600 184.200 C 339.600 176.333,339.458 172.000,339.200 172.000 C 338.980 172.000,338.800 171.402,338.800 170.671 C 338.800 168.864,337.645 165.600,337.005 165.600 C 336.719 165.600,336.382 165.330,336.255 165.000 C 336.129 164.670,335.631 164.400,335.150 164.400 L 334.275 164.400 334.522 157.533 C 334.658 153.757,334.929 150.562,335.124 150.433 C 335.320 150.305,335.596 143.360,335.738 135.000 C 335.880 126.640,336.190 112.780,336.427 104.200 C 336.663 95.620,336.735 83.985,336.587 78.343 C 336.355 69.578,336.401 68.037,336.900 67.743 C 337.878 67.168,338.419 65.720,338.673 62.998 C 338.807 61.569,339.070 60.400,339.258 60.400 C 339.446 60.400,339.600 58.510,339.600 56.200 C 339.600 53.890,339.443 52.000,339.252 52.000 C 339.060 52.000,338.786 51.121,338.644 50.047 C 338.297 47.432,336.968 46.103,334.353 45.756 C 333.279 45.614,332.400 45.340,332.400 45.148 C 332.400 44.952,300.949 44.800,260.200 44.800 C 219.451 44.800,188.000 44.952,188.000 45.148 M333.300 46.421 C 334.125 46.650,334.800 46.988,334.800 47.172 C 334.800 47.356,335.173 47.604,335.630 47.724 C 336.086 47.843,336.557 48.314,336.676 48.770 C 336.796 49.227,337.044 49.600,337.228 49.600 C 338.923 49.600,338.677 62.580,336.950 64.307 C 336.648 64.610,336.400 65.088,336.400 65.371 C 336.400 65.994,334.052 68.000,333.323 68.000 C 332.915 68.000,332.800 69.362,332.800 74.200 C 332.800 78.067,332.951 80.400,333.200 80.400 C 333.759 80.400,333.742 94.286,333.183 94.472 C 332.919 94.560,332.675 97.959,332.520 103.706 L 332.274 112.800 304.201 112.800 L 276.127 112.800 275.889 138.480 C 275.758 152.603,275.740 164.303,275.849 164.480 C 275.958 164.656,278.377 164.800,281.224 164.800 C 284.071 164.800,286.400 164.960,286.400 165.155 C 286.400 165.351,287.012 165.626,287.760 165.766 C 289.364 166.067,289.905 166.627,290.248 168.338 C 290.386 169.032,290.657 169.600,290.850 169.600 C 291.043 169.600,291.206 171.985,291.213 174.900 C 291.230 182.287,289.904 181.600,304.144 181.600 C 318.743 181.600,317.600 182.145,317.600 175.177 C 317.600 167.938,318.523 165.600,321.380 165.600 C 321.721 165.600,322.000 165.420,322.000 165.200 C 322.000 164.953,324.067 164.800,327.400 164.800 C 330.370 164.800,332.800 164.944,332.800 165.120 C 332.800 165.295,333.426 165.666,334.191 165.942 C 334.960 166.220,335.892 166.971,336.277 167.623 C 336.659 168.270,337.099 168.800,337.253 168.800 C 338.035 168.800,338.400 173.749,338.398 184.320 C 338.396 195.084,338.095 198.800,337.228 198.800 C 337.044 198.800,336.796 199.173,336.676 199.630 C 336.557 200.086,336.086 200.557,335.630 200.676 C 335.173 200.796,334.800 201.044,334.800 201.228 C 334.800 202.235,330.604 202.396,304.200 202.396 C 277.796 202.396,273.600 202.235,273.600 201.228 C 273.600 201.044,273.242 200.800,272.805 200.685 C 272.367 200.571,271.816 199.969,271.580 199.347 C 271.343 198.725,270.942 198.088,270.689 197.931 C 270.399 197.752,270.148 195.744,270.014 192.523 C 269.896 189.705,269.654 187.175,269.476 186.900 C 268.935 186.063,235.871 186.186,235.029 187.029 C 234.540 187.517,234.400 188.563,234.398 191.729 C 234.396 195.729,233.887 198.800,233.228 198.800 C 233.044 198.800,232.796 199.173,232.676 199.630 C 232.557 200.086,232.086 200.557,231.630 200.676 C 231.173 200.796,230.800 201.044,230.800 201.228 C 230.800 202.190,226.816 202.396,208.200 202.396 C 189.584 202.396,185.600 202.190,185.600 201.228 C 185.600 201.044,185.227 200.796,184.770 200.676 C 184.314 200.557,183.843 200.086,183.724 199.630 C 183.604 199.173,183.356 198.800,183.172 198.800 C 182.513 198.800,182.004 195.729,182.002 191.729 C 181.999 186.404,181.996 186.401,176.671 186.398 C 172.671 186.396,169.600 185.887,169.600 185.228 C 169.600 185.044,169.227 184.796,168.770 184.676 C 168.314 184.557,167.843 184.086,167.724 183.630 C 167.604 183.173,167.356 182.800,167.172 182.800 C 166.513 182.800,166.004 179.729,166.002 175.729 C 165.999 170.404,165.996 170.401,160.671 170.398 C 156.671 170.396,153.600 169.887,153.600 169.228 C 153.600 169.044,153.227 168.796,152.770 168.676 C 152.314 168.557,151.843 168.086,151.724 167.630 C 151.604 167.173,151.356 166.800,151.172 166.800 C 150.182 166.800,150.004 162.692,150.002 139.729 C 150.000 118.381,149.929 115.586,149.371 115.029 C 148.842 114.499,147.474 114.400,140.671 114.398 C 133.133 114.396,129.600 114.022,129.600 113.228 C 129.600 113.044,129.227 112.796,128.770 112.676 C 128.314 112.557,127.843 112.086,127.724 111.630 C 127.604 111.173,127.356 110.800,127.172 110.800 C 126.513 110.800,126.004 107.729,126.002 103.729 C 125.999 97.771,129.463 98.400,96.671 98.398 C 69.809 98.396,65.600 98.237,65.600 97.228 C 65.600 97.044,65.227 96.796,64.770 96.676 C 64.314 96.557,63.843 96.086,63.724 95.630 C 63.604 95.173,63.356 94.800,63.172 94.800 C 62.537 94.800,62.004 91.789,62.004 88.200 C 62.004 84.611,62.537 81.600,63.172 81.600 C 63.356 81.600,63.604 81.227,63.724 80.770 C 63.843 80.314,64.314 79.843,64.770 79.724 C 65.227 79.604,65.600 79.356,65.600 79.172 C 65.600 78.111,70.259 78.004,116.671 78.002 C 159.837 78.000,164.807 77.936,165.371 77.371 C 165.860 76.883,166.000 75.837,166.002 72.671 C 166.004 68.671,166.513 65.600,167.172 65.600 C 167.356 65.600,167.604 65.227,167.724 64.770 C 167.843 64.314,168.314 63.843,168.770 63.724 C 169.227 63.604,169.600 63.356,169.600 63.172 C 169.600 62.513,172.671 62.004,176.671 62.002 C 181.996 61.999,181.999 61.996,182.002 56.671 C 182.004 52.671,182.513 49.600,183.172 49.600 C 183.356 49.600,183.604 49.227,183.724 48.770 C 183.843 48.314,184.314 47.843,184.770 47.724 C 185.227 47.604,185.600 47.353,185.600 47.165 C 185.600 46.977,186.185 46.654,186.900 46.448 C 188.782 45.904,331.346 45.878,333.300 46.421 M171.889 138.480 C 171.758 152.603,171.740 164.303,171.849 164.480 C 171.958 164.656,174.377 164.800,177.224 164.800 C 180.408 164.800,182.400 164.954,182.400 165.200 C 182.400 165.420,182.679 165.600,183.020 165.600 C 185.877 165.600,186.800 167.938,186.800 175.177 C 186.800 182.316,184.413 181.600,208.200 181.600 C 231.987 181.600,229.600 182.316,229.600 175.177 C 229.600 167.938,230.523 165.600,233.380 165.600 C 233.721 165.600,234.000 165.420,234.000 165.200 C 234.000 164.945,237.325 164.800,243.176 164.800 C 248.223 164.800,252.442 164.656,252.551 164.480 C 252.660 164.303,252.642 152.603,252.511 138.480 L 252.273 112.800 212.200 112.800 L 172.127 112.800 171.889 138.480 "
                    stroke="none"
                    fill="#c4c4c4"
                    fill-rule="evenodd"></path>
        </g>
    </svg>