<svg
        name="man_14"
        id="man_14"
        version="1.2"
        xmlns="http://www.w3.org/2000/svg" xmlns:xlink="http://www.w3.org/1999/xlink"
        width="400"
        height="400"
        viewBox="0, 0, 400, 400">
        <g id="svgg">
            <path id="path0"
                    d="M23.131 7.900 C 35.963 7.959,56.843 7.959,69.531 7.900 C 82.219 7.841,71.720 7.793,46.200 7.793 C 20.680 7.793,10.299 7.841,23.131 7.900 M342.900 7.900 C 353.405 7.959,370.595 7.959,381.100 7.900 C 391.605 7.841,383.010 7.792,362.000 7.792 C 340.990 7.792,332.395 7.841,342.900 7.900 M131.939 46.531 L 131.800 57.062 130.431 58.431 L 129.062 59.800 114.544 59.931 L 100.027 60.061 99.913 98.561 L 99.800 137.062 98.458 138.403 L 97.117 139.745 90.558 139.924 L 84.000 140.104 84.000 164.200 L 84.000 188.296 90.558 188.476 L 97.117 188.655 98.458 189.997 L 99.800 191.338 99.905 295.669 L 100.010 400.000 192.205 400.000 L 284.400 400.000 284.400 384.406 L 284.400 368.811 243.853 368.706 L 203.306 368.600 201.553 366.847 L 199.800 365.094 199.800 348.200 L 199.800 331.306 201.553 329.553 L 203.306 327.800 208.200 327.800 L 213.094 327.800 214.847 329.552 L 216.600 331.304 216.736 335.935 L 216.873 340.567 218.382 342.077 L 219.892 343.586 252.496 343.693 L 285.101 343.800 286.750 345.400 C 287.657 346.280,288.399 347.225,288.400 347.500 C 288.400 347.775,288.580 348.000,288.800 348.000 C 289.054 348.000,289.200 351.000,289.200 356.200 L 289.200 364.400 302.761 364.400 L 316.322 364.400 316.461 353.869 L 316.600 343.338 317.942 341.996 L 319.283 340.655 325.842 340.476 L 332.400 340.296 332.400 208.200 L 332.400 76.104 325.842 75.924 L 319.283 75.745 317.969 74.431 L 316.655 73.117 316.477 66.605 L 316.299 60.093 309.877 59.930 C 305.340 59.814,303.408 59.624,303.294 59.283 C 303.206 59.017,302.885 58.800,302.581 58.800 C 301.836 58.800,301.200 57.523,301.200 56.026 C 301.200 55.352,301.020 54.800,300.800 54.800 C 300.545 54.800,300.400 51.400,300.400 45.400 L 300.400 36.000 216.239 36.000 L 132.078 36.000 131.939 46.531 M230.299 88.268 C 232.407 89.478,232.800 90.724,232.800 96.200 C 232.800 103.891,231.934 104.800,224.610 104.800 C 221.142 104.800,220.036 104.928,219.875 105.349 C 219.759 105.652,219.010 106.022,218.211 106.172 C 217.412 106.321,216.661 106.697,216.542 107.007 C 216.423 107.316,215.983 107.679,215.563 107.812 C 214.705 108.084,214.353 116.800,215.200 116.800 C 215.420 116.800,215.600 117.277,215.600 117.860 C 215.600 118.443,215.877 120.288,216.215 121.960 C 216.720 124.458,216.809 127.859,216.715 141.047 L 216.600 157.095 214.847 158.847 L 213.094 160.600 200.200 160.600 L 187.306 160.600 185.553 158.847 L 183.800 157.095 183.685 141.047 C 183.591 127.859,183.680 124.458,184.185 121.960 C 184.523 120.288,184.800 118.443,184.800 117.860 C 184.800 117.277,184.980 116.800,185.200 116.800 C 185.443 116.800,185.600 115.000,185.600 112.200 C 185.600 109.670,185.440 107.600,185.243 107.600 C 183.768 107.600,182.927 92.437,184.272 90.094 C 185.704 87.599,184.950 87.677,208.068 87.637 C 227.061 87.604,229.250 87.666,230.299 88.268 M318.299 88.268 C 320.407 89.478,320.800 90.724,320.800 96.200 C 320.800 103.891,319.934 104.800,312.610 104.800 C 309.142 104.800,308.036 104.928,307.875 105.349 C 307.759 105.652,307.064 106.015,306.332 106.156 C 303.015 106.796,302.196 112.816,304.185 121.936 C 304.725 124.413,304.808 127.403,304.713 141.016 L 304.600 157.159 302.863 158.880 L 301.125 160.600 289.063 160.718 C 275.221 160.853,275.816 160.929,273.533 158.736 L 271.800 157.071 271.681 141.236 C 271.564 125.566,271.851 120.586,272.909 119.933 C 273.512 119.560,273.579 106.898,272.980 106.488 C 272.159 105.926,271.600 101.864,271.601 96.469 C 271.602 90.587,271.987 89.509,274.600 88.066 C 276.071 87.254,316.861 87.443,318.299 88.268 M270.750 193.400 C 271.657 194.280,272.399 195.225,272.400 195.500 C 272.400 195.775,272.580 196.000,272.800 196.000 C 273.041 196.000,273.200 197.667,273.200 200.200 C 273.200 202.733,273.041 204.400,272.800 204.400 C 272.580 204.400,272.400 204.625,272.400 204.900 C 272.399 205.175,271.657 206.120,270.750 207.000 L 269.101 208.600 252.203 208.600 L 235.306 208.600 233.553 206.847 L 231.800 205.094 231.800 200.200 L 231.800 195.306 233.400 193.715 C 235.607 191.519,234.422 191.642,252.651 191.725 L 269.101 191.800 270.750 193.400 M126.848 281.552 L 128.600 283.304 128.733 288.503 C 128.856 293.330,128.933 293.769,129.802 294.639 L 130.739 295.575 147.917 295.688 L 165.095 295.800 166.847 297.553 L 168.600 299.306 168.600 304.200 L 168.600 309.094 166.847 310.847 L 165.094 312.600 148.200 312.600 L 131.306 312.600 129.553 310.848 L 127.800 309.096 127.667 303.897 C 127.487 296.838,127.562 296.913,120.503 296.733 L 115.304 296.600 113.552 294.847 L 111.800 293.094 111.800 288.200 L 111.800 283.306 113.400 281.715 C 115.512 279.614,115.505 279.616,120.648 279.715 L 125.096 279.800 126.848 281.552 "
                    stroke="none"
                    fill="#fcdcb4"
                    fill-rule="evenodd"></path><path id="path1"
                    d="M131.447 32.524 C 128.273 34.531,128.029 35.388,127.907 45.000 L 127.800 53.400 126.600 54.600 L 125.400 55.800 113.000 55.903 C 100.081 56.011,99.574 56.075,97.825 57.825 C 95.944 59.705,96.000 58.573,95.897 97.000 L 95.800 133.400 94.600 134.600 C 93.430 135.770,93.289 135.803,89.000 135.915 C 83.692 136.054,82.170 136.703,80.500 139.540 C 79.774 140.773,79.774 187.627,80.500 188.860 C 82.170 191.697,83.692 192.346,89.000 192.485 C 93.289 192.597,93.430 192.630,94.600 193.800 L 95.800 195.000 95.902 297.500 L 96.005 400.000 98.007 400.000 L 100.010 400.000 99.905 295.669 L 99.800 191.338 98.458 189.997 L 97.117 188.655 90.558 188.476 L 84.000 188.296 84.000 164.200 L 84.000 140.104 90.558 139.924 L 97.117 139.745 98.458 138.403 L 99.800 137.062 99.913 98.561 L 100.027 60.061 114.544 59.931 L 129.062 59.800 130.431 58.431 L 131.800 57.062 131.939 46.531 L 132.078 36.000 216.239 36.000 L 300.400 36.000 300.400 45.400 C 300.400 51.400,300.545 54.800,300.800 54.800 C 301.020 54.800,301.200 55.352,301.200 56.026 C 301.200 57.523,301.836 58.800,302.581 58.800 C 302.885 58.800,303.206 59.017,303.294 59.283 C 303.408 59.624,305.340 59.814,309.877 59.930 L 316.299 60.093 316.477 66.605 L 316.655 73.117 317.969 74.431 L 319.283 75.745 325.842 75.924 L 332.400 76.104 332.400 208.200 L 332.400 340.296 325.842 340.476 L 319.283 340.655 317.942 341.996 L 316.600 343.338 316.461 353.869 L 316.322 364.400 302.761 364.400 L 289.200 364.400 289.200 356.200 C 289.200 351.000,289.054 348.000,288.800 348.000 C 288.580 348.000,288.400 347.775,288.400 347.500 C 288.399 347.225,287.657 346.280,286.750 345.400 L 285.101 343.800 252.496 343.693 L 219.892 343.586 218.382 342.077 L 216.873 340.567 216.736 335.935 L 216.600 331.304 214.847 329.552 L 213.094 327.800 208.200 327.800 L 203.306 327.800 201.553 329.553 L 199.800 331.306 199.800 348.200 L 199.800 365.094 201.553 366.847 L 203.306 368.600 243.853 368.706 L 284.400 368.811 284.400 384.406 L 284.400 400.000 286.400 400.000 L 288.400 400.000 288.400 385.800 C 288.400 376.600,288.541 371.600,288.800 371.600 C 289.020 371.600,289.206 371.375,289.213 371.100 C 289.221 370.825,289.601 370.150,290.058 369.600 L 290.889 368.600 303.345 368.497 C 316.322 368.389,316.825 368.326,318.575 366.575 C 320.241 364.910,320.382 364.083,320.493 355.400 L 320.600 347.000 321.800 345.800 C 322.970 344.630,323.111 344.597,327.400 344.485 C 332.708 344.346,334.230 343.697,335.900 340.860 C 336.635 339.612,336.635 76.788,335.900 75.540 C 334.230 72.703,332.708 72.054,327.400 71.915 C 321.166 71.752,320.648 71.234,320.485 65.000 C 320.289 57.539,318.861 56.111,311.400 55.915 C 307.111 55.803,306.970 55.770,305.800 54.600 L 304.600 53.400 304.493 45.000 C 304.370 35.352,304.009 34.118,300.813 32.407 C 299.640 31.779,132.442 31.894,131.447 32.524 M185.972 88.298 C 183.961 89.521,183.600 90.782,183.600 96.583 C 183.600 101.846,184.458 107.600,185.243 107.600 C 185.440 107.600,185.600 109.670,185.600 112.200 C 185.600 115.000,185.443 116.800,185.200 116.800 C 184.980 116.800,184.800 117.277,184.800 117.860 C 184.800 118.443,184.523 120.288,184.185 121.960 C 183.680 124.458,183.591 127.859,183.685 141.047 L 183.800 157.095 185.553 158.847 L 187.306 160.600 200.200 160.600 L 213.094 160.600 214.847 158.847 L 216.600 157.095 216.715 141.047 C 216.809 127.859,216.720 124.458,216.215 121.960 C 215.877 120.288,215.600 118.443,215.600 117.860 C 215.600 117.277,215.420 116.800,215.200 116.800 C 214.353 116.800,214.705 108.084,215.563 107.812 C 215.983 107.679,216.423 107.316,216.542 107.007 C 216.661 106.697,217.412 106.321,218.211 106.172 C 219.010 106.022,219.759 105.652,219.875 105.349 C 220.036 104.928,221.142 104.800,224.610 104.800 C 231.934 104.800,232.800 103.891,232.800 96.200 C 232.800 90.724,232.407 89.478,230.299 88.268 C 228.591 87.288,187.588 87.316,185.972 88.298 M274.600 88.066 C 271.987 89.509,271.602 90.587,271.601 96.469 C 271.600 101.864,272.159 105.926,272.980 106.488 C 273.579 106.898,273.512 119.560,272.909 119.933 C 271.851 120.586,271.564 125.566,271.681 141.236 L 271.800 157.071 273.533 158.736 C 275.816 160.929,275.221 160.853,289.063 160.718 L 301.125 160.600 302.863 158.880 L 304.600 157.159 304.713 141.016 C 304.808 127.403,304.725 124.413,304.185 121.936 C 302.196 112.816,303.015 106.796,306.332 106.156 C 307.064 106.015,307.759 105.652,307.875 105.349 C 308.036 104.928,309.142 104.800,312.610 104.800 C 319.934 104.800,320.800 103.891,320.800 96.200 C 320.800 90.724,320.407 89.478,318.299 88.268 C 316.861 87.443,276.071 87.254,274.600 88.066 M235.600 191.887 C 235.270 192.017,234.280 192.840,233.400 193.715 L 231.800 195.306 231.800 200.200 L 231.800 205.094 233.553 206.847 L 235.306 208.600 252.203 208.600 L 269.101 208.600 270.750 207.000 C 271.657 206.120,272.399 205.175,272.400 204.900 C 272.400 204.625,272.580 204.400,272.800 204.400 C 273.041 204.400,273.200 202.733,273.200 200.200 C 273.200 197.667,273.041 196.000,272.800 196.000 C 272.580 196.000,272.400 195.775,272.400 195.500 C 272.399 195.225,271.657 194.280,270.750 193.400 L 269.101 191.800 252.651 191.725 C 243.603 191.684,235.930 191.757,235.600 191.887 M115.600 279.877 C 115.270 280.012,114.280 280.840,113.400 281.715 L 111.800 283.306 111.800 288.200 L 111.800 293.094 113.552 294.847 L 115.304 296.600 120.503 296.733 C 127.562 296.913,127.487 296.838,127.667 303.897 L 127.800 309.096 129.553 310.848 L 131.306 312.600 148.200 312.600 L 165.094 312.600 166.847 310.847 L 168.600 309.094 168.600 304.200 L 168.600 299.306 166.847 297.553 L 165.095 295.800 147.917 295.688 L 130.739 295.575 129.802 294.639 C 128.933 293.769,128.856 293.330,128.733 288.503 L 128.600 283.304 126.848 281.552 L 125.096 279.800 120.648 279.715 C 118.202 279.668,115.930 279.741,115.600 279.877 "
                    stroke="none"
                    fill="#ebc4a2"
                    fill-rule="evenodd"></path><path id="path2"
                    d="M0.000 204.000 L 0.000 400.000 30.800 400.000 L 61.600 400.000 61.600 298.200 C 61.600 196.933,61.596 196.396,60.800 195.600 C 60.085 194.885,59.467 194.800,55.008 194.800 C 44.849 194.800,45.600 197.242,45.600 164.200 C 45.600 131.158,44.849 133.600,55.008 133.600 C 62.536 133.600,61.600 141.922,61.600 75.008 C 61.600 11.066,61.395 15.449,64.439 14.231 C 65.762 13.702,68.109 13.600,79.008 13.600 C 91.467 13.600,92.033 13.567,92.800 12.800 C 93.240 12.360,93.437 12.000,93.238 12.000 C 93.038 12.000,92.751 11.100,92.600 10.000 L 92.325 8.000 46.162 8.000 L 0.000 8.000 0.000 204.000 M323.800 10.000 C 323.649 11.100,323.362 12.000,323.162 12.000 C 322.958 12.000,322.800 15.486,322.800 20.000 C 322.800 30.172,322.407 29.600,329.392 29.600 C 338.645 29.600,338.800 29.821,338.800 43.008 C 338.800 54.711,337.689 53.600,349.392 53.600 C 359.989 53.600,361.135 53.855,362.169 56.439 C 363.136 58.856,363.136 365.544,362.169 367.961 C 361.135 370.545,359.989 370.800,349.392 370.800 C 338.075 370.800,338.800 370.349,338.800 377.392 C 338.800 387.005,339.179 386.800,321.392 386.800 C 305.328 386.800,306.800 386.054,306.800 394.200 L 306.800 400.000 353.400 400.000 L 400.000 400.000 400.000 204.000 L 400.000 8.000 362.038 8.000 L 324.075 8.000 323.800 10.000 "
                    stroke="none"
                    fill="#fcfcfc"
                    fill-rule="evenodd"></path><path id="path3"
                    d="M99.892 12.598 C 99.669 17.128,99.647 17.215,98.364 18.498 L 97.062 19.800 82.540 19.931 L 68.018 20.061 67.909 78.561 L 67.800 137.062 66.458 138.403 L 65.117 139.745 58.558 139.924 L 52.000 140.104 52.000 164.200 L 52.000 188.296 58.558 188.476 L 65.117 188.655 66.458 189.997 L 67.800 191.338 67.905 295.669 L 68.010 400.000 80.205 400.000 L 92.400 400.000 92.400 298.056 L 92.400 196.112 85.826 195.913 L 79.252 195.713 77.926 194.387 L 76.600 193.062 76.600 164.200 L 76.600 135.338 77.926 134.013 L 79.252 132.687 85.811 132.488 L 92.370 132.289 92.485 93.813 L 92.600 55.338 93.969 53.969 L 95.338 52.600 109.826 52.466 L 124.315 52.332 124.457 41.835 L 124.600 31.338 125.969 29.969 L 127.338 28.600 216.200 28.600 L 305.062 28.600 306.431 29.969 L 307.800 31.338 307.942 41.814 L 308.085 52.291 314.616 52.489 L 321.148 52.687 322.431 53.969 L 323.713 55.252 323.911 61.771 L 324.109 68.291 330.629 68.489 L 337.148 68.687 338.474 70.013 L 339.800 71.338 339.800 208.200 L 339.800 345.062 338.474 346.387 L 337.148 347.713 330.616 347.911 L 324.085 348.109 323.942 358.586 L 323.800 369.062 322.431 370.431 L 321.062 371.800 306.531 371.934 L 292.000 372.069 292.000 386.034 L 292.000 400.000 296.200 400.000 L 300.400 400.000 300.400 392.800 C 300.400 388.267,300.548 385.600,300.800 385.600 C 301.020 385.600,301.200 385.048,301.200 384.374 C 301.200 382.877,301.836 381.600,302.581 381.600 C 302.885 381.600,303.208 381.375,303.300 381.100 C 303.428 380.715,306.796 380.571,317.882 380.473 L 332.298 380.346 332.476 373.815 L 332.655 367.283 333.996 365.942 L 335.338 364.600 345.869 364.461 L 356.400 364.322 356.400 212.200 L 356.400 60.078 345.869 59.939 L 335.338 59.800 333.969 58.431 L 332.600 57.062 332.462 46.582 L 332.323 36.102 325.803 35.923 L 319.283 35.745 317.942 34.404 L 316.600 33.062 316.466 20.531 L 316.331 8.000 208.225 8.000 L 100.119 8.000 99.892 12.598 "
                    stroke="none"
                    fill="#040404"
                    fill-rule="evenodd"></path><path id="path4"
                    d="M96.229 5.700 C 96.657 13.337,96.713 12.981,94.790 14.905 L 93.095 16.600 80.484 16.716 L 67.873 16.833 66.341 18.365 L 64.808 19.898 64.704 76.496 L 64.600 133.094 62.848 134.847 L 61.096 136.600 56.465 136.736 L 51.833 136.873 50.316 138.389 L 48.800 139.906 48.800 164.200 L 48.800 188.494 50.316 190.011 L 51.833 191.527 56.465 191.664 L 61.096 191.800 62.848 193.553 L 64.600 195.306 64.702 297.653 L 64.805 400.000 66.407 400.000 L 68.010 400.000 67.905 295.669 L 67.800 191.338 66.458 189.997 L 65.117 188.655 58.558 188.476 L 52.000 188.296 52.000 164.200 L 52.000 140.104 58.558 139.924 L 65.117 139.745 66.458 138.403 L 67.800 137.062 67.909 78.561 L 68.018 20.061 82.540 19.931 L 97.062 19.800 98.364 18.498 C 99.647 17.215,99.669 17.128,99.892 12.598 L 100.119 8.000 208.225 8.000 L 316.331 8.000 316.466 20.531 L 316.600 33.062 317.942 34.404 L 319.283 35.745 325.803 35.923 L 332.323 36.102 332.462 46.582 L 332.600 57.062 333.969 58.431 L 335.338 59.800 345.869 59.939 L 356.400 60.078 356.400 212.200 L 356.400 364.322 345.869 364.461 L 335.338 364.600 333.996 365.942 L 332.655 367.283 332.476 373.815 L 332.298 380.346 317.882 380.473 C 306.796 380.571,303.428 380.715,303.300 381.100 C 303.208 381.375,302.885 381.600,302.581 381.600 C 301.836 381.600,301.200 382.877,301.200 384.374 C 301.200 385.048,301.020 385.600,300.800 385.600 C 300.548 385.600,300.400 388.267,300.400 392.800 L 300.400 400.000 301.972 400.000 L 303.545 400.000 303.672 393.652 L 303.800 387.304 305.552 385.552 L 307.305 383.800 319.916 383.684 L 332.527 383.567 334.027 382.067 L 335.527 380.567 335.664 375.935 L 335.800 371.304 337.552 369.552 L 339.304 367.800 347.922 367.677 L 356.539 367.555 358.070 366.024 L 359.600 364.494 359.600 212.200 L 359.600 59.906 358.070 58.376 L 356.539 56.845 347.922 56.723 L 339.304 56.600 337.552 54.848 L 335.800 53.096 335.677 44.478 L 335.555 35.861 334.061 34.367 L 332.567 32.873 327.935 32.736 L 323.304 32.600 321.552 30.847 L 319.800 29.095 319.800 20.247 C 319.800 15.381,319.955 8.835,320.145 5.700 L 320.490 0.000 208.200 0.000 L 95.910 0.000 96.229 5.700 M128.642 28.691 C 127.573 28.804,126.693 29.246,125.842 30.097 L 124.600 31.338 124.457 41.835 L 124.315 52.332 109.826 52.466 L 95.338 52.600 93.969 53.969 L 92.600 55.338 92.485 93.813 L 92.370 132.289 85.811 132.488 L 79.252 132.687 77.926 134.013 L 76.600 135.338 76.600 164.200 L 76.600 193.062 77.926 194.387 L 79.252 195.713 85.826 195.913 L 92.400 196.112 92.400 298.056 L 92.400 400.000 94.202 400.000 L 96.005 400.000 95.902 297.500 L 95.800 195.000 94.600 193.800 C 93.430 192.630,93.289 192.597,89.000 192.485 C 83.692 192.346,82.170 191.697,80.500 188.860 C 79.774 187.627,79.774 140.773,80.500 139.540 C 82.170 136.703,83.692 136.054,89.000 135.915 C 93.289 135.803,93.430 135.770,94.600 134.600 L 95.800 133.400 95.897 97.000 C 96.000 58.573,95.944 59.705,97.825 57.825 C 99.574 56.075,100.081 56.011,113.000 55.903 L 125.400 55.800 126.600 54.600 L 127.800 53.400 127.907 45.000 C 128.030 35.341,128.302 34.407,131.540 32.500 C 132.645 31.850,299.601 31.758,300.813 32.407 C 304.009 34.118,304.370 35.352,304.493 45.000 L 304.600 53.400 305.800 54.600 C 306.970 55.770,307.111 55.803,311.400 55.915 C 318.861 56.111,320.289 57.539,320.485 65.000 C 320.648 71.234,321.166 71.752,327.400 71.915 C 332.708 72.054,334.230 72.703,335.900 75.540 C 336.297 76.215,336.400 103.471,336.400 208.200 C 336.400 312.929,336.297 340.185,335.900 340.860 C 334.230 343.697,332.708 344.346,327.400 344.485 C 323.111 344.597,322.970 344.630,321.800 345.800 L 320.600 347.000 320.493 355.400 C 320.382 364.083,320.241 364.910,318.575 366.575 C 316.825 368.326,316.322 368.389,303.345 368.497 L 290.889 368.600 290.058 369.600 C 289.601 370.150,289.221 370.825,289.213 371.100 C 289.206 371.375,289.020 371.600,288.800 371.600 C 288.541 371.600,288.400 376.600,288.400 385.800 L 288.400 400.000 290.200 400.000 L 292.000 400.000 292.000 386.034 L 292.000 372.069 306.531 371.934 L 321.062 371.800 322.431 370.431 L 323.800 369.062 323.942 358.586 L 324.085 348.109 330.616 347.911 L 337.148 347.713 338.474 346.387 L 339.800 345.062 339.800 208.200 L 339.800 71.338 338.474 70.013 L 337.148 68.687 330.629 68.489 L 324.109 68.291 323.911 61.771 L 323.713 55.252 322.431 53.969 L 321.148 52.687 314.616 52.489 L 308.085 52.291 307.942 41.814 L 307.800 31.338 306.431 29.969 L 305.062 28.600 217.631 28.564 C 169.544 28.544,129.499 28.601,128.642 28.691 "
                    stroke="none"
                    fill="#141414"
                    fill-rule="evenodd"></path><path id="path5"
                    d="M0.000 3.800 L 0.000 7.600 46.171 7.600 L 92.342 7.600 92.617 9.800 C 92.768 11.010,93.051 12.000,93.246 12.000 C 93.441 12.000,93.249 12.351,92.820 12.780 C 92.082 13.518,91.304 13.567,78.520 13.680 C 63.945 13.809,63.405 13.885,62.344 15.944 C 61.894 16.817,61.782 26.954,61.695 74.505 C 61.593 130.271,61.566 132.034,60.834 132.766 C 60.184 133.416,59.304 133.544,54.539 133.682 C 44.943 133.959,45.800 130.967,45.800 164.200 C 45.800 197.433,44.943 194.441,54.539 194.718 C 59.318 194.857,60.183 194.983,60.839 195.639 C 61.583 196.383,61.600 198.684,61.600 298.200 L 61.600 400.000 63.202 400.000 L 64.805 400.000 64.702 297.653 L 64.600 195.306 62.848 193.553 L 61.096 191.800 56.465 191.664 L 51.833 191.527 50.316 190.011 L 48.800 188.494 48.800 164.200 L 48.800 139.906 50.316 138.389 L 51.833 136.873 56.465 136.736 L 61.096 136.600 62.848 134.847 L 64.600 133.094 64.704 76.496 L 64.808 19.898 66.341 18.365 L 67.873 16.833 80.484 16.716 L 93.095 16.600 94.743 14.951 C 96.715 12.979,96.664 13.282,96.249 5.900 L 95.917 -0.000 47.958 -0.000 L 0.000 0.000 0.000 3.800 M320.011 8.700 C 319.735 13.485,319.575 20.032,319.655 23.248 L 319.800 29.096 321.552 30.848 L 323.304 32.600 327.935 32.736 L 332.567 32.873 334.061 34.367 L 335.555 35.861 335.677 44.478 L 335.800 53.096 337.552 54.848 L 339.304 56.600 347.922 56.723 L 356.539 56.845 358.070 58.376 L 359.600 59.906 359.600 212.200 L 359.600 364.494 358.070 366.024 L 356.539 367.555 347.922 367.677 L 339.304 367.800 337.552 369.552 L 335.800 371.304 335.664 375.935 L 335.527 380.567 334.027 382.067 L 332.527 383.567 319.916 383.684 L 307.305 383.800 305.552 385.552 L 303.800 387.304 303.672 393.652 L 303.545 400.000 305.172 400.000 L 306.800 400.000 306.800 394.200 C 306.800 386.092,305.237 386.867,321.880 386.720 C 339.421 386.564,338.452 387.074,338.718 377.861 C 338.937 370.285,338.000 370.885,349.874 370.722 C 360.346 370.578,361.159 370.413,362.073 368.248 C 362.856 366.394,362.856 58.006,362.073 56.152 C 361.159 53.987,360.346 53.822,349.874 53.678 C 337.632 53.510,338.890 54.768,338.722 42.526 C 338.544 29.575,338.796 29.940,329.861 29.682 C 322.299 29.463,322.800 30.150,322.800 20.000 C 322.800 15.600,322.959 12.000,323.154 12.000 C 323.349 12.000,323.632 11.010,323.783 9.800 L 324.058 7.600 362.029 7.600 L 400.000 7.600 400.000 3.800 L 400.000 0.000 360.257 -0.000 L 320.513 -0.000 320.011 8.700 "
                    stroke="none"
                    fill="#bce4b8"
                    fill-rule="evenodd"></path><path id="path6"
                    d="M0.000 3.800 L 0.000 7.600 46.171 7.600 L 92.342 7.600 92.617 9.800 C 92.768 11.010,93.051 12.000,93.246 12.000 C 93.441 12.000,93.249 12.351,92.820 12.780 C 92.082 13.518,91.304 13.567,78.520 13.680 C 63.945 13.809,63.405 13.885,62.344 15.944 C 61.894 16.817,61.782 26.954,61.695 74.505 C 61.593 130.271,61.566 132.034,60.834 132.766 C 60.184 133.416,59.304 133.544,54.539 133.682 C 44.943 133.959,45.800 130.967,45.800 164.200 C 45.800 197.433,44.943 194.441,54.539 194.718 C 59.318 194.857,60.183 194.983,60.839 195.639 C 61.583 196.383,61.600 198.684,61.600 298.200 L 61.600 400.000 63.202 400.000 L 64.805 400.000 64.702 297.653 L 64.600 195.306 62.848 193.553 L 61.096 191.800 56.465 191.664 L 51.833 191.527 50.316 190.011 L 48.800 188.494 48.800 164.200 L 48.800 139.906 50.316 138.389 L 51.833 136.873 56.465 136.736 L 61.096 136.600 62.848 134.847 L 64.600 133.094 64.704 76.496 L 64.808 19.898 66.341 18.365 L 67.873 16.833 80.484 16.716 L 93.095 16.600 94.743 14.951 C 96.715 12.979,96.664 13.282,96.249 5.900 L 95.917 -0.000 47.958 -0.000 L 0.000 0.000 0.000 3.800 M320.011 8.700 C 319.735 13.485,319.575 20.032,319.655 23.248 L 319.800 29.096 321.552 30.848 L 323.304 32.600 327.935 32.736 L 332.567 32.873 334.061 34.367 L 335.555 35.861 335.677 44.478 L 335.800 53.096 337.552 54.848 L 339.304 56.600 347.922 56.723 L 356.539 56.845 358.070 58.376 L 359.600 59.906 359.600 212.200 L 359.600 364.494 358.070 366.024 L 356.539 367.555 347.922 367.677 L 339.304 367.800 337.552 369.552 L 335.800 371.304 335.664 375.935 L 335.527 380.567 334.027 382.067 L 332.527 383.567 319.916 383.684 L 307.305 383.800 305.552 385.552 L 303.800 387.304 303.672 393.652 L 303.545 400.000 305.172 400.000 L 306.800 400.000 306.800 394.200 C 306.800 386.092,305.237 386.867,321.880 386.720 C 339.421 386.564,338.452 387.074,338.718 377.861 C 338.937 370.285,338.000 370.885,349.874 370.722 C 360.346 370.578,361.159 370.413,362.073 368.248 C 362.856 366.394,362.856 58.006,362.073 56.152 C 361.159 53.987,360.346 53.822,349.874 53.678 C 337.632 53.510,338.890 54.768,338.722 42.526 C 338.544 29.575,338.796 29.940,329.861 29.682 C 322.299 29.463,322.800 30.150,322.800 20.000 C 322.800 15.600,322.959 12.000,323.154 12.000 C 323.349 12.000,323.632 11.010,323.783 9.800 L 324.058 7.600 362.029 7.600 L 400.000 7.600 400.000 3.800 L 400.000 0.000 360.257 -0.000 L 320.513 -0.000 320.011 8.700 "
                    stroke="none"
                    fill="#bce4b8"
                    fill-rule="evenodd"></path><path id="path7"
                    d="M0.000 3.800 L 0.000 7.600 46.171 7.600 L 92.342 7.600 92.617 9.800 C 92.768 11.010,93.051 12.000,93.246 12.000 C 93.441 12.000,93.249 12.351,92.820 12.780 C 92.082 13.518,91.304 13.567,78.520 13.680 C 63.945 13.809,63.405 13.885,62.344 15.944 C 61.894 16.817,61.782 26.954,61.695 74.505 C 61.593 130.271,61.566 132.034,60.834 132.766 C 60.184 133.416,59.304 133.544,54.539 133.682 C 44.943 133.959,45.800 130.967,45.800 164.200 C 45.800 197.433,44.943 194.441,54.539 194.718 C 59.318 194.857,60.183 194.983,60.839 195.639 C 61.583 196.383,61.600 198.684,61.600 298.200 L 61.600 400.000 63.202 400.000 L 64.805 400.000 64.702 297.653 L 64.600 195.306 62.848 193.553 L 61.096 191.800 56.465 191.664 L 51.833 191.527 50.316 190.011 L 48.800 188.494 48.800 164.200 L 48.800 139.906 50.316 138.389 L 51.833 136.873 56.465 136.736 L 61.096 136.600 62.848 134.847 L 64.600 133.094 64.704 76.496 L 64.808 19.898 66.341 18.365 L 67.873 16.833 80.484 16.716 L 93.095 16.600 94.743 14.951 C 96.715 12.979,96.664 13.282,96.249 5.900 L 95.917 -0.000 47.958 -0.000 L 0.000 0.000 0.000 3.800 M320.011 8.700 C 319.735 13.485,319.575 20.032,319.655 23.248 L 319.800 29.096 321.552 30.848 L 323.304 32.600 327.935 32.736 L 332.567 32.873 334.061 34.367 L 335.555 35.861 335.677 44.478 L 335.800 53.096 337.552 54.848 L 339.304 56.600 347.922 56.723 L 356.539 56.845 358.070 58.376 L 359.600 59.906 359.600 212.200 L 359.600 364.494 358.070 366.024 L 356.539 367.555 347.922 367.677 L 339.304 367.800 337.552 369.552 L 335.800 371.304 335.664 375.935 L 335.527 380.567 334.027 382.067 L 332.527 383.567 319.916 383.684 L 307.305 383.800 305.552 385.552 L 303.800 387.304 303.672 393.652 L 303.545 400.000 305.172 400.000 L 306.800 400.000 306.800 394.200 C 306.800 386.092,305.237 386.867,321.880 386.720 C 339.421 386.564,338.452 387.074,338.718 377.861 C 338.937 370.285,338.000 370.885,349.874 370.722 C 360.346 370.578,361.159 370.413,362.073 368.248 C 362.856 366.394,362.856 58.006,362.073 56.152 C 361.159 53.987,360.346 53.822,349.874 53.678 C 337.632 53.510,338.890 54.768,338.722 42.526 C 338.544 29.575,338.796 29.940,329.861 29.682 C 322.299 29.463,322.800 30.150,322.800 20.000 C 322.800 15.600,322.959 12.000,323.154 12.000 C 323.349 12.000,323.632 11.010,323.783 9.800 L 324.058 7.600 362.029 7.600 L 400.000 7.600 400.000 3.800 L 400.000 0.000 360.257 -0.000 L 320.513 -0.000 320.011 8.700 "
                    stroke="none"
                    fill="#bce4b8"
                    fill-rule="evenodd"></path><path id="path8"
                    d="M0.000 3.800 L 0.000 7.600 46.171 7.600 L 92.342 7.600 92.617 9.800 C 92.768 11.010,93.051 12.000,93.246 12.000 C 93.441 12.000,93.249 12.351,92.820 12.780 C 92.082 13.518,91.304 13.567,78.520 13.680 C 63.945 13.809,63.405 13.885,62.344 15.944 C 61.894 16.817,61.782 26.954,61.695 74.505 C 61.593 130.271,61.566 132.034,60.834 132.766 C 60.184 133.416,59.304 133.544,54.539 133.682 C 44.943 133.959,45.800 130.967,45.800 164.200 C 45.800 197.433,44.943 194.441,54.539 194.718 C 59.318 194.857,60.183 194.983,60.839 195.639 C 61.583 196.383,61.600 198.684,61.600 298.200 L 61.600 400.000 63.202 400.000 L 64.805 400.000 64.702 297.653 L 64.600 195.306 62.848 193.553 L 61.096 191.800 56.465 191.664 L 51.833 191.527 50.316 190.011 L 48.800 188.494 48.800 164.200 L 48.800 139.906 50.316 138.389 L 51.833 136.873 56.465 136.736 L 61.096 136.600 62.848 134.847 L 64.600 133.094 64.704 76.496 L 64.808 19.898 66.341 18.365 L 67.873 16.833 80.484 16.716 L 93.095 16.600 94.743 14.951 C 96.715 12.979,96.664 13.282,96.249 5.900 L 95.917 -0.000 47.958 -0.000 L 0.000 0.000 0.000 3.800 M320.011 8.700 C 319.735 13.485,319.575 20.032,319.655 23.248 L 319.800 29.096 321.552 30.848 L 323.304 32.600 327.935 32.736 L 332.567 32.873 334.061 34.367 L 335.555 35.861 335.677 44.478 L 335.800 53.096 337.552 54.848 L 339.304 56.600 347.922 56.723 L 356.539 56.845 358.070 58.376 L 359.600 59.906 359.600 212.200 L 359.600 364.494 358.070 366.024 L 356.539 367.555 347.922 367.677 L 339.304 367.800 337.552 369.552 L 335.800 371.304 335.664 375.935 L 335.527 380.567 334.027 382.067 L 332.527 383.567 319.916 383.684 L 307.305 383.800 305.552 385.552 L 303.800 387.304 303.672 393.652 L 303.545 400.000 305.172 400.000 L 306.800 400.000 306.800 394.200 C 306.800 386.092,305.237 386.867,321.880 386.720 C 339.421 386.564,338.452 387.074,338.718 377.861 C 338.937 370.285,338.000 370.885,349.874 370.722 C 360.346 370.578,361.159 370.413,362.073 368.248 C 362.856 366.394,362.856 58.006,362.073 56.152 C 361.159 53.987,360.346 53.822,349.874 53.678 C 337.632 53.510,338.890 54.768,338.722 42.526 C 338.544 29.575,338.796 29.940,329.861 29.682 C 322.299 29.463,322.800 30.150,322.800 20.000 C 322.800 15.600,322.959 12.000,323.154 12.000 C 323.349 12.000,323.632 11.010,323.783 9.800 L 324.058 7.600 362.029 7.600 L 400.000 7.600 400.000 3.800 L 400.000 0.000 360.257 -0.000 L 320.513 -0.000 320.011 8.700 "
                    stroke="none"
                    fill="#bce4b8"
                    fill-rule="evenodd"></path><path id="path1"
                    d="M203.277 96.665 C 201.141 97.551,200.604 98.847,200.485 103.400 C 200.289 110.861,198.861 112.289,191.400 112.485 C 187.111 112.597,186.970 112.630,185.800 113.800 L 184.600 115.000 184.600 132.200 L 184.600 149.400 185.800 150.600 C 186.978 151.778,187.085 151.802,191.726 151.934 C 195.689 152.047,196.492 152.176,196.701 152.734 C 196.838 153.100,197.232 153.610,197.575 153.867 C 198.069 154.235,198.242 155.475,198.400 159.782 C 198.531 163.360,198.763 165.331,199.075 165.523 C 199.336 165.684,199.738 166.311,199.968 166.915 C 200.198 167.520,200.880 168.202,201.485 168.432 C 202.089 168.662,202.717 169.064,202.880 169.325 C 203.267 169.947,215.133 169.949,215.530 169.327 C 216.056 168.502,219.193 168.309,236.200 168.056 L 253.400 167.800 254.600 166.662 L 255.800 165.523 255.909 139.810 C 256.025 112.200,256.021 112.144,254.007 111.741 C 253.343 111.609,252.800 111.352,252.800 111.171 C 252.800 110.990,248.759 110.788,243.819 110.721 C 232.986 110.575,233.841 111.092,233.667 104.581 C 233.594 101.842,233.369 99.600,233.167 99.600 C 232.965 99.600,232.794 99.285,232.787 98.900 C 232.746 96.602,232.775 96.607,217.683 96.524 C 210.047 96.482,203.565 96.546,203.277 96.665 M291.214 96.686 C 290.446 96.998,289.230 98.465,289.213 99.100 C 289.206 99.375,289.020 99.600,288.800 99.600 C 288.559 99.600,288.400 101.251,288.400 103.754 C 288.400 110.997,287.038 112.282,279.144 112.489 C 274.762 112.603,273.262 113.264,273.213 115.100 C 273.206 115.375,273.020 115.600,272.800 115.600 C 272.540 115.600,272.400 121.400,272.400 132.200 C 272.400 143.000,272.540 148.800,272.800 148.800 C 273.020 148.800,273.206 149.025,273.213 149.300 C 273.264 151.197,274.722 151.793,279.813 152.000 C 282.521 152.110,284.796 152.290,284.868 152.400 C 286.221 154.453,286.400 155.313,286.400 159.762 C 286.400 162.313,286.551 164.400,286.736 164.400 C 286.921 164.400,287.316 165.140,287.614 166.044 C 288.026 167.292,288.499 167.846,289.579 168.344 C 290.360 168.705,291.263 169.250,291.585 169.556 C 292.267 170.205,303.123 169.962,303.554 169.287 C 304.028 168.548,307.107 168.321,320.200 168.062 L 333.400 167.800 334.600 166.600 L 335.800 165.400 335.800 139.117 C 335.800 110.225,335.920 111.657,333.500 111.613 C 333.115 111.606,332.800 111.435,332.800 111.233 C 332.800 111.031,330.558 110.806,327.819 110.733 C 321.557 110.566,321.834 110.843,321.667 104.581 C 321.594 101.842,321.369 99.600,321.167 99.600 C 320.965 99.600,320.794 99.285,320.787 98.900 C 320.746 96.602,320.775 96.607,305.683 96.524 C 298.047 96.482,291.536 96.555,291.214 96.686 M230.081 114.320 C 230.490 114.730,230.600 118.474,230.600 132.006 C 230.600 152.509,231.226 150.540,224.650 150.733 L 220.127 150.866 218.864 149.602 L 217.600 148.338 217.600 132.395 C 217.600 115.831,217.707 114.665,219.294 113.998 C 220.663 113.423,229.447 113.685,230.081 114.320 M318.081 114.320 C 318.490 114.730,318.600 118.474,318.600 132.006 C 318.600 152.509,319.226 150.540,312.650 150.733 L 308.127 150.866 306.864 149.602 L 305.600 148.338 305.600 132.395 C 305.600 115.831,305.707 114.665,307.294 113.998 C 308.663 113.423,317.447 113.685,318.081 114.320 "
                    stroke="none"
                    fill="#ccd4d4"
                    fill-rule="evenodd"></path><path id="path2"
                    d="M170.336 82.335 L 168.873 83.844 168.736 88.470 L 168.600 93.096 166.848 94.848 L 165.096 96.600 160.465 96.736 L 155.833 96.873 154.353 98.353 L 152.873 99.833 152.736 104.465 L 152.600 109.096 150.847 110.848 L 149.094 112.600 124.491 112.709 L 99.888 112.818 98.344 114.362 L 96.800 115.906 96.800 120.200 L 96.800 124.494 98.316 126.011 L 99.833 127.527 104.465 127.664 L 109.096 127.800 110.848 129.552 L 112.600 131.304 112.723 139.922 L 112.845 148.539 114.367 150.061 L 115.888 151.582 140.491 151.691 L 165.094 151.800 166.847 153.552 L 168.600 155.305 168.716 167.916 L 168.833 180.527 170.369 182.063 L 171.906 183.600 212.182 183.600 C 247.179 183.600,252.535 183.523,253.048 183.009 C 253.373 182.684,254.035 182.141,254.520 181.802 C 255.325 181.240,255.417 180.764,255.600 176.258 L 255.800 171.328 257.533 169.663 C 259.662 167.619,260.157 167.489,265.130 167.662 L 269.102 167.800 270.751 169.400 C 271.658 170.280,272.399 171.225,272.400 171.500 C 272.400 171.775,272.580 172.000,272.800 172.000 C 273.042 172.000,273.200 173.738,273.200 176.413 L 273.200 180.827 274.587 182.213 L 275.973 183.600 316.234 183.600 L 356.494 183.600 358.047 182.047 L 359.600 180.494 359.600 132.200 L 359.600 83.906 358.047 82.353 L 356.494 80.800 264.147 80.813 L 171.800 80.827 170.336 82.335 M232.009 97.200 C 232.260 97.598,232.390 97.632,232.394 97.300 C 232.399 96.913,234.670 96.800,242.400 96.800 C 248.800 96.800,252.400 96.944,252.400 97.200 C 252.400 97.420,252.625 97.606,252.900 97.613 C 255.747 97.689,255.784 98.218,255.794 139.462 L 255.800 165.523 254.600 166.662 L 253.400 167.800 236.200 168.056 C 219.193 168.309,216.056 168.502,215.530 169.327 C 215.133 169.949,203.267 169.947,202.880 169.325 C 202.717 169.064,202.089 168.662,201.485 168.432 C 200.880 168.202,200.198 167.520,199.968 166.915 C 199.738 166.311,199.336 165.684,199.075 165.523 C 198.763 165.331,198.531 163.360,198.400 159.782 C 198.242 155.475,198.069 154.235,197.575 153.867 C 197.232 153.610,196.838 153.100,196.701 152.734 C 196.492 152.176,195.689 152.047,191.726 151.934 C 187.085 151.802,186.978 151.778,185.800 150.600 L 184.600 149.400 184.600 132.200 L 184.600 115.000 185.800 113.800 C 186.970 112.630,187.111 112.597,191.400 112.485 C 198.861 112.289,200.289 110.861,200.485 103.400 C 200.604 98.847,201.141 97.551,203.277 96.665 C 204.651 96.095,231.628 96.597,232.009 97.200 M320.009 97.200 C 320.260 97.598,320.390 97.632,320.394 97.300 C 320.398 96.922,321.870 96.800,326.400 96.800 C 329.700 96.800,332.400 96.937,332.400 97.105 C 332.400 97.273,332.805 97.588,333.300 97.805 C 333.795 98.022,334.378 98.605,334.595 99.100 C 334.812 99.595,335.127 100.000,335.295 100.000 C 335.463 100.000,335.600 102.700,335.600 106.000 C 335.600 110.530,335.478 112.002,335.100 112.006 C 334.768 112.010,334.802 112.140,335.200 112.392 C 335.723 112.722,335.800 116.130,335.800 139.085 L 335.800 165.400 334.600 166.600 L 333.400 167.800 320.200 168.062 C 307.107 168.321,304.028 168.548,303.554 169.287 C 303.123 169.962,292.267 170.205,291.585 169.556 C 291.263 169.250,290.360 168.705,289.579 168.344 C 288.499 167.846,288.026 167.292,287.614 166.044 C 287.316 165.140,286.921 164.400,286.736 164.400 C 286.551 164.400,286.400 162.313,286.400 159.762 C 286.400 155.313,286.221 154.453,284.868 152.400 C 284.796 152.290,282.521 152.110,279.813 152.000 C 274.722 151.793,273.264 151.197,273.213 149.300 C 273.206 149.025,273.020 148.800,272.800 148.800 C 272.540 148.800,272.400 143.000,272.400 132.200 C 272.400 121.400,272.540 115.600,272.800 115.600 C 273.020 115.600,273.206 115.375,273.213 115.100 C 273.262 113.264,274.762 112.603,279.144 112.489 C 287.038 112.282,288.400 110.997,288.400 103.754 C 288.400 101.251,288.559 99.600,288.800 99.600 C 289.020 99.600,289.206 99.375,289.213 99.100 C 289.230 98.465,290.446 96.998,291.214 96.686 C 292.652 96.102,319.619 96.583,320.009 97.200 "
                    stroke="none"
                    fill="#fcd4cc"
                    fill-rule="evenodd"></path><path id="path3"
                    d="M232.618 98.100 C 232.774 98.815,233.042 99.491,233.215 99.602 C 233.387 99.712,233.590 101.999,233.664 104.683 C 233.842 111.071,233.016 110.575,243.709 110.722 C 248.588 110.790,252.675 110.992,252.790 111.172 C 252.906 111.352,253.598 111.629,254.328 111.788 L 255.656 112.076 255.528 105.682 C 255.394 98.975,254.968 97.668,252.900 97.613 C 252.625 97.606,252.400 97.420,252.400 97.200 C 252.400 96.944,248.789 96.800,242.368 96.800 L 232.336 96.800 232.618 98.100 M320.618 98.100 C 320.774 98.815,321.042 99.491,321.215 99.602 C 321.387 99.712,321.590 101.999,321.664 104.683 C 321.835 110.817,321.583 110.565,327.717 110.736 C 330.401 110.810,332.688 111.013,332.798 111.185 C 332.909 111.358,333.585 111.626,334.300 111.782 L 335.600 112.064 335.600 106.032 C 335.600 102.714,335.463 100.000,335.295 100.000 C 335.127 100.000,334.812 99.595,334.595 99.100 C 334.378 98.605,333.795 98.022,333.300 97.805 C 332.805 97.588,332.400 97.273,332.400 97.105 C 332.400 96.937,329.686 96.800,326.368 96.800 L 320.336 96.800 320.618 98.100 M219.294 113.998 C 217.707 114.665,217.600 115.831,217.600 132.395 L 217.600 148.338 218.864 149.602 L 220.127 150.866 224.650 150.733 C 231.226 150.540,230.600 152.509,230.600 132.006 C 230.600 118.474,230.490 114.730,230.081 114.320 C 229.447 113.685,220.663 113.423,219.294 113.998 M307.294 113.998 C 305.707 114.665,305.600 115.831,305.600 132.395 L 305.600 148.338 306.864 149.602 L 308.127 150.866 312.650 150.733 C 319.226 150.540,318.600 152.509,318.600 132.006 C 318.600 118.474,318.490 114.730,318.081 114.320 C 317.447 113.685,308.663 113.423,307.294 113.998 "
                    stroke="none"
                    fill="#e4ecec"
                    fill-rule="evenodd"></path><path id="path4"
                    d=""
                    stroke="none"
                    fill="#100f8f0"
                    fill-rule="evenodd"></path>
        </g>
    </svg>