<svg
        name="man_34"
        id="man_34"
        version="1.2"
        xmlns="http://www.w3.org/2000/svg" xmlns:xlink="http://www.w3.org/1999/xlink"
        width="400"
        height="400"
        viewBox="0, 0, 400, 400">
        <g id="svgg">
            <path id="path0"
                    d="M92.800 2.200 C 92.800 3.410,92.980 4.400,93.200 4.400 C 93.420 4.400,93.600 3.410,93.600 2.200 C 93.600 0.990,93.420 0.000,93.200 0.000 C 92.980 0.000,92.800 0.990,92.800 2.200 M322.800 10.200 C 322.800 16.733,322.944 20.400,323.200 20.400 C 323.456 20.400,323.600 16.733,323.600 10.200 C 323.600 3.667,323.456 0.000,323.200 0.000 C 322.944 0.000,322.800 3.667,322.800 10.200 M68.000 5.200 C 68.000 5.458,72.333 5.600,80.200 5.600 C 88.067 5.600,92.400 5.458,92.400 5.200 C 92.400 4.942,88.067 4.800,80.200 4.800 C 72.333 4.800,68.000 4.942,68.000 5.200 M60.800 68.200 C 60.800 105.400,60.935 124.400,61.200 124.400 C 61.465 124.400,61.600 105.400,61.600 68.200 C 61.600 31.000,61.465 12.000,61.200 12.000 C 60.935 12.000,60.800 31.000,60.800 68.200 M324.000 21.200 C 324.000 21.441,325.667 21.600,328.200 21.600 C 330.733 21.600,332.400 21.441,332.400 21.200 C 332.400 20.959,330.733 20.800,328.200 20.800 C 325.667 20.800,324.000 20.959,324.000 21.200 M131.941 38.216 C 131.846 44.846,131.645 48.532,131.368 48.716 C 131.134 48.872,130.824 49.319,130.680 49.709 C 130.536 50.099,130.099 50.536,129.709 50.680 C 129.319 50.824,128.872 51.135,128.715 51.371 C 128.524 51.659,123.753 51.844,114.230 51.935 L 100.030 52.070 99.915 90.250 C 99.835 116.869,99.670 128.516,99.371 128.715 C 99.135 128.872,98.824 129.319,98.680 129.709 C 98.536 130.099,98.099 130.536,97.709 130.680 C 97.319 130.824,96.886 131.111,96.747 131.318 C 96.608 131.525,93.683 131.789,90.247 131.905 L 84.000 132.115 84.000 156.200 L 84.000 180.285 90.247 180.495 C 93.683 180.611,96.608 180.875,96.747 181.082 C 96.886 181.289,97.319 181.576,97.709 181.720 C 98.099 181.864,98.536 182.301,98.680 182.691 C 98.824 183.081,99.135 183.528,99.371 183.685 C 99.978 184.089,99.978 376.311,99.371 376.715 C 99.135 376.872,98.824 377.319,98.680 377.709 C 98.536 378.099,98.099 378.536,97.709 378.680 C 97.319 378.824,96.886 379.111,96.747 379.318 C 96.608 379.525,93.708 379.789,90.303 379.903 L 84.111 380.111 83.903 386.303 C 83.789 389.708,83.525 392.608,83.318 392.747 C 83.111 392.886,82.824 393.319,82.680 393.709 C 82.536 394.099,82.099 394.536,81.709 394.680 C 81.319 394.824,80.886 395.111,80.747 395.318 C 80.608 395.525,77.683 395.789,74.247 395.905 L 68.000 396.115 68.000 398.057 L 68.000 400.000 184.200 400.000 L 300.400 400.000 300.400 398.060 L 300.400 396.121 294.143 395.892 C 290.702 395.767,287.777 395.501,287.643 395.303 C 287.509 395.104,287.082 394.824,286.694 394.681 C 285.827 394.361,285.200 392.805,285.200 390.974 C 285.200 390.218,285.020 389.600,284.800 389.600 C 284.541 389.600,284.400 384.533,284.400 375.200 L 284.400 360.800 244.174 360.800 C 214.687 360.800,203.714 360.677,203.074 360.341 C 201.956 359.754,200.646 358.444,200.059 357.326 C 199.412 356.095,199.412 324.305,200.059 323.074 C 201.520 320.292,203.142 319.600,208.200 319.600 C 215.292 319.600,216.800 321.103,216.800 328.174 C 216.800 330.498,216.937 332.400,217.105 332.400 C 217.273 332.400,217.588 332.805,217.805 333.300 C 218.022 333.795,218.605 334.378,219.100 334.595 C 219.595 334.812,220.000 335.127,220.000 335.295 C 220.000 335.463,234.565 335.600,252.368 335.600 C 288.397 335.600,286.341 335.444,287.881 338.300 C 288.266 339.015,288.721 339.600,288.891 339.600 C 289.061 339.600,289.200 343.380,289.200 348.000 L 289.200 356.400 302.756 356.400 L 316.312 356.400 316.459 346.184 C 316.554 339.554,316.755 335.868,317.032 335.684 C 317.266 335.528,317.576 335.081,317.720 334.691 C 317.864 334.301,318.301 333.864,318.691 333.720 C 319.081 333.576,319.514 333.289,319.653 333.082 C 319.792 332.875,322.717 332.611,326.153 332.495 L 332.400 332.285 332.400 200.200 L 332.400 68.115 326.153 67.905 C 322.717 67.789,319.792 67.525,319.653 67.318 C 319.514 67.111,319.081 66.824,318.691 66.680 C 318.301 66.536,317.864 66.099,317.720 65.709 C 317.576 65.319,317.289 64.886,317.082 64.747 C 316.875 64.608,316.611 61.708,316.497 58.303 L 316.289 52.111 310.097 51.903 C 306.692 51.789,303.792 51.525,303.653 51.318 C 303.514 51.111,303.082 50.824,302.694 50.681 C 301.827 50.361,301.200 48.805,301.200 46.974 C 301.200 46.218,301.020 45.600,300.800 45.600 C 300.545 45.600,300.400 42.400,300.400 36.800 L 300.400 28.000 216.244 28.000 L 132.088 28.000 131.941 38.216 M338.800 36.200 C 338.800 41.400,338.946 44.400,339.200 44.400 C 339.454 44.400,339.600 41.400,339.600 36.200 C 339.600 31.000,339.454 28.000,339.200 28.000 C 338.946 28.000,338.800 31.000,338.800 36.200 M340.000 45.200 C 340.000 45.454,343.000 45.600,348.200 45.600 C 353.400 45.600,356.400 45.454,356.400 45.200 C 356.400 44.946,353.400 44.800,348.200 44.800 C 343.000 44.800,340.000 44.946,340.000 45.200 M362.800 204.200 C 362.800 305.400,362.934 356.400,363.200 356.400 C 363.466 356.400,363.600 305.400,363.600 204.200 C 363.600 103.000,363.466 52.000,363.200 52.000 C 362.934 52.000,362.800 103.000,362.800 204.200 M231.067 81.333 L 232.600 82.867 232.600 88.200 L 232.600 93.533 231.068 95.067 L 229.536 96.600 224.669 96.736 C 221.993 96.810,219.712 97.004,219.602 97.166 C 219.491 97.329,218.450 97.768,217.288 98.143 C 213.911 99.232,213.600 99.744,213.600 104.214 C 213.600 107.803,213.967 109.230,215.191 110.400 C 216.418 111.573,216.574 113.651,216.706 130.592 C 216.853 149.392,216.878 149.041,215.298 150.727 C 213.370 152.786,213.270 152.800,200.200 152.800 C 182.071 152.800,183.505 154.730,183.694 130.592 C 183.826 113.651,183.982 111.573,185.209 110.400 C 187.464 108.245,187.416 99.355,185.140 97.600 C 184.131 96.822,183.542 93.010,183.667 88.073 L 183.800 82.864 185.200 81.487 C 187.176 79.543,185.808 79.645,208.667 79.726 L 229.534 79.800 231.067 81.333 M319.067 81.333 L 320.600 82.867 320.600 88.200 L 320.600 93.533 319.068 95.067 L 317.536 96.600 312.568 96.733 C 309.836 96.806,307.600 97.009,307.600 97.185 C 307.600 97.361,306.825 97.700,305.877 97.939 C 304.929 98.178,303.732 98.739,303.216 99.186 C 302.700 99.634,302.125 100.000,301.939 100.000 C 301.149 100.000,301.559 108.205,302.394 109.101 C 304.460 111.319,304.546 112.136,304.698 130.911 C 304.891 154.836,306.406 152.800,288.413 152.800 C 275.465 152.800,275.143 152.760,273.325 150.930 C 271.615 149.210,271.600 149.041,271.610 131.926 C 271.619 116.388,271.827 112.622,272.709 112.041 C 272.912 111.909,273.199 111.300,273.349 110.690 C 273.498 110.079,273.976 109.224,274.410 108.790 C 275.421 107.779,275.615 100.245,274.640 99.871 C 274.332 99.753,273.855 98.973,273.580 98.139 C 273.305 97.305,272.847 96.390,272.563 96.106 C 271.794 95.336,271.512 92.658,271.664 87.545 L 271.800 82.964 273.200 81.540 C 275.169 79.537,273.770 79.645,296.667 79.726 L 317.534 79.800 319.067 81.333 M52.000 125.200 C 52.000 125.441,53.667 125.600,56.200 125.600 C 58.733 125.600,60.400 125.441,60.400 125.200 C 60.400 124.959,58.733 124.800,56.200 124.800 C 53.667 124.800,52.000 124.959,52.000 125.200 M44.800 156.200 C 44.800 172.067,44.938 180.400,45.200 180.400 C 45.462 180.400,45.600 172.067,45.600 156.200 C 45.600 140.333,45.462 132.000,45.200 132.000 C 44.938 132.000,44.800 140.333,44.800 156.200 M269.958 184.300 C 270.630 184.685,271.495 185.585,271.881 186.300 C 272.266 187.015,272.721 187.600,272.891 187.600 C 273.061 187.600,273.200 189.670,273.200 192.200 C 273.200 194.730,273.061 196.800,272.891 196.800 C 272.721 196.800,272.266 197.385,271.881 198.100 C 270.414 200.821,270.568 200.800,252.341 200.800 C 235.271 200.800,235.102 200.784,233.359 199.041 C 231.852 197.534,231.600 196.553,231.600 192.200 C 231.600 187.179,232.248 185.629,235.000 184.076 C 236.491 183.234,268.455 183.439,269.958 184.300 M52.000 187.200 C 52.000 187.441,53.667 187.600,56.200 187.600 C 58.733 187.600,60.400 187.441,60.400 187.200 C 60.400 186.959,58.733 186.800,56.200 186.800 C 53.667 186.800,52.000 186.959,52.000 187.200 M60.800 272.200 C 60.800 328.067,60.935 356.400,61.200 356.400 C 61.465 356.400,61.600 328.067,61.600 272.200 C 61.600 216.333,61.465 188.000,61.200 188.000 C 60.935 188.000,60.800 216.333,60.800 272.200 M125.326 272.059 C 128.166 273.550,128.800 275.111,128.800 280.604 C 128.800 285.218,128.811 285.272,129.969 286.431 L 131.138 287.600 147.796 287.600 C 165.142 287.600,165.296 287.614,167.041 289.359 C 168.548 290.866,168.800 291.847,168.800 296.200 C 168.800 301.258,168.108 302.880,165.326 304.341 C 164.095 304.988,132.305 304.988,131.074 304.341 C 128.234 302.850,127.600 301.289,127.600 295.796 C 127.600 291.182,127.589 291.128,126.431 289.969 C 125.272 288.811,125.218 288.800,120.604 288.800 C 115.831 288.800,114.889 288.571,113.359 287.041 C 111.852 285.534,111.600 284.553,111.600 280.200 C 111.600 275.179,112.248 273.629,115.000 272.076 C 116.063 271.476,124.190 271.462,125.326 272.059 M52.000 357.200 C 52.000 357.441,53.667 357.600,56.200 357.600 C 58.733 357.600,60.400 357.441,60.400 357.200 C 60.400 356.959,58.733 356.800,56.200 356.800 C 53.667 356.800,52.000 356.959,52.000 357.200 M340.000 363.200 C 340.000 363.454,343.000 363.600,348.200 363.600 C 353.400 363.600,356.400 363.454,356.400 363.200 C 356.400 362.946,353.400 362.800,348.200 362.800 C 343.000 362.800,340.000 362.946,340.000 363.200 M44.800 368.200 C 44.800 370.733,44.959 372.400,45.200 372.400 C 45.441 372.400,45.600 370.733,45.600 368.200 C 45.600 365.667,45.441 364.000,45.200 364.000 C 44.959 364.000,44.800 365.667,44.800 368.200 M338.800 368.200 C 338.800 370.733,338.959 372.400,339.200 372.400 C 339.441 372.400,339.600 370.733,339.600 368.200 C 339.600 365.667,339.441 364.000,339.200 364.000 C 338.959 364.000,338.800 365.667,338.800 368.200 M28.000 373.200 C 28.000 373.454,31.000 373.600,36.200 373.600 C 41.400 373.600,44.400 373.454,44.400 373.200 C 44.400 372.946,41.400 372.800,36.200 372.800 C 31.000 372.800,28.000 372.946,28.000 373.200 M324.000 379.200 C 324.000 379.441,325.667 379.600,328.200 379.600 C 330.733 379.600,332.400 379.441,332.400 379.200 C 332.400 378.959,330.733 378.800,328.200 378.800 C 325.667 378.800,324.000 378.959,324.000 379.200 M20.800 390.000 C 20.800 396.400,20.944 400.000,21.200 400.000 C 21.456 400.000,21.600 396.400,21.600 390.000 C 21.600 383.600,21.456 380.000,21.200 380.000 C 20.944 380.000,20.800 383.600,20.800 390.000 M322.800 390.000 C 322.800 396.400,322.944 400.000,323.200 400.000 C 323.456 400.000,323.600 396.400,323.600 390.000 C 323.600 383.600,323.456 380.000,323.200 380.000 C 322.944 380.000,322.800 383.600,322.800 390.000 "
                    stroke="none"
                    fill="#fcdcb4"
                    fill-rule="evenodd"></path><path id="path1"
                    d="M131.055 27.055 L 130.000 28.109 130.000 36.826 C 130.000 43.242,129.868 45.687,129.500 46.088 C 129.225 46.388,128.808 46.974,128.573 47.390 C 128.339 47.806,127.806 48.339,127.390 48.573 C 126.974 48.808,126.388 49.225,126.088 49.500 C 125.676 49.878,122.442 50.000,112.826 50.000 L 100.109 50.000 99.055 51.055 L 98.000 52.109 98.000 88.826 C 98.000 117.642,97.892 125.660,97.500 126.088 C 97.225 126.388,96.808 126.974,96.573 127.390 C 96.339 127.806,95.806 128.339,95.390 128.573 C 94.974 128.808,94.388 129.225,94.088 129.500 C 93.716 129.841,92.042 130.000,88.826 130.000 C 84.263 130.000,84.075 130.034,83.055 131.055 L 82.000 132.109 82.000 156.200 L 82.000 180.291 83.055 181.345 C 84.075 182.366,84.263 182.400,88.826 182.400 C 92.042 182.400,93.716 182.559,94.088 182.900 C 94.388 183.175,94.974 183.592,95.390 183.827 C 95.806 184.061,96.339 184.594,96.573 185.010 C 96.808 185.426,97.226 186.013,97.502 186.314 C 97.903 186.751,97.984 205.800,97.902 280.578 L 97.800 374.294 96.048 376.047 L 94.296 377.800 89.171 377.931 C 82.134 378.112,82.112 378.134,81.931 385.171 L 81.800 390.296 80.048 392.048 L 78.296 393.800 73.171 393.931 C 68.291 394.056,67.998 394.112,67.023 395.086 C 65.519 396.590,65.503 400.000,67.000 400.000 C 67.929 400.000,68.000 399.863,68.000 398.057 L 68.000 396.115 74.247 395.905 C 77.683 395.789,80.608 395.525,80.747 395.318 C 80.886 395.111,81.319 394.824,81.709 394.680 C 82.099 394.536,82.536 394.099,82.680 393.709 C 82.824 393.319,83.111 392.886,83.318 392.747 C 83.525 392.608,83.789 389.708,83.903 386.303 L 84.111 380.111 90.303 379.903 C 93.708 379.789,96.608 379.525,96.747 379.318 C 96.886 379.111,97.319 378.824,97.709 378.680 C 98.099 378.536,98.536 378.099,98.680 377.709 C 98.824 377.319,99.135 376.872,99.371 376.715 C 99.978 376.311,99.978 184.089,99.371 183.685 C 99.135 183.528,98.824 183.081,98.680 182.691 C 98.536 182.301,98.099 181.864,97.709 181.720 C 97.319 181.576,96.886 181.289,96.747 181.082 C 96.608 180.875,93.683 180.611,90.247 180.495 L 84.000 180.285 84.000 156.200 L 84.000 132.115 90.247 131.905 C 93.683 131.789,96.608 131.525,96.747 131.318 C 96.886 131.111,97.319 130.824,97.709 130.680 C 98.099 130.536,98.536 130.099,98.680 129.709 C 98.824 129.319,99.135 128.872,99.371 128.715 C 99.670 128.516,99.835 116.869,99.915 90.250 L 100.030 52.070 114.230 51.935 C 123.753 51.844,128.524 51.659,128.715 51.371 C 128.872 51.135,129.319 50.824,129.709 50.680 C 130.099 50.536,130.536 50.099,130.680 49.709 C 130.824 49.319,131.134 48.872,131.368 48.716 C 131.645 48.532,131.846 44.846,131.941 38.216 L 132.088 28.000 216.244 28.000 L 300.400 28.000 300.400 36.800 C 300.400 42.400,300.545 45.600,300.800 45.600 C 301.020 45.600,301.200 46.218,301.200 46.974 C 301.200 48.805,301.827 50.361,302.694 50.681 C 303.082 50.824,303.514 51.111,303.653 51.318 C 303.792 51.525,306.692 51.789,310.097 51.903 L 316.289 52.111 316.497 58.303 C 316.611 61.708,316.875 64.608,317.082 64.747 C 317.289 64.886,317.576 65.319,317.720 65.709 C 317.864 66.099,318.301 66.536,318.691 66.680 C 319.081 66.824,319.514 67.111,319.653 67.318 C 319.792 67.525,322.717 67.789,326.153 67.905 L 332.400 68.115 332.400 200.200 L 332.400 332.285 326.153 332.495 C 322.717 332.611,319.792 332.875,319.653 333.082 C 319.514 333.289,319.081 333.576,318.691 333.720 C 318.301 333.864,317.864 334.301,317.720 334.691 C 317.576 335.081,317.266 335.528,317.032 335.684 C 316.755 335.868,316.554 339.554,316.459 346.184 L 316.312 356.400 302.756 356.400 L 289.200 356.400 289.200 348.000 C 289.200 343.380,289.061 339.600,288.891 339.600 C 288.721 339.600,288.266 339.015,287.881 338.300 C 286.341 335.444,288.397 335.600,252.368 335.600 C 234.565 335.600,220.000 335.463,220.000 335.295 C 220.000 335.127,219.595 334.812,219.100 334.595 C 218.605 334.378,218.022 333.795,217.805 333.300 C 217.588 332.805,217.273 332.400,217.105 332.400 C 216.937 332.400,216.800 330.498,216.800 328.174 C 216.800 321.103,215.292 319.600,208.200 319.600 C 203.142 319.600,201.520 320.292,200.059 323.074 C 199.412 324.305,199.412 356.095,200.059 357.326 C 200.646 358.444,201.956 359.754,203.074 360.341 C 203.714 360.677,214.687 360.800,244.174 360.800 L 284.400 360.800 284.400 375.200 C 284.400 384.533,284.541 389.600,284.800 389.600 C 285.020 389.600,285.200 390.218,285.200 390.974 C 285.200 392.805,285.827 394.361,286.694 394.681 C 287.082 394.824,287.509 395.104,287.643 395.303 C 287.777 395.501,290.702 395.767,294.143 395.892 L 300.400 396.121 300.400 398.060 C 300.400 399.863,300.471 400.000,301.400 400.000 C 302.328 400.000,302.399 399.862,302.391 398.100 C 302.375 394.601,301.761 394.235,295.504 393.993 L 290.160 393.787 288.680 392.307 C 287.866 391.493,287.200 390.551,287.200 390.213 C 287.200 389.876,287.020 389.600,286.800 389.600 C 286.541 389.600,286.400 384.867,286.400 376.200 C 286.400 368.682,286.556 362.800,286.754 362.800 C 286.949 362.800,287.408 362.170,287.773 361.400 C 288.139 360.630,288.690 360.000,288.999 360.000 C 289.308 360.000,289.736 359.685,289.952 359.300 C 290.310 358.660,291.448 358.590,303.333 358.484 L 316.322 358.369 317.361 357.330 L 318.400 356.291 318.400 347.574 C 318.400 341.158,318.532 338.713,318.900 338.312 C 319.175 338.012,319.592 337.426,319.827 337.010 C 320.061 336.594,320.594 336.061,321.010 335.827 C 321.426 335.592,322.012 335.175,322.312 334.900 C 322.684 334.559,324.358 334.400,327.574 334.400 C 332.137 334.400,332.325 334.366,333.345 333.345 L 334.400 332.291 334.400 200.200 L 334.400 68.109 333.345 67.055 C 332.325 66.034,332.137 66.000,327.574 66.000 C 324.358 66.000,322.684 65.841,322.312 65.500 C 322.012 65.225,321.426 64.808,321.010 64.573 C 320.594 64.339,320.061 63.806,319.827 63.390 C 319.592 62.974,319.175 62.388,318.900 62.088 C 318.559 61.716,318.400 60.042,318.400 56.826 C 318.400 50.236,318.164 50.000,311.574 50.000 C 308.358 50.000,306.684 49.841,306.312 49.500 C 306.012 49.225,305.414 48.803,304.983 48.563 C 304.552 48.323,303.947 47.603,303.638 46.963 C 303.329 46.323,302.924 45.740,302.738 45.667 C 302.552 45.593,302.400 41.615,302.400 36.825 C 302.400 28.136,302.398 28.115,301.419 27.058 L 300.438 26.000 216.274 26.000 L 132.109 26.000 131.055 27.055 M187.200 79.881 C 186.870 80.007,185.970 80.729,185.200 81.487 L 183.800 82.864 183.667 88.073 C 183.542 93.010,184.131 96.822,185.140 97.600 C 187.416 99.355,187.464 108.245,185.209 110.400 C 183.982 111.573,183.826 113.651,183.694 130.592 C 183.547 149.392,183.522 149.041,185.102 150.727 C 187.030 152.786,187.130 152.800,200.200 152.800 C 218.329 152.800,216.895 154.730,216.706 130.592 C 216.574 113.651,216.418 111.573,215.191 110.400 C 213.967 109.230,213.600 107.803,213.600 104.214 C 213.600 99.744,213.911 99.232,217.288 98.143 C 218.450 97.768,219.491 97.329,219.602 97.166 C 219.712 97.004,221.993 96.810,224.669 96.736 L 229.536 96.600 231.068 95.067 L 232.600 93.533 232.600 88.200 L 232.600 82.867 231.067 81.333 L 229.534 79.800 208.667 79.726 C 197.190 79.686,187.530 79.755,187.200 79.881 M275.200 79.884 C 274.870 80.012,273.970 80.757,273.200 81.540 L 271.800 82.964 271.664 87.545 C 271.512 92.658,271.794 95.336,272.563 96.106 C 272.847 96.390,273.305 97.305,273.580 98.139 C 273.855 98.973,274.332 99.753,274.640 99.871 C 275.615 100.245,275.421 107.779,274.410 108.790 C 273.976 109.224,273.498 110.079,273.349 110.690 C 273.199 111.300,272.912 111.909,272.709 112.041 C 271.827 112.622,271.619 116.388,271.610 131.926 C 271.600 149.041,271.615 149.210,273.325 150.930 C 275.143 152.760,275.465 152.800,288.413 152.800 C 306.406 152.800,304.891 154.836,304.698 130.911 C 304.546 112.136,304.460 111.319,302.394 109.101 C 301.559 108.205,301.149 100.000,301.939 100.000 C 302.125 100.000,302.700 99.634,303.216 99.186 C 303.732 98.739,304.929 98.178,305.877 97.939 C 306.825 97.700,307.600 97.361,307.600 97.185 C 307.600 97.009,309.836 96.806,312.568 96.733 L 317.536 96.600 319.068 95.067 L 320.600 93.533 320.600 88.200 L 320.600 82.867 319.067 81.333 L 317.534 79.800 296.667 79.726 C 285.190 79.686,275.530 79.757,275.200 79.884 M235.000 184.076 C 232.248 185.629,231.600 187.179,231.600 192.200 C 231.600 196.553,231.852 197.534,233.359 199.041 C 235.102 200.784,235.271 200.800,252.341 200.800 C 270.568 200.800,270.414 200.821,271.881 198.100 C 272.266 197.385,272.721 196.800,272.891 196.800 C 273.061 196.800,273.200 194.730,273.200 192.200 C 273.200 189.670,273.061 187.600,272.891 187.600 C 272.721 187.600,272.266 187.015,271.881 186.300 C 270.412 183.576,270.579 183.599,252.268 183.612 C 240.794 183.621,235.557 183.761,235.000 184.076 M115.000 272.076 C 112.248 273.629,111.600 275.179,111.600 280.200 C 111.600 284.553,111.852 285.534,113.359 287.041 C 114.889 288.571,115.831 288.800,120.604 288.800 C 127.201 288.800,127.600 289.199,127.600 295.796 C 127.600 301.289,128.234 302.850,131.074 304.341 C 132.305 304.988,164.095 304.988,165.326 304.341 C 168.108 302.880,168.800 301.258,168.800 296.200 C 168.800 291.847,168.548 290.866,167.041 289.359 C 165.296 287.614,165.142 287.600,147.796 287.600 L 131.138 287.600 129.969 286.431 C 128.811 285.272,128.800 285.218,128.800 280.604 C 128.800 275.111,128.166 273.550,125.326 272.059 C 124.190 271.462,116.063 271.476,115.000 272.076 "
                    stroke="none"
                    fill="#fcc494"
                    fill-rule="evenodd"></path><path id="path2"
                    d="M0.000 200.000 L 0.000 400.000 10.400 400.000 L 20.800 400.000 20.800 390.000 C 20.800 384.500,20.957 380.000,21.148 380.000 C 21.340 380.000,21.614 379.121,21.756 378.047 C 22.103 375.432,23.432 374.103,26.047 373.756 C 27.121 373.614,28.000 373.340,28.000 373.148 C 28.000 372.957,31.780 372.800,36.400 372.800 L 44.800 372.800 44.800 368.400 C 44.800 365.980,44.957 364.000,45.148 364.000 C 45.340 364.000,45.614 363.121,45.756 362.047 C 46.103 359.432,47.432 358.103,50.047 357.756 C 51.121 357.614,52.000 357.340,52.000 357.148 C 52.000 356.957,53.980 356.800,56.400 356.800 L 60.800 356.800 60.800 272.200 L 60.800 187.600 56.400 187.600 C 53.980 187.600,52.000 187.443,52.000 187.252 C 52.000 187.060,51.121 186.786,50.047 186.644 C 47.432 186.297,46.103 184.968,45.756 182.353 C 45.614 181.279,45.340 180.400,45.148 180.400 C 44.954 180.400,44.800 169.681,44.800 156.200 C 44.800 142.719,44.954 132.000,45.148 132.000 C 45.340 132.000,45.614 131.121,45.756 130.047 C 46.103 127.432,47.432 126.103,50.047 125.756 C 51.121 125.614,52.000 125.340,52.000 125.148 C 52.000 124.957,53.980 124.800,56.400 124.800 L 60.800 124.800 60.800 68.400 C 60.800 36.627,60.952 12.000,61.148 12.000 C 61.340 12.000,61.614 11.121,61.756 10.047 C 62.103 7.432,63.432 6.103,66.047 5.756 C 67.121 5.614,68.000 5.340,68.000 5.148 C 68.000 4.957,73.580 4.800,80.400 4.800 L 92.800 4.800 92.800 2.400 L 92.800 0.000 46.400 0.000 L 0.000 0.000 0.000 200.000 M323.600 10.400 L 323.600 20.800 328.000 20.800 C 330.420 20.800,332.400 20.957,332.400 21.148 C 332.400 21.340,333.279 21.614,334.353 21.756 C 336.968 22.103,338.297 23.432,338.644 26.047 C 338.786 27.121,339.060 28.000,339.252 28.000 C 339.443 28.000,339.600 31.780,339.600 36.400 L 339.600 44.800 348.000 44.800 C 352.620 44.800,356.400 44.957,356.400 45.148 C 356.400 45.340,357.279 45.614,358.353 45.756 C 360.968 46.103,362.297 47.432,362.644 50.047 C 362.786 51.121,363.060 52.000,363.252 52.000 C 363.449 52.000,363.600 118.005,363.600 204.200 C 363.600 290.395,363.449 356.400,363.252 356.400 C 363.060 356.400,362.786 357.279,362.644 358.353 C 362.297 360.968,360.968 362.297,358.353 362.644 C 357.279 362.786,356.400 363.060,356.400 363.252 C 356.400 363.443,352.620 363.600,348.000 363.600 L 339.600 363.600 339.600 368.000 C 339.600 370.420,339.443 372.400,339.252 372.400 C 339.060 372.400,338.786 373.279,338.644 374.353 C 338.297 376.968,336.968 378.297,334.353 378.644 C 333.279 378.786,332.400 379.060,332.400 379.252 C 332.400 379.443,330.420 379.600,328.000 379.600 L 323.600 379.600 323.600 389.800 L 323.600 400.000 361.800 400.000 L 400.000 400.000 400.000 200.000 L 400.000 0.000 361.800 0.000 L 323.600 0.000 323.600 10.400 "
                    stroke="none"
                    fill="#fcfcfc"
                    fill-rule="evenodd"></path><path id="path3"
                    d="M98.398 2.100 C 98.390 9.661,96.786 10.395,80.256 10.398 C 68.420 10.400,68.304 10.408,67.363 11.300 L 66.414 12.200 66.405 68.200 C 66.399 105.366,66.257 124.699,65.984 125.683 C 65.020 129.154,62.457 130.390,56.200 130.405 C 52.516 130.413,52.129 130.489,51.300 131.363 L 50.400 132.313 50.400 156.200 L 50.400 180.087 51.300 181.037 C 52.129 181.911,52.516 181.987,56.200 181.995 C 62.457 182.010,65.020 183.246,65.984 186.717 C 66.557 188.780,66.557 355.620,65.984 357.683 C 65.022 361.147,62.448 362.394,56.256 362.398 C 50.746 362.401,50.417 362.727,50.405 368.200 C 50.384 377.416,49.027 378.394,36.256 378.398 C 25.472 378.401,26.416 377.279,26.407 390.100 L 26.400 400.000 44.346 400.000 L 62.293 400.000 62.497 397.144 C 62.645 395.078,62.881 394.186,63.351 393.924 C 63.708 393.724,64.000 393.295,64.000 392.970 C 64.000 392.646,64.431 392.216,64.958 392.016 C 65.485 391.816,65.995 391.415,66.091 391.126 C 66.220 390.739,67.600 390.563,71.319 390.459 C 78.235 390.267,78.266 390.236,78.459 383.358 C 78.579 379.090,78.704 378.285,79.300 377.952 C 79.685 377.736,80.000 377.295,80.000 376.970 C 80.000 376.646,80.431 376.216,80.958 376.016 C 81.485 375.816,81.995 375.415,82.091 375.126 C 82.220 374.739,83.600 374.563,87.319 374.459 C 92.103 374.326,92.427 374.264,93.386 373.305 L 94.400 372.291 94.400 280.200 L 94.400 188.109 93.345 187.055 C 92.325 186.034,92.137 186.000,87.574 186.000 C 84.358 186.000,82.684 185.841,82.312 185.500 C 82.012 185.225,81.426 184.808,81.010 184.573 C 80.594 184.339,80.061 183.806,79.827 183.390 C 79.592 182.974,79.175 182.388,78.900 182.088 C 78.171 181.293,78.171 131.107,78.900 130.312 C 79.175 130.012,79.592 129.426,79.827 129.010 C 80.061 128.594,80.594 128.061,81.010 127.827 C 81.426 127.592,82.012 127.175,82.312 126.900 C 82.684 126.559,84.358 126.400,87.574 126.400 C 92.137 126.400,92.325 126.366,93.345 125.345 L 94.400 124.291 94.400 87.574 C 94.400 58.758,94.508 50.740,94.900 50.312 C 95.175 50.012,95.592 49.426,95.827 49.010 C 96.061 48.594,96.594 48.061,97.010 47.827 C 97.426 47.592,98.012 47.175,98.312 46.900 C 98.724 46.522,101.958 46.400,111.574 46.400 L 124.291 46.400 125.345 45.345 L 126.400 44.291 126.400 35.574 C 126.400 29.158,126.532 26.713,126.900 26.312 C 127.175 26.012,127.592 25.426,127.827 25.010 C 128.061 24.594,128.594 24.061,129.010 23.827 C 129.426 23.592,130.012 23.175,130.312 22.900 C 131.113 22.166,301.287 22.166,302.088 22.900 C 302.388 23.175,302.974 23.592,303.390 23.827 C 303.806 24.061,304.339 24.594,304.573 25.010 C 304.808 25.426,305.225 26.012,305.500 26.312 C 305.868 26.713,306.000 29.158,306.000 35.574 L 306.000 44.291 307.055 45.345 C 308.075 46.366,308.263 46.400,312.826 46.400 C 316.042 46.400,317.716 46.559,318.088 46.900 C 318.388 47.175,318.974 47.592,319.390 47.827 C 319.806 48.061,320.339 48.594,320.573 49.010 C 320.808 49.426,321.225 50.012,321.500 50.312 C 321.841 50.684,322.000 52.358,322.000 55.574 C 322.000 62.164,322.236 62.400,328.826 62.400 C 332.042 62.400,333.716 62.559,334.088 62.900 C 334.388 63.175,334.974 63.592,335.390 63.827 C 335.806 64.061,336.339 64.594,336.573 65.010 C 336.808 65.426,337.225 66.012,337.500 66.312 C 338.235 67.114,338.235 333.286,337.500 334.088 C 337.225 334.388,336.808 334.974,336.573 335.390 C 336.339 335.806,335.806 336.339,335.390 336.573 C 334.974 336.808,334.388 337.225,334.088 337.500 C 333.716 337.841,332.042 338.000,328.826 338.000 C 324.263 338.000,324.075 338.034,323.055 339.055 L 322.000 340.109 322.000 348.826 C 322.000 355.242,321.868 357.687,321.500 358.088 C 321.225 358.388,320.808 358.974,320.573 359.390 C 320.339 359.806,319.806 360.339,319.390 360.573 C 318.974 360.808,318.388 361.225,318.088 361.500 C 317.676 361.878,314.451 362.000,304.870 362.000 L 292.197 362.000 291.099 363.164 L 290.000 364.328 290.011 376.264 L 290.022 388.200 291.111 389.265 C 292.152 390.283,292.417 390.336,297.115 390.465 C 300.107 390.547,302.142 390.772,302.315 391.040 C 302.472 391.282,303.005 391.694,303.500 391.954 C 303.995 392.215,304.400 392.683,304.400 392.994 C 304.400 393.306,304.692 393.724,305.049 393.924 C 305.519 394.186,305.755 395.078,305.903 397.144 L 306.107 400.000 312.054 400.000 L 318.000 400.000 318.002 390.100 C 318.006 375.124,318.707 374.017,328.200 373.995 C 333.673 373.983,333.999 373.654,334.002 368.144 C 334.007 358.990,335.378 358.010,348.200 357.995 C 356.095 357.986,356.212 357.974,357.100 357.037 L 358.000 356.087 358.000 204.200 L 358.000 52.313 357.100 51.363 C 356.212 50.426,356.095 50.414,348.200 50.405 C 334.445 50.389,334.006 49.952,334.002 36.256 C 333.999 26.163,334.150 26.418,328.200 26.405 C 318.681 26.383,318.006 25.303,318.002 10.100 L 318.000 0.000 208.200 0.000 L 98.400 0.000 98.398 2.100 "
                    stroke="none"
                    fill="#040404"
                    fill-rule="evenodd"></path><path id="path4"
                    d="M95.600 2.247 C 95.600 4.324,95.482 4.612,94.047 6.047 L 92.494 7.600 80.473 7.600 C 67.873 7.600,67.149 7.687,65.418 9.418 C 63.567 11.270,63.600 10.191,63.600 68.473 L 63.600 124.494 62.047 126.047 L 60.494 127.600 56.473 127.600 C 51.195 127.600,49.078 128.564,47.973 131.471 C 47.479 132.771,47.479 179.629,47.973 180.929 C 49.078 183.836,51.195 184.800,56.473 184.800 L 60.494 184.800 62.047 186.353 L 63.600 187.906 63.600 272.200 L 63.600 356.494 62.047 358.047 L 60.494 359.600 56.473 359.600 C 49.157 359.600,47.600 361.157,47.600 368.473 L 47.600 372.494 46.047 374.047 L 44.494 375.600 36.473 375.600 C 23.558 375.600,23.600 375.552,23.600 390.226 L 23.600 400.000 25.000 400.000 L 26.400 400.000 26.407 390.100 C 26.416 377.279,25.472 378.401,36.256 378.398 C 49.027 378.394,50.384 377.416,50.405 368.200 C 50.417 362.727,50.746 362.401,56.256 362.398 C 62.448 362.394,65.022 361.147,65.984 357.683 C 66.557 355.620,66.557 188.780,65.984 186.717 C 65.020 183.246,62.457 182.010,56.200 181.995 C 52.516 181.987,52.129 181.911,51.300 181.037 L 50.400 180.087 50.400 156.200 L 50.400 132.313 51.300 131.363 C 52.129 130.489,52.516 130.413,56.200 130.405 C 62.457 130.390,65.020 129.154,65.984 125.683 C 66.257 124.699,66.399 105.366,66.405 68.200 L 66.414 12.200 67.363 11.300 C 68.304 10.408,68.420 10.400,80.256 10.398 C 96.786 10.395,98.390 9.661,98.398 2.100 L 98.400 0.000 97.000 0.000 L 95.600 0.000 95.600 2.247 M318.002 10.100 C 318.006 25.303,318.681 26.383,328.200 26.405 C 334.150 26.418,333.999 26.163,334.002 36.256 C 334.006 49.952,334.445 50.389,348.200 50.405 C 356.095 50.414,356.212 50.426,357.100 51.363 L 358.000 52.313 357.993 204.256 L 357.986 356.200 357.037 357.100 C 356.118 357.971,355.832 358.000,348.144 358.002 C 335.373 358.006,334.016 358.984,333.995 368.200 C 333.983 373.673,333.654 373.999,328.144 374.002 C 318.720 374.008,318.006 375.141,318.002 390.100 L 318.000 400.000 319.400 400.000 L 320.800 400.000 320.800 389.953 L 320.800 379.906 322.353 378.353 L 323.906 376.800 327.927 376.800 C 335.243 376.800,336.800 375.243,336.800 367.927 L 336.800 363.906 338.353 362.353 L 339.906 360.800 347.927 360.800 C 357.476 360.800,359.153 360.281,360.427 356.929 C 360.931 355.604,360.931 52.796,360.427 51.471 C 359.153 48.119,357.476 47.600,347.927 47.600 L 339.906 47.600 338.353 46.047 L 336.800 44.494 336.800 36.473 C 336.800 24.701,336.041 23.600,327.927 23.600 L 323.906 23.600 322.353 22.047 L 320.800 20.494 320.800 10.247 L 320.800 0.000 319.400 0.000 L 318.000 0.000 318.002 10.100 M130.312 22.900 C 130.012 23.175,129.426 23.592,129.010 23.827 C 128.594 24.061,128.061 24.594,127.827 25.010 C 127.592 25.426,127.175 26.012,126.900 26.312 C 126.532 26.713,126.400 29.158,126.400 35.574 L 126.400 44.291 125.345 45.345 L 124.291 46.400 111.574 46.400 C 101.958 46.400,98.724 46.522,98.312 46.900 C 98.012 47.175,97.426 47.592,97.010 47.827 C 96.594 48.061,96.061 48.594,95.827 49.010 C 95.592 49.426,95.175 50.012,94.900 50.312 C 94.508 50.740,94.400 58.758,94.400 87.574 L 94.400 124.291 93.345 125.345 C 92.325 126.366,92.137 126.400,87.574 126.400 C 84.358 126.400,82.684 126.559,82.312 126.900 C 82.012 127.175,81.426 127.592,81.010 127.827 C 80.594 128.061,80.061 128.594,79.827 129.010 C 79.592 129.426,79.175 130.012,78.900 130.312 C 78.171 131.107,78.171 181.293,78.900 182.088 C 79.175 182.388,79.592 182.974,79.827 183.390 C 80.061 183.806,80.594 184.339,81.010 184.573 C 81.426 184.808,82.012 185.225,82.312 185.500 C 82.684 185.841,84.358 186.000,87.574 186.000 C 92.137 186.000,92.325 186.034,93.345 187.055 L 94.400 188.109 94.400 280.200 L 94.400 372.291 93.386 373.305 C 92.427 374.263,92.100 374.326,87.358 374.459 C 83.090 374.579,82.285 374.704,81.952 375.300 C 81.736 375.685,81.295 376.000,80.970 376.000 C 80.646 376.000,80.216 376.431,80.016 376.958 C 79.816 377.485,79.415 377.995,79.126 378.091 C 78.739 378.220,78.563 379.600,78.459 383.319 C 78.267 390.235,78.236 390.266,71.358 390.459 C 67.090 390.579,66.285 390.704,65.952 391.300 C 65.736 391.685,65.295 392.000,64.970 392.000 C 64.646 392.000,64.216 392.431,64.016 392.958 C 63.816 393.485,63.439 393.987,63.178 394.074 C 62.900 394.167,62.620 395.419,62.499 397.116 L 62.293 400.000 63.946 400.000 L 65.600 400.000 65.600 397.782 C 65.600 394.157,66.446 393.600,71.948 393.600 C 74.360 393.600,76.393 393.465,76.467 393.300 C 76.540 393.135,77.257 392.667,78.059 392.259 C 78.921 391.821,79.821 390.921,80.259 390.059 C 80.667 389.257,81.135 388.540,81.300 388.467 C 81.465 388.393,81.600 386.360,81.600 383.948 C 81.600 377.859,81.859 377.600,87.948 377.600 C 90.360 377.600,92.393 377.465,92.467 377.300 C 92.540 377.135,93.257 376.667,94.059 376.259 C 94.921 375.821,95.821 374.921,96.259 374.059 C 96.667 373.257,97.135 372.540,97.300 372.467 C 97.692 372.292,97.692 188.108,97.300 187.933 C 97.135 187.860,96.667 187.143,96.259 186.341 C 95.821 185.479,94.921 184.579,94.059 184.141 C 93.257 183.733,92.540 183.265,92.467 183.100 C 92.393 182.935,90.360 182.800,87.948 182.800 C 83.826 182.800,83.505 182.741,82.582 181.818 L 81.600 180.836 81.600 156.200 L 81.600 131.564 82.582 130.582 C 83.505 129.659,83.826 129.600,87.948 129.600 C 90.360 129.600,92.393 129.465,92.467 129.300 C 92.540 129.135,93.257 128.667,94.059 128.259 C 94.921 127.821,95.821 126.921,96.259 126.059 C 96.667 125.257,97.135 124.540,97.300 124.467 C 97.465 124.393,97.600 107.960,97.600 87.948 L 97.600 51.564 98.582 50.582 L 99.564 49.600 111.948 49.600 C 118.760 49.600,124.393 49.465,124.467 49.300 C 124.540 49.135,125.257 48.667,126.059 48.259 C 126.921 47.821,127.821 46.921,128.259 46.059 C 128.667 45.257,129.135 44.540,129.300 44.467 C 129.465 44.393,129.600 40.560,129.600 35.948 C 129.600 27.579,129.602 27.562,130.582 26.582 L 131.564 25.600 216.316 25.600 L 301.068 25.600 302.134 26.797 L 303.200 27.993 303.200 36.070 C 303.200 45.417,303.565 46.846,306.307 48.241 C 307.128 48.658,307.860 49.135,307.933 49.300 C 308.007 49.465,310.040 49.600,312.452 49.600 C 318.541 49.600,318.800 49.859,318.800 55.948 C 318.800 58.360,318.935 60.393,319.100 60.467 C 319.265 60.540,319.733 61.257,320.141 62.059 C 320.579 62.921,321.479 63.821,322.341 64.259 C 323.143 64.667,323.860 65.135,323.933 65.300 C 324.007 65.465,326.040 65.600,328.452 65.600 C 332.574 65.600,332.895 65.659,333.818 66.582 L 334.800 67.564 334.800 200.200 L 334.800 332.836 333.818 333.818 C 332.895 334.741,332.574 334.800,328.452 334.800 C 326.040 334.800,324.007 334.935,323.933 335.100 C 323.860 335.265,323.143 335.733,322.341 336.141 C 321.479 336.579,320.579 337.479,320.141 338.341 C 319.733 339.143,319.265 339.860,319.100 339.933 C 318.935 340.007,318.800 343.840,318.800 348.452 C 318.800 356.821,318.798 356.838,317.818 357.818 L 316.836 358.800 304.418 358.800 C 296.567 358.800,292.000 358.944,292.000 359.192 C 292.000 359.408,291.584 359.689,291.076 359.817 C 289.944 360.101,288.155 361.939,287.606 363.383 C 287.064 364.809,287.064 387.591,287.606 389.017 C 288.155 390.461,289.944 392.299,291.076 392.583 C 291.584 392.711,292.000 392.992,292.000 393.208 C 292.000 393.441,293.837 393.600,296.534 393.600 C 302.077 393.600,303.200 394.341,303.200 397.997 L 303.200 400.000 304.654 400.000 L 306.107 400.000 305.903 397.144 C 305.755 395.078,305.519 394.186,305.049 393.924 C 304.692 393.724,304.400 393.306,304.400 392.994 C 304.400 392.683,303.995 392.215,303.500 391.954 C 303.005 391.694,302.472 391.282,302.315 391.040 C 302.142 390.772,300.107 390.547,297.115 390.465 C 292.417 390.336,292.152 390.283,291.111 389.265 L 290.022 388.200 290.011 376.264 L 290.000 364.328 291.099 363.164 L 292.197 362.000 304.870 362.000 C 314.451 362.000,317.676 361.878,318.088 361.500 C 318.388 361.225,318.974 360.808,319.390 360.573 C 319.806 360.339,320.339 359.806,320.573 359.390 C 320.808 358.974,321.225 358.388,321.500 358.088 C 321.868 357.687,322.000 355.242,322.000 348.826 L 322.000 340.109 323.055 339.055 C 324.075 338.034,324.263 338.000,328.826 338.000 C 332.042 338.000,333.716 337.841,334.088 337.500 C 334.388 337.225,334.974 336.808,335.390 336.573 C 335.806 336.339,336.339 335.806,336.573 335.390 C 336.808 334.974,337.225 334.388,337.500 334.088 C 338.235 333.286,338.235 67.114,337.500 66.312 C 337.225 66.012,336.808 65.426,336.573 65.010 C 336.339 64.594,335.806 64.061,335.390 63.827 C 334.974 63.592,334.388 63.175,334.088 62.900 C 333.716 62.559,332.042 62.400,328.826 62.400 C 322.236 62.400,322.000 62.164,322.000 55.574 C 322.000 52.358,321.841 50.684,321.500 50.312 C 321.225 50.012,320.808 49.426,320.573 49.010 C 320.339 48.594,319.806 48.061,319.390 47.827 C 318.974 47.592,318.388 47.175,318.088 46.900 C 317.716 46.559,316.042 46.400,312.826 46.400 C 308.263 46.400,308.075 46.366,307.055 45.345 L 306.000 44.291 306.000 35.574 C 306.000 29.158,305.868 26.713,305.500 26.312 C 305.225 26.012,304.808 25.426,304.573 25.010 C 304.339 24.594,303.806 24.061,303.390 23.827 C 302.974 23.592,302.388 23.175,302.088 22.900 C 301.656 22.503,283.917 22.400,216.200 22.400 C 148.483 22.400,130.744 22.503,130.312 22.900 "
                    stroke="none"
                    fill="#3c8480"
                    fill-rule="evenodd"></path><path id="path5"
                    d="M93.600 2.000 C 93.600 5.669,94.121 5.542,78.520 5.680 C 63.945 5.809,63.405 5.885,62.344 7.944 C 61.894 8.817,61.782 18.954,61.695 66.505 C 61.593 122.271,61.566 124.034,60.834 124.766 C 60.184 125.416,59.304 125.544,54.539 125.682 C 44.943 125.959,45.800 122.967,45.800 156.200 C 45.800 189.433,44.943 186.441,54.539 186.718 C 59.318 186.857,60.183 186.983,60.839 187.639 C 62.034 188.834,62.034 355.566,60.839 356.761 C 60.183 357.417,59.318 357.543,54.539 357.682 C 46.127 357.925,45.925 358.127,45.682 366.539 C 45.463 374.115,46.400 373.515,34.526 373.678 C 20.822 373.866,21.846 372.684,21.677 388.500 L 21.555 400.000 22.577 400.000 L 23.600 400.000 23.600 390.226 C 23.600 375.552,23.558 375.600,36.473 375.600 L 44.494 375.600 46.047 374.047 L 47.600 372.494 47.600 368.473 C 47.600 361.157,49.157 359.600,56.473 359.600 L 60.494 359.600 62.047 358.047 L 63.600 356.494 63.600 272.200 L 63.600 187.906 62.047 186.353 L 60.494 184.800 56.473 184.800 C 51.195 184.800,49.078 183.836,47.973 180.929 C 47.479 179.629,47.479 132.771,47.973 131.471 C 49.078 128.564,51.195 127.600,56.473 127.600 L 60.494 127.600 62.047 126.047 L 63.600 124.494 63.600 68.473 C 63.600 10.191,63.567 11.270,65.418 9.418 C 67.149 7.687,67.873 7.600,80.473 7.600 L 92.494 7.600 94.047 6.047 C 96.069 4.025,96.437 0.000,94.600 0.000 C 93.667 0.000,93.600 0.133,93.600 2.000 M320.800 10.247 L 320.800 20.494 322.353 22.047 L 323.906 23.600 327.927 23.600 C 336.041 23.600,336.800 24.701,336.800 36.473 L 336.800 44.494 338.353 46.047 L 339.906 47.600 347.927 47.600 C 357.476 47.600,359.153 48.119,360.427 51.471 C 360.931 52.796,360.931 355.604,360.427 356.929 C 359.153 360.281,357.476 360.800,347.927 360.800 L 339.906 360.800 338.353 362.353 L 336.800 363.906 336.800 367.927 C 336.800 375.243,335.243 376.800,327.927 376.800 L 323.906 376.800 322.353 378.353 L 320.800 379.906 320.800 389.953 L 320.800 400.000 321.800 400.000 L 322.800 400.000 322.800 390.200 C 322.800 377.969,322.203 378.940,329.861 378.718 C 338.273 378.475,338.475 378.273,338.718 369.861 C 338.937 362.285,338.000 362.885,349.874 362.722 C 360.346 362.578,361.159 362.413,362.073 360.248 C 362.506 359.223,362.600 331.377,362.600 204.200 C 362.600 77.023,362.506 49.177,362.073 48.152 C 361.159 45.987,360.346 45.822,349.874 45.678 C 337.632 45.510,338.890 46.768,338.722 34.526 C 338.544 21.575,338.796 21.940,329.861 21.682 C 322.194 21.460,322.800 22.462,322.800 10.000 L 322.800 0.000 321.800 0.000 L 320.800 0.000 320.800 10.247 M130.582 26.582 C 129.602 27.562,129.600 27.579,129.600 35.948 C 129.600 40.560,129.465 44.393,129.300 44.467 C 129.135 44.540,128.667 45.257,128.259 46.059 C 127.821 46.921,126.921 47.821,126.059 48.259 C 125.257 48.667,124.540 49.135,124.467 49.300 C 124.393 49.465,118.760 49.600,111.948 49.600 L 99.564 49.600 98.582 50.582 L 97.600 51.564 97.600 87.948 C 97.600 107.960,97.465 124.393,97.300 124.467 C 97.135 124.540,96.667 125.257,96.259 126.059 C 95.821 126.921,94.921 127.821,94.059 128.259 C 93.257 128.667,92.540 129.135,92.467 129.300 C 92.393 129.465,90.360 129.600,87.948 129.600 C 83.826 129.600,83.505 129.659,82.582 130.582 L 81.600 131.564 81.600 156.200 L 81.600 180.836 82.582 181.818 C 83.505 182.741,83.826 182.800,87.948 182.800 C 90.360 182.800,92.393 182.935,92.467 183.100 C 92.540 183.265,93.257 183.733,94.059 184.141 C 94.921 184.579,95.821 185.479,96.259 186.341 C 96.667 187.143,97.135 187.860,97.300 187.933 C 97.692 188.108,97.692 372.292,97.300 372.467 C 97.135 372.540,96.667 373.257,96.259 374.059 C 95.821 374.921,94.921 375.821,94.059 376.259 C 93.257 376.667,92.540 377.135,92.467 377.300 C 92.393 377.465,90.360 377.600,87.948 377.600 C 81.859 377.600,81.600 377.859,81.600 383.948 C 81.600 386.360,81.465 388.393,81.300 388.467 C 81.135 388.540,80.667 389.257,80.259 390.059 C 79.821 390.921,78.921 391.821,78.059 392.259 C 77.257 392.667,76.540 393.135,76.467 393.300 C 76.393 393.465,74.360 393.600,71.948 393.600 C 66.370 393.600,65.555 394.156,65.674 397.882 L 65.748 400.200 65.894 398.135 C 66.145 394.569,66.974 394.090,73.171 393.931 L 78.296 393.800 80.048 392.048 L 81.800 390.296 81.931 385.171 C 82.112 378.134,82.134 378.112,89.171 377.931 L 94.296 377.800 96.048 376.047 L 97.800 374.294 97.902 280.578 C 97.984 205.800,97.903 186.751,97.502 186.314 C 97.226 186.013,96.808 185.426,96.573 185.010 C 96.339 184.594,95.806 184.061,95.390 183.827 C 94.974 183.592,94.388 183.175,94.088 182.900 C 93.716 182.559,92.042 182.400,88.826 182.400 C 84.263 182.400,84.075 182.366,83.055 181.345 L 82.000 180.291 82.000 156.200 L 82.000 132.109 83.055 131.055 C 84.075 130.034,84.263 130.000,88.826 130.000 C 92.042 130.000,93.716 129.841,94.088 129.500 C 94.388 129.225,94.974 128.808,95.390 128.573 C 95.806 128.339,96.339 127.806,96.573 127.390 C 96.808 126.974,97.225 126.388,97.500 126.088 C 97.892 125.660,98.000 117.642,98.000 88.826 L 98.000 52.109 99.055 51.055 L 100.109 50.000 112.826 50.000 C 122.442 50.000,125.676 49.878,126.088 49.500 C 126.388 49.225,126.974 48.808,127.390 48.573 C 127.806 48.339,128.339 47.806,128.573 47.390 C 128.808 46.974,129.225 46.388,129.500 46.088 C 129.868 45.687,130.000 43.242,130.000 36.826 L 130.000 28.109 131.055 27.055 L 132.109 26.000 216.274 26.000 L 300.438 26.000 301.419 27.058 C 302.398 28.115,302.400 28.136,302.400 36.825 C 302.400 41.615,302.552 45.593,302.738 45.667 C 302.924 45.740,303.329 46.323,303.638 46.963 C 303.947 47.603,304.552 48.323,304.983 48.563 C 305.414 48.803,306.012 49.225,306.312 49.500 C 306.684 49.841,308.358 50.000,311.574 50.000 C 318.164 50.000,318.400 50.236,318.400 56.826 C 318.400 60.042,318.559 61.716,318.900 62.088 C 319.175 62.388,319.592 62.974,319.827 63.390 C 320.061 63.806,320.594 64.339,321.010 64.573 C 321.426 64.808,322.012 65.225,322.312 65.500 C 322.684 65.841,324.358 66.000,327.574 66.000 C 332.137 66.000,332.325 66.034,333.345 67.055 L 334.400 68.109 334.400 200.200 L 334.400 332.291 333.345 333.345 C 332.325 334.366,332.137 334.400,327.574 334.400 C 324.358 334.400,322.684 334.559,322.312 334.900 C 322.012 335.175,321.426 335.592,321.010 335.827 C 320.594 336.061,320.061 336.594,319.827 337.010 C 319.592 337.426,319.175 338.012,318.900 338.312 C 318.532 338.713,318.400 341.158,318.400 347.574 L 318.400 356.291 317.361 357.330 L 316.322 358.369 303.333 358.484 C 291.448 358.590,290.310 358.660,289.952 359.300 C 289.736 359.685,289.308 360.000,288.999 360.000 C 288.690 360.000,288.139 360.630,287.773 361.400 C 287.408 362.170,286.949 362.800,286.754 362.800 C 286.556 362.800,286.400 368.682,286.400 376.200 C 286.400 384.867,286.541 389.600,286.800 389.600 C 287.020 389.600,287.200 389.876,287.200 390.213 C 287.200 390.551,287.866 391.493,288.680 392.307 L 290.160 393.787 295.504 393.993 C 301.761 394.235,302.375 394.601,302.391 398.100 C 302.396 399.145,302.580 400.000,302.800 400.000 C 303.738 400.000,303.230 396.027,302.134 394.797 C 301.069 393.601,301.064 393.600,296.534 393.600 C 293.837 393.600,292.000 393.441,292.000 393.208 C 292.000 392.992,291.584 392.711,291.076 392.583 C 289.944 392.299,288.155 390.461,287.606 389.017 C 287.064 387.591,287.064 364.809,287.606 363.383 C 288.155 361.939,289.944 360.101,291.076 359.817 C 291.584 359.689,292.000 359.408,292.000 359.192 C 292.000 358.944,296.567 358.800,304.418 358.800 L 316.836 358.800 317.818 357.818 C 318.798 356.838,318.800 356.821,318.800 348.452 C 318.800 343.840,318.935 340.007,319.100 339.933 C 319.265 339.860,319.733 339.143,320.141 338.341 C 320.579 337.479,321.479 336.579,322.341 336.141 C 323.143 335.733,323.860 335.265,323.933 335.100 C 324.007 334.935,326.040 334.800,328.452 334.800 C 332.574 334.800,332.895 334.741,333.818 333.818 L 334.800 332.836 334.800 200.200 L 334.800 67.564 333.818 66.582 C 332.895 65.659,332.574 65.600,328.452 65.600 C 326.040 65.600,324.007 65.465,323.933 65.300 C 323.860 65.135,323.143 64.667,322.341 64.259 C 321.479 63.821,320.579 62.921,320.141 62.059 C 319.733 61.257,319.265 60.540,319.100 60.467 C 318.935 60.393,318.800 58.360,318.800 55.948 C 318.800 49.859,318.541 49.600,312.452 49.600 C 310.040 49.600,308.007 49.465,307.933 49.300 C 307.860 49.135,307.128 48.658,306.307 48.241 C 303.565 46.846,303.200 45.417,303.200 36.070 L 303.200 27.993 302.134 26.797 L 301.068 25.600 216.316 25.600 L 131.564 25.600 130.582 26.582 "
                    stroke="none"
                    fill="#bce4b8"
                    fill-rule="evenodd"></path><path id="path6"
                    d="M93.600 2.000 C 93.600 5.669,94.121 5.542,78.520 5.680 C 63.945 5.809,63.405 5.885,62.344 7.944 C 61.894 8.817,61.782 18.954,61.695 66.505 C 61.593 122.271,61.566 124.034,60.834 124.766 C 60.184 125.416,59.304 125.544,54.539 125.682 C 44.943 125.959,45.800 122.967,45.800 156.200 C 45.800 189.433,44.943 186.441,54.539 186.718 C 59.318 186.857,60.183 186.983,60.839 187.639 C 62.034 188.834,62.034 355.566,60.839 356.761 C 60.183 357.417,59.318 357.543,54.539 357.682 C 46.127 357.925,45.925 358.127,45.682 366.539 C 45.463 374.115,46.400 373.515,34.526 373.678 C 20.822 373.866,21.846 372.684,21.677 388.500 L 21.555 400.000 22.577 400.000 L 23.600 400.000 23.600 390.226 C 23.600 375.552,23.558 375.600,36.473 375.600 L 44.494 375.600 46.047 374.047 L 47.600 372.494 47.600 368.473 C 47.600 361.157,49.157 359.600,56.473 359.600 L 60.494 359.600 62.047 358.047 L 63.600 356.494 63.600 272.200 L 63.600 187.906 62.047 186.353 L 60.494 184.800 56.473 184.800 C 51.195 184.800,49.078 183.836,47.973 180.929 C 47.479 179.629,47.479 132.771,47.973 131.471 C 49.078 128.564,51.195 127.600,56.473 127.600 L 60.494 127.600 62.047 126.047 L 63.600 124.494 63.600 68.473 C 63.600 10.191,63.567 11.270,65.418 9.418 C 67.149 7.687,67.873 7.600,80.473 7.600 L 92.494 7.600 94.047 6.047 C 96.069 4.025,96.437 0.000,94.600 0.000 C 93.667 0.000,93.600 0.133,93.600 2.000 M320.800 10.247 L 320.800 20.494 322.353 22.047 L 323.906 23.600 327.927 23.600 C 336.041 23.600,336.800 24.701,336.800 36.473 L 336.800 44.494 338.353 46.047 L 339.906 47.600 347.927 47.600 C 357.476 47.600,359.153 48.119,360.427 51.471 C 360.931 52.796,360.931 355.604,360.427 356.929 C 359.153 360.281,357.476 360.800,347.927 360.800 L 339.906 360.800 338.353 362.353 L 336.800 363.906 336.800 367.927 C 336.800 375.243,335.243 376.800,327.927 376.800 L 323.906 376.800 322.353 378.353 L 320.800 379.906 320.800 389.953 L 320.800 400.000 321.800 400.000 L 322.800 400.000 322.800 390.200 C 322.800 377.969,322.203 378.940,329.861 378.718 C 338.273 378.475,338.475 378.273,338.718 369.861 C 338.937 362.285,338.000 362.885,349.874 362.722 C 360.346 362.578,361.159 362.413,362.073 360.248 C 362.506 359.223,362.600 331.377,362.600 204.200 C 362.600 77.023,362.506 49.177,362.073 48.152 C 361.159 45.987,360.346 45.822,349.874 45.678 C 337.632 45.510,338.890 46.768,338.722 34.526 C 338.544 21.575,338.796 21.940,329.861 21.682 C 322.194 21.460,322.800 22.462,322.800 10.000 L 322.800 0.000 321.800 0.000 L 320.800 0.000 320.800 10.247 M130.582 26.582 C 129.602 27.562,129.600 27.579,129.600 35.948 C 129.600 40.560,129.465 44.393,129.300 44.467 C 129.135 44.540,128.667 45.257,128.259 46.059 C 127.821 46.921,126.921 47.821,126.059 48.259 C 125.257 48.667,124.540 49.135,124.467 49.300 C 124.393 49.465,118.760 49.600,111.948 49.600 L 99.564 49.600 98.582 50.582 L 97.600 51.564 97.600 87.948 C 97.600 107.960,97.465 124.393,97.300 124.467 C 97.135 124.540,96.667 125.257,96.259 126.059 C 95.821 126.921,94.921 127.821,94.059 128.259 C 93.257 128.667,92.540 129.135,92.467 129.300 C 92.393 129.465,90.360 129.600,87.948 129.600 C 83.826 129.600,83.505 129.659,82.582 130.582 L 81.600 131.564 81.600 156.200 L 81.600 180.836 82.582 181.818 C 83.505 182.741,83.826 182.800,87.948 182.800 C 90.360 182.800,92.393 182.935,92.467 183.100 C 92.540 183.265,93.257 183.733,94.059 184.141 C 94.921 184.579,95.821 185.479,96.259 186.341 C 96.667 187.143,97.135 187.860,97.300 187.933 C 97.692 188.108,97.692 372.292,97.300 372.467 C 97.135 372.540,96.667 373.257,96.259 374.059 C 95.821 374.921,94.921 375.821,94.059 376.259 C 93.257 376.667,92.540 377.135,92.467 377.300 C 92.393 377.465,90.360 377.600,87.948 377.600 C 81.859 377.600,81.600 377.859,81.600 383.948 C 81.600 386.360,81.465 388.393,81.300 388.467 C 81.135 388.540,80.667 389.257,80.259 390.059 C 79.821 390.921,78.921 391.821,78.059 392.259 C 77.257 392.667,76.540 393.135,76.467 393.300 C 76.393 393.465,74.360 393.600,71.948 393.600 C 66.370 393.600,65.555 394.156,65.674 397.882 L 65.748 400.200 65.894 398.135 C 66.145 394.569,66.974 394.090,73.171 393.931 L 78.296 393.800 80.048 392.048 L 81.800 390.296 81.931 385.171 C 82.112 378.134,82.134 378.112,89.171 377.931 L 94.296 377.800 96.048 376.047 L 97.800 374.294 97.902 280.578 C 97.984 205.800,97.903 186.751,97.502 186.314 C 97.226 186.013,96.808 185.426,96.573 185.010 C 96.339 184.594,95.806 184.061,95.390 183.827 C 94.974 183.592,94.388 183.175,94.088 182.900 C 93.716 182.559,92.042 182.400,88.826 182.400 C 84.263 182.400,84.075 182.366,83.055 181.345 L 82.000 180.291 82.000 156.200 L 82.000 132.109 83.055 131.055 C 84.075 130.034,84.263 130.000,88.826 130.000 C 92.042 130.000,93.716 129.841,94.088 129.500 C 94.388 129.225,94.974 128.808,95.390 128.573 C 95.806 128.339,96.339 127.806,96.573 127.390 C 96.808 126.974,97.225 126.388,97.500 126.088 C 97.892 125.660,98.000 117.642,98.000 88.826 L 98.000 52.109 99.055 51.055 L 100.109 50.000 112.826 50.000 C 122.442 50.000,125.676 49.878,126.088 49.500 C 126.388 49.225,126.974 48.808,127.390 48.573 C 127.806 48.339,128.339 47.806,128.573 47.390 C 128.808 46.974,129.225 46.388,129.500 46.088 C 129.868 45.687,130.000 43.242,130.000 36.826 L 130.000 28.109 131.055 27.055 L 132.109 26.000 216.274 26.000 L 300.438 26.000 301.419 27.058 C 302.398 28.115,302.400 28.136,302.400 36.825 C 302.400 41.615,302.552 45.593,302.738 45.667 C 302.924 45.740,303.329 46.323,303.638 46.963 C 303.947 47.603,304.552 48.323,304.983 48.563 C 305.414 48.803,306.012 49.225,306.312 49.500 C 306.684 49.841,308.358 50.000,311.574 50.000 C 318.164 50.000,318.400 50.236,318.400 56.826 C 318.400 60.042,318.559 61.716,318.900 62.088 C 319.175 62.388,319.592 62.974,319.827 63.390 C 320.061 63.806,320.594 64.339,321.010 64.573 C 321.426 64.808,322.012 65.225,322.312 65.500 C 322.684 65.841,324.358 66.000,327.574 66.000 C 332.137 66.000,332.325 66.034,333.345 67.055 L 334.400 68.109 334.400 200.200 L 334.400 332.291 333.345 333.345 C 332.325 334.366,332.137 334.400,327.574 334.400 C 324.358 334.400,322.684 334.559,322.312 334.900 C 322.012 335.175,321.426 335.592,321.010 335.827 C 320.594 336.061,320.061 336.594,319.827 337.010 C 319.592 337.426,319.175 338.012,318.900 338.312 C 318.532 338.713,318.400 341.158,318.400 347.574 L 318.400 356.291 317.361 357.330 L 316.322 358.369 303.333 358.484 C 291.448 358.590,290.310 358.660,289.952 359.300 C 289.736 359.685,289.308 360.000,288.999 360.000 C 288.690 360.000,288.139 360.630,287.773 361.400 C 287.408 362.170,286.949 362.800,286.754 362.800 C 286.556 362.800,286.400 368.682,286.400 376.200 C 286.400 384.867,286.541 389.600,286.800 389.600 C 287.020 389.600,287.200 389.876,287.200 390.213 C 287.200 390.551,287.866 391.493,288.680 392.307 L 290.160 393.787 295.504 393.993 C 301.761 394.235,302.375 394.601,302.391 398.100 C 302.396 399.145,302.580 400.000,302.800 400.000 C 303.738 400.000,303.230 396.027,302.134 394.797 C 301.069 393.601,301.064 393.600,296.534 393.600 C 293.837 393.600,292.000 393.441,292.000 393.208 C 292.000 392.992,291.584 392.711,291.076 392.583 C 289.944 392.299,288.155 390.461,287.606 389.017 C 287.064 387.591,287.064 364.809,287.606 363.383 C 288.155 361.939,289.944 360.101,291.076 359.817 C 291.584 359.689,292.000 359.408,292.000 359.192 C 292.000 358.944,296.567 358.800,304.418 358.800 L 316.836 358.800 317.818 357.818 C 318.798 356.838,318.800 356.821,318.800 348.452 C 318.800 343.840,318.935 340.007,319.100 339.933 C 319.265 339.860,319.733 339.143,320.141 338.341 C 320.579 337.479,321.479 336.579,322.341 336.141 C 323.143 335.733,323.860 335.265,323.933 335.100 C 324.007 334.935,326.040 334.800,328.452 334.800 C 332.574 334.800,332.895 334.741,333.818 333.818 L 334.800 332.836 334.800 200.200 L 334.800 67.564 333.818 66.582 C 332.895 65.659,332.574 65.600,328.452 65.600 C 326.040 65.600,324.007 65.465,323.933 65.300 C 323.860 65.135,323.143 64.667,322.341 64.259 C 321.479 63.821,320.579 62.921,320.141 62.059 C 319.733 61.257,319.265 60.540,319.100 60.467 C 318.935 60.393,318.800 58.360,318.800 55.948 C 318.800 49.859,318.541 49.600,312.452 49.600 C 310.040 49.600,308.007 49.465,307.933 49.300 C 307.860 49.135,307.128 48.658,306.307 48.241 C 303.565 46.846,303.200 45.417,303.200 36.070 L 303.200 27.993 302.134 26.797 L 301.068 25.600 216.316 25.600 L 131.564 25.600 130.582 26.582 "
                    stroke="none"
                    fill="#bce4b8"
                    fill-rule="evenodd"></path><path id="path7"
                    d="M93.600 2.000 C 93.600 5.669,94.121 5.542,78.520 5.680 C 63.945 5.809,63.405 5.885,62.344 7.944 C 61.894 8.817,61.782 18.954,61.695 66.505 C 61.593 122.271,61.566 124.034,60.834 124.766 C 60.184 125.416,59.304 125.544,54.539 125.682 C 44.943 125.959,45.800 122.967,45.800 156.200 C 45.800 189.433,44.943 186.441,54.539 186.718 C 59.318 186.857,60.183 186.983,60.839 187.639 C 62.034 188.834,62.034 355.566,60.839 356.761 C 60.183 357.417,59.318 357.543,54.539 357.682 C 46.127 357.925,45.925 358.127,45.682 366.539 C 45.463 374.115,46.400 373.515,34.526 373.678 C 20.822 373.866,21.846 372.684,21.677 388.500 L 21.555 400.000 22.577 400.000 L 23.600 400.000 23.600 390.226 C 23.600 375.552,23.558 375.600,36.473 375.600 L 44.494 375.600 46.047 374.047 L 47.600 372.494 47.600 368.473 C 47.600 361.157,49.157 359.600,56.473 359.600 L 60.494 359.600 62.047 358.047 L 63.600 356.494 63.600 272.200 L 63.600 187.906 62.047 186.353 L 60.494 184.800 56.473 184.800 C 51.195 184.800,49.078 183.836,47.973 180.929 C 47.479 179.629,47.479 132.771,47.973 131.471 C 49.078 128.564,51.195 127.600,56.473 127.600 L 60.494 127.600 62.047 126.047 L 63.600 124.494 63.600 68.473 C 63.600 10.191,63.567 11.270,65.418 9.418 C 67.149 7.687,67.873 7.600,80.473 7.600 L 92.494 7.600 94.047 6.047 C 96.069 4.025,96.437 0.000,94.600 0.000 C 93.667 0.000,93.600 0.133,93.600 2.000 M320.800 10.247 L 320.800 20.494 322.353 22.047 L 323.906 23.600 327.927 23.600 C 336.041 23.600,336.800 24.701,336.800 36.473 L 336.800 44.494 338.353 46.047 L 339.906 47.600 347.927 47.600 C 357.476 47.600,359.153 48.119,360.427 51.471 C 360.931 52.796,360.931 355.604,360.427 356.929 C 359.153 360.281,357.476 360.800,347.927 360.800 L 339.906 360.800 338.353 362.353 L 336.800 363.906 336.800 367.927 C 336.800 375.243,335.243 376.800,327.927 376.800 L 323.906 376.800 322.353 378.353 L 320.800 379.906 320.800 389.953 L 320.800 400.000 321.800 400.000 L 322.800 400.000 322.800 390.200 C 322.800 377.969,322.203 378.940,329.861 378.718 C 338.273 378.475,338.475 378.273,338.718 369.861 C 338.937 362.285,338.000 362.885,349.874 362.722 C 360.346 362.578,361.159 362.413,362.073 360.248 C 362.506 359.223,362.600 331.377,362.600 204.200 C 362.600 77.023,362.506 49.177,362.073 48.152 C 361.159 45.987,360.346 45.822,349.874 45.678 C 337.632 45.510,338.890 46.768,338.722 34.526 C 338.544 21.575,338.796 21.940,329.861 21.682 C 322.194 21.460,322.800 22.462,322.800 10.000 L 322.800 0.000 321.800 0.000 L 320.800 0.000 320.800 10.247 M130.582 26.582 C 129.602 27.562,129.600 27.579,129.600 35.948 C 129.600 40.560,129.465 44.393,129.300 44.467 C 129.135 44.540,128.667 45.257,128.259 46.059 C 127.821 46.921,126.921 47.821,126.059 48.259 C 125.257 48.667,124.540 49.135,124.467 49.300 C 124.393 49.465,118.760 49.600,111.948 49.600 L 99.564 49.600 98.582 50.582 L 97.600 51.564 97.600 87.948 C 97.600 107.960,97.465 124.393,97.300 124.467 C 97.135 124.540,96.667 125.257,96.259 126.059 C 95.821 126.921,94.921 127.821,94.059 128.259 C 93.257 128.667,92.540 129.135,92.467 129.300 C 92.393 129.465,90.360 129.600,87.948 129.600 C 83.826 129.600,83.505 129.659,82.582 130.582 L 81.600 131.564 81.600 156.200 L 81.600 180.836 82.582 181.818 C 83.505 182.741,83.826 182.800,87.948 182.800 C 90.360 182.800,92.393 182.935,92.467 183.100 C 92.540 183.265,93.257 183.733,94.059 184.141 C 94.921 184.579,95.821 185.479,96.259 186.341 C 96.667 187.143,97.135 187.860,97.300 187.933 C 97.692 188.108,97.692 372.292,97.300 372.467 C 97.135 372.540,96.667 373.257,96.259 374.059 C 95.821 374.921,94.921 375.821,94.059 376.259 C 93.257 376.667,92.540 377.135,92.467 377.300 C 92.393 377.465,90.360 377.600,87.948 377.600 C 81.859 377.600,81.600 377.859,81.600 383.948 C 81.600 386.360,81.465 388.393,81.300 388.467 C 81.135 388.540,80.667 389.257,80.259 390.059 C 79.821 390.921,78.921 391.821,78.059 392.259 C 77.257 392.667,76.540 393.135,76.467 393.300 C 76.393 393.465,74.360 393.600,71.948 393.600 C 66.370 393.600,65.555 394.156,65.674 397.882 L 65.748 400.200 65.894 398.135 C 66.145 394.569,66.974 394.090,73.171 393.931 L 78.296 393.800 80.048 392.048 L 81.800 390.296 81.931 385.171 C 82.112 378.134,82.134 378.112,89.171 377.931 L 94.296 377.800 96.048 376.047 L 97.800 374.294 97.902 280.578 C 97.984 205.800,97.903 186.751,97.502 186.314 C 97.226 186.013,96.808 185.426,96.573 185.010 C 96.339 184.594,95.806 184.061,95.390 183.827 C 94.974 183.592,94.388 183.175,94.088 182.900 C 93.716 182.559,92.042 182.400,88.826 182.400 C 84.263 182.400,84.075 182.366,83.055 181.345 L 82.000 180.291 82.000 156.200 L 82.000 132.109 83.055 131.055 C 84.075 130.034,84.263 130.000,88.826 130.000 C 92.042 130.000,93.716 129.841,94.088 129.500 C 94.388 129.225,94.974 128.808,95.390 128.573 C 95.806 128.339,96.339 127.806,96.573 127.390 C 96.808 126.974,97.225 126.388,97.500 126.088 C 97.892 125.660,98.000 117.642,98.000 88.826 L 98.000 52.109 99.055 51.055 L 100.109 50.000 112.826 50.000 C 122.442 50.000,125.676 49.878,126.088 49.500 C 126.388 49.225,126.974 48.808,127.390 48.573 C 127.806 48.339,128.339 47.806,128.573 47.390 C 128.808 46.974,129.225 46.388,129.500 46.088 C 129.868 45.687,130.000 43.242,130.000 36.826 L 130.000 28.109 131.055 27.055 L 132.109 26.000 216.274 26.000 L 300.438 26.000 301.419 27.058 C 302.398 28.115,302.400 28.136,302.400 36.825 C 302.400 41.615,302.552 45.593,302.738 45.667 C 302.924 45.740,303.329 46.323,303.638 46.963 C 303.947 47.603,304.552 48.323,304.983 48.563 C 305.414 48.803,306.012 49.225,306.312 49.500 C 306.684 49.841,308.358 50.000,311.574 50.000 C 318.164 50.000,318.400 50.236,318.400 56.826 C 318.400 60.042,318.559 61.716,318.900 62.088 C 319.175 62.388,319.592 62.974,319.827 63.390 C 320.061 63.806,320.594 64.339,321.010 64.573 C 321.426 64.808,322.012 65.225,322.312 65.500 C 322.684 65.841,324.358 66.000,327.574 66.000 C 332.137 66.000,332.325 66.034,333.345 67.055 L 334.400 68.109 334.400 200.200 L 334.400 332.291 333.345 333.345 C 332.325 334.366,332.137 334.400,327.574 334.400 C 324.358 334.400,322.684 334.559,322.312 334.900 C 322.012 335.175,321.426 335.592,321.010 335.827 C 320.594 336.061,320.061 336.594,319.827 337.010 C 319.592 337.426,319.175 338.012,318.900 338.312 C 318.532 338.713,318.400 341.158,318.400 347.574 L 318.400 356.291 317.361 357.330 L 316.322 358.369 303.333 358.484 C 291.448 358.590,290.310 358.660,289.952 359.300 C 289.736 359.685,289.308 360.000,288.999 360.000 C 288.690 360.000,288.139 360.630,287.773 361.400 C 287.408 362.170,286.949 362.800,286.754 362.800 C 286.556 362.800,286.400 368.682,286.400 376.200 C 286.400 384.867,286.541 389.600,286.800 389.600 C 287.020 389.600,287.200 389.876,287.200 390.213 C 287.200 390.551,287.866 391.493,288.680 392.307 L 290.160 393.787 295.504 393.993 C 301.761 394.235,302.375 394.601,302.391 398.100 C 302.396 399.145,302.580 400.000,302.800 400.000 C 303.738 400.000,303.230 396.027,302.134 394.797 C 301.069 393.601,301.064 393.600,296.534 393.600 C 293.837 393.600,292.000 393.441,292.000 393.208 C 292.000 392.992,291.584 392.711,291.076 392.583 C 289.944 392.299,288.155 390.461,287.606 389.017 C 287.064 387.591,287.064 364.809,287.606 363.383 C 288.155 361.939,289.944 360.101,291.076 359.817 C 291.584 359.689,292.000 359.408,292.000 359.192 C 292.000 358.944,296.567 358.800,304.418 358.800 L 316.836 358.800 317.818 357.818 C 318.798 356.838,318.800 356.821,318.800 348.452 C 318.800 343.840,318.935 340.007,319.100 339.933 C 319.265 339.860,319.733 339.143,320.141 338.341 C 320.579 337.479,321.479 336.579,322.341 336.141 C 323.143 335.733,323.860 335.265,323.933 335.100 C 324.007 334.935,326.040 334.800,328.452 334.800 C 332.574 334.800,332.895 334.741,333.818 333.818 L 334.800 332.836 334.800 200.200 L 334.800 67.564 333.818 66.582 C 332.895 65.659,332.574 65.600,328.452 65.600 C 326.040 65.600,324.007 65.465,323.933 65.300 C 323.860 65.135,323.143 64.667,322.341 64.259 C 321.479 63.821,320.579 62.921,320.141 62.059 C 319.733 61.257,319.265 60.540,319.100 60.467 C 318.935 60.393,318.800 58.360,318.800 55.948 C 318.800 49.859,318.541 49.600,312.452 49.600 C 310.040 49.600,308.007 49.465,307.933 49.300 C 307.860 49.135,307.128 48.658,306.307 48.241 C 303.565 46.846,303.200 45.417,303.200 36.070 L 303.200 27.993 302.134 26.797 L 301.068 25.600 216.316 25.600 L 131.564 25.600 130.582 26.582 "
                    stroke="none"
                    fill="#bce4b8"
                    fill-rule="evenodd"></path><path id="path8"
                    d="M93.600 2.000 C 93.600 5.669,94.121 5.542,78.520 5.680 C 63.945 5.809,63.405 5.885,62.344 7.944 C 61.894 8.817,61.782 18.954,61.695 66.505 C 61.593 122.271,61.566 124.034,60.834 124.766 C 60.184 125.416,59.304 125.544,54.539 125.682 C 44.943 125.959,45.800 122.967,45.800 156.200 C 45.800 189.433,44.943 186.441,54.539 186.718 C 59.318 186.857,60.183 186.983,60.839 187.639 C 62.034 188.834,62.034 355.566,60.839 356.761 C 60.183 357.417,59.318 357.543,54.539 357.682 C 46.127 357.925,45.925 358.127,45.682 366.539 C 45.463 374.115,46.400 373.515,34.526 373.678 C 20.822 373.866,21.846 372.684,21.677 388.500 L 21.555 400.000 22.577 400.000 L 23.600 400.000 23.600 390.226 C 23.600 375.552,23.558 375.600,36.473 375.600 L 44.494 375.600 46.047 374.047 L 47.600 372.494 47.600 368.473 C 47.600 361.157,49.157 359.600,56.473 359.600 L 60.494 359.600 62.047 358.047 L 63.600 356.494 63.600 272.200 L 63.600 187.906 62.047 186.353 L 60.494 184.800 56.473 184.800 C 51.195 184.800,49.078 183.836,47.973 180.929 C 47.479 179.629,47.479 132.771,47.973 131.471 C 49.078 128.564,51.195 127.600,56.473 127.600 L 60.494 127.600 62.047 126.047 L 63.600 124.494 63.600 68.473 C 63.600 10.191,63.567 11.270,65.418 9.418 C 67.149 7.687,67.873 7.600,80.473 7.600 L 92.494 7.600 94.047 6.047 C 96.069 4.025,96.437 0.000,94.600 0.000 C 93.667 0.000,93.600 0.133,93.600 2.000 M320.800 10.247 L 320.800 20.494 322.353 22.047 L 323.906 23.600 327.927 23.600 C 336.041 23.600,336.800 24.701,336.800 36.473 L 336.800 44.494 338.353 46.047 L 339.906 47.600 347.927 47.600 C 357.476 47.600,359.153 48.119,360.427 51.471 C 360.931 52.796,360.931 355.604,360.427 356.929 C 359.153 360.281,357.476 360.800,347.927 360.800 L 339.906 360.800 338.353 362.353 L 336.800 363.906 336.800 367.927 C 336.800 375.243,335.243 376.800,327.927 376.800 L 323.906 376.800 322.353 378.353 L 320.800 379.906 320.800 389.953 L 320.800 400.000 321.800 400.000 L 322.800 400.000 322.800 390.200 C 322.800 377.969,322.203 378.940,329.861 378.718 C 338.273 378.475,338.475 378.273,338.718 369.861 C 338.937 362.285,338.000 362.885,349.874 362.722 C 360.346 362.578,361.159 362.413,362.073 360.248 C 362.506 359.223,362.600 331.377,362.600 204.200 C 362.600 77.023,362.506 49.177,362.073 48.152 C 361.159 45.987,360.346 45.822,349.874 45.678 C 337.632 45.510,338.890 46.768,338.722 34.526 C 338.544 21.575,338.796 21.940,329.861 21.682 C 322.194 21.460,322.800 22.462,322.800 10.000 L 322.800 0.000 321.800 0.000 L 320.800 0.000 320.800 10.247 M130.582 26.582 C 129.602 27.562,129.600 27.579,129.600 35.948 C 129.600 40.560,129.465 44.393,129.300 44.467 C 129.135 44.540,128.667 45.257,128.259 46.059 C 127.821 46.921,126.921 47.821,126.059 48.259 C 125.257 48.667,124.540 49.135,124.467 49.300 C 124.393 49.465,118.760 49.600,111.948 49.600 L 99.564 49.600 98.582 50.582 L 97.600 51.564 97.600 87.948 C 97.600 107.960,97.465 124.393,97.300 124.467 C 97.135 124.540,96.667 125.257,96.259 126.059 C 95.821 126.921,94.921 127.821,94.059 128.259 C 93.257 128.667,92.540 129.135,92.467 129.300 C 92.393 129.465,90.360 129.600,87.948 129.600 C 83.826 129.600,83.505 129.659,82.582 130.582 L 81.600 131.564 81.600 156.200 L 81.600 180.836 82.582 181.818 C 83.505 182.741,83.826 182.800,87.948 182.800 C 90.360 182.800,92.393 182.935,92.467 183.100 C 92.540 183.265,93.257 183.733,94.059 184.141 C 94.921 184.579,95.821 185.479,96.259 186.341 C 96.667 187.143,97.135 187.860,97.300 187.933 C 97.692 188.108,97.692 372.292,97.300 372.467 C 97.135 372.540,96.667 373.257,96.259 374.059 C 95.821 374.921,94.921 375.821,94.059 376.259 C 93.257 376.667,92.540 377.135,92.467 377.300 C 92.393 377.465,90.360 377.600,87.948 377.600 C 81.859 377.600,81.600 377.859,81.600 383.948 C 81.600 386.360,81.465 388.393,81.300 388.467 C 81.135 388.540,80.667 389.257,80.259 390.059 C 79.821 390.921,78.921 391.821,78.059 392.259 C 77.257 392.667,76.540 393.135,76.467 393.300 C 76.393 393.465,74.360 393.600,71.948 393.600 C 66.370 393.600,65.555 394.156,65.674 397.882 L 65.748 400.200 65.894 398.135 C 66.145 394.569,66.974 394.090,73.171 393.931 L 78.296 393.800 80.048 392.048 L 81.800 390.296 81.931 385.171 C 82.112 378.134,82.134 378.112,89.171 377.931 L 94.296 377.800 96.048 376.047 L 97.800 374.294 97.902 280.578 C 97.984 205.800,97.903 186.751,97.502 186.314 C 97.226 186.013,96.808 185.426,96.573 185.010 C 96.339 184.594,95.806 184.061,95.390 183.827 C 94.974 183.592,94.388 183.175,94.088 182.900 C 93.716 182.559,92.042 182.400,88.826 182.400 C 84.263 182.400,84.075 182.366,83.055 181.345 L 82.000 180.291 82.000 156.200 L 82.000 132.109 83.055 131.055 C 84.075 130.034,84.263 130.000,88.826 130.000 C 92.042 130.000,93.716 129.841,94.088 129.500 C 94.388 129.225,94.974 128.808,95.390 128.573 C 95.806 128.339,96.339 127.806,96.573 127.390 C 96.808 126.974,97.225 126.388,97.500 126.088 C 97.892 125.660,98.000 117.642,98.000 88.826 L 98.000 52.109 99.055 51.055 L 100.109 50.000 112.826 50.000 C 122.442 50.000,125.676 49.878,126.088 49.500 C 126.388 49.225,126.974 48.808,127.390 48.573 C 127.806 48.339,128.339 47.806,128.573 47.390 C 128.808 46.974,129.225 46.388,129.500 46.088 C 129.868 45.687,130.000 43.242,130.000 36.826 L 130.000 28.109 131.055 27.055 L 132.109 26.000 216.274 26.000 L 300.438 26.000 301.419 27.058 C 302.398 28.115,302.400 28.136,302.400 36.825 C 302.400 41.615,302.552 45.593,302.738 45.667 C 302.924 45.740,303.329 46.323,303.638 46.963 C 303.947 47.603,304.552 48.323,304.983 48.563 C 305.414 48.803,306.012 49.225,306.312 49.500 C 306.684 49.841,308.358 50.000,311.574 50.000 C 318.164 50.000,318.400 50.236,318.400 56.826 C 318.400 60.042,318.559 61.716,318.900 62.088 C 319.175 62.388,319.592 62.974,319.827 63.390 C 320.061 63.806,320.594 64.339,321.010 64.573 C 321.426 64.808,322.012 65.225,322.312 65.500 C 322.684 65.841,324.358 66.000,327.574 66.000 C 332.137 66.000,332.325 66.034,333.345 67.055 L 334.400 68.109 334.400 200.200 L 334.400 332.291 333.345 333.345 C 332.325 334.366,332.137 334.400,327.574 334.400 C 324.358 334.400,322.684 334.559,322.312 334.900 C 322.012 335.175,321.426 335.592,321.010 335.827 C 320.594 336.061,320.061 336.594,319.827 337.010 C 319.592 337.426,319.175 338.012,318.900 338.312 C 318.532 338.713,318.400 341.158,318.400 347.574 L 318.400 356.291 317.361 357.330 L 316.322 358.369 303.333 358.484 C 291.448 358.590,290.310 358.660,289.952 359.300 C 289.736 359.685,289.308 360.000,288.999 360.000 C 288.690 360.000,288.139 360.630,287.773 361.400 C 287.408 362.170,286.949 362.800,286.754 362.800 C 286.556 362.800,286.400 368.682,286.400 376.200 C 286.400 384.867,286.541 389.600,286.800 389.600 C 287.020 389.600,287.200 389.876,287.200 390.213 C 287.200 390.551,287.866 391.493,288.680 392.307 L 290.160 393.787 295.504 393.993 C 301.761 394.235,302.375 394.601,302.391 398.100 C 302.396 399.145,302.580 400.000,302.800 400.000 C 303.738 400.000,303.230 396.027,302.134 394.797 C 301.069 393.601,301.064 393.600,296.534 393.600 C 293.837 393.600,292.000 393.441,292.000 393.208 C 292.000 392.992,291.584 392.711,291.076 392.583 C 289.944 392.299,288.155 390.461,287.606 389.017 C 287.064 387.591,287.064 364.809,287.606 363.383 C 288.155 361.939,289.944 360.101,291.076 359.817 C 291.584 359.689,292.000 359.408,292.000 359.192 C 292.000 358.944,296.567 358.800,304.418 358.800 L 316.836 358.800 317.818 357.818 C 318.798 356.838,318.800 356.821,318.800 348.452 C 318.800 343.840,318.935 340.007,319.100 339.933 C 319.265 339.860,319.733 339.143,320.141 338.341 C 320.579 337.479,321.479 336.579,322.341 336.141 C 323.143 335.733,323.860 335.265,323.933 335.100 C 324.007 334.935,326.040 334.800,328.452 334.800 C 332.574 334.800,332.895 334.741,333.818 333.818 L 334.800 332.836 334.800 200.200 L 334.800 67.564 333.818 66.582 C 332.895 65.659,332.574 65.600,328.452 65.600 C 326.040 65.600,324.007 65.465,323.933 65.300 C 323.860 65.135,323.143 64.667,322.341 64.259 C 321.479 63.821,320.579 62.921,320.141 62.059 C 319.733 61.257,319.265 60.540,319.100 60.467 C 318.935 60.393,318.800 58.360,318.800 55.948 C 318.800 49.859,318.541 49.600,312.452 49.600 C 310.040 49.600,308.007 49.465,307.933 49.300 C 307.860 49.135,307.128 48.658,306.307 48.241 C 303.565 46.846,303.200 45.417,303.200 36.070 L 303.200 27.993 302.134 26.797 L 301.068 25.600 216.316 25.600 L 131.564 25.600 130.582 26.582 "
                    stroke="none"
                    fill="#bce4b8"
                    fill-rule="evenodd"></path><path id="path1"
                    d="M203.277 96.665 C 201.141 97.551,200.604 98.847,200.485 103.400 C 200.289 110.861,198.861 112.289,191.400 112.485 C 187.111 112.597,186.970 112.630,185.800 113.800 L 184.600 115.000 184.600 132.200 L 184.600 149.400 185.800 150.600 C 186.978 151.778,187.085 151.802,191.726 151.934 C 195.689 152.047,196.492 152.176,196.701 152.734 C 196.838 153.100,197.232 153.610,197.575 153.867 C 198.069 154.235,198.242 155.475,198.400 159.782 C 198.531 163.360,198.763 165.331,199.075 165.523 C 199.336 165.684,199.738 166.311,199.968 166.915 C 200.198 167.520,200.880 168.202,201.485 168.432 C 202.089 168.662,202.717 169.064,202.880 169.325 C 203.267 169.947,215.133 169.949,215.530 169.327 C 216.056 168.502,219.193 168.309,236.200 168.056 L 253.400 167.800 254.600 166.662 L 255.800 165.523 255.909 139.810 C 256.025 112.200,256.021 112.144,254.007 111.741 C 253.343 111.609,252.800 111.352,252.800 111.171 C 252.800 110.990,248.759 110.788,243.819 110.721 C 232.986 110.575,233.841 111.092,233.667 104.581 C 233.594 101.842,233.369 99.600,233.167 99.600 C 232.965 99.600,232.794 99.285,232.787 98.900 C 232.746 96.602,232.775 96.607,217.683 96.524 C 210.047 96.482,203.565 96.546,203.277 96.665 M291.214 96.686 C 290.446 96.998,289.230 98.465,289.213 99.100 C 289.206 99.375,289.020 99.600,288.800 99.600 C 288.559 99.600,288.400 101.251,288.400 103.754 C 288.400 110.997,287.038 112.282,279.144 112.489 C 274.762 112.603,273.262 113.264,273.213 115.100 C 273.206 115.375,273.020 115.600,272.800 115.600 C 272.540 115.600,272.400 121.400,272.400 132.200 C 272.400 143.000,272.540 148.800,272.800 148.800 C 273.020 148.800,273.206 149.025,273.213 149.300 C 273.264 151.197,274.722 151.793,279.813 152.000 C 282.521 152.110,284.796 152.290,284.868 152.400 C 286.221 154.453,286.400 155.313,286.400 159.762 C 286.400 162.313,286.551 164.400,286.736 164.400 C 286.921 164.400,287.316 165.140,287.614 166.044 C 288.026 167.292,288.499 167.846,289.579 168.344 C 290.360 168.705,291.263 169.250,291.585 169.556 C 292.267 170.205,303.123 169.962,303.554 169.287 C 304.028 168.548,307.107 168.321,320.200 168.062 L 333.400 167.800 334.600 166.600 L 335.800 165.400 335.800 139.117 C 335.800 110.225,335.920 111.657,333.500 111.613 C 333.115 111.606,332.800 111.435,332.800 111.233 C 332.800 111.031,330.558 110.806,327.819 110.733 C 321.557 110.566,321.834 110.843,321.667 104.581 C 321.594 101.842,321.369 99.600,321.167 99.600 C 320.965 99.600,320.794 99.285,320.787 98.900 C 320.746 96.602,320.775 96.607,305.683 96.524 C 298.047 96.482,291.536 96.555,291.214 96.686 M230.081 114.320 C 230.490 114.730,230.600 118.474,230.600 132.006 C 230.600 152.509,231.226 150.540,224.650 150.733 L 220.127 150.866 218.864 149.602 L 217.600 148.338 217.600 132.395 C 217.600 115.831,217.707 114.665,219.294 113.998 C 220.663 113.423,229.447 113.685,230.081 114.320 M318.081 114.320 C 318.490 114.730,318.600 118.474,318.600 132.006 C 318.600 152.509,319.226 150.540,312.650 150.733 L 308.127 150.866 306.864 149.602 L 305.600 148.338 305.600 132.395 C 305.600 115.831,305.707 114.665,307.294 113.998 C 308.663 113.423,317.447 113.685,318.081 114.320 "
                    stroke="none"
                    fill="#ccd4d4"
                    fill-rule="evenodd"></path><path id="path2"
                    d="M170.336 82.335 L 168.873 83.844 168.736 88.470 L 168.600 93.096 166.848 94.848 L 165.096 96.600 160.465 96.736 L 155.833 96.873 154.353 98.353 L 152.873 99.833 152.736 104.465 L 152.600 109.096 150.847 110.848 L 149.094 112.600 124.491 112.709 L 99.888 112.818 98.344 114.362 L 96.800 115.906 96.800 120.200 L 96.800 124.494 98.316 126.011 L 99.833 127.527 104.465 127.664 L 109.096 127.800 110.848 129.552 L 112.600 131.304 112.723 139.922 L 112.845 148.539 114.367 150.061 L 115.888 151.582 140.491 151.691 L 165.094 151.800 166.847 153.552 L 168.600 155.305 168.716 167.916 L 168.833 180.527 170.369 182.063 L 171.906 183.600 212.182 183.600 C 247.179 183.600,252.535 183.523,253.048 183.009 C 253.373 182.684,254.035 182.141,254.520 181.802 C 255.325 181.240,255.417 180.764,255.600 176.258 L 255.800 171.328 257.533 169.663 C 259.662 167.619,260.157 167.489,265.130 167.662 L 269.102 167.800 270.751 169.400 C 271.658 170.280,272.399 171.225,272.400 171.500 C 272.400 171.775,272.580 172.000,272.800 172.000 C 273.042 172.000,273.200 173.738,273.200 176.413 L 273.200 180.827 274.587 182.213 L 275.973 183.600 316.234 183.600 L 356.494 183.600 358.047 182.047 L 359.600 180.494 359.600 132.200 L 359.600 83.906 358.047 82.353 L 356.494 80.800 264.147 80.813 L 171.800 80.827 170.336 82.335 M232.009 97.200 C 232.260 97.598,232.390 97.632,232.394 97.300 C 232.399 96.913,234.670 96.800,242.400 96.800 C 248.800 96.800,252.400 96.944,252.400 97.200 C 252.400 97.420,252.625 97.606,252.900 97.613 C 255.747 97.689,255.784 98.218,255.794 139.462 L 255.800 165.523 254.600 166.662 L 253.400 167.800 236.200 168.056 C 219.193 168.309,216.056 168.502,215.530 169.327 C 215.133 169.949,203.267 169.947,202.880 169.325 C 202.717 169.064,202.089 168.662,201.485 168.432 C 200.880 168.202,200.198 167.520,199.968 166.915 C 199.738 166.311,199.336 165.684,199.075 165.523 C 198.763 165.331,198.531 163.360,198.400 159.782 C 198.242 155.475,198.069 154.235,197.575 153.867 C 197.232 153.610,196.838 153.100,196.701 152.734 C 196.492 152.176,195.689 152.047,191.726 151.934 C 187.085 151.802,186.978 151.778,185.800 150.600 L 184.600 149.400 184.600 132.200 L 184.600 115.000 185.800 113.800 C 186.970 112.630,187.111 112.597,191.400 112.485 C 198.861 112.289,200.289 110.861,200.485 103.400 C 200.604 98.847,201.141 97.551,203.277 96.665 C 204.651 96.095,231.628 96.597,232.009 97.200 M320.009 97.200 C 320.260 97.598,320.390 97.632,320.394 97.300 C 320.398 96.922,321.870 96.800,326.400 96.800 C 329.700 96.800,332.400 96.937,332.400 97.105 C 332.400 97.273,332.805 97.588,333.300 97.805 C 333.795 98.022,334.378 98.605,334.595 99.100 C 334.812 99.595,335.127 100.000,335.295 100.000 C 335.463 100.000,335.600 102.700,335.600 106.000 C 335.600 110.530,335.478 112.002,335.100 112.006 C 334.768 112.010,334.802 112.140,335.200 112.392 C 335.723 112.722,335.800 116.130,335.800 139.085 L 335.800 165.400 334.600 166.600 L 333.400 167.800 320.200 168.062 C 307.107 168.321,304.028 168.548,303.554 169.287 C 303.123 169.962,292.267 170.205,291.585 169.556 C 291.263 169.250,290.360 168.705,289.579 168.344 C 288.499 167.846,288.026 167.292,287.614 166.044 C 287.316 165.140,286.921 164.400,286.736 164.400 C 286.551 164.400,286.400 162.313,286.400 159.762 C 286.400 155.313,286.221 154.453,284.868 152.400 C 284.796 152.290,282.521 152.110,279.813 152.000 C 274.722 151.793,273.264 151.197,273.213 149.300 C 273.206 149.025,273.020 148.800,272.800 148.800 C 272.540 148.800,272.400 143.000,272.400 132.200 C 272.400 121.400,272.540 115.600,272.800 115.600 C 273.020 115.600,273.206 115.375,273.213 115.100 C 273.262 113.264,274.762 112.603,279.144 112.489 C 287.038 112.282,288.400 110.997,288.400 103.754 C 288.400 101.251,288.559 99.600,288.800 99.600 C 289.020 99.600,289.206 99.375,289.213 99.100 C 289.230 98.465,290.446 96.998,291.214 96.686 C 292.652 96.102,319.619 96.583,320.009 97.200 "
                    stroke="none"
                    fill="#fcd4cc"
                    fill-rule="evenodd"></path><path id="path3"
                    d="M232.618 98.100 C 232.774 98.815,233.042 99.491,233.215 99.602 C 233.387 99.712,233.590 101.999,233.664 104.683 C 233.842 111.071,233.016 110.575,243.709 110.722 C 248.588 110.790,252.675 110.992,252.790 111.172 C 252.906 111.352,253.598 111.629,254.328 111.788 L 255.656 112.076 255.528 105.682 C 255.394 98.975,254.968 97.668,252.900 97.613 C 252.625 97.606,252.400 97.420,252.400 97.200 C 252.400 96.944,248.789 96.800,242.368 96.800 L 232.336 96.800 232.618 98.100 M320.618 98.100 C 320.774 98.815,321.042 99.491,321.215 99.602 C 321.387 99.712,321.590 101.999,321.664 104.683 C 321.835 110.817,321.583 110.565,327.717 110.736 C 330.401 110.810,332.688 111.013,332.798 111.185 C 332.909 111.358,333.585 111.626,334.300 111.782 L 335.600 112.064 335.600 106.032 C 335.600 102.714,335.463 100.000,335.295 100.000 C 335.127 100.000,334.812 99.595,334.595 99.100 C 334.378 98.605,333.795 98.022,333.300 97.805 C 332.805 97.588,332.400 97.273,332.400 97.105 C 332.400 96.937,329.686 96.800,326.368 96.800 L 320.336 96.800 320.618 98.100 M219.294 113.998 C 217.707 114.665,217.600 115.831,217.600 132.395 L 217.600 148.338 218.864 149.602 L 220.127 150.866 224.650 150.733 C 231.226 150.540,230.600 152.509,230.600 132.006 C 230.600 118.474,230.490 114.730,230.081 114.320 C 229.447 113.685,220.663 113.423,219.294 113.998 M307.294 113.998 C 305.707 114.665,305.600 115.831,305.600 132.395 L 305.600 148.338 306.864 149.602 L 308.127 150.866 312.650 150.733 C 319.226 150.540,318.600 152.509,318.600 132.006 C 318.600 118.474,318.490 114.730,318.081 114.320 C 317.447 113.685,308.663 113.423,307.294 113.998 "
                    stroke="none"
                    fill="#e4ecec"
                    fill-rule="evenodd"></path><path id="path4"
                    d=""
                    stroke="none"
                    fill="#100f8f0"
                    fill-rule="evenodd"></path>
        </g>
    </svg>