<svg
        name="man_62"
        id="man_62"
        version="1.2"
        xmlns="http://www.w3.org/2000/svg" xmlns:xlink="http://www.w3.org/1999/xlink"
        width="400"
        height="400"
        viewBox="0, 0, 400, 400">
        <g id="svgg">
            <path id="path0"
                    d="M131.929 38.719 L 131.800 49.438 130.619 50.619 L 129.437 51.800 114.728 51.923 L 100.019 52.045 99.910 90.741 L 99.800 129.437 98.619 130.618 L 97.437 131.800 90.719 131.940 L 84.000 132.081 84.000 156.200 L 84.000 180.319 90.719 180.460 L 97.437 180.600 98.619 181.782 L 99.800 182.964 99.904 291.482 L 100.007 400.000 192.204 400.000 L 284.400 400.000 284.400 380.800 L 284.400 361.600 244.233 361.600 C 222.142 361.600,204.007 361.465,203.933 361.300 C 203.860 361.135,203.143 360.667,202.341 360.259 C 201.479 359.821,200.579 358.921,200.141 358.059 C 199.733 357.257,199.265 356.540,199.100 356.467 C 198.935 356.393,198.800 349.073,198.800 340.200 C 198.800 331.327,198.935 324.007,199.100 323.933 C 199.265 323.860,199.733 323.143,200.141 322.341 C 200.579 321.479,201.479 320.579,202.341 320.141 C 203.143 319.733,203.860 319.265,203.933 319.100 C 204.107 318.708,212.293 318.708,212.467 319.100 C 212.540 319.265,213.257 319.733,214.059 320.141 C 214.921 320.579,215.821 321.479,216.259 322.341 C 216.667 323.143,217.135 323.860,217.300 323.933 C 217.465 324.007,217.600 326.040,217.600 328.452 C 217.600 332.574,217.659 332.895,218.582 333.818 L 219.564 334.800 251.982 334.800 C 269.812 334.800,284.400 334.944,284.400 335.120 C 284.400 335.295,285.030 335.667,285.800 335.945 C 286.570 336.224,287.378 336.786,287.597 337.195 C 287.816 337.603,288.311 338.253,288.697 338.639 C 289.315 339.257,289.415 340.370,289.522 347.871 L 289.644 356.400 302.993 356.400 L 316.342 356.400 316.471 345.681 L 316.600 334.962 317.781 333.781 L 318.963 332.600 325.681 332.460 L 332.400 332.319 332.400 200.200 L 332.400 68.081 325.681 67.940 L 318.963 67.800 317.781 66.619 L 316.600 65.437 316.460 58.758 L 316.321 52.079 309.594 51.940 C 302.235 51.787,301.200 51.417,301.200 48.939 C 301.200 48.422,301.020 48.000,300.800 48.000 C 300.544 48.000,300.400 44.400,300.400 38.000 L 300.400 28.000 216.229 28.000 L 132.058 28.000 131.929 38.719 M229.931 80.266 C 232.177 81.239,232.800 82.961,232.800 88.200 C 232.800 95.570,231.596 96.800,224.384 96.800 L 220.373 96.800 218.987 98.187 L 217.600 99.573 217.600 103.987 C 217.600 106.662,217.442 108.400,217.200 108.400 C 216.980 108.400,216.800 108.739,216.800 109.154 C 216.800 110.303,215.525 114.000,215.129 114.000 C 214.937 114.000,214.609 114.450,214.400 115.000 C 214.191 115.550,213.745 116.000,213.410 116.000 C 212.873 116.000,212.800 117.971,212.800 132.400 L 212.800 148.800 200.200 148.800 L 187.600 148.800 187.600 132.400 C 187.600 117.971,187.527 116.000,186.990 116.000 C 186.655 116.000,186.209 115.550,186.000 115.000 C 185.791 114.450,185.463 114.000,185.271 114.000 C 184.875 114.000,183.600 110.303,183.600 109.154 C 183.600 108.739,183.420 108.400,183.200 108.400 C 182.948 108.400,182.800 105.667,182.800 101.000 C 182.800 96.333,182.948 93.600,183.200 93.600 C 183.444 93.600,183.600 91.734,183.600 88.803 C 183.600 83.010,184.163 81.277,186.366 80.286 C 188.574 79.293,227.644 79.275,229.931 80.266 M317.931 80.266 C 320.177 81.239,320.800 82.961,320.800 88.200 C 320.800 95.570,319.596 96.800,312.384 96.800 L 308.373 96.800 306.987 98.187 L 305.600 99.573 305.600 103.987 C 305.600 106.662,305.442 108.400,305.200 108.400 C 304.980 108.400,304.800 108.739,304.800 109.154 C 304.800 110.452,303.477 114.072,302.926 114.284 C 302.637 114.395,302.400 114.742,302.400 115.055 C 302.400 115.369,302.130 115.729,301.800 115.855 C 301.280 116.055,301.200 118.272,301.200 132.443 L 301.200 148.800 288.400 148.800 L 275.600 148.800 275.600 132.400 C 275.600 118.324,275.518 116.000,275.019 116.000 C 274.699 116.000,274.123 115.325,273.740 114.500 C 273.356 113.675,272.879 112.888,272.680 112.751 C 270.849 111.491,270.686 83.550,272.502 82.222 C 272.886 81.941,273.200 81.529,273.200 81.306 C 273.200 79.475,313.921 78.529,317.931 80.266 M268.400 183.120 C 268.400 183.295,269.030 183.667,269.800 183.945 C 270.570 184.224,271.378 184.786,271.597 185.195 C 271.816 185.603,272.311 186.254,272.697 186.640 C 273.741 187.683,273.741 196.717,272.697 197.760 C 272.311 198.146,271.816 198.797,271.597 199.205 C 271.378 199.614,270.570 200.176,269.800 200.455 C 269.030 200.733,268.400 201.105,268.400 201.280 C 268.400 201.686,236.113 201.705,235.933 201.300 C 235.860 201.135,235.143 200.667,234.341 200.259 C 233.479 199.821,232.579 198.921,232.141 198.059 C 231.733 197.257,231.265 196.540,231.100 196.467 C 230.935 196.393,230.800 194.473,230.800 192.200 C 230.800 189.927,230.935 188.007,231.100 187.933 C 231.265 187.860,231.733 187.143,232.141 186.341 C 232.579 185.479,233.479 184.579,234.341 184.141 C 235.143 183.733,235.860 183.265,235.933 183.100 C 236.113 182.695,268.400 182.714,268.400 183.120 M124.467 271.100 C 124.540 271.265,125.257 271.733,126.059 272.141 C 126.921 272.579,127.821 273.479,128.259 274.341 C 128.667 275.143,129.135 275.860,129.300 275.933 C 129.465 276.007,129.600 278.152,129.600 280.702 C 129.600 287.452,127.672 286.800,147.629 286.800 C 156.816 286.800,164.393 286.935,164.467 287.100 C 164.540 287.265,165.257 287.733,166.059 288.141 C 166.921 288.579,167.821 289.479,168.259 290.341 C 168.667 291.143,169.135 291.860,169.300 291.933 C 169.465 292.007,169.600 293.927,169.600 296.200 C 169.600 298.473,169.465 300.393,169.300 300.467 C 169.135 300.540,168.667 301.257,168.259 302.059 C 167.821 302.921,166.921 303.821,166.059 304.259 C 165.257 304.667,164.540 305.135,164.467 305.300 C 164.393 305.465,157.073 305.600,148.200 305.600 C 139.327 305.600,132.007 305.465,131.933 305.300 C 131.860 305.135,131.143 304.667,130.341 304.259 C 129.479 303.821,128.579 302.921,128.141 302.059 C 127.733 301.257,127.265 300.540,127.100 300.467 C 126.935 300.393,126.800 298.248,126.800 295.698 C 126.800 289.489,126.909 289.600,120.771 289.600 C 118.184 289.600,116.007 289.465,115.933 289.300 C 115.860 289.135,115.143 288.667,114.341 288.259 C 113.479 287.821,112.579 286.921,112.141 286.059 C 111.733 285.257,111.265 284.540,111.100 284.467 C 110.935 284.393,110.800 282.473,110.800 280.200 C 110.800 277.927,110.935 276.007,111.100 275.933 C 111.265 275.860,111.733 275.143,112.141 274.341 C 112.579 273.479,113.479 272.579,114.341 272.141 C 115.143 271.733,115.860 271.265,115.933 271.100 C 116.007 270.935,117.927 270.800,120.200 270.800 C 122.473 270.800,124.393 270.935,124.467 271.100 "
                    stroke="none"
                    fill="#fcc494"
                    fill-rule="evenodd"></path><path id="path1"
                    d="M0.000 200.000 L 0.000 400.000 30.800 400.000 L 61.600 400.000 61.600 294.200 C 61.600 188.933,61.596 188.396,60.800 187.600 C 60.098 186.898,59.467 186.800,55.650 186.800 C 45.116 186.800,45.600 188.275,45.600 156.200 C 45.600 124.125,45.116 125.600,55.650 125.600 C 62.420 125.600,61.600 133.583,61.600 67.650 C 61.600 19.088,61.681 11.070,62.188 9.634 C 63.542 5.797,64.396 5.600,79.650 5.600 C 93.957 5.600,93.600 5.692,93.600 2.000 L 93.600 0.000 46.800 0.000 L 0.000 0.000 0.000 200.000 M322.800 10.000 C 322.800 22.370,322.405 21.600,328.750 21.600 C 338.084 21.600,338.800 22.601,338.800 35.650 C 338.800 46.564,337.836 45.600,348.750 45.600 C 359.550 45.600,360.935 46.015,362.212 49.634 C 363.103 52.159,363.103 356.241,362.212 358.766 C 360.935 362.385,359.550 362.800,348.750 362.800 C 338.280 362.800,338.800 362.489,338.800 368.750 C 338.800 378.559,338.368 378.800,320.750 378.800 C 305.079 378.800,306.800 377.393,306.800 390.200 L 306.800 400.000 353.400 400.000 L 400.000 400.000 400.000 200.000 L 400.000 0.000 361.400 0.000 L 322.800 0.000 322.800 10.000 "
                    stroke="none"
                    fill="#fcfcfc"
                    fill-rule="evenodd"></path><path id="path2"
                    d="M130.500 26.620 L 128.800 28.381 128.800 36.758 C 128.800 49.499,129.731 48.800,112.757 48.800 L 100.379 48.800 98.589 50.589 L 96.800 52.379 96.800 88.757 C 96.800 122.012,96.743 125.235,96.132 126.299 C 94.954 128.351,93.631 128.800,88.757 128.800 L 84.379 128.800 82.589 130.589 L 80.800 132.379 80.800 156.200 L 80.800 180.021 82.589 181.811 L 84.379 183.600 88.757 183.600 C 93.631 183.600,94.954 184.049,96.132 186.101 C 96.751 187.180,96.800 194.991,96.800 293.632 L 96.800 400.000 98.404 400.000 L 100.007 400.000 99.904 291.482 L 99.800 182.964 98.619 181.782 L 97.437 180.600 90.719 180.460 L 84.000 180.319 84.000 156.200 L 84.000 132.081 90.719 131.940 L 97.437 131.800 98.619 130.618 L 99.800 129.437 99.910 90.741 L 100.019 52.045 114.728 51.923 L 129.437 51.800 130.619 50.619 L 131.800 49.438 131.929 38.719 L 132.058 28.000 216.229 28.000 L 300.400 28.000 300.400 38.000 C 300.400 44.400,300.544 48.000,300.800 48.000 C 301.020 48.000,301.200 48.422,301.200 48.939 C 301.200 51.417,302.235 51.787,309.594 51.940 L 316.321 52.079 316.460 58.758 L 316.600 65.437 317.781 66.619 L 318.963 67.800 325.681 67.940 L 332.400 68.081 332.400 200.200 L 332.400 332.319 325.681 332.460 L 318.963 332.600 317.781 333.781 L 316.600 334.962 316.471 345.681 L 316.342 356.400 302.993 356.400 L 289.644 356.400 289.522 347.871 C 289.415 340.370,289.315 339.257,288.697 338.639 C 288.311 338.253,287.816 337.603,287.597 337.195 C 287.378 336.786,286.570 336.224,285.800 335.945 C 285.030 335.667,284.400 335.295,284.400 335.120 C 284.400 334.944,269.812 334.800,251.982 334.800 L 219.564 334.800 218.582 333.818 C 217.659 332.895,217.600 332.574,217.600 328.452 C 217.600 326.040,217.465 324.007,217.300 323.933 C 217.135 323.860,216.667 323.143,216.259 322.341 C 215.821 321.479,214.921 320.579,214.059 320.141 C 213.257 319.733,212.540 319.265,212.467 319.100 C 212.293 318.708,204.107 318.708,203.933 319.100 C 203.860 319.265,203.143 319.733,202.341 320.141 C 201.479 320.579,200.579 321.479,200.141 322.341 C 199.733 323.143,199.265 323.860,199.100 323.933 C 198.708 324.108,198.708 356.292,199.100 356.467 C 199.265 356.540,199.733 357.257,200.141 358.059 C 200.579 358.921,201.479 359.821,202.341 360.259 C 203.143 360.667,203.860 361.135,203.933 361.300 C 204.007 361.465,222.142 361.600,244.233 361.600 L 284.400 361.600 284.400 380.800 L 284.400 400.000 286.000 400.000 L 287.600 400.000 287.600 381.422 L 287.600 362.845 288.994 361.322 L 290.388 359.800 303.221 359.684 L 316.053 359.568 317.827 357.794 L 319.600 356.021 319.600 347.643 C 319.600 336.080,319.921 335.600,327.643 335.600 L 332.021 335.600 333.811 333.811 L 335.600 332.021 335.600 200.200 L 335.600 68.379 333.811 66.589 L 332.021 64.800 327.643 64.800 C 320.616 64.800,319.600 63.784,319.600 56.757 L 319.600 52.379 317.811 50.589 L 316.021 48.800 311.643 48.800 C 303.912 48.800,303.602 48.333,303.593 36.668 L 303.587 28.200 301.826 26.500 L 300.066 24.800 216.133 24.829 L 132.200 24.858 130.500 26.620 M186.366 80.286 C 184.163 81.277,183.600 83.010,183.600 88.803 C 183.600 91.734,183.444 93.600,183.200 93.600 C 182.948 93.600,182.800 96.333,182.800 101.000 C 182.800 105.667,182.948 108.400,183.200 108.400 C 183.420 108.400,183.600 108.739,183.600 109.154 C 183.600 110.303,184.875 114.000,185.271 114.000 C 185.463 114.000,185.791 114.450,186.000 115.000 C 186.209 115.550,186.655 116.000,186.990 116.000 C 187.527 116.000,187.600 117.971,187.600 132.400 L 187.600 148.800 200.200 148.800 L 212.800 148.800 212.800 132.400 C 212.800 117.971,212.873 116.000,213.410 116.000 C 213.745 116.000,214.191 115.550,214.400 115.000 C 214.609 114.450,214.937 114.000,215.129 114.000 C 215.525 114.000,216.800 110.303,216.800 109.154 C 216.800 108.739,216.980 108.400,217.200 108.400 C 217.442 108.400,217.600 106.662,217.600 103.987 L 217.600 99.573 218.987 98.187 L 220.373 96.800 224.384 96.800 C 231.596 96.800,232.800 95.570,232.800 88.200 C 232.800 82.961,232.177 81.239,229.931 80.266 C 227.644 79.275,188.574 79.293,186.366 80.286 M274.500 80.259 C 273.785 80.612,273.200 81.083,273.200 81.306 C 273.200 81.529,272.886 81.941,272.502 82.222 C 270.686 83.550,270.849 111.491,272.680 112.751 C 272.879 112.888,273.356 113.675,273.740 114.500 C 274.123 115.325,274.699 116.000,275.019 116.000 C 275.518 116.000,275.600 118.324,275.600 132.400 L 275.600 148.800 288.400 148.800 L 301.200 148.800 301.200 132.443 C 301.200 118.272,301.280 116.055,301.800 115.855 C 302.130 115.729,302.400 115.369,302.400 115.055 C 302.400 114.742,302.637 114.395,302.926 114.284 C 303.477 114.072,304.800 110.452,304.800 109.154 C 304.800 108.739,304.980 108.400,305.200 108.400 C 305.442 108.400,305.600 106.662,305.600 103.987 L 305.600 99.573 306.987 98.187 L 308.373 96.800 312.384 96.800 C 319.596 96.800,320.800 95.570,320.800 88.200 C 320.800 82.961,320.177 81.239,317.931 80.266 C 315.647 79.276,276.506 79.270,274.500 80.259 M235.933 183.100 C 235.860 183.265,235.143 183.733,234.341 184.141 C 233.479 184.579,232.579 185.479,232.141 186.341 C 231.733 187.143,231.265 187.860,231.100 187.933 C 230.935 188.007,230.800 189.927,230.800 192.200 C 230.800 194.473,230.935 196.393,231.100 196.467 C 231.265 196.540,231.733 197.257,232.141 198.059 C 232.579 198.921,233.479 199.821,234.341 200.259 C 235.143 200.667,235.860 201.135,235.933 201.300 C 236.113 201.705,268.400 201.686,268.400 201.280 C 268.400 201.105,269.030 200.733,269.800 200.455 C 270.570 200.176,271.378 199.614,271.597 199.205 C 271.816 198.797,272.311 198.146,272.697 197.760 C 273.741 196.717,273.741 187.683,272.697 186.640 C 272.311 186.254,271.816 185.603,271.597 185.195 C 271.378 184.786,270.570 184.224,269.800 183.945 C 269.030 183.667,268.400 183.295,268.400 183.120 C 268.400 182.714,236.113 182.695,235.933 183.100 M115.933 271.100 C 115.860 271.265,115.143 271.733,114.341 272.141 C 113.479 272.579,112.579 273.479,112.141 274.341 C 111.733 275.143,111.265 275.860,111.100 275.933 C 110.935 276.007,110.800 277.927,110.800 280.200 C 110.800 282.473,110.935 284.393,111.100 284.467 C 111.265 284.540,111.733 285.257,112.141 286.059 C 112.579 286.921,113.479 287.821,114.341 288.259 C 115.143 288.667,115.860 289.135,115.933 289.300 C 116.007 289.465,118.184 289.600,120.771 289.600 C 126.909 289.600,126.800 289.489,126.800 295.698 C 126.800 298.248,126.935 300.393,127.100 300.467 C 127.265 300.540,127.733 301.257,128.141 302.059 C 128.579 302.921,129.479 303.821,130.341 304.259 C 131.143 304.667,131.860 305.135,131.933 305.300 C 132.007 305.465,139.327 305.600,148.200 305.600 C 157.073 305.600,164.393 305.465,164.467 305.300 C 164.540 305.135,165.257 304.667,166.059 304.259 C 166.921 303.821,167.821 302.921,168.259 302.059 C 168.667 301.257,169.135 300.540,169.300 300.467 C 169.465 300.393,169.600 298.473,169.600 296.200 C 169.600 293.927,169.465 292.007,169.300 291.933 C 169.135 291.860,168.667 291.143,168.259 290.341 C 167.821 289.479,166.921 288.579,166.059 288.141 C 165.257 287.733,164.540 287.265,164.467 287.100 C 164.393 286.935,156.816 286.800,147.629 286.800 C 127.672 286.800,129.600 287.452,129.600 280.702 C 129.600 278.152,129.465 276.007,129.300 275.933 C 129.135 275.860,128.667 275.143,128.259 274.341 C 127.821 273.479,126.921 272.579,126.059 272.141 C 125.257 271.733,124.540 271.265,124.467 271.100 C 124.393 270.935,122.473 270.800,120.200 270.800 C 117.927 270.800,116.007 270.935,115.933 271.100 "
                    stroke="none"
                    fill="#e4b48c"
                    fill-rule="evenodd"></path><path id="path3"
                    d="M98.398 2.100 C 98.390 9.661,96.786 10.395,80.256 10.398 C 68.420 10.400,68.304 10.408,67.363 11.300 L 66.414 12.200 66.405 68.200 C 66.399 105.366,66.257 124.699,65.984 125.683 C 65.020 129.154,62.457 130.390,56.200 130.405 C 52.516 130.413,52.129 130.489,51.300 131.363 L 50.400 132.313 50.400 156.200 L 50.400 180.087 51.300 181.037 C 52.129 181.911,52.516 181.987,56.200 181.995 C 62.457 182.010,65.020 183.246,65.984 186.717 C 66.261 187.717,66.396 222.676,66.398 294.100 L 66.400 400.000 80.400 400.000 L 94.400 400.000 94.400 293.876 C 94.400 202.949,94.319 187.642,93.833 186.976 C 93.339 186.300,92.618 186.174,88.218 186.000 C 84.950 185.871,83.067 185.633,82.877 185.325 C 82.716 185.064,82.089 184.662,81.485 184.432 C 80.880 184.202,80.198 183.520,79.968 182.915 C 79.738 182.311,79.336 181.684,79.075 181.523 C 78.389 181.099,78.389 131.301,79.075 130.877 C 79.336 130.716,79.738 130.089,79.968 129.485 C 80.198 128.880,80.880 128.198,81.485 127.968 C 82.089 127.738,82.716 127.336,82.877 127.075 C 83.066 126.768,84.938 126.529,88.167 126.400 C 91.497 126.267,93.336 126.027,93.682 125.680 C 94.096 125.265,94.240 117.721,94.400 88.165 C 94.551 60.224,94.716 51.099,95.075 50.877 C 95.336 50.716,95.738 50.089,95.968 49.485 C 96.198 48.880,96.880 48.198,97.485 47.968 C 98.089 47.738,98.716 47.336,98.877 47.075 C 99.089 46.731,102.753 46.545,112.166 46.400 C 122.063 46.248,125.285 46.076,125.681 45.681 C 126.063 45.299,126.253 42.786,126.400 36.166 C 126.541 29.843,126.741 27.082,127.075 26.877 C 127.336 26.716,127.738 26.089,127.968 25.485 C 128.198 24.880,128.880 24.198,129.485 23.968 C 130.089 23.738,130.716 23.336,130.877 23.075 C 131.304 22.385,301.096 22.385,301.523 23.075 C 301.684 23.336,302.311 23.738,302.915 23.968 C 303.520 24.198,304.202 24.880,304.432 25.485 C 304.662 26.089,305.064 26.716,305.325 26.877 C 305.659 27.082,305.859 29.843,306.000 36.166 C 306.241 46.994,305.720 46.139,312.233 46.400 C 315.462 46.529,317.334 46.768,317.523 47.075 C 317.684 47.336,318.311 47.738,318.915 47.968 C 319.520 48.198,320.202 48.880,320.432 49.485 C 320.662 50.089,321.064 50.716,321.325 50.877 C 321.632 51.066,321.871 52.938,322.000 56.167 C 322.251 62.425,321.975 62.149,328.233 62.400 C 331.462 62.529,333.334 62.768,333.523 63.075 C 333.684 63.336,334.311 63.738,334.915 63.968 C 335.520 64.198,336.202 64.880,336.432 65.485 C 336.662 66.089,337.064 66.716,337.325 66.877 C 338.016 67.304,338.016 333.096,337.325 333.523 C 337.064 333.684,336.662 334.311,336.432 334.915 C 336.202 335.520,335.520 336.202,334.915 336.432 C 334.311 336.662,333.684 337.064,333.523 337.325 C 333.334 337.632,331.462 337.871,328.233 338.000 C 321.720 338.261,322.241 337.406,322.000 348.234 C 321.859 354.557,321.659 357.318,321.325 357.523 C 321.064 357.684,320.662 358.311,320.432 358.915 C 320.202 359.520,319.520 360.202,318.915 360.432 C 318.311 360.662,317.684 361.064,317.523 361.325 C 317.309 361.672,313.781 361.831,304.474 361.916 C 292.357 362.026,291.674 362.072,290.859 362.831 C 290.005 363.627,290.000 363.733,290.000 381.816 L 290.000 400.000 295.976 400.000 L 301.952 400.000 302.076 389.133 C 302.170 380.884,302.320 378.226,302.700 378.100 C 302.975 378.008,303.206 377.723,303.213 377.467 C 303.290 374.598,306.187 374.006,320.200 373.995 L 332.200 373.986 333.100 373.037 C 333.908 372.184,334.000 371.684,334.002 368.144 C 334.007 358.990,335.378 358.010,348.200 357.995 C 356.095 357.986,356.212 357.974,357.100 357.037 L 358.000 356.087 358.000 204.200 L 358.000 52.313 357.100 51.363 C 356.212 50.426,356.095 50.414,348.200 50.405 C 334.445 50.389,334.006 49.952,334.002 36.256 C 333.999 26.163,334.150 26.418,328.200 26.405 C 318.681 26.383,318.006 25.303,318.002 10.100 L 318.000 0.000 208.200 0.000 L 98.400 0.000 98.398 2.100 "
                    stroke="none"
                    fill="#040404"
                    fill-rule="evenodd"></path><path id="path4"
                    d="M96.000 2.111 C 96.000 3.603,95.795 4.416,95.300 4.883 C 94.915 5.246,94.377 5.781,94.105 6.072 C 92.239 8.062,92.984 7.959,79.551 8.084 L 66.937 8.200 65.569 9.569 L 64.200 10.938 64.000 67.579 C 63.787 127.807,63.898 124.436,62.081 126.119 C 61.795 126.384,61.255 126.899,60.881 127.265 C 60.345 127.788,59.216 127.958,55.568 128.065 L 50.936 128.200 49.568 129.569 L 48.200 130.938 48.200 156.200 L 48.200 181.462 49.568 182.831 L 50.936 184.200 55.568 184.336 C 60.279 184.475,60.403 184.513,62.105 186.328 C 62.377 186.619,62.915 187.154,63.300 187.517 C 63.963 188.143,64.000 193.740,64.000 294.089 L 64.000 400.000 65.200 400.000 L 66.400 400.000 66.398 294.100 C 66.396 222.676,66.261 187.717,65.984 186.717 C 65.020 183.246,62.457 182.010,56.200 181.995 C 52.516 181.987,52.129 181.911,51.300 181.037 L 50.400 180.087 50.400 156.200 L 50.400 132.313 51.300 131.363 C 52.129 130.489,52.516 130.413,56.200 130.405 C 62.457 130.390,65.020 129.154,65.984 125.683 C 66.257 124.699,66.399 105.366,66.405 68.200 L 66.414 12.200 67.363 11.300 C 68.304 10.408,68.420 10.400,80.256 10.398 C 93.200 10.395,94.508 10.231,96.369 8.369 C 98.738 6.001,99.333 0.000,97.200 0.000 C 96.018 0.000,96.000 0.032,96.000 2.111 M318.002 10.100 C 318.006 25.303,318.681 26.383,328.200 26.405 C 334.150 26.418,333.999 26.163,334.002 36.256 C 334.006 49.952,334.445 50.389,348.200 50.405 C 356.095 50.414,356.212 50.426,357.100 51.363 L 358.000 52.313 357.993 204.256 L 357.986 356.200 357.037 357.100 C 356.118 357.971,355.832 358.000,348.144 358.002 C 335.373 358.006,334.016 358.984,333.995 368.200 C 333.981 374.362,334.848 373.999,320.144 374.002 C 306.192 374.005,303.290 374.598,303.213 377.467 C 303.206 377.723,302.975 378.008,302.700 378.100 C 302.320 378.226,302.170 380.884,302.076 389.133 L 301.952 400.000 303.176 400.000 L 304.400 400.000 304.400 390.089 C 304.400 381.168,304.470 380.112,305.100 379.517 C 305.485 379.154,306.023 378.619,306.295 378.328 C 308.161 376.338,307.416 376.441,320.849 376.316 L 333.463 376.200 334.831 374.832 L 336.200 373.464 336.335 368.832 C 336.442 365.184,336.612 364.055,337.135 363.519 C 337.501 363.145,338.023 362.605,338.295 362.319 C 340.142 360.383,339.776 360.452,348.844 360.323 L 357.463 360.200 358.832 358.831 L 360.200 357.462 360.200 204.200 L 360.200 50.938 358.832 49.569 L 357.463 48.200 348.844 48.077 C 339.776 47.948,340.142 48.017,338.295 46.081 C 338.023 45.795,337.495 45.251,337.123 44.872 C 336.537 44.276,336.429 43.017,336.323 35.560 L 336.200 26.937 334.832 25.568 L 333.464 24.200 328.832 24.064 C 324.121 23.925,323.997 23.887,322.295 22.072 C 322.023 21.781,321.485 21.246,321.100 20.883 C 320.469 20.288,320.400 19.222,320.400 10.111 L 320.400 0.000 319.200 0.000 L 318.000 0.000 318.002 10.100 M131.500 22.674 C 131.115 22.776,130.800 23.008,130.800 23.190 C 130.800 23.373,130.259 23.710,129.598 23.941 C 128.867 24.196,128.230 24.796,127.973 25.472 C 127.740 26.083,127.336 26.716,127.075 26.877 C 126.741 27.082,126.541 29.843,126.400 36.166 C 126.253 42.786,126.063 45.299,125.681 45.681 C 125.285 46.076,122.063 46.248,112.166 46.400 C 102.753 46.545,99.089 46.731,98.877 47.075 C 98.716 47.336,98.089 47.738,97.485 47.968 C 96.880 48.198,96.198 48.880,95.968 49.485 C 95.738 50.089,95.336 50.716,95.075 50.877 C 94.716 51.099,94.551 60.224,94.400 88.165 C 94.240 117.721,94.096 125.265,93.682 125.680 C 93.336 126.027,91.497 126.267,88.167 126.400 C 84.938 126.529,83.066 126.768,82.877 127.075 C 82.716 127.336,82.089 127.738,81.485 127.968 C 80.880 128.198,80.198 128.880,79.968 129.485 C 79.738 130.089,79.336 130.716,79.075 130.877 C 78.389 131.301,78.389 181.099,79.075 181.523 C 79.336 181.684,79.738 182.311,79.968 182.915 C 80.198 183.520,80.880 184.202,81.485 184.432 C 82.089 184.662,82.716 185.064,82.877 185.325 C 83.067 185.633,84.950 185.871,88.218 186.000 C 92.618 186.174,93.339 186.300,93.833 186.976 C 94.319 187.642,94.400 202.949,94.400 293.876 L 94.400 400.000 95.600 400.000 L 96.800 400.000 96.800 293.632 C 96.800 194.991,96.751 187.180,96.132 186.101 C 94.954 184.049,93.631 183.600,88.757 183.600 L 84.379 183.600 82.589 181.811 L 80.800 180.021 80.800 156.200 L 80.800 132.379 82.589 130.589 L 84.379 128.800 88.757 128.800 C 93.631 128.800,94.954 128.351,96.132 126.299 C 96.743 125.235,96.800 122.012,96.800 88.757 L 96.800 52.379 98.589 50.589 L 100.379 48.800 112.757 48.800 C 129.731 48.800,128.800 49.499,128.800 36.757 L 128.800 28.379 130.589 26.589 L 132.379 24.800 216.222 24.800 L 300.066 24.800 301.826 26.500 L 303.587 28.200 303.593 36.668 C 303.602 48.333,303.912 48.800,311.643 48.800 L 316.021 48.800 317.811 50.589 L 319.600 52.379 319.600 56.757 C 319.600 63.784,320.616 64.800,327.643 64.800 L 332.021 64.800 333.811 66.589 L 335.600 68.379 335.600 200.200 L 335.600 332.021 333.811 333.811 L 332.021 335.600 327.643 335.600 C 319.921 335.600,319.600 336.080,319.600 347.643 L 319.600 356.021 317.827 357.794 L 316.053 359.568 303.221 359.684 L 290.388 359.800 288.994 361.322 L 287.600 362.845 287.600 381.422 L 287.600 400.000 288.800 400.000 L 290.000 400.000 290.000 381.816 C 290.000 363.733,290.005 363.627,290.859 362.831 C 291.674 362.072,292.357 362.026,304.474 361.916 C 313.781 361.831,317.309 361.672,317.523 361.325 C 317.684 361.064,318.311 360.662,318.915 360.432 C 319.520 360.202,320.202 359.520,320.432 358.915 C 320.662 358.311,321.064 357.684,321.325 357.523 C 321.659 357.318,321.859 354.557,322.000 348.234 C 322.241 337.406,321.720 338.261,328.233 338.000 C 331.462 337.871,333.334 337.632,333.523 337.325 C 333.684 337.064,334.311 336.662,334.915 336.432 C 335.520 336.202,336.202 335.520,336.432 334.915 C 336.662 334.311,337.064 333.684,337.325 333.523 C 338.016 333.096,338.016 67.304,337.325 66.877 C 337.064 66.716,336.662 66.089,336.432 65.485 C 336.202 64.880,335.520 64.198,334.915 63.968 C 334.311 63.738,333.684 63.336,333.523 63.075 C 333.334 62.768,331.462 62.529,328.233 62.400 C 321.975 62.149,322.251 62.425,322.000 56.167 C 321.871 52.938,321.632 51.066,321.325 50.877 C 321.064 50.716,320.662 50.089,320.432 49.485 C 320.202 48.880,319.520 48.198,318.915 47.968 C 318.311 47.738,317.684 47.336,317.523 47.075 C 317.334 46.768,315.462 46.529,312.233 46.400 C 305.720 46.139,306.241 46.994,306.000 36.166 C 305.859 29.843,305.659 27.082,305.325 26.877 C 305.064 26.716,304.662 26.089,304.432 25.485 C 304.202 24.880,303.520 24.198,302.915 23.968 C 302.311 23.738,301.684 23.336,301.523 23.075 C 301.234 22.608,133.255 22.212,131.500 22.674 "
                    stroke="none"
                    fill="#3c8480"
                    fill-rule="evenodd"></path><path id="path5"
                    d="M93.600 2.000 C 93.600 5.692,93.957 5.600,79.650 5.600 C 64.396 5.600,63.542 5.797,62.188 9.634 C 61.681 11.070,61.600 19.088,61.600 67.650 C 61.600 133.583,62.420 125.600,55.650 125.600 C 45.116 125.600,45.600 124.125,45.600 156.200 C 45.600 188.275,45.116 186.800,55.650 186.800 C 59.467 186.800,60.098 186.898,60.800 187.600 C 61.596 188.396,61.600 188.933,61.600 294.200 L 61.600 400.000 62.800 400.000 L 64.000 400.000 64.000 294.089 C 64.000 193.740,63.963 188.143,63.300 187.517 C 62.915 187.154,62.377 186.619,62.105 186.328 C 60.403 184.513,60.279 184.475,55.568 184.336 L 50.936 184.200 49.568 182.831 L 48.200 181.462 48.200 156.200 L 48.200 130.938 49.568 129.569 L 50.936 128.200 55.568 128.065 C 59.216 127.958,60.345 127.788,60.881 127.265 C 61.255 126.899,61.795 126.384,62.081 126.119 C 63.898 124.436,63.787 127.807,64.000 67.579 L 64.200 10.938 65.569 9.569 L 66.937 8.200 79.551 8.084 C 92.984 7.959,92.239 8.062,94.105 6.072 C 94.377 5.781,94.915 5.246,95.300 4.883 C 96.647 3.611,96.277 0.000,94.800 0.000 C 93.627 0.000,93.600 0.044,93.600 2.000 M320.400 10.111 C 320.400 19.222,320.469 20.288,321.100 20.883 C 321.485 21.246,322.023 21.781,322.295 22.072 C 323.997 23.887,324.121 23.925,328.832 24.064 L 333.464 24.200 334.832 25.568 L 336.200 26.937 336.323 35.560 C 336.429 43.017,336.537 44.276,337.123 44.872 C 337.495 45.251,338.023 45.795,338.295 46.081 C 340.142 48.017,339.776 47.948,348.844 48.077 L 357.463 48.200 358.832 49.569 L 360.200 50.938 360.200 204.200 L 360.200 357.462 358.832 358.831 L 357.463 360.200 348.844 360.323 C 339.776 360.452,340.142 360.383,338.295 362.319 C 338.023 362.605,337.501 363.145,337.135 363.519 C 336.612 364.055,336.442 365.184,336.335 368.832 L 336.200 373.464 334.831 374.832 L 333.463 376.200 320.849 376.316 C 307.416 376.441,308.161 376.338,306.295 378.328 C 306.023 378.619,305.485 379.154,305.100 379.517 C 304.470 380.112,304.400 381.168,304.400 390.089 L 304.400 400.000 305.600 400.000 L 306.800 400.000 306.800 390.200 C 306.800 377.393,305.079 378.800,320.750 378.800 C 338.368 378.800,338.800 378.559,338.800 368.750 C 338.800 362.489,338.280 362.800,348.750 362.800 C 359.550 362.800,360.935 362.385,362.212 358.766 C 363.103 356.241,363.103 52.159,362.212 49.634 C 360.935 46.015,359.550 45.600,348.750 45.600 C 337.836 45.600,338.800 46.564,338.800 35.650 C 338.800 22.601,338.084 21.600,328.750 21.600 C 322.405 21.600,322.800 22.370,322.800 10.000 L 322.800 0.000 321.600 0.000 L 320.400 0.000 320.400 10.111 "
                    stroke="none"
                    fill="#bcdc98"
                    fill-rule="evenodd"></path><path id="path6"
                    d="M93.600 2.000 C 93.600 5.692,93.957 5.600,79.650 5.600 C 64.396 5.600,63.542 5.797,62.188 9.634 C 61.681 11.070,61.600 19.088,61.600 67.650 C 61.600 133.583,62.420 125.600,55.650 125.600 C 45.116 125.600,45.600 124.125,45.600 156.200 C 45.600 188.275,45.116 186.800,55.650 186.800 C 59.467 186.800,60.098 186.898,60.800 187.600 C 61.596 188.396,61.600 188.933,61.600 294.200 L 61.600 400.000 62.800 400.000 L 64.000 400.000 64.000 294.089 C 64.000 193.740,63.963 188.143,63.300 187.517 C 62.915 187.154,62.377 186.619,62.105 186.328 C 60.403 184.513,60.279 184.475,55.568 184.336 L 50.936 184.200 49.568 182.831 L 48.200 181.462 48.200 156.200 L 48.200 130.938 49.568 129.569 L 50.936 128.200 55.568 128.065 C 59.216 127.958,60.345 127.788,60.881 127.265 C 61.255 126.899,61.795 126.384,62.081 126.119 C 63.898 124.436,63.787 127.807,64.000 67.579 L 64.200 10.938 65.569 9.569 L 66.937 8.200 79.551 8.084 C 92.984 7.959,92.239 8.062,94.105 6.072 C 94.377 5.781,94.915 5.246,95.300 4.883 C 96.647 3.611,96.277 0.000,94.800 0.000 C 93.627 0.000,93.600 0.044,93.600 2.000 M320.400 10.111 C 320.400 19.222,320.469 20.288,321.100 20.883 C 321.485 21.246,322.023 21.781,322.295 22.072 C 323.997 23.887,324.121 23.925,328.832 24.064 L 333.464 24.200 334.832 25.568 L 336.200 26.937 336.323 35.560 C 336.429 43.017,336.537 44.276,337.123 44.872 C 337.495 45.251,338.023 45.795,338.295 46.081 C 340.142 48.017,339.776 47.948,348.844 48.077 L 357.463 48.200 358.832 49.569 L 360.200 50.938 360.200 204.200 L 360.200 357.462 358.832 358.831 L 357.463 360.200 348.844 360.323 C 339.776 360.452,340.142 360.383,338.295 362.319 C 338.023 362.605,337.501 363.145,337.135 363.519 C 336.612 364.055,336.442 365.184,336.335 368.832 L 336.200 373.464 334.831 374.832 L 333.463 376.200 320.849 376.316 C 307.416 376.441,308.161 376.338,306.295 378.328 C 306.023 378.619,305.485 379.154,305.100 379.517 C 304.470 380.112,304.400 381.168,304.400 390.089 L 304.400 400.000 305.600 400.000 L 306.800 400.000 306.800 390.200 C 306.800 377.393,305.079 378.800,320.750 378.800 C 338.368 378.800,338.800 378.559,338.800 368.750 C 338.800 362.489,338.280 362.800,348.750 362.800 C 359.550 362.800,360.935 362.385,362.212 358.766 C 363.103 356.241,363.103 52.159,362.212 49.634 C 360.935 46.015,359.550 45.600,348.750 45.600 C 337.836 45.600,338.800 46.564,338.800 35.650 C 338.800 22.601,338.084 21.600,328.750 21.600 C 322.405 21.600,322.800 22.370,322.800 10.000 L 322.800 0.000 321.600 0.000 L 320.400 0.000 320.400 10.111 "
                    stroke="none"
                    fill="#bcdc98"
                    fill-rule="evenodd"></path><path id="path7"
                    d="M93.600 2.000 C 93.600 5.692,93.957 5.600,79.650 5.600 C 64.396 5.600,63.542 5.797,62.188 9.634 C 61.681 11.070,61.600 19.088,61.600 67.650 C 61.600 133.583,62.420 125.600,55.650 125.600 C 45.116 125.600,45.600 124.125,45.600 156.200 C 45.600 188.275,45.116 186.800,55.650 186.800 C 59.467 186.800,60.098 186.898,60.800 187.600 C 61.596 188.396,61.600 188.933,61.600 294.200 L 61.600 400.000 62.800 400.000 L 64.000 400.000 64.000 294.089 C 64.000 193.740,63.963 188.143,63.300 187.517 C 62.915 187.154,62.377 186.619,62.105 186.328 C 60.403 184.513,60.279 184.475,55.568 184.336 L 50.936 184.200 49.568 182.831 L 48.200 181.462 48.200 156.200 L 48.200 130.938 49.568 129.569 L 50.936 128.200 55.568 128.065 C 59.216 127.958,60.345 127.788,60.881 127.265 C 61.255 126.899,61.795 126.384,62.081 126.119 C 63.898 124.436,63.787 127.807,64.000 67.579 L 64.200 10.938 65.569 9.569 L 66.937 8.200 79.551 8.084 C 92.984 7.959,92.239 8.062,94.105 6.072 C 94.377 5.781,94.915 5.246,95.300 4.883 C 96.647 3.611,96.277 0.000,94.800 0.000 C 93.627 0.000,93.600 0.044,93.600 2.000 M320.400 10.111 C 320.400 19.222,320.469 20.288,321.100 20.883 C 321.485 21.246,322.023 21.781,322.295 22.072 C 323.997 23.887,324.121 23.925,328.832 24.064 L 333.464 24.200 334.832 25.568 L 336.200 26.937 336.323 35.560 C 336.429 43.017,336.537 44.276,337.123 44.872 C 337.495 45.251,338.023 45.795,338.295 46.081 C 340.142 48.017,339.776 47.948,348.844 48.077 L 357.463 48.200 358.832 49.569 L 360.200 50.938 360.200 204.200 L 360.200 357.462 358.832 358.831 L 357.463 360.200 348.844 360.323 C 339.776 360.452,340.142 360.383,338.295 362.319 C 338.023 362.605,337.501 363.145,337.135 363.519 C 336.612 364.055,336.442 365.184,336.335 368.832 L 336.200 373.464 334.831 374.832 L 333.463 376.200 320.849 376.316 C 307.416 376.441,308.161 376.338,306.295 378.328 C 306.023 378.619,305.485 379.154,305.100 379.517 C 304.470 380.112,304.400 381.168,304.400 390.089 L 304.400 400.000 305.600 400.000 L 306.800 400.000 306.800 390.200 C 306.800 377.393,305.079 378.800,320.750 378.800 C 338.368 378.800,338.800 378.559,338.800 368.750 C 338.800 362.489,338.280 362.800,348.750 362.800 C 359.550 362.800,360.935 362.385,362.212 358.766 C 363.103 356.241,363.103 52.159,362.212 49.634 C 360.935 46.015,359.550 45.600,348.750 45.600 C 337.836 45.600,338.800 46.564,338.800 35.650 C 338.800 22.601,338.084 21.600,328.750 21.600 C 322.405 21.600,322.800 22.370,322.800 10.000 L 322.800 0.000 321.600 0.000 L 320.400 0.000 320.400 10.111 "
                    stroke="none"
                    fill="#bcdc98"
                    fill-rule="evenodd"></path><path id="path8"
                    d="M93.600 2.000 C 93.600 5.692,93.957 5.600,79.650 5.600 C 64.396 5.600,63.542 5.797,62.188 9.634 C 61.681 11.070,61.600 19.088,61.600 67.650 C 61.600 133.583,62.420 125.600,55.650 125.600 C 45.116 125.600,45.600 124.125,45.600 156.200 C 45.600 188.275,45.116 186.800,55.650 186.800 C 59.467 186.800,60.098 186.898,60.800 187.600 C 61.596 188.396,61.600 188.933,61.600 294.200 L 61.600 400.000 62.800 400.000 L 64.000 400.000 64.000 294.089 C 64.000 193.740,63.963 188.143,63.300 187.517 C 62.915 187.154,62.377 186.619,62.105 186.328 C 60.403 184.513,60.279 184.475,55.568 184.336 L 50.936 184.200 49.568 182.831 L 48.200 181.462 48.200 156.200 L 48.200 130.938 49.568 129.569 L 50.936 128.200 55.568 128.065 C 59.216 127.958,60.345 127.788,60.881 127.265 C 61.255 126.899,61.795 126.384,62.081 126.119 C 63.898 124.436,63.787 127.807,64.000 67.579 L 64.200 10.938 65.569 9.569 L 66.937 8.200 79.551 8.084 C 92.984 7.959,92.239 8.062,94.105 6.072 C 94.377 5.781,94.915 5.246,95.300 4.883 C 96.647 3.611,96.277 0.000,94.800 0.000 C 93.627 0.000,93.600 0.044,93.600 2.000 M320.400 10.111 C 320.400 19.222,320.469 20.288,321.100 20.883 C 321.485 21.246,322.023 21.781,322.295 22.072 C 323.997 23.887,324.121 23.925,328.832 24.064 L 333.464 24.200 334.832 25.568 L 336.200 26.937 336.323 35.560 C 336.429 43.017,336.537 44.276,337.123 44.872 C 337.495 45.251,338.023 45.795,338.295 46.081 C 340.142 48.017,339.776 47.948,348.844 48.077 L 357.463 48.200 358.832 49.569 L 360.200 50.938 360.200 204.200 L 360.200 357.462 358.832 358.831 L 357.463 360.200 348.844 360.323 C 339.776 360.452,340.142 360.383,338.295 362.319 C 338.023 362.605,337.501 363.145,337.135 363.519 C 336.612 364.055,336.442 365.184,336.335 368.832 L 336.200 373.464 334.831 374.832 L 333.463 376.200 320.849 376.316 C 307.416 376.441,308.161 376.338,306.295 378.328 C 306.023 378.619,305.485 379.154,305.100 379.517 C 304.470 380.112,304.400 381.168,304.400 390.089 L 304.400 400.000 305.600 400.000 L 306.800 400.000 306.800 390.200 C 306.800 377.393,305.079 378.800,320.750 378.800 C 338.368 378.800,338.800 378.559,338.800 368.750 C 338.800 362.489,338.280 362.800,348.750 362.800 C 359.550 362.800,360.935 362.385,362.212 358.766 C 363.103 356.241,363.103 52.159,362.212 49.634 C 360.935 46.015,359.550 45.600,348.750 45.600 C 337.836 45.600,338.800 46.564,338.800 35.650 C 338.800 22.601,338.084 21.600,328.750 21.600 C 322.405 21.600,322.800 22.370,322.800 10.000 L 322.800 0.000 321.600 0.000 L 320.400 0.000 320.400 10.111 "
                    stroke="none"
                    fill="#bcdc98"
                    fill-rule="evenodd"></path><path id="path0"
                    d="M183.064 44.681 C 180.863 45.254,180.609 46.114,180.467 53.467 L 180.335 60.335 173.467 60.467 C 164.167 60.647,164.647 60.165,164.467 69.493 L 164.334 76.388 113.467 76.494 L 62.600 76.600 61.600 77.600 L 60.600 78.600 60.600 88.200 L 60.600 97.800 61.600 98.800 L 62.600 99.800 93.467 99.910 L 124.334 100.019 124.467 106.910 C 124.597 113.644,124.623 113.825,125.599 114.801 L 126.599 115.800 137.489 115.923 L 148.378 116.047 148.489 142.924 L 148.600 169.800 149.599 170.800 C 150.575 171.777,150.756 171.803,157.467 171.933 L 164.335 172.065 164.467 178.933 C 164.647 188.230,164.170 187.753,173.467 187.933 L 180.335 188.065 180.467 194.933 C 180.597 201.644,180.623 201.825,181.600 202.801 L 182.600 203.800 208.200 203.800 L 233.800 203.800 234.800 202.801 C 235.777 201.824,235.803 201.646,235.933 194.901 L 236.066 188.000 252.233 188.000 L 268.400 188.000 268.400 194.400 C 268.400 198.400,268.550 200.800,268.800 200.800 C 269.020 200.800,269.206 201.115,269.213 201.500 C 269.257 203.950,266.984 203.800,304.117 203.800 L 337.800 203.800 338.800 202.800 L 339.800 201.800 339.800 183.971 C 339.800 166.896,339.767 166.110,339.029 165.371 C 338.308 164.650,337.599 164.600,328.200 164.600 C 315.469 164.600,316.642 163.732,316.475 173.270 L 316.350 180.400 304.175 180.400 L 292.000 180.400 292.000 173.860 C 292.000 163.906,292.504 164.400,282.350 164.400 L 276.000 164.400 276.000 131.000 L 276.000 97.600 304.200 97.600 C 328.373 97.600,332.400 97.518,332.400 97.029 C 332.400 96.714,332.710 96.148,333.088 95.769 C 333.647 95.210,333.831 93.953,334.070 89.041 C 334.385 82.566,334.684 80.346,335.295 79.952 C 335.506 79.815,335.778 77.070,335.898 73.852 L 336.118 68.000 337.170 68.000 C 339.625 68.000,339.800 67.226,339.800 56.400 L 339.800 46.600 338.800 45.600 L 337.800 44.600 260.800 44.544 C 218.450 44.514,183.469 44.575,183.064 44.681 M336.613 47.786 L 338.200 49.372 338.340 54.722 C 338.680 67.695,341.173 66.800,304.695 66.800 C 278.110 66.800,276.254 66.845,275.757 67.500 C 275.326 68.068,275.223 74.107,275.213 99.500 C 275.204 120.092,275.063 130.800,274.800 130.800 C 274.540 130.800,274.400 136.593,274.400 147.379 L 274.400 163.959 275.307 164.938 C 276.171 165.870,276.480 165.924,281.740 166.059 C 286.437 166.179,287.342 166.305,287.777 166.900 C 288.058 167.285,288.450 167.600,288.648 167.600 C 289.724 167.600,290.189 169.566,290.332 174.722 C 290.467 179.588,290.557 180.129,291.386 181.022 L 292.292 182.000 304.246 181.993 C 319.072 181.985,317.854 182.624,318.059 174.746 L 318.200 169.319 319.760 167.759 L 321.320 166.200 328.173 166.200 L 335.027 166.200 336.613 167.787 L 338.200 169.373 338.200 184.200 L 338.200 199.027 336.613 200.613 L 335.027 202.200 305.413 202.318 C 272.329 202.449,273.878 202.533,271.753 200.492 L 270.200 199.000 270.062 193.535 C 269.863 185.620,271.804 186.399,252.284 186.407 L 236.200 186.414 235.341 187.320 C 234.568 188.137,234.469 188.760,234.341 193.627 L 234.200 199.028 232.613 200.614 L 231.027 202.200 208.200 202.200 L 185.373 202.200 183.787 200.614 L 182.200 199.028 182.058 193.618 C 181.868 186.347,182.053 186.532,174.782 186.342 L 169.372 186.200 167.786 184.614 L 166.200 183.028 166.058 177.618 C 165.868 170.347,166.053 170.532,158.782 170.342 L 153.372 170.200 151.786 168.614 L 150.200 167.027 150.088 141.647 L 149.977 116.268 149.070 115.361 C 148.188 114.479,147.915 114.451,138.768 114.327 L 129.372 114.200 127.786 112.614 L 126.200 111.028 126.058 105.618 C 125.929 100.653,125.843 100.134,125.023 99.314 L 124.129 98.420 94.751 98.310 L 65.373 98.200 63.787 96.613 L 62.200 95.027 62.200 88.200 L 62.200 81.373 63.787 79.787 L 65.373 78.200 114.747 78.094 L 164.121 77.988 165.019 77.090 C 165.844 76.265,165.928 75.754,166.058 70.782 L 166.200 65.372 167.786 63.786 L 169.372 62.200 174.782 62.058 C 182.053 61.868,181.868 62.053,182.058 54.782 L 182.200 49.372 183.647 47.926 C 184.443 47.130,185.433 46.391,185.847 46.284 C 186.261 46.176,219.996 46.114,260.813 46.144 L 335.027 46.200 336.613 47.786 M187.500 67.633 C 186.923 68.265,186.800 69.165,186.800 72.740 C 186.800 81.124,185.083 82.768,176.300 82.790 C 170.261 82.805,170.973 77.609,170.633 124.164 L 170.342 164.051 171.275 164.984 C 172.144 165.853,172.581 165.927,177.644 166.058 L 183.081 166.200 184.641 167.759 L 186.200 169.319 186.341 174.746 C 186.469 179.640,186.567 180.262,187.341 181.080 L 188.200 181.986 208.200 181.986 L 228.200 181.986 229.059 181.080 C 229.833 180.262,229.931 179.640,230.059 174.746 L 230.200 169.319 231.759 167.759 L 233.318 166.200 242.731 166.073 C 251.767 165.951,252.181 165.911,253.069 165.073 L 253.994 164.200 253.731 116.234 C 253.479 70.441,253.434 68.234,252.734 67.534 C 251.564 66.364,188.571 66.461,187.500 67.633 M252.400 130.982 L 252.400 164.364 241.271 164.482 C 227.298 164.630,228.643 163.706,228.475 173.270 L 228.350 180.400 208.200 180.400 L 188.050 180.400 187.925 173.270 C 187.761 163.942,188.458 164.639,179.130 164.475 L 172.000 164.350 172.000 130.975 L 172.000 97.600 212.200 97.600 L 252.400 97.600 252.400 130.982 "
                    stroke="none"
                    fill="#f4f4f4"
                    fill-rule="evenodd"></path><path id="path2"
                    d="M187.264 51.400 C 186.104 52.624,186.051 60.884,187.200 61.609 C 187.564 61.839,200.450 61.991,220.000 61.996 C 257.470 62.006,256.648 61.906,257.958 66.623 C 258.574 68.842,258.574 163.558,257.958 165.777 C 256.874 169.679,254.753 170.393,244.200 170.405 C 233.967 170.416,234.262 170.224,234.464 176.761 C 234.539 179.167,234.750 181.285,234.933 181.468 C 235.116 181.650,243.036 181.890,252.533 182.001 C 262.030 182.111,270.118 182.356,270.506 182.546 C 273.413 183.964,274.394 186.369,274.398 192.079 C 274.400 195.602,274.487 196.053,275.346 196.979 L 276.292 198.000 304.246 197.993 L 332.200 197.986 333.100 197.037 C 333.992 196.095,334.000 195.986,333.993 184.144 L 333.986 172.200 333.037 171.300 C 332.183 170.491,331.691 170.401,328.144 170.407 C 322.735 170.416,322.401 170.756,322.398 176.256 C 322.394 182.448,321.147 185.022,317.683 185.984 C 315.842 186.495,292.695 186.543,290.938 186.040 C 289.520 185.633,287.200 183.726,287.200 182.967 C 287.200 182.692,286.975 182.392,286.700 182.300 C 286.346 182.182,286.159 180.667,286.060 177.099 C 285.874 170.422,285.855 170.400,280.282 170.400 C 274.864 170.400,271.200 169.015,271.200 166.967 C 271.200 166.692,270.975 166.392,270.700 166.300 C 270.304 166.168,270.200 155.791,270.200 116.200 C 270.200 76.609,270.304 66.232,270.700 66.100 C 270.975 66.008,271.200 65.708,271.200 65.433 C 271.200 64.674,273.520 62.767,274.938 62.360 C 275.630 62.162,288.760 62.000,304.141 62.000 L 332.087 62.000 333.037 61.100 C 333.913 60.270,333.986 59.890,333.986 56.200 C 333.986 52.510,333.913 52.130,333.037 51.300 L 332.087 50.400 260.144 50.407 L 188.200 50.414 187.264 51.400 M171.264 67.379 C 170.104 68.629,170.052 76.885,171.200 77.609 C 172.605 78.495,180.130 78.060,181.100 77.037 C 182.076 76.007,182.462 68.551,181.609 67.200 C 180.852 66.000,172.409 66.146,171.264 67.379 M67.300 83.360 C 66.494 84.214,66.400 84.718,66.400 88.200 C 66.400 91.683,66.494 92.186,67.300 93.037 L 68.200 93.986 96.200 93.995 C 131.880 94.007,130.392 93.565,130.398 104.144 C 130.401 110.141,130.138 109.984,140.200 109.995 C 155.357 110.013,154.392 107.961,154.405 140.200 L 154.414 164.200 155.400 165.136 C 156.420 166.103,164.566 166.371,165.468 165.467 C 165.946 164.987,166.088 83.947,165.612 83.200 C 165.276 82.673,159.331 82.588,116.715 82.504 L 68.200 82.407 67.300 83.360 M171.541 170.668 C 169.954 171.089,169.839 179.655,171.400 181.136 C 172.420 182.102,180.564 182.371,181.468 181.468 C 182.371 180.564,182.102 172.420,181.136 171.400 C 180.228 170.443,174.138 169.978,171.541 170.668 M187.541 186.663 C 186.022 187.078,185.826 195.482,187.300 197.037 L 188.200 197.986 208.200 197.986 L 228.200 197.986 229.136 197.000 C 230.103 195.980,230.371 187.834,229.467 186.932 C 229.127 186.594,188.743 186.334,187.541 186.663 "
                    stroke="none"
                    fill="#040404"
                    fill-rule="evenodd"></path><path id="path3"
                    d="M187.933 47.100 C 187.860 47.265,187.143 47.733,186.341 48.141 C 185.479 48.579,184.579 49.479,184.141 50.341 C 183.733 51.143,183.265 51.860,183.100 51.933 C 182.935 52.007,182.800 54.184,182.800 56.771 C 182.800 62.909,182.911 62.800,176.702 62.800 C 174.152 62.800,172.007 62.935,171.933 63.100 C 171.860 63.265,171.143 63.733,170.341 64.141 C 169.479 64.579,168.579 65.479,168.141 66.341 C 167.733 67.143,167.265 67.860,167.100 67.933 C 166.935 68.007,166.800 70.184,166.800 72.771 C 166.800 79.612,173.548 78.800,116.702 78.800 C 89.952 78.800,68.007 78.935,67.933 79.100 C 67.860 79.265,67.143 79.733,66.341 80.141 C 65.479 80.579,64.579 81.479,64.141 82.341 C 63.733 83.143,63.265 83.860,63.100 83.933 C 62.935 84.007,62.800 85.927,62.800 88.200 C 62.800 90.473,62.935 92.393,63.100 92.467 C 63.265 92.540,63.733 93.257,64.141 94.059 C 64.579 94.921,65.479 95.821,66.341 96.259 C 67.143 96.667,67.860 97.135,67.933 97.300 C 68.007 97.465,80.840 97.600,96.452 97.600 L 124.836 97.600 125.818 98.582 C 126.741 99.505,126.800 99.826,126.800 103.948 C 126.800 106.360,126.935 108.393,127.100 108.467 C 127.265 108.540,127.733 109.257,128.141 110.059 C 128.579 110.921,129.479 111.821,130.341 112.259 C 131.143 112.667,131.860 113.135,131.933 113.300 C 132.007 113.465,135.840 113.600,140.452 113.600 C 148.821 113.600,148.838 113.602,149.818 114.582 L 150.800 115.564 150.800 139.948 C 150.800 153.360,150.935 164.393,151.100 164.467 C 151.265 164.540,151.733 165.257,152.141 166.059 C 152.579 166.921,153.479 167.821,154.341 168.259 C 155.143 168.667,155.860 169.135,155.933 169.300 C 156.007 169.465,158.184 169.600,160.771 169.600 C 166.909 169.600,166.800 169.489,166.800 175.698 C 166.800 178.248,166.935 180.393,167.100 180.467 C 167.265 180.540,167.733 181.257,168.141 182.059 C 168.579 182.921,169.479 183.821,170.341 184.259 C 171.143 184.667,171.860 185.135,171.933 185.300 C 172.007 185.465,174.184 185.600,176.771 185.600 C 182.909 185.600,182.800 185.489,182.800 191.698 C 182.800 194.248,182.935 196.393,183.100 196.467 C 183.265 196.540,183.733 197.257,184.141 198.059 C 184.579 198.921,185.479 199.821,186.341 200.259 C 187.143 200.667,187.860 201.135,187.933 201.300 C 188.108 201.692,228.292 201.692,228.467 201.300 C 228.540 201.135,229.257 200.667,230.059 200.259 C 230.921 199.821,231.821 198.921,232.259 198.059 C 232.667 197.257,233.135 196.540,233.300 196.467 C 233.465 196.393,233.600 194.216,233.600 191.629 C 233.600 184.962,231.647 185.600,252.065 185.600 L 269.068 185.600 270.134 186.797 C 271.137 187.922,271.200 188.228,271.200 191.970 C 271.200 197.212,272.417 199.916,275.076 200.583 C 275.584 200.711,276.000 200.992,276.000 201.208 C 276.000 201.673,332.260 201.765,332.467 201.300 C 332.540 201.135,333.257 200.667,334.059 200.259 C 334.921 199.821,335.821 198.921,336.259 198.059 C 336.667 197.257,337.135 196.540,337.300 196.467 C 337.692 196.292,337.692 172.108,337.300 171.933 C 337.135 171.860,336.667 171.143,336.259 170.341 C 335.821 169.479,334.921 168.579,334.059 168.141 C 333.257 167.733,332.540 167.265,332.467 167.100 C 332.393 166.935,330.473 166.800,328.200 166.800 C 325.927 166.800,324.007 166.935,323.933 167.100 C 323.860 167.265,323.143 167.733,322.341 168.141 C 321.479 168.579,320.579 169.479,320.141 170.341 C 319.733 171.143,319.265 171.860,319.100 171.933 C 318.935 172.007,318.800 174.040,318.800 176.452 C 318.800 180.574,318.741 180.895,317.818 181.818 L 316.836 182.800 304.318 182.791 C 288.673 182.780,289.883 183.314,289.600 176.295 C 289.438 172.284,289.266 171.208,288.697 170.640 C 288.311 170.254,287.816 169.603,287.597 169.195 C 287.378 168.786,286.570 168.224,285.800 167.945 C 285.030 167.667,284.400 167.295,284.400 167.120 C 284.400 166.944,282.446 166.800,280.058 166.800 C 276.004 166.800,275.647 166.735,274.658 165.819 L 273.600 164.838 273.600 116.467 L 273.600 68.095 274.876 66.847 L 276.152 65.600 304.476 65.600 C 323.092 65.600,332.800 65.463,332.800 65.200 C 332.800 64.980,333.036 64.800,333.324 64.800 C 334.101 64.800,336.375 62.438,336.649 61.347 C 336.780 60.826,337.047 60.400,337.243 60.400 C 337.673 60.400,337.728 52.124,337.300 51.933 C 337.135 51.860,336.667 51.143,336.259 50.341 C 335.821 49.479,334.921 48.579,334.059 48.141 C 333.257 47.733,332.540 47.265,332.467 47.100 C 332.292 46.708,188.108 46.708,187.933 47.100 M333.037 51.300 C 333.913 52.130,333.986 52.510,333.986 56.200 C 333.986 59.890,333.913 60.270,333.037 61.100 L 332.087 62.000 304.141 62.000 C 288.760 62.000,275.630 62.162,274.938 62.360 C 273.520 62.767,271.200 64.674,271.200 65.433 C 271.200 65.708,270.975 66.008,270.700 66.100 C 270.304 66.232,270.200 76.609,270.200 116.200 C 270.200 155.791,270.304 166.168,270.700 166.300 C 270.975 166.392,271.200 166.692,271.200 166.967 C 271.200 169.015,274.864 170.400,280.282 170.400 C 285.855 170.400,285.874 170.422,286.060 177.099 C 286.159 180.667,286.346 182.182,286.700 182.300 C 286.975 182.392,287.200 182.692,287.200 182.967 C 287.200 183.726,289.520 185.633,290.938 186.040 C 292.695 186.543,315.842 186.495,317.683 185.984 C 321.147 185.022,322.394 182.448,322.398 176.256 C 322.401 170.756,322.735 170.416,328.144 170.407 C 331.691 170.401,332.183 170.491,333.037 171.300 L 333.986 172.200 333.993 184.144 C 334.000 195.986,333.992 196.095,333.100 197.037 L 332.200 197.986 304.246 197.993 L 276.292 198.000 275.346 196.979 C 274.487 196.053,274.400 195.602,274.398 192.079 C 274.394 186.369,273.413 183.964,270.506 182.546 C 270.118 182.356,262.030 182.111,252.533 182.001 C 243.036 181.890,235.116 181.650,234.933 181.468 C 234.750 181.285,234.539 179.167,234.464 176.761 C 234.262 170.224,233.967 170.416,244.200 170.405 C 254.753 170.393,256.874 169.679,257.958 165.777 C 258.574 163.558,258.574 68.842,257.958 66.623 C 256.648 61.906,257.470 62.006,220.000 61.996 C 200.450 61.991,187.564 61.839,187.200 61.609 C 186.051 60.884,186.104 52.624,187.264 51.400 L 188.200 50.414 260.144 50.407 L 332.087 50.400 333.037 51.300 M253.744 66.973 L 255.200 68.346 255.200 116.430 L 255.200 164.513 254.004 165.657 L 252.807 166.800 244.437 166.800 C 239.833 166.800,236.007 166.935,235.933 167.100 C 235.860 167.265,235.143 167.733,234.341 168.141 C 233.479 168.579,232.579 169.479,232.141 170.341 C 231.733 171.143,231.265 171.860,231.100 171.933 C 230.935 172.007,230.800 174.152,230.800 176.702 C 230.800 183.509,233.421 182.800,208.270 182.800 C 183.012 182.800,185.600 183.488,185.600 176.771 C 185.600 174.184,185.465 172.007,185.300 171.933 C 185.135 171.860,184.667 171.143,184.259 170.341 C 183.821 169.479,182.921 168.579,182.059 168.141 C 181.257 167.733,180.540 167.265,180.467 167.100 C 180.393 166.935,178.216 166.800,175.629 166.800 C 171.565 166.800,170.833 166.700,170.256 166.062 C 169.360 165.072,169.421 83.220,170.319 82.320 C 170.671 81.967,172.405 81.756,175.717 81.664 C 178.401 81.590,180.688 81.410,180.798 81.264 C 180.909 81.119,181.660 80.695,182.466 80.323 C 183.502 79.844,184.083 79.229,184.446 78.223 C 184.729 77.440,185.105 76.800,185.280 76.800 C 185.456 76.800,185.600 74.722,185.600 72.182 C 185.600 67.812,185.653 67.511,186.582 66.582 L 187.564 65.600 219.926 65.600 L 252.288 65.600 253.744 66.973 M181.609 67.200 C 182.462 68.551,182.076 76.007,181.100 77.037 C 180.130 78.060,172.605 78.495,171.200 77.609 C 170.052 76.885,170.104 68.629,171.264 67.379 C 172.409 66.146,180.852 66.000,181.609 67.200 M165.612 83.200 C 166.088 83.947,165.946 164.987,165.468 165.467 C 164.566 166.371,156.420 166.103,155.400 165.136 L 154.414 164.200 154.405 140.200 C 154.392 107.961,155.357 110.013,140.200 109.995 C 130.138 109.984,130.401 110.141,130.398 104.144 C 130.392 93.565,131.880 94.007,96.200 93.995 L 68.200 93.986 67.300 93.037 C 66.494 92.186,66.400 91.683,66.400 88.200 C 66.400 84.718,66.494 84.214,67.300 83.360 L 68.200 82.407 116.715 82.504 C 159.331 82.588,165.276 82.673,165.612 83.200 M181.136 171.400 C 182.102 172.420,182.371 180.564,181.468 181.468 C 180.564 182.371,172.420 182.102,171.400 181.136 C 169.839 179.655,169.954 171.089,171.541 170.668 C 174.138 169.978,180.228 170.443,181.136 171.400 M229.467 186.932 C 230.371 187.834,230.103 195.980,229.136 197.000 L 228.200 197.986 208.200 197.986 L 188.200 197.986 187.300 197.037 C 185.826 195.482,186.022 187.078,187.541 186.663 C 188.743 186.334,229.127 186.594,229.467 186.932 "
                    stroke="none"
                    fill="#3c8480"
                    fill-rule="evenodd"></path><path id="path4"
                    d=""
                    stroke="none"
                    fill="#bcfc100"
                    fill-rule="evenodd"></path>
        </g>
    </svg>