<svg id="svg" version="1.1" xmlns="http://www.w3.org/2000/svg" xmlns:xlink="http://www.w3.org/1999/xlink" width="400" height="400" viewBox="0, 0, 400,400"><g id="svgg"><path id="path0" d="M0.000 200.000 L 0.000 400.000 31.200 400.000 L 62.400 400.000 62.400 293.876 C 62.400 202.930,62.319 187.642,61.833 186.976 C 61.338 186.299,60.610 186.173,56.113 185.990 C 50.809 185.774,50.650 185.726,48.662 183.738 C 46.459 181.535,46.600 183.418,46.600 156.200 C 46.600 128.982,46.459 130.865,48.662 128.662 C 50.648 126.676,50.814 126.625,56.061 126.410 C 59.467 126.270,61.335 126.027,61.681 125.680 C 62.100 125.261,62.239 114.100,62.400 68.070 C 62.575 18.114,62.675 10.889,63.200 10.252 C 63.967 9.322,65.319 7.969,66.251 7.200 C 66.854 6.703,69.241 6.566,80.122 6.400 C 95.244 6.170,94.400 6.411,94.400 2.324 L 94.400 0.000 47.200 0.000 L 0.000 0.000 0.000 200.000 M322.000 10.324 C 322.000 23.172,321.459 22.132,328.287 22.410 C 333.591 22.626,333.750 22.674,335.738 24.662 C 337.849 26.773,337.789 26.468,338.000 36.071 C 338.147 42.764,338.337 45.299,338.719 45.681 C 339.101 46.063,341.636 46.253,348.329 46.400 C 355.603 46.560,357.567 46.720,358.149 47.200 C 359.081 47.969,360.434 49.322,361.200 50.252 C 361.731 50.897,361.800 68.595,361.800 204.200 C 361.800 339.805,361.731 357.503,361.200 358.148 C 360.434 359.078,359.081 360.431,358.149 361.200 C 357.567 361.680,355.603 361.840,348.329 362.000 C 337.381 362.241,338.263 361.700,337.990 368.339 C 337.775 373.586,337.724 373.752,335.738 375.738 C 333.587 377.889,334.287 377.787,320.278 378.000 C 307.854 378.189,307.103 378.243,306.567 378.976 C 306.113 379.598,306.000 381.770,306.000 389.876 L 306.000 400.000 353.000 400.000 L 400.000 400.000 400.000 200.000 L 400.000 0.000 361.000 0.000 L 322.000 0.000 322.000 10.324 " stroke="none" fill="#f9f0e9" fill-rule="evenodd"></path><path id="path1" d="M131.526 27.607 C 130.943 28.248,130.835 29.622,130.722 37.874 C 130.532 51.711,132.042 50.559,113.880 50.720 C 101.144 50.833,100.316 50.884,99.588 51.612 C 98.838 52.362,98.813 53.444,98.708 89.892 C 98.591 130.439,98.676 128.935,96.456 130.035 C 95.799 130.360,93.306 130.619,89.861 130.718 C 81.915 130.948,82.800 127.754,82.800 156.200 C 82.800 184.646,81.915 181.452,89.861 181.682 C 93.306 181.781,95.799 182.040,96.456 182.365 C 98.744 183.499,98.591 176.033,98.703 292.500 L 98.806 400.000 192.203 400.000 L 285.600 400.000 285.600 381.226 C 285.600 355.499,284.033 357.600,303.219 357.600 C 319.306 357.600,317.507 358.978,317.678 346.526 C 317.856 333.575,317.604 333.940,326.539 333.682 C 331.318 333.543,332.183 333.417,332.839 332.761 C 334.035 331.565,334.035 68.835,332.839 67.639 C 332.183 66.983,331.318 66.857,326.539 66.718 C 318.127 66.475,317.925 66.273,317.682 57.861 C 317.472 50.611,317.643 50.800,311.297 50.800 C 301.836 50.800,301.600 50.464,301.600 36.992 C 301.600 28.656,301.556 28.140,300.795 27.489 C 299.496 26.376,132.541 26.492,131.526 27.607 " stroke="none" fill="#dc8c44" fill-rule="evenodd"></path><path id="path2" d="M98.398 2.100 C 98.390 9.661,96.786 10.395,80.256 10.398 C 68.420 10.400,68.304 10.408,67.363 11.300 L 66.414 12.200 66.405 68.200 C 66.399 105.366,66.257 124.699,65.984 125.683 C 65.020 129.154,62.457 130.390,56.200 130.405 C 52.516 130.413,52.129 130.489,51.300 131.363 L 50.400 132.313 50.400 156.200 L 50.400 180.087 51.300 181.037 C 52.129 181.911,52.516 181.987,56.200 181.995 C 62.457 182.010,65.020 183.246,65.984 186.717 C 66.261 187.717,66.396 222.676,66.398 294.100 L 66.400 400.000 81.000 400.000 L 95.600 400.000 95.600 293.953 L 95.600 187.906 94.047 186.353 L 92.494 184.800 88.473 184.800 C 83.195 184.800,81.078 183.836,79.973 180.929 C 79.479 179.629,79.479 132.771,79.973 131.471 C 81.078 128.564,83.195 127.600,88.473 127.600 L 92.494 127.600 94.047 126.047 L 95.600 124.494 95.600 88.473 C 95.600 50.985,95.588 51.249,97.418 49.418 C 99.149 47.687,99.873 47.600,112.473 47.600 L 124.494 47.600 126.047 46.047 L 127.600 44.494 127.600 36.473 C 127.600 26.924,128.119 25.247,131.471 23.973 C 133.506 23.199,299.765 23.501,301.567 24.281 C 304.431 25.522,304.800 26.904,304.800 36.391 L 304.800 44.494 306.353 46.047 L 307.906 47.600 311.927 47.600 C 319.243 47.600,320.800 49.157,320.800 56.473 L 320.800 60.494 322.353 62.047 L 323.906 63.600 327.927 63.600 C 333.205 63.600,335.322 64.564,336.427 67.471 C 336.931 68.796,336.931 331.604,336.427 332.929 C 335.322 335.836,333.205 336.800,327.927 336.800 L 323.906 336.800 322.353 338.353 L 320.800 339.906 320.800 347.927 C 320.800 361.087,321.175 360.800,303.961 360.800 L 291.973 360.800 290.587 362.187 L 289.200 363.573 289.200 381.787 L 289.200 400.000 295.576 400.000 L 301.952 400.000 302.076 389.133 C 302.170 380.884,302.320 378.226,302.700 378.100 C 302.975 378.008,303.206 377.723,303.213 377.467 C 303.290 374.598,306.187 374.006,320.200 373.995 L 332.200 373.986 333.100 373.037 C 333.908 372.184,334.000 371.684,334.002 368.144 C 334.007 358.990,335.378 358.010,348.200 357.995 C 356.095 357.986,356.212 357.974,357.100 357.037 L 358.000 356.087 358.000 204.200 L 358.000 52.313 357.100 51.363 C 356.212 50.426,356.095 50.414,348.200 50.405 C 334.445 50.389,334.006 49.952,334.002 36.256 C 333.999 26.163,334.150 26.418,328.200 26.405 C 318.681 26.383,318.006 25.303,318.002 10.100 L 318.000 0.000 208.200 0.000 L 98.400 0.000 98.398 2.100 " stroke="none" fill="#040404" fill-rule="evenodd"></path><path id="path3" d="M96.400 2.005 C 96.400 4.080,95.988 5.106,94.575 6.555 C 92.848 8.325,92.348 8.389,79.400 8.497 L 67.000 8.600 65.800 9.800 L 64.600 11.000 64.504 67.400 C 64.402 127.107,64.481 124.669,62.575 126.575 C 61.110 128.040,59.881 128.367,55.400 128.485 C 51.111 128.597,50.970 128.630,49.800 129.800 L 48.600 131.000 48.600 156.200 L 48.600 181.400 49.800 182.600 C 50.970 183.770,51.111 183.803,55.400 183.915 C 60.708 184.054,62.230 184.703,63.900 187.540 C 64.297 188.214,64.400 210.270,64.400 294.195 L 64.400 400.000 65.400 400.000 L 66.400 400.000 66.398 294.100 C 66.396 222.676,66.261 187.717,65.984 186.717 C 65.020 183.246,62.457 182.010,56.200 181.995 C 52.516 181.987,52.129 181.911,51.300 181.037 L 50.400 180.087 50.400 156.200 L 50.400 132.313 51.300 131.363 C 52.129 130.489,52.516 130.413,56.200 130.405 C 62.457 130.390,65.020 129.154,65.984 125.683 C 66.257 124.699,66.399 105.366,66.405 68.200 L 66.414 12.200 67.363 11.300 C 68.304 10.408,68.420 10.400,80.256 10.398 C 93.200 10.395,94.508 10.231,96.369 8.369 C 98.585 6.153,99.343 0.000,97.400 0.000 C 96.466 0.000,96.400 0.133,96.400 2.005 M318.002 10.100 C 318.006 25.303,318.681 26.383,328.200 26.405 C 334.150 26.418,333.999 26.163,334.002 36.256 C 334.006 49.952,334.445 50.389,348.200 50.405 C 356.095 50.414,356.212 50.426,357.100 51.363 L 358.000 52.313 357.993 204.256 L 357.986 356.200 357.037 357.100 C 356.118 357.971,355.832 358.000,348.144 358.002 C 335.373 358.006,334.016 358.984,333.995 368.200 C 333.981 374.362,334.848 373.999,320.144 374.002 C 306.192 374.005,303.290 374.598,303.213 377.467 C 303.206 377.723,302.975 378.008,302.700 378.100 C 302.320 378.226,302.170 380.884,302.076 389.133 L 301.952 400.000 302.976 400.000 L 304.000 400.000 304.000 390.195 C 304.000 379.973,304.045 379.670,305.825 377.845 C 307.552 376.075,308.052 376.011,321.000 375.903 L 333.400 375.800 334.600 374.600 C 335.770 373.430,335.803 373.289,335.915 369.000 C 336.033 364.519,336.360 363.290,337.825 361.825 C 339.490 360.159,340.317 360.018,349.000 359.907 L 357.400 359.800 358.600 358.600 L 359.800 357.400 359.800 204.200 L 359.800 51.000 358.600 49.800 L 357.400 48.600 349.000 48.493 C 336.169 48.330,336.070 48.231,335.907 35.400 L 335.800 27.000 334.600 25.800 C 333.430 24.630,333.289 24.597,329.000 24.485 C 324.498 24.367,323.271 24.037,321.825 22.555 C 320.042 20.727,320.000 20.439,320.000 10.005 L 320.000 0.000 319.000 0.000 L 318.000 0.000 318.002 10.100 " stroke="none" fill="#348480" fill-rule="evenodd"></path><path id="path4" d="M94.400 2.324 C 94.400 6.411,95.244 6.170,80.122 6.400 C 69.241 6.566,66.854 6.703,66.251 7.200 C 65.319 7.969,63.967 9.322,63.200 10.252 C 62.675 10.889,62.575 18.114,62.400 68.070 C 62.239 114.100,62.100 125.261,61.681 125.680 C 61.335 126.027,59.467 126.270,56.061 126.410 C 50.814 126.625,50.648 126.676,48.662 128.662 C 46.459 130.865,46.600 128.982,46.600 156.200 C 46.600 183.418,46.459 181.535,48.662 183.738 C 50.650 185.726,50.809 185.774,56.113 185.990 C 60.610 186.173,61.338 186.299,61.833 186.976 C 62.319 187.642,62.400 202.930,62.400 293.876 L 62.400 400.000 63.400 400.000 L 64.400 400.000 64.400 294.195 C 64.400 210.270,64.297 188.214,63.900 187.540 C 62.230 184.703,60.708 184.054,55.400 183.915 C 51.111 183.803,50.970 183.770,49.800 182.600 L 48.600 181.400 48.600 156.200 L 48.600 131.000 49.800 129.800 C 50.970 128.630,51.111 128.597,55.400 128.485 C 59.881 128.367,61.110 128.040,62.575 126.575 C 64.481 124.669,64.402 127.107,64.504 67.400 L 64.600 11.000 65.800 9.800 L 67.000 8.600 79.400 8.497 C 92.348 8.389,92.848 8.325,94.575 6.555 C 96.743 4.332,97.288 0.000,95.400 0.000 C 94.448 0.000,94.400 0.112,94.400 2.324 M320.000 10.005 C 320.000 20.439,320.042 20.727,321.825 22.555 C 323.271 24.037,324.498 24.367,329.000 24.485 C 333.289 24.597,333.430 24.630,334.600 25.800 L 335.800 27.000 335.907 35.400 C 336.070 48.231,336.169 48.330,349.000 48.493 L 357.400 48.600 358.600 49.800 L 359.800 51.000 359.800 204.200 L 359.800 357.400 358.600 358.600 L 357.400 359.800 349.000 359.907 C 340.317 360.018,339.490 360.159,337.825 361.825 C 336.360 363.290,336.033 364.519,335.915 369.000 C 335.803 373.289,335.770 373.430,334.600 374.600 L 333.400 375.800 321.000 375.903 C 308.052 376.011,307.552 376.075,305.825 377.845 C 304.045 379.670,304.000 379.973,304.000 390.195 L 304.000 400.000 305.000 400.000 L 306.000 400.000 306.000 389.876 C 306.000 381.770,306.113 379.598,306.567 378.976 C 307.103 378.243,307.854 378.189,320.278 378.000 C 334.287 377.787,333.587 377.889,335.738 375.738 C 337.724 373.752,337.775 373.586,337.990 368.339 C 338.263 361.700,337.381 362.241,348.329 362.000 C 355.603 361.840,357.567 361.680,358.149 361.200 C 359.081 360.431,360.434 359.078,361.200 358.148 C 362.113 357.039,362.113 51.361,361.200 50.252 C 360.434 49.322,359.081 47.969,358.149 47.200 C 357.567 46.720,355.603 46.560,348.329 46.400 C 341.636 46.253,339.101 46.063,338.719 45.681 C 338.337 45.299,338.147 42.764,338.000 36.071 C 337.789 26.468,337.849 26.773,335.738 24.662 C 333.750 22.674,333.591 22.626,328.287 22.410 C 321.459 22.132,322.000 23.172,322.000 10.324 L 322.000 0.000 321.000 0.000 L 320.000 0.000 320.000 10.005 " stroke="none" fill="#b448a4" fill-rule="evenodd"></path><path id="path5" d="" stroke="none" fill="#f04824" fill-rule="evenodd"></path><path id="path6" d="M131.041 24.209 C 127.907 25.844,127.600 26.938,127.600 36.473 L 127.600 44.494 126.047 46.047 L 124.494 47.600 112.473 47.600 C 99.873 47.600,99.149 47.687,97.418 49.418 C 95.588 51.249,95.600 50.985,95.600 88.473 L 95.600 124.494 94.047 126.047 L 92.494 127.600 88.473 127.600 C 83.195 127.600,81.078 128.564,79.973 131.471 C 79.479 132.771,79.479 179.629,79.973 180.929 C 81.078 183.836,83.195 184.800,88.473 184.800 L 92.494 184.800 94.047 186.353 L 95.600 187.906 95.600 293.953 L 95.600 400.000 97.203 400.000 L 98.806 400.000 98.703 292.500 C 98.591 176.033,98.744 183.499,96.456 182.365 C 95.799 182.040,93.306 181.781,89.861 181.682 C 81.915 181.452,82.800 184.646,82.800 156.200 C 82.800 127.754,81.915 130.948,89.861 130.718 C 93.306 130.619,95.799 130.360,96.456 130.035 C 98.676 128.935,98.591 130.439,98.708 89.892 C 98.813 53.444,98.838 52.362,99.588 51.612 C 100.316 50.884,101.144 50.833,113.880 50.720 C 132.042 50.559,130.532 51.711,130.722 37.874 C 130.843 29.088,130.913 28.287,131.626 27.574 C 132.770 26.430,299.462 26.347,300.795 27.489 C 301.556 28.140,301.600 28.656,301.600 36.992 C 301.600 50.464,301.836 50.800,311.297 50.800 C 317.643 50.800,317.472 50.611,317.682 57.861 C 317.925 66.273,318.127 66.475,326.539 66.718 C 331.318 66.857,332.183 66.983,332.839 67.639 C 334.035 68.835,334.035 331.565,332.839 332.761 C 332.183 333.417,331.318 333.543,326.539 333.682 C 317.604 333.940,317.856 333.575,317.678 346.526 C 317.507 358.978,319.306 357.600,303.219 357.600 C 289.671 357.600,289.071 357.673,287.270 359.541 C 285.658 361.214,285.600 361.962,285.600 381.226 L 285.600 400.000 287.400 400.000 L 289.200 400.000 289.200 381.787 L 289.200 363.573 290.587 362.187 L 291.973 360.800 303.961 360.800 C 321.175 360.800,320.800 361.087,320.800 347.927 L 320.800 339.906 322.353 338.353 L 323.906 336.800 327.927 336.800 C 333.205 336.800,335.322 335.836,336.427 332.929 C 336.931 331.604,336.931 68.796,336.427 67.471 C 335.322 64.564,333.205 63.600,327.927 63.600 L 323.906 63.600 322.353 62.047 L 320.800 60.494 320.800 56.473 C 320.800 49.157,319.243 47.600,311.927 47.600 L 307.906 47.600 306.353 46.047 L 304.800 44.494 304.800 36.391 C 304.800 26.904,304.431 25.522,301.567 24.281 C 299.289 23.295,132.930 23.224,131.041 24.209 " stroke="none" fill="#a49024" fill-rule="evenodd"></path><path id="path7" d="M131.041 24.209 C 127.907 25.844,127.600 26.938,127.600 36.473 L 127.600 44.494 126.047 46.047 L 124.494 47.600 112.473 47.600 C 99.873 47.600,99.149 47.687,97.418 49.418 C 95.588 51.249,95.600 50.985,95.600 88.473 L 95.600 124.494 94.047 126.047 L 92.494 127.600 88.473 127.600 C 83.195 127.600,81.078 128.564,79.973 131.471 C 79.479 132.771,79.479 179.629,79.973 180.929 C 81.078 183.836,83.195 184.800,88.473 184.800 L 92.494 184.800 94.047 186.353 L 95.600 187.906 95.600 293.953 L 95.600 400.000 97.203 400.000 L 98.806 400.000 98.703 292.500 C 98.591 176.033,98.744 183.499,96.456 182.365 C 95.799 182.040,93.306 181.781,89.861 181.682 C 81.915 181.452,82.800 184.646,82.800 156.200 C 82.800 127.754,81.915 130.948,89.861 130.718 C 93.306 130.619,95.799 130.360,96.456 130.035 C 98.676 128.935,98.591 130.439,98.708 89.892 C 98.813 53.444,98.838 52.362,99.588 51.612 C 100.316 50.884,101.144 50.833,113.880 50.720 C 132.042 50.559,130.532 51.711,130.722 37.874 C 130.843 29.088,130.913 28.287,131.626 27.574 C 132.770 26.430,299.462 26.347,300.795 27.489 C 301.556 28.140,301.600 28.656,301.600 36.992 C 301.600 50.464,301.836 50.800,311.297 50.800 C 317.643 50.800,317.472 50.611,317.682 57.861 C 317.925 66.273,318.127 66.475,326.539 66.718 C 331.318 66.857,332.183 66.983,332.839 67.639 C 334.035 68.835,334.035 331.565,332.839 332.761 C 332.183 333.417,331.318 333.543,326.539 333.682 C 317.604 333.940,317.856 333.575,317.678 346.526 C 317.507 358.978,319.306 357.600,303.219 357.600 C 289.671 357.600,289.071 357.673,287.270 359.541 C 285.658 361.214,285.600 361.962,285.600 381.226 L 285.600 400.000 287.400 400.000 L 289.200 400.000 289.200 381.787 L 289.200 363.573 290.587 362.187 L 291.973 360.800 303.961 360.800 C 321.175 360.800,320.800 361.087,320.800 347.927 L 320.800 339.906 322.353 338.353 L 323.906 336.800 327.927 336.800 C 333.205 336.800,335.322 335.836,336.427 332.929 C 336.931 331.604,336.931 68.796,336.427 67.471 C 335.322 64.564,333.205 63.600,327.927 63.600 L 323.906 63.600 322.353 62.047 L 320.800 60.494 320.800 56.473 C 320.800 49.157,319.243 47.600,311.927 47.600 L 307.906 47.600 306.353 46.047 L 304.800 44.494 304.800 36.391 C 304.800 26.904,304.431 25.522,301.567 24.281 C 299.289 23.295,132.930 23.224,131.041 24.209 " stroke="none" fill="#a49024" fill-rule="evenodd"></path><path id="path8" d="M131.041 24.209 C 127.907 25.844,127.600 26.938,127.600 36.473 L 127.600 44.494 126.047 46.047 L 124.494 47.600 112.473 47.600 C 99.873 47.600,99.149 47.687,97.418 49.418 C 95.588 51.249,95.600 50.985,95.600 88.473 L 95.600 124.494 94.047 126.047 L 92.494 127.600 88.473 127.600 C 83.195 127.600,81.078 128.564,79.973 131.471 C 79.479 132.771,79.479 179.629,79.973 180.929 C 81.078 183.836,83.195 184.800,88.473 184.800 L 92.494 184.800 94.047 186.353 L 95.600 187.906 95.600 293.953 L 95.600 400.000 97.203 400.000 L 98.806 400.000 98.703 292.500 C 98.591 176.033,98.744 183.499,96.456 182.365 C 95.799 182.040,93.306 181.781,89.861 181.682 C 81.915 181.452,82.800 184.646,82.800 156.200 C 82.800 127.754,81.915 130.948,89.861 130.718 C 93.306 130.619,95.799 130.360,96.456 130.035 C 98.676 128.935,98.591 130.439,98.708 89.892 C 98.813 53.444,98.838 52.362,99.588 51.612 C 100.316 50.884,101.144 50.833,113.880 50.720 C 132.042 50.559,130.532 51.711,130.722 37.874 C 130.843 29.088,130.913 28.287,131.626 27.574 C 132.770 26.430,299.462 26.347,300.795 27.489 C 301.556 28.140,301.600 28.656,301.600 36.992 C 301.600 50.464,301.836 50.800,311.297 50.800 C 317.643 50.800,317.472 50.611,317.682 57.861 C 317.925 66.273,318.127 66.475,326.539 66.718 C 331.318 66.857,332.183 66.983,332.839 67.639 C 334.035 68.835,334.035 331.565,332.839 332.761 C 332.183 333.417,331.318 333.543,326.539 333.682 C 317.604 333.940,317.856 333.575,317.678 346.526 C 317.507 358.978,319.306 357.600,303.219 357.600 C 289.671 357.600,289.071 357.673,287.270 359.541 C 285.658 361.214,285.600 361.962,285.600 381.226 L 285.600 400.000 287.400 400.000 L 289.200 400.000 289.200 381.787 L 289.200 363.573 290.587 362.187 L 291.973 360.800 303.961 360.800 C 321.175 360.800,320.800 361.087,320.800 347.927 L 320.800 339.906 322.353 338.353 L 323.906 336.800 327.927 336.800 C 333.205 336.800,335.322 335.836,336.427 332.929 C 336.931 331.604,336.931 68.796,336.427 67.471 C 335.322 64.564,333.205 63.600,327.927 63.600 L 323.906 63.600 322.353 62.047 L 320.800 60.494 320.800 56.473 C 320.800 49.157,319.243 47.600,311.927 47.600 L 307.906 47.600 306.353 46.047 L 304.800 44.494 304.800 36.391 C 304.800 26.904,304.431 25.522,301.567 24.281 C 299.289 23.295,132.930 23.224,131.041 24.209 " stroke="none" fill="#a49024" fill-rule="evenodd"></path></g></svg>