<svg id="svg" version="1.1" xmlns="http://www.w3.org/2000/svg" xmlns:xlink="http://www.w3.org/1999/xlink" width="400" height="400" viewBox="0, 0, 400,400"><g id="svgg"><path id="path0" d="M0.000 200.000 L 0.000 400.000 15.973 400.000 L 31.946 400.000 32.073 393.468 L 32.200 386.936 33.568 385.568 L 34.937 384.200 43.568 384.085 C 49.972 384.000,52.303 383.838,52.600 383.460 C 52.820 383.180,53.319 382.831,53.709 382.684 C 54.099 382.538,54.538 382.099,54.684 381.709 C 54.831 381.319,55.175 380.820,55.450 380.600 C 55.783 380.333,55.991 378.656,56.075 375.568 L 56.200 370.936 57.568 369.568 L 58.936 368.200 63.568 368.075 C 66.656 367.991,68.333 367.783,68.600 367.450 C 68.820 367.175,69.319 366.831,69.709 366.684 C 70.099 366.538,70.538 366.099,70.684 365.709 C 70.831 365.319,71.188 364.820,71.479 364.600 C 71.915 364.270,71.990 349.391,71.904 279.800 L 71.800 195.400 70.400 194.008 L 69.000 192.615 63.969 192.408 L 58.938 192.200 57.569 190.831 L 56.200 189.462 56.200 164.200 L 56.200 138.938 57.569 137.569 L 58.938 136.200 63.969 135.992 L 69.000 135.785 70.400 134.392 L 71.800 133.000 72.000 75.969 L 72.200 18.938 73.568 17.569 L 74.937 16.200 87.968 16.000 L 101.000 15.800 102.400 14.400 C 103.818 12.982,104.423 6.891,103.188 6.467 C 102.975 6.393,102.800 4.908,102.800 3.167 L 102.800 0.000 51.400 0.000 L 0.000 0.000 0.000 200.000 M329.600 3.167 C 329.600 5.344,329.444 6.385,329.100 6.500 C 328.716 6.628,328.600 9.256,328.600 17.833 L 328.600 29.000 330.000 30.392 L 331.400 31.785 336.431 31.992 L 341.462 32.200 342.831 33.568 L 344.200 34.936 344.400 43.968 L 344.600 53.000 346.000 54.400 L 347.400 55.800 356.432 56.000 L 365.464 56.200 366.832 57.569 L 368.200 58.938 368.200 212.200 L 368.200 365.462 366.832 366.831 L 365.464 368.200 356.432 368.400 L 347.400 368.600 346.008 370.000 L 344.615 371.400 344.408 376.431 L 344.200 381.462 342.831 382.831 L 341.462 384.200 336.376 384.400 C 331.140 384.606,329.668 385.184,329.613 387.057 C 329.606 387.309,329.330 387.618,329.000 387.745 C 328.503 387.935,328.400 389.012,328.400 393.987 L 328.400 400.000 364.200 400.000 L 400.000 400.000 400.000 200.000 L 400.000 0.000 364.800 0.000 L 329.600 0.000 329.600 3.167 " stroke="none" fill="#c8bfb6" fill-rule="evenodd"></path><path id="path1" d="M139.526 35.607 C 138.943 36.248,138.835 37.622,138.722 45.874 C 138.532 59.711,140.042 58.559,121.880 58.720 C 109.144 58.833,108.316 58.884,107.588 59.612 C 106.838 60.362,106.813 61.444,106.708 97.892 C 106.591 138.439,106.676 136.935,104.456 138.035 C 103.799 138.360,101.306 138.619,97.861 138.718 C 89.915 138.948,90.800 135.754,90.800 164.200 C 90.800 192.646,89.915 189.452,97.861 189.682 C 104.035 189.860,105.261 190.229,106.073 192.152 C 106.504 193.173,106.600 210.665,106.600 288.200 C 106.600 365.735,106.504 383.227,106.073 384.248 C 105.261 386.171,104.035 386.540,97.861 386.718 C 90.478 386.932,90.800 386.590,90.800 394.200 L 90.800 400.000 192.200 400.000 L 293.600 400.000 293.600 385.226 C 293.600 364.152,292.300 365.600,311.219 365.600 C 327.306 365.600,325.507 366.978,325.678 354.526 C 325.856 341.575,325.604 341.940,334.539 341.682 C 339.318 341.543,340.183 341.417,340.839 340.761 C 342.035 339.565,342.035 76.835,340.839 75.639 C 340.183 74.983,339.318 74.857,334.539 74.718 C 326.127 74.475,325.925 74.273,325.682 65.861 C 325.472 58.604,325.796 58.928,318.539 58.718 C 309.604 58.460,309.856 58.825,309.678 45.874 C 309.557 37.088,309.487 36.287,308.774 35.574 C 307.586 34.386,140.608 34.419,139.526 35.607 M222.800 101.200 C 222.800 101.420,223.025 101.606,223.300 101.613 C 223.575 101.621,224.250 102.001,224.800 102.459 L 225.800 103.291 225.800 111.660 C 225.800 117.249,225.655 120.124,225.365 120.315 C 224.242 121.051,224.000 124.609,224.000 140.357 C 224.000 153.218,223.896 156.423,223.470 156.680 C 223.178 156.856,222.822 157.319,222.679 157.709 C 222.535 158.099,222.099 158.535,221.709 158.679 C 221.319 158.822,220.856 159.178,220.680 159.470 C 220.194 160.275,196.069 160.246,195.760 159.439 C 195.641 159.131,195.198 158.788,194.774 158.677 C 194.351 158.567,193.882 158.144,193.732 157.738 C 193.583 157.332,193.222 156.856,192.930 156.680 C 192.504 156.423,192.400 153.218,192.400 140.357 C 192.400 124.609,192.158 121.050,191.035 120.315 C 190.446 119.928,190.434 106.086,191.023 105.687 C 191.255 105.529,191.686 104.807,191.979 104.081 C 192.273 103.356,193.027 102.496,193.656 102.171 C 194.285 101.846,194.800 101.404,194.800 101.190 C 194.800 100.944,199.979 100.800,208.800 100.800 C 217.867 100.800,222.800 100.941,222.800 101.200 M310.800 101.200 C 310.800 101.420,311.025 101.606,311.300 101.613 C 311.575 101.621,312.250 102.001,312.800 102.459 L 313.800 103.291 313.800 111.660 C 313.800 117.249,313.655 120.124,313.365 120.315 C 312.242 121.051,312.000 124.609,312.000 140.357 C 312.000 153.218,311.896 156.423,311.470 156.680 C 311.178 156.856,310.822 157.319,310.679 157.709 C 310.535 158.099,310.099 158.535,309.709 158.679 C 309.319 158.822,308.856 159.178,308.680 159.470 C 308.194 160.275,284.069 160.246,283.760 159.439 C 283.641 159.131,283.199 158.789,282.777 158.678 C 282.355 158.568,281.832 158.010,281.615 157.439 C 281.398 156.867,281.041 156.400,280.823 156.400 C 280.568 156.400,280.378 150.402,280.293 139.700 C 280.165 123.462,279.766 118.000,278.708 118.000 C 278.539 118.000,278.400 115.480,278.400 112.400 C 278.400 109.320,278.538 106.800,278.706 106.800 C 278.874 106.800,279.321 105.930,279.699 104.867 C 280.216 103.411,280.732 102.747,281.793 102.176 C 282.567 101.759,283.200 101.279,283.200 101.109 C 283.200 100.939,289.410 100.800,297.000 100.800 C 305.933 100.800,310.800 100.941,310.800 101.200 M278.315 191.040 C 278.472 191.282,279.005 191.694,279.500 191.954 C 279.995 192.215,280.400 192.627,280.400 192.870 C 280.400 193.113,280.715 193.542,281.100 193.824 C 281.712 194.271,281.800 195.076,281.800 200.200 C 281.800 205.324,281.712 206.129,281.100 206.576 C 280.715 206.858,280.400 207.287,280.400 207.530 C 280.400 207.773,279.995 208.185,279.500 208.446 C 279.005 208.706,278.472 209.118,278.315 209.360 C 277.765 210.207,242.430 209.954,241.952 209.100 C 241.737 208.715,241.295 208.400,240.970 208.400 C 240.646 208.400,240.216 207.969,240.016 207.442 C 239.816 206.915,239.415 206.405,239.126 206.309 C 238.221 206.007,238.383 194.465,239.300 193.952 C 239.685 193.737,240.000 193.295,240.000 192.970 C 240.000 192.646,240.450 192.209,241.000 192.000 C 241.550 191.791,242.000 191.448,242.000 191.238 C 242.000 190.351,277.743 190.157,278.315 191.040 M132.680 280.930 C 132.856 281.222,133.319 281.578,133.709 281.721 C 134.099 281.865,134.538 282.301,134.684 282.691 C 134.831 283.081,135.210 283.595,135.527 283.832 C 136.605 284.641,136.012 293.588,134.800 294.800 C 133.588 296.012,124.641 296.605,123.832 295.527 C 123.595 295.210,123.081 294.831,122.691 294.684 C 122.301 294.538,121.865 294.099,121.721 293.709 C 121.578 293.319,121.222 292.856,120.930 292.680 C 120.544 292.447,120.400 291.227,120.400 288.200 C 120.400 285.173,120.544 283.953,120.930 283.720 C 121.222 283.544,121.578 283.081,121.721 282.691 C 121.865 282.301,122.301 281.865,122.691 281.721 C 123.081 281.578,123.544 281.222,123.720 280.930 C 123.953 280.544,125.173 280.400,128.200 280.400 C 131.227 280.400,132.447 280.544,132.680 280.930 M172.640 296.961 C 172.759 297.269,173.202 297.612,173.626 297.723 C 174.049 297.833,174.518 298.256,174.668 298.662 C 174.817 299.068,175.178 299.544,175.470 299.720 C 176.224 300.175,176.224 308.225,175.470 308.680 C 175.178 308.856,174.822 309.319,174.679 309.709 C 174.535 310.099,174.099 310.535,173.709 310.679 C 173.319 310.822,172.856 311.178,172.680 311.470 C 172.192 312.278,140.070 312.249,139.760 311.439 C 139.641 311.131,139.198 310.788,138.774 310.677 C 138.351 310.567,137.879 310.144,137.727 309.738 C 137.574 309.332,137.190 308.805,136.873 308.568 C 134.832 307.037,136.825 297.152,139.268 296.686 C 141.992 296.168,172.432 296.418,172.640 296.961 M220.680 328.930 C 220.856 329.222,221.319 329.578,221.709 329.721 C 222.099 329.865,222.538 330.301,222.684 330.691 C 222.831 331.081,223.175 331.580,223.450 331.800 C 223.783 332.067,223.991 333.744,224.075 336.832 L 224.200 341.464 225.569 342.832 L 226.938 344.200 259.798 344.400 C 290.241 344.585,292.708 344.651,293.348 345.291 C 293.729 345.671,294.256 346.121,294.520 346.291 C 295.808 347.119,296.000 348.425,296.000 356.345 L 296.000 364.300 294.832 364.534 C 294.139 364.672,293.559 365.099,293.405 365.584 C 293.263 366.033,292.978 366.400,292.773 366.400 C 292.568 366.400,292.400 366.760,292.400 367.200 C 292.400 368.253,212.163 368.491,211.760 367.439 C 211.641 367.131,211.198 366.788,210.774 366.677 C 210.351 366.567,209.882 366.144,209.732 365.738 C 209.583 365.332,209.222 364.856,208.930 364.680 C 208.149 364.209,208.149 332.191,208.930 331.720 C 209.222 331.544,209.578 331.081,209.721 330.691 C 209.865 330.301,210.301 329.865,210.691 329.721 C 211.081 329.578,211.544 329.222,211.720 328.930 C 211.953 328.544,213.173 328.400,216.200 328.400 C 219.227 328.400,220.447 328.544,220.680 328.930 " stroke="none" fill="#dc8c44" fill-rule="evenodd"></path><path id="path2" d="M107.892 12.598 C 107.669 17.128,107.647 17.215,106.364 18.498 L 105.062 19.800 90.540 19.931 L 76.018 20.061 75.909 78.561 L 75.800 137.062 74.458 138.403 L 73.117 139.745 66.558 139.924 L 60.000 140.104 60.000 164.200 L 60.000 188.296 66.558 188.476 L 73.117 188.655 74.458 189.997 L 75.800 191.338 75.800 279.884 C 75.800 342.483,75.674 368.513,75.371 368.715 C 75.135 368.872,74.824 369.319,74.680 369.709 C 74.536 370.099,74.099 370.536,73.709 370.680 C 73.319 370.824,72.886 371.111,72.747 371.318 C 72.608 371.525,69.708 371.789,66.303 371.903 L 60.111 372.111 59.903 378.303 C 59.789 381.708,59.525 384.608,59.318 384.747 C 59.111 384.886,58.824 385.319,58.680 385.709 C 58.536 386.099,58.099 386.536,57.709 386.680 C 57.319 386.824,56.872 387.134,56.716 387.368 C 56.532 387.645,52.846 387.846,46.216 387.941 L 36.000 388.088 36.000 394.044 L 36.000 400.000 60.400 400.000 L 84.800 400.000 84.800 392.800 C 84.800 388.267,84.948 385.600,85.200 385.600 C 85.420 385.600,85.600 385.142,85.600 384.582 C 85.600 383.271,87.271 381.600,88.582 381.600 C 89.142 381.600,89.600 381.425,89.600 381.211 C 89.600 380.984,91.883 380.776,95.100 380.711 L 100.600 380.600 100.598 360.500 C 100.597 349.445,100.552 307.938,100.498 268.262 L 100.400 196.124 94.332 195.875 C 90.994 195.738,88.159 195.465,88.032 195.267 C 87.904 195.069,87.404 194.784,86.920 194.633 C 86.437 194.483,85.917 193.963,85.767 193.480 C 85.616 192.996,85.291 192.472,85.046 192.315 C 84.725 192.109,84.600 184.232,84.600 164.200 C 84.600 144.168,84.725 136.291,85.046 136.085 C 85.291 135.928,85.616 135.404,85.767 134.920 C 85.917 134.437,86.437 133.917,86.920 133.767 C 87.404 133.616,87.904 133.331,88.032 133.133 C 88.159 132.935,90.986 132.662,94.313 132.525 L 100.363 132.277 100.481 94.324 C 100.567 66.962,100.724 56.291,101.046 56.085 C 101.291 55.928,101.616 55.404,101.767 54.920 C 101.917 54.437,102.437 53.917,102.920 53.767 C 103.404 53.616,103.928 53.291,104.085 53.046 C 104.283 52.736,108.643 52.557,118.334 52.458 L 132.297 52.317 132.476 42.327 C 132.589 36.000,132.808 32.239,133.073 32.069 C 133.304 31.921,133.616 31.404,133.767 30.920 C 133.917 30.437,134.437 29.917,134.920 29.767 C 135.404 29.616,135.928 29.291,136.085 29.046 C 136.494 28.408,311.906 28.408,312.315 29.046 C 312.472 29.291,312.996 29.616,313.480 29.767 C 313.963 29.917,314.483 30.437,314.633 30.920 C 314.784 31.404,315.096 31.921,315.327 32.069 C 315.592 32.239,315.811 35.994,315.924 42.308 L 316.102 52.280 322.119 52.527 C 325.429 52.663,328.241 52.935,328.368 53.133 C 328.496 53.331,328.996 53.616,329.480 53.767 C 329.963 53.917,330.483 54.437,330.633 54.920 C 330.784 55.404,331.069 55.904,331.267 56.032 C 331.465 56.159,331.737 58.967,331.873 62.272 L 332.119 68.281 338.128 68.527 C 341.433 68.663,344.241 68.935,344.368 69.133 C 344.496 69.331,344.996 69.616,345.480 69.767 C 345.963 69.917,346.483 70.437,346.633 70.920 C 346.784 71.404,347.109 71.928,347.354 72.085 C 347.681 72.294,347.800 108.729,347.800 208.200 C 347.800 307.671,347.681 344.106,347.354 344.315 C 347.109 344.472,346.784 344.996,346.633 345.480 C 346.483 345.963,345.963 346.483,345.480 346.633 C 344.996 346.784,344.496 347.069,344.368 347.267 C 344.241 347.465,341.429 347.737,338.119 347.873 L 332.102 348.120 331.924 358.092 C 331.811 364.406,331.592 368.161,331.327 368.331 C 331.096 368.479,330.784 368.996,330.633 369.480 C 330.483 369.963,329.963 370.483,329.480 370.633 C 328.996 370.784,328.472 371.109,328.315 371.354 C 328.117 371.663,323.759 371.843,314.076 371.942 L 300.122 372.083 299.862 378.342 C 299.719 381.784,299.602 388.065,299.601 392.300 L 299.600 400.000 311.947 400.000 L 324.293 400.000 324.478 391.637 L 324.664 383.275 325.974 381.965 L 327.283 380.655 333.791 380.477 L 340.299 380.299 340.477 373.791 L 340.655 367.283 341.996 365.942 L 343.338 364.600 353.869 364.461 L 364.400 364.322 364.400 212.200 L 364.400 60.078 353.869 59.939 L 343.338 59.800 341.969 58.431 L 340.600 57.062 340.462 46.582 L 340.323 36.102 333.803 35.923 L 327.283 35.745 325.942 34.404 L 324.600 33.062 324.466 20.531 L 324.331 8.000 216.225 8.000 L 108.119 8.000 107.892 12.598 " stroke="none" fill="#040404" fill-rule="evenodd"></path><path id="path3" d="M105.600 6.367 C 105.600 9.868,105.465 12.793,105.300 12.867 C 105.135 12.940,104.695 13.660,104.323 14.466 C 103.844 15.502,103.229 16.083,102.223 16.446 C 101.440 16.729,100.800 17.105,100.800 17.280 C 100.800 17.456,95.234 17.600,88.431 17.600 L 76.062 17.600 74.831 18.831 L 73.600 20.062 73.600 76.397 C 73.600 107.382,73.465 132.793,73.300 132.867 C 73.135 132.940,72.695 133.660,72.323 134.466 C 71.844 135.502,71.229 136.083,70.223 136.446 C 69.440 136.729,68.800 137.105,68.800 137.280 C 68.800 137.456,66.834 137.600,64.431 137.600 C 60.085 137.600,60.055 137.607,58.831 138.831 L 57.600 140.062 57.600 164.200 L 57.600 188.338 58.831 189.569 C 60.054 190.792,60.089 190.800,64.397 190.800 C 66.782 190.800,68.793 190.935,68.867 191.100 C 68.940 191.265,69.660 191.705,70.466 192.077 C 71.502 192.556,72.083 193.171,72.446 194.177 C 72.729 194.960,73.105 195.600,73.280 195.600 C 73.686 195.600,73.705 364.687,73.300 364.867 C 73.135 364.940,72.695 365.660,72.323 366.466 C 71.844 367.502,71.229 368.083,70.223 368.446 C 69.440 368.729,68.800 369.105,68.800 369.280 C 68.800 369.456,66.834 369.600,64.431 369.600 C 58.193 369.600,57.600 370.190,57.600 376.397 C 57.600 378.782,57.465 380.793,57.300 380.867 C 57.135 380.940,56.695 381.660,56.323 382.466 C 55.844 383.502,55.229 384.083,54.223 384.446 C 53.440 384.729,52.800 385.105,52.800 385.280 C 52.800 385.456,49.034 385.600,44.431 385.600 L 36.062 385.600 34.831 386.831 L 33.600 388.062 33.600 394.031 L 33.600 400.000 34.800 400.000 L 36.000 400.000 36.000 394.044 L 36.000 388.088 46.216 387.941 C 52.846 387.846,56.532 387.645,56.716 387.368 C 56.872 387.134,57.319 386.824,57.709 386.680 C 58.099 386.536,58.536 386.099,58.680 385.709 C 58.824 385.319,59.111 384.886,59.318 384.747 C 59.525 384.608,59.789 381.708,59.903 378.303 L 60.111 372.111 66.303 371.903 C 69.708 371.789,72.608 371.525,72.747 371.318 C 72.886 371.111,73.319 370.824,73.709 370.680 C 74.099 370.536,74.536 370.099,74.680 369.709 C 74.824 369.319,75.135 368.872,75.371 368.715 C 75.674 368.513,75.800 342.483,75.800 279.884 L 75.800 191.338 74.458 189.997 L 73.117 188.655 66.558 188.476 L 60.000 188.296 60.000 164.200 L 60.000 140.104 66.558 139.924 L 73.117 139.745 74.458 138.403 L 75.800 137.062 75.909 78.561 L 76.018 20.061 90.540 19.931 L 105.062 19.800 106.364 18.498 C 107.647 17.215,107.669 17.128,107.892 12.598 L 108.119 8.000 216.225 8.000 L 324.331 8.000 324.466 20.531 L 324.600 33.062 325.942 34.404 L 327.283 35.745 333.803 35.923 L 340.323 36.102 340.462 46.582 L 340.600 57.062 341.969 58.431 L 343.338 59.800 353.869 59.939 L 364.400 60.078 364.400 212.200 L 364.400 364.322 353.869 364.461 L 343.338 364.600 341.996 365.942 L 340.655 367.283 340.477 373.791 L 340.299 380.299 333.791 380.477 L 327.283 380.655 325.974 381.965 L 324.664 383.275 324.478 391.637 L 324.293 400.000 325.547 400.000 L 326.800 400.000 326.800 393.800 C 326.800 390.390,326.944 387.600,327.120 387.600 C 327.295 387.600,327.671 386.960,327.954 386.177 C 328.317 385.171,328.898 384.556,329.934 384.077 C 330.740 383.705,331.460 383.265,331.533 383.100 C 331.607 382.935,333.618 382.800,336.003 382.800 C 342.210 382.800,342.800 382.207,342.800 375.969 C 342.800 373.566,342.944 371.600,343.120 371.600 C 343.295 371.600,343.671 370.960,343.954 370.177 C 344.317 369.171,344.898 368.556,345.934 368.077 C 346.740 367.705,347.460 367.265,347.533 367.100 C 347.607 366.935,351.418 366.800,356.003 366.800 L 364.338 366.800 365.569 365.569 L 366.800 364.338 366.800 212.200 L 366.800 60.062 365.569 58.831 L 364.338 57.600 356.003 57.600 C 351.418 57.600,347.607 57.465,347.533 57.300 C 347.460 57.135,346.740 56.695,345.934 56.323 C 344.898 55.844,344.317 55.229,343.954 54.223 C 343.671 53.440,343.295 52.800,343.120 52.800 C 342.944 52.800,342.800 49.034,342.800 44.431 L 342.800 36.062 341.569 34.831 C 340.346 33.608,340.311 33.600,336.003 33.600 C 333.618 33.600,331.607 33.465,331.533 33.300 C 331.460 33.135,330.740 32.695,329.934 32.323 C 328.898 31.844,328.317 31.229,327.954 30.223 C 327.671 29.440,327.295 28.800,327.120 28.800 C 326.944 28.800,326.800 22.320,326.800 14.400 L 326.800 0.000 216.200 0.000 L 105.600 0.000 105.600 6.367 M138.100 28.690 C 136.945 28.774,136.000 28.993,136.000 29.178 C 136.000 29.362,135.562 29.623,135.027 29.758 C 134.491 29.892,133.927 30.406,133.773 30.901 C 133.618 31.395,133.304 31.921,133.073 32.069 C 132.808 32.239,132.589 36.000,132.476 42.327 L 132.297 52.317 118.334 52.458 C 108.643 52.557,104.283 52.736,104.085 53.046 C 103.928 53.291,103.404 53.616,102.920 53.767 C 102.437 53.917,101.917 54.437,101.767 54.920 C 101.616 55.404,101.291 55.928,101.046 56.085 C 100.724 56.291,100.567 66.962,100.481 94.324 L 100.363 132.277 94.313 132.525 C 90.986 132.662,88.159 132.935,88.032 133.133 C 87.904 133.331,87.404 133.616,86.920 133.767 C 86.437 133.917,85.917 134.437,85.767 134.920 C 85.616 135.404,85.291 135.928,85.046 136.085 C 84.411 136.491,84.411 191.909,85.046 192.315 C 85.291 192.472,85.616 192.996,85.767 193.480 C 85.917 193.963,86.437 194.483,86.920 194.633 C 87.404 194.784,87.904 195.069,88.032 195.267 C 88.159 195.465,90.994 195.738,94.332 195.875 L 100.400 196.124 100.498 268.262 C 100.552 307.938,100.597 349.445,100.598 360.500 L 100.600 380.600 95.100 380.711 C 91.883 380.776,89.600 380.984,89.600 381.211 C 89.600 381.425,89.142 381.600,88.582 381.600 C 87.271 381.600,85.600 383.271,85.600 384.582 C 85.600 385.142,85.420 385.600,85.200 385.600 C 84.948 385.600,84.800 388.267,84.800 392.800 L 84.800 400.000 86.372 400.000 L 87.945 400.000 88.072 393.686 L 88.200 387.371 89.786 385.786 L 91.372 384.200 96.186 384.000 L 101.000 383.800 102.503 382.236 L 104.005 380.672 103.903 288.036 L 103.800 195.400 102.400 194.000 L 101.000 192.600 96.800 192.489 C 90.989 192.335,89.843 191.895,88.448 189.290 C 87.815 188.107,87.815 140.293,88.448 139.110 C 89.843 136.505,90.989 136.065,96.800 135.911 L 101.000 135.800 102.400 134.400 L 103.800 133.000 104.007 96.000 C 104.121 75.650,104.256 58.969,104.307 58.931 C 104.400 58.861,106.800 56.472,106.931 56.319 C 106.969 56.274,112.850 56.139,120.000 56.019 L 133.000 55.800 134.400 54.400 L 135.800 53.000 135.903 44.800 C 136.032 34.616,136.189 34.012,139.110 32.448 C 140.307 31.808,308.093 31.808,309.290 32.448 C 312.211 34.012,312.368 34.616,312.497 44.800 L 312.600 53.000 314.000 54.400 L 315.400 55.800 319.600 55.911 C 327.500 56.121,328.279 56.900,328.489 64.800 L 328.600 69.000 330.000 70.400 L 331.400 71.800 335.600 71.911 C 341.411 72.065,342.557 72.505,343.952 75.110 C 344.593 76.309,344.593 340.091,343.952 341.290 C 342.557 343.895,341.411 344.335,335.600 344.489 L 331.400 344.600 330.000 346.000 L 328.600 347.400 328.497 355.600 C 328.379 364.933,328.357 365.098,327.073 366.483 C 325.324 368.371,325.100 368.400,312.291 368.400 L 300.129 368.400 298.664 369.651 C 297.859 370.339,297.200 371.149,297.200 371.451 C 297.200 371.753,297.020 372.000,296.800 372.000 C 296.541 372.000,296.400 376.933,296.400 386.000 L 296.400 400.000 298.000 400.000 L 299.600 400.000 299.601 392.300 C 299.602 388.065,299.719 381.784,299.862 378.342 L 300.122 372.083 314.076 371.942 C 323.759 371.843,328.117 371.663,328.315 371.354 C 328.472 371.109,328.996 370.784,329.480 370.633 C 329.963 370.483,330.483 369.963,330.633 369.480 C 330.784 368.996,331.096 368.479,331.327 368.331 C 331.592 368.161,331.811 364.406,331.924 358.092 L 332.102 348.120 338.119 347.873 C 341.429 347.737,344.241 347.465,344.368 347.267 C 344.496 347.069,344.996 346.784,345.480 346.633 C 345.963 346.483,346.483 345.963,346.633 345.480 C 346.784 344.996,347.109 344.472,347.354 344.315 C 347.992 343.906,347.992 72.494,347.354 72.085 C 347.109 71.928,346.784 71.404,346.633 70.920 C 346.483 70.437,345.963 69.917,345.480 69.767 C 344.996 69.616,344.496 69.331,344.368 69.133 C 344.241 68.935,341.433 68.663,338.128 68.527 L 332.119 68.281 331.873 62.272 C 331.737 58.967,331.465 56.159,331.267 56.032 C 331.069 55.904,330.784 55.404,330.633 54.920 C 330.483 54.437,329.963 53.917,329.480 53.767 C 328.996 53.616,328.496 53.331,328.368 53.133 C 328.241 52.935,325.429 52.663,322.119 52.527 L 316.102 52.280 315.924 42.308 C 315.811 35.994,315.592 32.239,315.327 32.069 C 315.096 31.921,314.784 31.404,314.633 30.920 C 314.483 30.437,313.963 29.917,313.480 29.767 C 312.996 29.616,312.472 29.291,312.315 29.046 C 312.045 28.625,143.780 28.281,138.100 28.690 " stroke="none" fill="#141414" fill-rule="evenodd"></path><path id="path4" d="M194.800 101.190 C 194.800 101.404,194.285 101.846,193.656 102.171 C 193.027 102.496,192.273 103.356,191.979 104.081 C 191.686 104.807,191.255 105.529,191.023 105.687 C 190.434 106.086,190.446 119.928,191.035 120.315 C 192.158 121.050,192.400 124.609,192.400 140.357 C 192.400 153.218,192.504 156.423,192.930 156.680 C 193.222 156.856,193.583 157.332,193.732 157.738 C 193.882 158.144,194.351 158.567,194.774 158.677 C 195.198 158.788,195.641 159.131,195.760 159.439 C 196.069 160.246,220.194 160.275,220.680 159.470 C 220.856 159.178,221.319 158.822,221.709 158.679 C 222.099 158.535,222.535 158.099,222.679 157.709 C 222.822 157.319,223.178 156.856,223.470 156.680 C 223.896 156.423,224.000 153.218,224.000 140.357 C 224.000 124.609,224.242 121.051,225.365 120.315 C 225.655 120.124,225.800 117.249,225.800 111.660 L 225.800 103.291 224.800 102.459 C 224.250 102.001,223.575 101.621,223.300 101.613 C 223.025 101.606,222.800 101.420,222.800 101.200 C 222.800 100.941,217.867 100.800,208.800 100.800 C 199.979 100.800,194.800 100.944,194.800 101.190 M283.200 101.109 C 283.200 101.279,282.567 101.759,281.793 102.176 C 280.732 102.747,280.216 103.411,279.699 104.867 C 279.321 105.930,278.874 106.800,278.706 106.800 C 278.538 106.800,278.400 109.320,278.400 112.400 C 278.400 115.480,278.539 118.000,278.708 118.000 C 279.766 118.000,280.165 123.462,280.293 139.700 C 280.378 150.402,280.568 156.400,280.823 156.400 C 281.041 156.400,281.398 156.867,281.615 157.439 C 281.832 158.010,282.355 158.568,282.777 158.678 C 283.199 158.789,283.641 159.131,283.760 159.439 C 284.069 160.246,308.194 160.275,308.680 159.470 C 308.856 159.178,309.319 158.822,309.709 158.679 C 310.099 158.535,310.535 158.099,310.679 157.709 C 310.822 157.319,311.178 156.856,311.470 156.680 C 311.896 156.423,312.000 153.218,312.000 140.357 C 312.000 124.609,312.242 121.051,313.365 120.315 C 313.655 120.124,313.800 117.249,313.800 111.660 L 313.800 103.291 312.800 102.459 C 312.250 102.001,311.575 101.621,311.300 101.613 C 311.025 101.606,310.800 101.420,310.800 101.200 C 310.800 100.941,305.933 100.800,297.000 100.800 C 289.410 100.800,283.200 100.939,283.200 101.109 M242.900 190.676 C 242.405 190.775,242.000 191.028,242.000 191.238 C 242.000 191.448,241.550 191.791,241.000 192.000 C 240.450 192.209,240.000 192.646,240.000 192.970 C 240.000 193.295,239.685 193.737,239.300 193.952 C 238.383 194.465,238.221 206.007,239.126 206.309 C 239.415 206.405,239.816 206.915,240.016 207.442 C 240.216 207.969,240.646 208.400,240.970 208.400 C 241.295 208.400,241.737 208.715,241.952 209.100 C 242.430 209.954,277.765 210.207,278.315 209.360 C 278.472 209.118,279.005 208.706,279.500 208.446 C 279.995 208.185,280.400 207.773,280.400 207.530 C 280.400 207.287,280.715 206.858,281.100 206.576 C 281.712 206.129,281.800 205.324,281.800 200.200 C 281.800 195.076,281.712 194.271,281.100 193.824 C 280.715 193.542,280.400 193.113,280.400 192.870 C 280.400 192.627,279.995 192.215,279.500 191.954 C 279.005 191.694,278.472 191.282,278.315 191.040 C 278.033 190.605,244.961 190.265,242.900 190.676 M123.720 280.930 C 123.544 281.222,123.081 281.578,122.691 281.721 C 122.301 281.865,121.865 282.301,121.721 282.691 C 121.578 283.081,121.222 283.544,120.930 283.720 C 120.544 283.953,120.400 285.173,120.400 288.200 C 120.400 291.227,120.544 292.447,120.930 292.680 C 121.222 292.856,121.578 293.319,121.721 293.709 C 121.865 294.099,122.301 294.538,122.691 294.684 C 123.081 294.831,123.595 295.210,123.832 295.527 C 124.641 296.605,133.588 296.012,134.800 294.800 C 136.012 293.588,136.605 284.641,135.527 283.832 C 135.210 283.595,134.831 283.081,134.684 282.691 C 134.538 282.301,134.099 281.865,133.709 281.721 C 133.319 281.578,132.856 281.222,132.680 280.930 C 132.447 280.544,131.227 280.400,128.200 280.400 C 125.173 280.400,123.953 280.544,123.720 280.930 M139.268 296.686 C 136.825 297.152,134.832 307.037,136.873 308.568 C 137.190 308.805,137.574 309.332,137.727 309.738 C 137.879 310.144,138.351 310.567,138.774 310.677 C 139.198 310.788,139.641 311.131,139.760 311.439 C 140.070 312.249,172.192 312.278,172.680 311.470 C 172.856 311.178,173.319 310.822,173.709 310.679 C 174.099 310.535,174.535 310.099,174.679 309.709 C 174.822 309.319,175.178 308.856,175.470 308.680 C 176.224 308.225,176.224 300.175,175.470 299.720 C 175.178 299.544,174.817 299.068,174.668 298.662 C 174.518 298.256,174.049 297.833,173.626 297.723 C 173.202 297.612,172.759 297.269,172.640 296.961 C 172.432 296.418,141.992 296.168,139.268 296.686 M211.720 328.930 C 211.544 329.222,211.081 329.578,210.691 329.721 C 210.301 329.865,209.865 330.301,209.721 330.691 C 209.578 331.081,209.222 331.544,208.930 331.720 C 208.149 332.191,208.149 364.209,208.930 364.680 C 209.222 364.856,209.583 365.332,209.732 365.738 C 209.882 366.144,210.351 366.567,210.774 366.677 C 211.198 366.788,211.641 367.131,211.760 367.439 C 212.163 368.491,292.400 368.253,292.400 367.200 C 292.400 366.760,292.568 366.400,292.773 366.400 C 292.978 366.400,293.263 366.033,293.405 365.584 C 293.559 365.099,294.139 364.672,294.832 364.534 L 296.000 364.300 296.000 356.345 C 296.000 348.425,295.808 347.119,294.520 346.291 C 294.256 346.121,293.729 345.671,293.348 345.291 C 292.708 344.651,290.241 344.585,259.798 344.400 L 226.938 344.200 225.569 342.832 L 224.200 341.464 224.075 336.832 C 223.991 333.744,223.783 332.067,223.450 331.800 C 223.175 331.580,222.831 331.081,222.684 330.691 C 222.538 330.301,222.099 329.865,221.709 329.721 C 221.319 329.578,220.856 329.222,220.680 328.930 C 220.447 328.544,219.227 328.400,216.200 328.400 C 213.173 328.400,211.953 328.544,211.720 328.930 " stroke="none" fill="#dc8c4c" fill-rule="evenodd"></path><path id="path5" d="" stroke="none" fill="#f04824" fill-rule="evenodd"></path><path id="path6" d="M102.800 3.167 C 102.800 4.908,102.975 6.393,103.188 6.467 C 104.423 6.891,103.818 12.982,102.400 14.400 L 101.000 15.800 87.968 16.000 L 74.937 16.200 73.568 17.569 L 72.200 18.938 72.000 75.969 L 71.800 133.000 70.400 134.392 L 69.000 135.785 63.969 135.992 L 58.938 136.200 57.569 137.569 L 56.200 138.938 56.200 164.200 L 56.200 189.462 57.569 190.831 L 58.938 192.200 63.969 192.408 L 69.000 192.615 70.400 194.008 L 71.800 195.400 71.904 279.800 C 71.990 349.391,71.915 364.270,71.479 364.600 C 71.188 364.820,70.831 365.319,70.684 365.709 C 70.538 366.099,70.099 366.538,69.709 366.684 C 69.319 366.831,68.820 367.175,68.600 367.450 C 68.333 367.783,66.656 367.991,63.568 368.075 L 58.936 368.200 57.568 369.568 L 56.200 370.936 56.075 375.568 C 55.991 378.656,55.783 380.333,55.450 380.600 C 55.175 380.820,54.831 381.319,54.684 381.709 C 54.538 382.099,54.099 382.538,53.709 382.684 C 53.319 382.831,52.820 383.180,52.600 383.460 C 52.303 383.838,49.972 384.000,43.568 384.085 L 34.937 384.200 33.568 385.568 L 32.200 386.936 32.073 393.468 C 31.949 399.845,31.966 400.000,32.773 400.000 C 33.572 400.000,33.600 399.798,33.600 394.031 L 33.600 388.062 34.831 386.831 L 36.062 385.600 44.431 385.600 C 49.034 385.600,52.800 385.456,52.800 385.280 C 52.800 385.105,53.440 384.729,54.223 384.446 C 55.229 384.083,55.844 383.502,56.323 382.466 C 56.695 381.660,57.135 380.940,57.300 380.867 C 57.465 380.793,57.600 378.782,57.600 376.397 C 57.600 370.190,58.193 369.600,64.431 369.600 C 66.834 369.600,68.800 369.456,68.800 369.280 C 68.800 369.105,69.440 368.729,70.223 368.446 C 71.229 368.083,71.844 367.502,72.323 366.466 C 72.695 365.660,73.135 364.940,73.300 364.867 C 73.705 364.687,73.686 195.600,73.280 195.600 C 73.105 195.600,72.729 194.960,72.446 194.177 C 72.083 193.171,71.502 192.556,70.466 192.077 C 69.660 191.705,68.940 191.265,68.867 191.100 C 68.793 190.935,66.782 190.800,64.397 190.800 C 60.089 190.800,60.054 190.792,58.831 189.569 L 57.600 188.338 57.600 164.200 L 57.600 140.062 58.831 138.831 C 60.055 137.607,60.085 137.600,64.431 137.600 C 66.834 137.600,68.800 137.456,68.800 137.280 C 68.800 137.105,69.440 136.729,70.223 136.446 C 71.229 136.083,71.844 135.502,72.323 134.466 C 72.695 133.660,73.135 132.940,73.300 132.867 C 73.465 132.793,73.600 107.382,73.600 76.397 L 73.600 20.062 74.831 18.831 L 76.062 17.600 88.431 17.600 C 95.234 17.600,100.800 17.456,100.800 17.280 C 100.800 17.105,101.440 16.729,102.223 16.446 C 103.229 16.083,103.844 15.502,104.323 14.466 C 104.695 13.660,105.135 12.940,105.300 12.867 C 105.465 12.793,105.600 9.868,105.600 6.367 L 105.600 0.000 104.200 0.000 L 102.800 0.000 102.800 3.167 M326.800 14.367 C 326.800 22.268,326.935 28.793,327.100 28.867 C 327.265 28.940,327.705 29.660,328.077 30.466 C 328.556 31.502,329.171 32.083,330.177 32.446 C 330.960 32.729,331.600 33.105,331.600 33.280 C 331.600 33.456,333.566 33.600,335.969 33.600 C 340.315 33.600,340.345 33.607,341.569 34.831 L 342.800 36.062 342.800 44.397 C 342.800 48.982,342.935 52.793,343.100 52.867 C 343.265 52.940,343.705 53.660,344.077 54.466 C 344.556 55.502,345.171 56.083,346.177 56.446 C 346.960 56.729,347.600 57.105,347.600 57.280 C 347.600 57.456,351.366 57.600,355.969 57.600 L 364.338 57.600 365.569 58.831 L 366.800 60.062 366.800 212.200 L 366.800 364.338 365.569 365.569 L 364.338 366.800 355.969 366.800 C 351.366 366.800,347.600 366.944,347.600 367.120 C 347.600 367.295,346.960 367.671,346.177 367.954 C 345.171 368.317,344.556 368.898,344.077 369.934 C 343.705 370.740,343.265 371.460,343.100 371.533 C 342.935 371.607,342.800 373.618,342.800 376.003 C 342.800 382.210,342.207 382.800,335.969 382.800 C 333.566 382.800,331.600 382.944,331.600 383.120 C 331.600 383.295,330.960 383.671,330.177 383.954 C 329.171 384.317,328.556 384.898,328.077 385.934 C 327.705 386.740,327.265 387.460,327.100 387.533 C 326.289 387.894,326.775 400.000,327.600 400.000 C 328.365 400.000,328.400 399.733,328.400 393.987 C 328.400 389.012,328.503 387.935,329.000 387.745 C 329.330 387.618,329.606 387.309,329.613 387.057 C 329.668 385.184,331.140 384.606,336.376 384.400 L 341.462 384.200 342.831 382.831 L 344.200 381.462 344.408 376.431 L 344.615 371.400 346.008 370.000 L 347.400 368.600 356.432 368.400 L 365.464 368.200 366.832 366.831 L 368.200 365.462 368.200 212.200 L 368.200 58.938 366.832 57.569 L 365.464 56.200 356.432 56.000 L 347.400 55.800 346.000 54.400 L 344.600 53.000 344.400 43.968 L 344.200 34.936 342.831 33.568 L 341.462 32.200 336.431 31.992 L 331.400 31.785 330.000 30.392 L 328.600 29.000 328.600 17.833 C 328.600 9.256,328.716 6.628,329.100 6.500 C 329.444 6.385,329.600 5.344,329.600 3.167 L 329.600 0.000 328.200 0.000 L 326.800 0.000 326.800 14.367 M139.022 32.476 C 136.159 34.136,136.031 34.642,135.903 44.800 L 135.800 53.000 134.400 54.400 L 133.000 55.800 120.000 56.019 C 112.850 56.139,106.969 56.274,106.931 56.319 C 106.800 56.472,104.400 58.861,104.307 58.931 C 104.256 58.969,104.121 75.650,104.007 96.000 L 103.800 133.000 102.400 134.400 L 101.000 135.800 96.800 135.911 C 90.989 136.065,89.843 136.505,88.448 139.110 C 87.815 140.293,87.815 188.107,88.448 189.290 C 89.843 191.895,90.989 192.335,96.800 192.489 L 101.000 192.600 102.400 194.000 L 103.800 195.400 103.903 288.036 L 104.005 380.672 102.503 382.236 L 101.000 383.800 96.186 384.000 L 91.372 384.200 89.786 385.786 L 88.200 387.371 88.072 393.686 L 87.945 400.000 89.372 400.000 L 90.800 400.000 90.800 394.200 C 90.800 386.590,90.478 386.932,97.861 386.718 C 104.035 386.540,105.261 386.171,106.073 384.248 C 106.854 382.398,106.854 194.002,106.073 192.152 C 105.261 190.229,104.035 189.860,97.861 189.682 C 89.915 189.452,90.800 192.646,90.800 164.200 C 90.800 135.754,89.915 138.948,97.861 138.718 C 101.306 138.619,103.799 138.360,104.456 138.035 C 106.676 136.935,106.591 138.439,106.708 97.892 C 106.813 61.444,106.838 60.362,107.588 59.612 C 108.316 58.884,109.144 58.833,121.880 58.720 C 140.042 58.559,138.532 59.711,138.722 45.874 C 138.843 37.088,138.913 36.287,139.626 35.574 C 140.843 34.357,307.557 34.357,308.774 35.574 C 309.487 36.287,309.557 37.088,309.678 45.874 C 309.856 58.825,309.604 58.460,318.539 58.718 C 325.796 58.928,325.472 58.604,325.682 65.861 C 325.925 74.273,326.127 74.475,334.539 74.718 C 339.318 74.857,340.183 74.983,340.839 75.639 C 342.035 76.835,342.035 339.565,340.839 340.761 C 340.183 341.417,339.318 341.543,334.539 341.682 C 325.604 341.940,325.856 341.575,325.678 354.526 C 325.507 366.978,327.306 365.600,311.219 365.600 C 292.300 365.600,293.600 364.152,293.600 385.226 L 293.600 400.000 295.000 400.000 L 296.400 400.000 296.400 386.000 C 296.400 376.933,296.541 372.000,296.800 372.000 C 297.020 372.000,297.200 371.753,297.200 371.451 C 297.200 371.149,297.859 370.339,298.664 369.651 L 300.129 368.400 312.291 368.400 C 325.100 368.400,325.324 368.371,327.073 366.483 C 328.357 365.098,328.379 364.933,328.497 355.600 L 328.600 347.400 330.000 346.000 L 331.400 344.600 335.600 344.489 C 341.411 344.335,342.557 343.895,343.952 341.290 C 344.593 340.091,344.593 76.309,343.952 75.110 C 342.557 72.505,341.411 72.065,335.600 71.911 L 331.400 71.800 330.000 70.400 L 328.600 69.000 328.489 64.800 C 328.279 56.900,327.500 56.121,319.600 55.911 L 315.400 55.800 314.000 54.400 L 312.600 53.000 312.497 44.800 C 312.368 34.616,312.211 34.012,309.290 32.448 C 308.088 31.805,140.131 31.832,139.022 32.476 " stroke="none" fill="#a49024" fill-rule="evenodd"></path><path id="path7" d="M102.800 3.167 C 102.800 4.908,102.975 6.393,103.188 6.467 C 104.423 6.891,103.818 12.982,102.400 14.400 L 101.000 15.800 87.968 16.000 L 74.937 16.200 73.568 17.569 L 72.200 18.938 72.000 75.969 L 71.800 133.000 70.400 134.392 L 69.000 135.785 63.969 135.992 L 58.938 136.200 57.569 137.569 L 56.200 138.938 56.200 164.200 L 56.200 189.462 57.569 190.831 L 58.938 192.200 63.969 192.408 L 69.000 192.615 70.400 194.008 L 71.800 195.400 71.904 279.800 C 71.990 349.391,71.915 364.270,71.479 364.600 C 71.188 364.820,70.831 365.319,70.684 365.709 C 70.538 366.099,70.099 366.538,69.709 366.684 C 69.319 366.831,68.820 367.175,68.600 367.450 C 68.333 367.783,66.656 367.991,63.568 368.075 L 58.936 368.200 57.568 369.568 L 56.200 370.936 56.075 375.568 C 55.991 378.656,55.783 380.333,55.450 380.600 C 55.175 380.820,54.831 381.319,54.684 381.709 C 54.538 382.099,54.099 382.538,53.709 382.684 C 53.319 382.831,52.820 383.180,52.600 383.460 C 52.303 383.838,49.972 384.000,43.568 384.085 L 34.937 384.200 33.568 385.568 L 32.200 386.936 32.073 393.468 C 31.949 399.845,31.966 400.000,32.773 400.000 C 33.572 400.000,33.600 399.798,33.600 394.031 L 33.600 388.062 34.831 386.831 L 36.062 385.600 44.431 385.600 C 49.034 385.600,52.800 385.456,52.800 385.280 C 52.800 385.105,53.440 384.729,54.223 384.446 C 55.229 384.083,55.844 383.502,56.323 382.466 C 56.695 381.660,57.135 380.940,57.300 380.867 C 57.465 380.793,57.600 378.782,57.600 376.397 C 57.600 370.190,58.193 369.600,64.431 369.600 C 66.834 369.600,68.800 369.456,68.800 369.280 C 68.800 369.105,69.440 368.729,70.223 368.446 C 71.229 368.083,71.844 367.502,72.323 366.466 C 72.695 365.660,73.135 364.940,73.300 364.867 C 73.705 364.687,73.686 195.600,73.280 195.600 C 73.105 195.600,72.729 194.960,72.446 194.177 C 72.083 193.171,71.502 192.556,70.466 192.077 C 69.660 191.705,68.940 191.265,68.867 191.100 C 68.793 190.935,66.782 190.800,64.397 190.800 C 60.089 190.800,60.054 190.792,58.831 189.569 L 57.600 188.338 57.600 164.200 L 57.600 140.062 58.831 138.831 C 60.055 137.607,60.085 137.600,64.431 137.600 C 66.834 137.600,68.800 137.456,68.800 137.280 C 68.800 137.105,69.440 136.729,70.223 136.446 C 71.229 136.083,71.844 135.502,72.323 134.466 C 72.695 133.660,73.135 132.940,73.300 132.867 C 73.465 132.793,73.600 107.382,73.600 76.397 L 73.600 20.062 74.831 18.831 L 76.062 17.600 88.431 17.600 C 95.234 17.600,100.800 17.456,100.800 17.280 C 100.800 17.105,101.440 16.729,102.223 16.446 C 103.229 16.083,103.844 15.502,104.323 14.466 C 104.695 13.660,105.135 12.940,105.300 12.867 C 105.465 12.793,105.600 9.868,105.600 6.367 L 105.600 0.000 104.200 0.000 L 102.800 0.000 102.800 3.167 M326.800 14.367 C 326.800 22.268,326.935 28.793,327.100 28.867 C 327.265 28.940,327.705 29.660,328.077 30.466 C 328.556 31.502,329.171 32.083,330.177 32.446 C 330.960 32.729,331.600 33.105,331.600 33.280 C 331.600 33.456,333.566 33.600,335.969 33.600 C 340.315 33.600,340.345 33.607,341.569 34.831 L 342.800 36.062 342.800 44.397 C 342.800 48.982,342.935 52.793,343.100 52.867 C 343.265 52.940,343.705 53.660,344.077 54.466 C 344.556 55.502,345.171 56.083,346.177 56.446 C 346.960 56.729,347.600 57.105,347.600 57.280 C 347.600 57.456,351.366 57.600,355.969 57.600 L 364.338 57.600 365.569 58.831 L 366.800 60.062 366.800 212.200 L 366.800 364.338 365.569 365.569 L 364.338 366.800 355.969 366.800 C 351.366 366.800,347.600 366.944,347.600 367.120 C 347.600 367.295,346.960 367.671,346.177 367.954 C 345.171 368.317,344.556 368.898,344.077 369.934 C 343.705 370.740,343.265 371.460,343.100 371.533 C 342.935 371.607,342.800 373.618,342.800 376.003 C 342.800 382.210,342.207 382.800,335.969 382.800 C 333.566 382.800,331.600 382.944,331.600 383.120 C 331.600 383.295,330.960 383.671,330.177 383.954 C 329.171 384.317,328.556 384.898,328.077 385.934 C 327.705 386.740,327.265 387.460,327.100 387.533 C 326.289 387.894,326.775 400.000,327.600 400.000 C 328.365 400.000,328.400 399.733,328.400 393.987 C 328.400 389.012,328.503 387.935,329.000 387.745 C 329.330 387.618,329.606 387.309,329.613 387.057 C 329.668 385.184,331.140 384.606,336.376 384.400 L 341.462 384.200 342.831 382.831 L 344.200 381.462 344.408 376.431 L 344.615 371.400 346.008 370.000 L 347.400 368.600 356.432 368.400 L 365.464 368.200 366.832 366.831 L 368.200 365.462 368.200 212.200 L 368.200 58.938 366.832 57.569 L 365.464 56.200 356.432 56.000 L 347.400 55.800 346.000 54.400 L 344.600 53.000 344.400 43.968 L 344.200 34.936 342.831 33.568 L 341.462 32.200 336.431 31.992 L 331.400 31.785 330.000 30.392 L 328.600 29.000 328.600 17.833 C 328.600 9.256,328.716 6.628,329.100 6.500 C 329.444 6.385,329.600 5.344,329.600 3.167 L 329.600 0.000 328.200 0.000 L 326.800 0.000 326.800 14.367 M139.022 32.476 C 136.159 34.136,136.031 34.642,135.903 44.800 L 135.800 53.000 134.400 54.400 L 133.000 55.800 120.000 56.019 C 112.850 56.139,106.969 56.274,106.931 56.319 C 106.800 56.472,104.400 58.861,104.307 58.931 C 104.256 58.969,104.121 75.650,104.007 96.000 L 103.800 133.000 102.400 134.400 L 101.000 135.800 96.800 135.911 C 90.989 136.065,89.843 136.505,88.448 139.110 C 87.815 140.293,87.815 188.107,88.448 189.290 C 89.843 191.895,90.989 192.335,96.800 192.489 L 101.000 192.600 102.400 194.000 L 103.800 195.400 103.903 288.036 L 104.005 380.672 102.503 382.236 L 101.000 383.800 96.186 384.000 L 91.372 384.200 89.786 385.786 L 88.200 387.371 88.072 393.686 L 87.945 400.000 89.372 400.000 L 90.800 400.000 90.800 394.200 C 90.800 386.590,90.478 386.932,97.861 386.718 C 104.035 386.540,105.261 386.171,106.073 384.248 C 106.854 382.398,106.854 194.002,106.073 192.152 C 105.261 190.229,104.035 189.860,97.861 189.682 C 89.915 189.452,90.800 192.646,90.800 164.200 C 90.800 135.754,89.915 138.948,97.861 138.718 C 101.306 138.619,103.799 138.360,104.456 138.035 C 106.676 136.935,106.591 138.439,106.708 97.892 C 106.813 61.444,106.838 60.362,107.588 59.612 C 108.316 58.884,109.144 58.833,121.880 58.720 C 140.042 58.559,138.532 59.711,138.722 45.874 C 138.843 37.088,138.913 36.287,139.626 35.574 C 140.843 34.357,307.557 34.357,308.774 35.574 C 309.487 36.287,309.557 37.088,309.678 45.874 C 309.856 58.825,309.604 58.460,318.539 58.718 C 325.796 58.928,325.472 58.604,325.682 65.861 C 325.925 74.273,326.127 74.475,334.539 74.718 C 339.318 74.857,340.183 74.983,340.839 75.639 C 342.035 76.835,342.035 339.565,340.839 340.761 C 340.183 341.417,339.318 341.543,334.539 341.682 C 325.604 341.940,325.856 341.575,325.678 354.526 C 325.507 366.978,327.306 365.600,311.219 365.600 C 292.300 365.600,293.600 364.152,293.600 385.226 L 293.600 400.000 295.000 400.000 L 296.400 400.000 296.400 386.000 C 296.400 376.933,296.541 372.000,296.800 372.000 C 297.020 372.000,297.200 371.753,297.200 371.451 C 297.200 371.149,297.859 370.339,298.664 369.651 L 300.129 368.400 312.291 368.400 C 325.100 368.400,325.324 368.371,327.073 366.483 C 328.357 365.098,328.379 364.933,328.497 355.600 L 328.600 347.400 330.000 346.000 L 331.400 344.600 335.600 344.489 C 341.411 344.335,342.557 343.895,343.952 341.290 C 344.593 340.091,344.593 76.309,343.952 75.110 C 342.557 72.505,341.411 72.065,335.600 71.911 L 331.400 71.800 330.000 70.400 L 328.600 69.000 328.489 64.800 C 328.279 56.900,327.500 56.121,319.600 55.911 L 315.400 55.800 314.000 54.400 L 312.600 53.000 312.497 44.800 C 312.368 34.616,312.211 34.012,309.290 32.448 C 308.088 31.805,140.131 31.832,139.022 32.476 " stroke="none" fill="#a49024" fill-rule="evenodd"></path><path id="path8" d="M102.800 3.167 C 102.800 4.908,102.975 6.393,103.188 6.467 C 104.423 6.891,103.818 12.982,102.400 14.400 L 101.000 15.800 87.968 16.000 L 74.937 16.200 73.568 17.569 L 72.200 18.938 72.000 75.969 L 71.800 133.000 70.400 134.392 L 69.000 135.785 63.969 135.992 L 58.938 136.200 57.569 137.569 L 56.200 138.938 56.200 164.200 L 56.200 189.462 57.569 190.831 L 58.938 192.200 63.969 192.408 L 69.000 192.615 70.400 194.008 L 71.800 195.400 71.904 279.800 C 71.990 349.391,71.915 364.270,71.479 364.600 C 71.188 364.820,70.831 365.319,70.684 365.709 C 70.538 366.099,70.099 366.538,69.709 366.684 C 69.319 366.831,68.820 367.175,68.600 367.450 C 68.333 367.783,66.656 367.991,63.568 368.075 L 58.936 368.200 57.568 369.568 L 56.200 370.936 56.075 375.568 C 55.991 378.656,55.783 380.333,55.450 380.600 C 55.175 380.820,54.831 381.319,54.684 381.709 C 54.538 382.099,54.099 382.538,53.709 382.684 C 53.319 382.831,52.820 383.180,52.600 383.460 C 52.303 383.838,49.972 384.000,43.568 384.085 L 34.937 384.200 33.568 385.568 L 32.200 386.936 32.073 393.468 C 31.949 399.845,31.966 400.000,32.773 400.000 C 33.572 400.000,33.600 399.798,33.600 394.031 L 33.600 388.062 34.831 386.831 L 36.062 385.600 44.431 385.600 C 49.034 385.600,52.800 385.456,52.800 385.280 C 52.800 385.105,53.440 384.729,54.223 384.446 C 55.229 384.083,55.844 383.502,56.323 382.466 C 56.695 381.660,57.135 380.940,57.300 380.867 C 57.465 380.793,57.600 378.782,57.600 376.397 C 57.600 370.190,58.193 369.600,64.431 369.600 C 66.834 369.600,68.800 369.456,68.800 369.280 C 68.800 369.105,69.440 368.729,70.223 368.446 C 71.229 368.083,71.844 367.502,72.323 366.466 C 72.695 365.660,73.135 364.940,73.300 364.867 C 73.705 364.687,73.686 195.600,73.280 195.600 C 73.105 195.600,72.729 194.960,72.446 194.177 C 72.083 193.171,71.502 192.556,70.466 192.077 C 69.660 191.705,68.940 191.265,68.867 191.100 C 68.793 190.935,66.782 190.800,64.397 190.800 C 60.089 190.800,60.054 190.792,58.831 189.569 L 57.600 188.338 57.600 164.200 L 57.600 140.062 58.831 138.831 C 60.055 137.607,60.085 137.600,64.431 137.600 C 66.834 137.600,68.800 137.456,68.800 137.280 C 68.800 137.105,69.440 136.729,70.223 136.446 C 71.229 136.083,71.844 135.502,72.323 134.466 C 72.695 133.660,73.135 132.940,73.300 132.867 C 73.465 132.793,73.600 107.382,73.600 76.397 L 73.600 20.062 74.831 18.831 L 76.062 17.600 88.431 17.600 C 95.234 17.600,100.800 17.456,100.800 17.280 C 100.800 17.105,101.440 16.729,102.223 16.446 C 103.229 16.083,103.844 15.502,104.323 14.466 C 104.695 13.660,105.135 12.940,105.300 12.867 C 105.465 12.793,105.600 9.868,105.600 6.367 L 105.600 0.000 104.200 0.000 L 102.800 0.000 102.800 3.167 M326.800 14.367 C 326.800 22.268,326.935 28.793,327.100 28.867 C 327.265 28.940,327.705 29.660,328.077 30.466 C 328.556 31.502,329.171 32.083,330.177 32.446 C 330.960 32.729,331.600 33.105,331.600 33.280 C 331.600 33.456,333.566 33.600,335.969 33.600 C 340.315 33.600,340.345 33.607,341.569 34.831 L 342.800 36.062 342.800 44.397 C 342.800 48.982,342.935 52.793,343.100 52.867 C 343.265 52.940,343.705 53.660,344.077 54.466 C 344.556 55.502,345.171 56.083,346.177 56.446 C 346.960 56.729,347.600 57.105,347.600 57.280 C 347.600 57.456,351.366 57.600,355.969 57.600 L 364.338 57.600 365.569 58.831 L 366.800 60.062 366.800 212.200 L 366.800 364.338 365.569 365.569 L 364.338 366.800 355.969 366.800 C 351.366 366.800,347.600 366.944,347.600 367.120 C 347.600 367.295,346.960 367.671,346.177 367.954 C 345.171 368.317,344.556 368.898,344.077 369.934 C 343.705 370.740,343.265 371.460,343.100 371.533 C 342.935 371.607,342.800 373.618,342.800 376.003 C 342.800 382.210,342.207 382.800,335.969 382.800 C 333.566 382.800,331.600 382.944,331.600 383.120 C 331.600 383.295,330.960 383.671,330.177 383.954 C 329.171 384.317,328.556 384.898,328.077 385.934 C 327.705 386.740,327.265 387.460,327.100 387.533 C 326.289 387.894,326.775 400.000,327.600 400.000 C 328.365 400.000,328.400 399.733,328.400 393.987 C 328.400 389.012,328.503 387.935,329.000 387.745 C 329.330 387.618,329.606 387.309,329.613 387.057 C 329.668 385.184,331.140 384.606,336.376 384.400 L 341.462 384.200 342.831 382.831 L 344.200 381.462 344.408 376.431 L 344.615 371.400 346.008 370.000 L 347.400 368.600 356.432 368.400 L 365.464 368.200 366.832 366.831 L 368.200 365.462 368.200 212.200 L 368.200 58.938 366.832 57.569 L 365.464 56.200 356.432 56.000 L 347.400 55.800 346.000 54.400 L 344.600 53.000 344.400 43.968 L 344.200 34.936 342.831 33.568 L 341.462 32.200 336.431 31.992 L 331.400 31.785 330.000 30.392 L 328.600 29.000 328.600 17.833 C 328.600 9.256,328.716 6.628,329.100 6.500 C 329.444 6.385,329.600 5.344,329.600 3.167 L 329.600 0.000 328.200 0.000 L 326.800 0.000 326.800 14.367 M139.022 32.476 C 136.159 34.136,136.031 34.642,135.903 44.800 L 135.800 53.000 134.400 54.400 L 133.000 55.800 120.000 56.019 C 112.850 56.139,106.969 56.274,106.931 56.319 C 106.800 56.472,104.400 58.861,104.307 58.931 C 104.256 58.969,104.121 75.650,104.007 96.000 L 103.800 133.000 102.400 134.400 L 101.000 135.800 96.800 135.911 C 90.989 136.065,89.843 136.505,88.448 139.110 C 87.815 140.293,87.815 188.107,88.448 189.290 C 89.843 191.895,90.989 192.335,96.800 192.489 L 101.000 192.600 102.400 194.000 L 103.800 195.400 103.903 288.036 L 104.005 380.672 102.503 382.236 L 101.000 383.800 96.186 384.000 L 91.372 384.200 89.786 385.786 L 88.200 387.371 88.072 393.686 L 87.945 400.000 89.372 400.000 L 90.800 400.000 90.800 394.200 C 90.800 386.590,90.478 386.932,97.861 386.718 C 104.035 386.540,105.261 386.171,106.073 384.248 C 106.854 382.398,106.854 194.002,106.073 192.152 C 105.261 190.229,104.035 189.860,97.861 189.682 C 89.915 189.452,90.800 192.646,90.800 164.200 C 90.800 135.754,89.915 138.948,97.861 138.718 C 101.306 138.619,103.799 138.360,104.456 138.035 C 106.676 136.935,106.591 138.439,106.708 97.892 C 106.813 61.444,106.838 60.362,107.588 59.612 C 108.316 58.884,109.144 58.833,121.880 58.720 C 140.042 58.559,138.532 59.711,138.722 45.874 C 138.843 37.088,138.913 36.287,139.626 35.574 C 140.843 34.357,307.557 34.357,308.774 35.574 C 309.487 36.287,309.557 37.088,309.678 45.874 C 309.856 58.825,309.604 58.460,318.539 58.718 C 325.796 58.928,325.472 58.604,325.682 65.861 C 325.925 74.273,326.127 74.475,334.539 74.718 C 339.318 74.857,340.183 74.983,340.839 75.639 C 342.035 76.835,342.035 339.565,340.839 340.761 C 340.183 341.417,339.318 341.543,334.539 341.682 C 325.604 341.940,325.856 341.575,325.678 354.526 C 325.507 366.978,327.306 365.600,311.219 365.600 C 292.300 365.600,293.600 364.152,293.600 385.226 L 293.600 400.000 295.000 400.000 L 296.400 400.000 296.400 386.000 C 296.400 376.933,296.541 372.000,296.800 372.000 C 297.020 372.000,297.200 371.753,297.200 371.451 C 297.200 371.149,297.859 370.339,298.664 369.651 L 300.129 368.400 312.291 368.400 C 325.100 368.400,325.324 368.371,327.073 366.483 C 328.357 365.098,328.379 364.933,328.497 355.600 L 328.600 347.400 330.000 346.000 L 331.400 344.600 335.600 344.489 C 341.411 344.335,342.557 343.895,343.952 341.290 C 344.593 340.091,344.593 76.309,343.952 75.110 C 342.557 72.505,341.411 72.065,335.600 71.911 L 331.400 71.800 330.000 70.400 L 328.600 69.000 328.489 64.800 C 328.279 56.900,327.500 56.121,319.600 55.911 L 315.400 55.800 314.000 54.400 L 312.600 53.000 312.497 44.800 C 312.368 34.616,312.211 34.012,309.290 32.448 C 308.088 31.805,140.131 31.832,139.022 32.476 " stroke="none" fill="#a49024" fill-rule="evenodd"></path></g></svg>