<svg id="svg" version="1.1" xmlns="http://www.w3.org/2000/svg" xmlns:xlink="http://www.w3.org/1999/xlink" width="400" height="400" viewBox="0, 0, 400,400"><g id="svgg"><path id="path0" d="M131.929 38.719 L 131.800 49.438 130.619 50.619 L 129.437 51.800 114.728 51.923 L 100.019 52.045 99.910 90.741 L 99.800 129.437 98.619 130.618 L 97.437 131.800 90.719 131.940 L 84.000 132.081 84.000 156.200 L 84.000 180.319 90.719 180.460 L 97.437 180.600 98.619 181.782 L 99.800 182.964 99.904 291.482 L 100.007 400.000 192.204 400.000 L 284.400 400.000 284.400 380.800 L 284.400 361.600 244.233 361.600 C 222.142 361.600,204.007 361.465,203.933 361.300 C 203.860 361.135,203.143 360.667,202.341 360.259 C 201.479 359.821,200.579 358.921,200.141 358.059 C 199.733 357.257,199.265 356.540,199.100 356.467 C 198.935 356.393,198.800 349.073,198.800 340.200 C 198.800 331.327,198.935 324.007,199.100 323.933 C 199.265 323.860,199.733 323.143,200.141 322.341 C 200.579 321.479,201.479 320.579,202.341 320.141 C 203.143 319.733,203.860 319.265,203.933 319.100 C 204.107 318.708,212.293 318.708,212.467 319.100 C 212.540 319.265,213.257 319.733,214.059 320.141 C 214.921 320.579,215.821 321.479,216.259 322.341 C 216.667 323.143,217.135 323.860,217.300 323.933 C 217.465 324.007,217.600 326.040,217.600 328.452 C 217.600 332.574,217.659 332.895,218.582 333.818 L 219.564 334.800 251.982 334.800 C 269.812 334.800,284.400 334.944,284.400 335.120 C 284.400 335.295,285.030 335.667,285.800 335.945 C 286.570 336.224,287.378 336.786,287.597 337.195 C 287.816 337.603,288.311 338.253,288.697 338.639 C 289.315 339.257,289.415 340.370,289.522 347.871 L 289.644 356.400 302.993 356.400 L 316.342 356.400 316.471 345.681 L 316.600 334.962 317.781 333.781 L 318.963 332.600 325.681 332.460 L 332.400 332.319 332.400 200.200 L 332.400 68.081 325.681 67.940 L 318.963 67.800 317.781 66.619 L 316.600 65.437 316.460 58.758 L 316.321 52.079 309.594 51.940 C 302.235 51.787,301.200 51.417,301.200 48.939 C 301.200 48.422,301.020 48.000,300.800 48.000 C 300.544 48.000,300.400 44.400,300.400 38.000 L 300.400 28.000 216.229 28.000 L 132.058 28.000 131.929 38.719 M229.931 80.266 C 232.177 81.239,232.800 82.961,232.800 88.200 C 232.800 95.570,231.596 96.800,224.384 96.800 L 220.373 96.800 218.987 98.187 L 217.600 99.573 217.600 103.987 C 217.600 106.662,217.442 108.400,217.200 108.400 C 216.980 108.400,216.800 108.739,216.800 109.154 C 216.800 110.303,215.525 114.000,215.129 114.000 C 214.937 114.000,214.609 114.450,214.400 115.000 C 214.191 115.550,213.745 116.000,213.410 116.000 C 212.873 116.000,212.800 117.971,212.800 132.400 L 212.800 148.800 200.200 148.800 L 187.600 148.800 187.600 132.400 C 187.600 117.971,187.527 116.000,186.990 116.000 C 186.655 116.000,186.209 115.550,186.000 115.000 C 185.791 114.450,185.463 114.000,185.271 114.000 C 184.875 114.000,183.600 110.303,183.600 109.154 C 183.600 108.739,183.420 108.400,183.200 108.400 C 182.948 108.400,182.800 105.667,182.800 101.000 C 182.800 96.333,182.948 93.600,183.200 93.600 C 183.444 93.600,183.600 91.734,183.600 88.803 C 183.600 83.010,184.163 81.277,186.366 80.286 C 188.574 79.293,227.644 79.275,229.931 80.266 M317.931 80.266 C 320.177 81.239,320.800 82.961,320.800 88.200 C 320.800 95.570,319.596 96.800,312.384 96.800 L 308.373 96.800 306.987 98.187 L 305.600 99.573 305.600 103.987 C 305.600 106.662,305.442 108.400,305.200 108.400 C 304.980 108.400,304.800 108.739,304.800 109.154 C 304.800 110.452,303.477 114.072,302.926 114.284 C 302.637 114.395,302.400 114.742,302.400 115.055 C 302.400 115.369,302.130 115.729,301.800 115.855 C 301.280 116.055,301.200 118.272,301.200 132.443 L 301.200 148.800 288.400 148.800 L 275.600 148.800 275.600 132.400 C 275.600 118.324,275.518 116.000,275.019 116.000 C 274.699 116.000,274.123 115.325,273.740 114.500 C 273.356 113.675,272.879 112.888,272.680 112.751 C 270.849 111.491,270.686 83.550,272.502 82.222 C 272.886 81.941,273.200 81.529,273.200 81.306 C 273.200 79.475,313.921 78.529,317.931 80.266 M268.400 183.120 C 268.400 183.295,269.030 183.667,269.800 183.945 C 270.570 184.224,271.378 184.786,271.597 185.195 C 271.816 185.603,272.311 186.254,272.697 186.640 C 273.741 187.683,273.741 196.717,272.697 197.760 C 272.311 198.146,271.816 198.797,271.597 199.205 C 271.378 199.614,270.570 200.176,269.800 200.455 C 269.030 200.733,268.400 201.105,268.400 201.280 C 268.400 201.686,236.113 201.705,235.933 201.300 C 235.860 201.135,235.143 200.667,234.341 200.259 C 233.479 199.821,232.579 198.921,232.141 198.059 C 231.733 197.257,231.265 196.540,231.100 196.467 C 230.935 196.393,230.800 194.473,230.800 192.200 C 230.800 189.927,230.935 188.007,231.100 187.933 C 231.265 187.860,231.733 187.143,232.141 186.341 C 232.579 185.479,233.479 184.579,234.341 184.141 C 235.143 183.733,235.860 183.265,235.933 183.100 C 236.113 182.695,268.400 182.714,268.400 183.120 M124.467 271.100 C 124.540 271.265,125.257 271.733,126.059 272.141 C 126.921 272.579,127.821 273.479,128.259 274.341 C 128.667 275.143,129.135 275.860,129.300 275.933 C 129.465 276.007,129.600 278.152,129.600 280.702 C 129.600 287.452,127.672 286.800,147.629 286.800 C 156.816 286.800,164.393 286.935,164.467 287.100 C 164.540 287.265,165.257 287.733,166.059 288.141 C 166.921 288.579,167.821 289.479,168.259 290.341 C 168.667 291.143,169.135 291.860,169.300 291.933 C 169.465 292.007,169.600 293.927,169.600 296.200 C 169.600 298.473,169.465 300.393,169.300 300.467 C 169.135 300.540,168.667 301.257,168.259 302.059 C 167.821 302.921,166.921 303.821,166.059 304.259 C 165.257 304.667,164.540 305.135,164.467 305.300 C 164.393 305.465,157.073 305.600,148.200 305.600 C 139.327 305.600,132.007 305.465,131.933 305.300 C 131.860 305.135,131.143 304.667,130.341 304.259 C 129.479 303.821,128.579 302.921,128.141 302.059 C 127.733 301.257,127.265 300.540,127.100 300.467 C 126.935 300.393,126.800 298.248,126.800 295.698 C 126.800 289.489,126.909 289.600,120.771 289.600 C 118.184 289.600,116.007 289.465,115.933 289.300 C 115.860 289.135,115.143 288.667,114.341 288.259 C 113.479 287.821,112.579 286.921,112.141 286.059 C 111.733 285.257,111.265 284.540,111.100 284.467 C 110.935 284.393,110.800 282.473,110.800 280.200 C 110.800 277.927,110.935 276.007,111.100 275.933 C 111.265 275.860,111.733 275.143,112.141 274.341 C 112.579 273.479,113.479 272.579,114.341 272.141 C 115.143 271.733,115.860 271.265,115.933 271.100 C 116.007 270.935,117.927 270.800,120.200 270.800 C 122.473 270.800,124.393 270.935,124.467 271.100 " stroke="none" fill="#fcc494" fill-rule="evenodd"></path><path id="path1" d="M0.000 200.000 L 0.000 400.000 30.800 400.000 L 61.600 400.000 61.600 294.200 C 61.600 188.933,61.596 188.396,60.800 187.600 C 60.098 186.898,59.467 186.800,55.650 186.800 C 45.116 186.800,45.600 188.275,45.600 156.200 C 45.600 124.125,45.116 125.600,55.650 125.600 C 62.420 125.600,61.600 133.583,61.600 67.650 C 61.600 19.088,61.681 11.070,62.188 9.634 C 63.542 5.797,64.396 5.600,79.650 5.600 C 93.957 5.600,93.600 5.692,93.600 2.000 L 93.600 0.000 46.800 0.000 L 0.000 0.000 0.000 200.000 M322.800 10.000 C 322.800 22.370,322.405 21.600,328.750 21.600 C 338.084 21.600,338.800 22.601,338.800 35.650 C 338.800 46.564,337.836 45.600,348.750 45.600 C 359.550 45.600,360.935 46.015,362.212 49.634 C 363.103 52.159,363.103 356.241,362.212 358.766 C 360.935 362.385,359.550 362.800,348.750 362.800 C 338.280 362.800,338.800 362.489,338.800 368.750 C 338.800 378.559,338.368 378.800,320.750 378.800 C 305.079 378.800,306.800 377.393,306.800 390.200 L 306.800 400.000 353.400 400.000 L 400.000 400.000 400.000 200.000 L 400.000 0.000 361.400 0.000 L 322.800 0.000 322.800 10.000 " stroke="none" fill="#fcfcfc" fill-rule="evenodd"></path><path id="path2" d="M130.500 26.620 L 128.800 28.381 128.800 36.758 C 128.800 49.499,129.731 48.800,112.757 48.800 L 100.379 48.800 98.589 50.589 L 96.800 52.379 96.800 88.757 C 96.800 122.012,96.743 125.235,96.132 126.299 C 94.954 128.351,93.631 128.800,88.757 128.800 L 84.379 128.800 82.589 130.589 L 80.800 132.379 80.800 156.200 L 80.800 180.021 82.589 181.811 L 84.379 183.600 88.757 183.600 C 93.631 183.600,94.954 184.049,96.132 186.101 C 96.751 187.180,96.800 194.991,96.800 293.632 L 96.800 400.000 98.404 400.000 L 100.007 400.000 99.904 291.482 L 99.800 182.964 98.619 181.782 L 97.437 180.600 90.719 180.460 L 84.000 180.319 84.000 156.200 L 84.000 132.081 90.719 131.940 L 97.437 131.800 98.619 130.618 L 99.800 129.437 99.910 90.741 L 100.019 52.045 114.728 51.923 L 129.437 51.800 130.619 50.619 L 131.800 49.438 131.929 38.719 L 132.058 28.000 216.229 28.000 L 300.400 28.000 300.400 38.000 C 300.400 44.400,300.544 48.000,300.800 48.000 C 301.020 48.000,301.200 48.422,301.200 48.939 C 301.200 51.417,302.235 51.787,309.594 51.940 L 316.321 52.079 316.460 58.758 L 316.600 65.437 317.781 66.619 L 318.963 67.800 325.681 67.940 L 332.400 68.081 332.400 200.200 L 332.400 332.319 325.681 332.460 L 318.963 332.600 317.781 333.781 L 316.600 334.962 316.471 345.681 L 316.342 356.400 302.993 356.400 L 289.644 356.400 289.522 347.871 C 289.415 340.370,289.315 339.257,288.697 338.639 C 288.311 338.253,287.816 337.603,287.597 337.195 C 287.378 336.786,286.570 336.224,285.800 335.945 C 285.030 335.667,284.400 335.295,284.400 335.120 C 284.400 334.944,269.812 334.800,251.982 334.800 L 219.564 334.800 218.582 333.818 C 217.659 332.895,217.600 332.574,217.600 328.452 C 217.600 326.040,217.465 324.007,217.300 323.933 C 217.135 323.860,216.667 323.143,216.259 322.341 C 215.821 321.479,214.921 320.579,214.059 320.141 C 213.257 319.733,212.540 319.265,212.467 319.100 C 212.293 318.708,204.107 318.708,203.933 319.100 C 203.860 319.265,203.143 319.733,202.341 320.141 C 201.479 320.579,200.579 321.479,200.141 322.341 C 199.733 323.143,199.265 323.860,199.100 323.933 C 198.708 324.108,198.708 356.292,199.100 356.467 C 199.265 356.540,199.733 357.257,200.141 358.059 C 200.579 358.921,201.479 359.821,202.341 360.259 C 203.143 360.667,203.860 361.135,203.933 361.300 C 204.007 361.465,222.142 361.600,244.233 361.600 L 284.400 361.600 284.400 380.800 L 284.400 400.000 286.000 400.000 L 287.600 400.000 287.600 381.422 L 287.600 362.845 288.994 361.322 L 290.388 359.800 303.221 359.684 L 316.053 359.568 317.827 357.794 L 319.600 356.021 319.600 347.643 C 319.600 336.080,319.921 335.600,327.643 335.600 L 332.021 335.600 333.811 333.811 L 335.600 332.021 335.600 200.200 L 335.600 68.379 333.811 66.589 L 332.021 64.800 327.643 64.800 C 320.616 64.800,319.600 63.784,319.600 56.757 L 319.600 52.379 317.811 50.589 L 316.021 48.800 311.643 48.800 C 303.912 48.800,303.602 48.333,303.593 36.668 L 303.587 28.200 301.826 26.500 L 300.066 24.800 216.133 24.829 L 132.200 24.858 130.500 26.620 M186.366 80.286 C 184.163 81.277,183.600 83.010,183.600 88.803 C 183.600 91.734,183.444 93.600,183.200 93.600 C 182.948 93.600,182.800 96.333,182.800 101.000 C 182.800 105.667,182.948 108.400,183.200 108.400 C 183.420 108.400,183.600 108.739,183.600 109.154 C 183.600 110.303,184.875 114.000,185.271 114.000 C 185.463 114.000,185.791 114.450,186.000 115.000 C 186.209 115.550,186.655 116.000,186.990 116.000 C 187.527 116.000,187.600 117.971,187.600 132.400 L 187.600 148.800 200.200 148.800 L 212.800 148.800 212.800 132.400 C 212.800 117.971,212.873 116.000,213.410 116.000 C 213.745 116.000,214.191 115.550,214.400 115.000 C 214.609 114.450,214.937 114.000,215.129 114.000 C 215.525 114.000,216.800 110.303,216.800 109.154 C 216.800 108.739,216.980 108.400,217.200 108.400 C 217.442 108.400,217.600 106.662,217.600 103.987 L 217.600 99.573 218.987 98.187 L 220.373 96.800 224.384 96.800 C 231.596 96.800,232.800 95.570,232.800 88.200 C 232.800 82.961,232.177 81.239,229.931 80.266 C 227.644 79.275,188.574 79.293,186.366 80.286 M274.500 80.259 C 273.785 80.612,273.200 81.083,273.200 81.306 C 273.200 81.529,272.886 81.941,272.502 82.222 C 270.686 83.550,270.849 111.491,272.680 112.751 C 272.879 112.888,273.356 113.675,273.740 114.500 C 274.123 115.325,274.699 116.000,275.019 116.000 C 275.518 116.000,275.600 118.324,275.600 132.400 L 275.600 148.800 288.400 148.800 L 301.200 148.800 301.200 132.443 C 301.200 118.272,301.280 116.055,301.800 115.855 C 302.130 115.729,302.400 115.369,302.400 115.055 C 302.400 114.742,302.637 114.395,302.926 114.284 C 303.477 114.072,304.800 110.452,304.800 109.154 C 304.800 108.739,304.980 108.400,305.200 108.400 C 305.442 108.400,305.600 106.662,305.600 103.987 L 305.600 99.573 306.987 98.187 L 308.373 96.800 312.384 96.800 C 319.596 96.800,320.800 95.570,320.800 88.200 C 320.800 82.961,320.177 81.239,317.931 80.266 C 315.647 79.276,276.506 79.270,274.500 80.259 M235.933 183.100 C 235.860 183.265,235.143 183.733,234.341 184.141 C 233.479 184.579,232.579 185.479,232.141 186.341 C 231.733 187.143,231.265 187.860,231.100 187.933 C 230.935 188.007,230.800 189.927,230.800 192.200 C 230.800 194.473,230.935 196.393,231.100 196.467 C 231.265 196.540,231.733 197.257,232.141 198.059 C 232.579 198.921,233.479 199.821,234.341 200.259 C 235.143 200.667,235.860 201.135,235.933 201.300 C 236.113 201.705,268.400 201.686,268.400 201.280 C 268.400 201.105,269.030 200.733,269.800 200.455 C 270.570 200.176,271.378 199.614,271.597 199.205 C 271.816 198.797,272.311 198.146,272.697 197.760 C 273.741 196.717,273.741 187.683,272.697 186.640 C 272.311 186.254,271.816 185.603,271.597 185.195 C 271.378 184.786,270.570 184.224,269.800 183.945 C 269.030 183.667,268.400 183.295,268.400 183.120 C 268.400 182.714,236.113 182.695,235.933 183.100 M115.933 271.100 C 115.860 271.265,115.143 271.733,114.341 272.141 C 113.479 272.579,112.579 273.479,112.141 274.341 C 111.733 275.143,111.265 275.860,111.100 275.933 C 110.935 276.007,110.800 277.927,110.800 280.200 C 110.800 282.473,110.935 284.393,111.100 284.467 C 111.265 284.540,111.733 285.257,112.141 286.059 C 112.579 286.921,113.479 287.821,114.341 288.259 C 115.143 288.667,115.860 289.135,115.933 289.300 C 116.007 289.465,118.184 289.600,120.771 289.600 C 126.909 289.600,126.800 289.489,126.800 295.698 C 126.800 298.248,126.935 300.393,127.100 300.467 C 127.265 300.540,127.733 301.257,128.141 302.059 C 128.579 302.921,129.479 303.821,130.341 304.259 C 131.143 304.667,131.860 305.135,131.933 305.300 C 132.007 305.465,139.327 305.600,148.200 305.600 C 157.073 305.600,164.393 305.465,164.467 305.300 C 164.540 305.135,165.257 304.667,166.059 304.259 C 166.921 303.821,167.821 302.921,168.259 302.059 C 168.667 301.257,169.135 300.540,169.300 300.467 C 169.465 300.393,169.600 298.473,169.600 296.200 C 169.600 293.927,169.465 292.007,169.300 291.933 C 169.135 291.860,168.667 291.143,168.259 290.341 C 167.821 289.479,166.921 288.579,166.059 288.141 C 165.257 287.733,164.540 287.265,164.467 287.100 C 164.393 286.935,156.816 286.800,147.629 286.800 C 127.672 286.800,129.600 287.452,129.600 280.702 C 129.600 278.152,129.465 276.007,129.300 275.933 C 129.135 275.860,128.667 275.143,128.259 274.341 C 127.821 273.479,126.921 272.579,126.059 272.141 C 125.257 271.733,124.540 271.265,124.467 271.100 C 124.393 270.935,122.473 270.800,120.200 270.800 C 117.927 270.800,116.007 270.935,115.933 271.100 " stroke="none" fill="#e4b48c" fill-rule="evenodd"></path><path id="path3" d="M98.398 2.100 C 98.390 9.661,96.786 10.395,80.256 10.398 C 68.420 10.400,68.304 10.408,67.363 11.300 L 66.414 12.200 66.405 68.200 C 66.399 105.366,66.257 124.699,65.984 125.683 C 65.020 129.154,62.457 130.390,56.200 130.405 C 52.516 130.413,52.129 130.489,51.300 131.363 L 50.400 132.313 50.400 156.200 L 50.400 180.087 51.300 181.037 C 52.129 181.911,52.516 181.987,56.200 181.995 C 62.457 182.010,65.020 183.246,65.984 186.717 C 66.261 187.717,66.396 222.676,66.398 294.100 L 66.400 400.000 80.400 400.000 L 94.400 400.000 94.400 293.876 C 94.400 202.949,94.319 187.642,93.833 186.976 C 93.339 186.300,92.618 186.174,88.218 186.000 C 84.950 185.871,83.067 185.633,82.877 185.325 C 82.716 185.064,82.089 184.662,81.485 184.432 C 80.880 184.202,80.198 183.520,79.968 182.915 C 79.738 182.311,79.336 181.684,79.075 181.523 C 78.389 181.099,78.389 131.301,79.075 130.877 C 79.336 130.716,79.738 130.089,79.968 129.485 C 80.198 128.880,80.880 128.198,81.485 127.968 C 82.089 127.738,82.716 127.336,82.877 127.075 C 83.066 126.768,84.938 126.529,88.167 126.400 C 91.497 126.267,93.336 126.027,93.682 125.680 C 94.096 125.265,94.240 117.721,94.400 88.165 C 94.551 60.224,94.716 51.099,95.075 50.877 C 95.336 50.716,95.738 50.089,95.968 49.485 C 96.198 48.880,96.880 48.198,97.485 47.968 C 98.089 47.738,98.716 47.336,98.877 47.075 C 99.089 46.731,102.753 46.545,112.166 46.400 C 122.063 46.248,125.285 46.076,125.681 45.681 C 126.063 45.299,126.253 42.786,126.400 36.166 C 126.541 29.843,126.741 27.082,127.075 26.877 C 127.336 26.716,127.738 26.089,127.968 25.485 C 128.198 24.880,128.880 24.198,129.485 23.968 C 130.089 23.738,130.716 23.336,130.877 23.075 C 131.304 22.385,301.096 22.385,301.523 23.075 C 301.684 23.336,302.311 23.738,302.915 23.968 C 303.520 24.198,304.202 24.880,304.432 25.485 C 304.662 26.089,305.064 26.716,305.325 26.877 C 305.659 27.082,305.859 29.843,306.000 36.166 C 306.241 46.994,305.720 46.139,312.233 46.400 C 315.462 46.529,317.334 46.768,317.523 47.075 C 317.684 47.336,318.311 47.738,318.915 47.968 C 319.520 48.198,320.202 48.880,320.432 49.485 C 320.662 50.089,321.064 50.716,321.325 50.877 C 321.632 51.066,321.871 52.938,322.000 56.167 C 322.251 62.425,321.975 62.149,328.233 62.400 C 331.462 62.529,333.334 62.768,333.523 63.075 C 333.684 63.336,334.311 63.738,334.915 63.968 C 335.520 64.198,336.202 64.880,336.432 65.485 C 336.662 66.089,337.064 66.716,337.325 66.877 C 338.016 67.304,338.016 333.096,337.325 333.523 C 337.064 333.684,336.662 334.311,336.432 334.915 C 336.202 335.520,335.520 336.202,334.915 336.432 C 334.311 336.662,333.684 337.064,333.523 337.325 C 333.334 337.632,331.462 337.871,328.233 338.000 C 321.720 338.261,322.241 337.406,322.000 348.234 C 321.859 354.557,321.659 357.318,321.325 357.523 C 321.064 357.684,320.662 358.311,320.432 358.915 C 320.202 359.520,319.520 360.202,318.915 360.432 C 318.311 360.662,317.684 361.064,317.523 361.325 C 317.309 361.672,313.781 361.831,304.474 361.916 C 292.357 362.026,291.674 362.072,290.859 362.831 C 290.005 363.627,290.000 363.733,290.000 381.816 L 290.000 400.000 295.976 400.000 L 301.952 400.000 302.076 389.133 C 302.170 380.884,302.320 378.226,302.700 378.100 C 302.975 378.008,303.206 377.723,303.213 377.467 C 303.290 374.598,306.187 374.006,320.200 373.995 L 332.200 373.986 333.100 373.037 C 333.908 372.184,334.000 371.684,334.002 368.144 C 334.007 358.990,335.378 358.010,348.200 357.995 C 356.095 357.986,356.212 357.974,357.100 357.037 L 358.000 356.087 358.000 204.200 L 358.000 52.313 357.100 51.363 C 356.212 50.426,356.095 50.414,348.200 50.405 C 334.445 50.389,334.006 49.952,334.002 36.256 C 333.999 26.163,334.150 26.418,328.200 26.405 C 318.681 26.383,318.006 25.303,318.002 10.100 L 318.000 0.000 208.200 0.000 L 98.400 0.000 98.398 2.100 " stroke="none" fill="#040404" fill-rule="evenodd"></path><path id="path4" d="M96.000 2.111 C 96.000 3.603,95.795 4.416,95.300 4.883 C 94.915 5.246,94.377 5.781,94.105 6.072 C 92.239 8.062,92.984 7.959,79.551 8.084 L 66.937 8.200 65.569 9.569 L 64.200 10.938 64.000 67.579 C 63.787 127.807,63.898 124.436,62.081 126.119 C 61.795 126.384,61.255 126.899,60.881 127.265 C 60.345 127.788,59.216 127.958,55.568 128.065 L 50.936 128.200 49.568 129.569 L 48.200 130.938 48.200 156.200 L 48.200 181.462 49.568 182.831 L 50.936 184.200 55.568 184.336 C 60.279 184.475,60.403 184.513,62.105 186.328 C 62.377 186.619,62.915 187.154,63.300 187.517 C 63.963 188.143,64.000 193.740,64.000 294.089 L 64.000 400.000 65.200 400.000 L 66.400 400.000 66.398 294.100 C 66.396 222.676,66.261 187.717,65.984 186.717 C 65.020 183.246,62.457 182.010,56.200 181.995 C 52.516 181.987,52.129 181.911,51.300 181.037 L 50.400 180.087 50.400 156.200 L 50.400 132.313 51.300 131.363 C 52.129 130.489,52.516 130.413,56.200 130.405 C 62.457 130.390,65.020 129.154,65.984 125.683 C 66.257 124.699,66.399 105.366,66.405 68.200 L 66.414 12.200 67.363 11.300 C 68.304 10.408,68.420 10.400,80.256 10.398 C 93.200 10.395,94.508 10.231,96.369 8.369 C 98.738 6.001,99.333 0.000,97.200 0.000 C 96.018 0.000,96.000 0.032,96.000 2.111 M318.002 10.100 C 318.006 25.303,318.681 26.383,328.200 26.405 C 334.150 26.418,333.999 26.163,334.002 36.256 C 334.006 49.952,334.445 50.389,348.200 50.405 C 356.095 50.414,356.212 50.426,357.100 51.363 L 358.000 52.313 357.993 204.256 L 357.986 356.200 357.037 357.100 C 356.118 357.971,355.832 358.000,348.144 358.002 C 335.373 358.006,334.016 358.984,333.995 368.200 C 333.981 374.362,334.848 373.999,320.144 374.002 C 306.192 374.005,303.290 374.598,303.213 377.467 C 303.206 377.723,302.975 378.008,302.700 378.100 C 302.320 378.226,302.170 380.884,302.076 389.133 L 301.952 400.000 303.176 400.000 L 304.400 400.000 304.400 390.089 C 304.400 381.168,304.470 380.112,305.100 379.517 C 305.485 379.154,306.023 378.619,306.295 378.328 C 308.161 376.338,307.416 376.441,320.849 376.316 L 333.463 376.200 334.831 374.832 L 336.200 373.464 336.335 368.832 C 336.442 365.184,336.612 364.055,337.135 363.519 C 337.501 363.145,338.023 362.605,338.295 362.319 C 340.142 360.383,339.776 360.452,348.844 360.323 L 357.463 360.200 358.832 358.831 L 360.200 357.462 360.200 204.200 L 360.200 50.938 358.832 49.569 L 357.463 48.200 348.844 48.077 C 339.776 47.948,340.142 48.017,338.295 46.081 C 338.023 45.795,337.495 45.251,337.123 44.872 C 336.537 44.276,336.429 43.017,336.323 35.560 L 336.200 26.937 334.832 25.568 L 333.464 24.200 328.832 24.064 C 324.121 23.925,323.997 23.887,322.295 22.072 C 322.023 21.781,321.485 21.246,321.100 20.883 C 320.469 20.288,320.400 19.222,320.400 10.111 L 320.400 0.000 319.200 0.000 L 318.000 0.000 318.002 10.100 M131.500 22.674 C 131.115 22.776,130.800 23.008,130.800 23.190 C 130.800 23.373,130.259 23.710,129.598 23.941 C 128.867 24.196,128.230 24.796,127.973 25.472 C 127.740 26.083,127.336 26.716,127.075 26.877 C 126.741 27.082,126.541 29.843,126.400 36.166 C 126.253 42.786,126.063 45.299,125.681 45.681 C 125.285 46.076,122.063 46.248,112.166 46.400 C 102.753 46.545,99.089 46.731,98.877 47.075 C 98.716 47.336,98.089 47.738,97.485 47.968 C 96.880 48.198,96.198 48.880,95.968 49.485 C 95.738 50.089,95.336 50.716,95.075 50.877 C 94.716 51.099,94.551 60.224,94.400 88.165 C 94.240 117.721,94.096 125.265,93.682 125.680 C 93.336 126.027,91.497 126.267,88.167 126.400 C 84.938 126.529,83.066 126.768,82.877 127.075 C 82.716 127.336,82.089 127.738,81.485 127.968 C 80.880 128.198,80.198 128.880,79.968 129.485 C 79.738 130.089,79.336 130.716,79.075 130.877 C 78.389 131.301,78.389 181.099,79.075 181.523 C 79.336 181.684,79.738 182.311,79.968 182.915 C 80.198 183.520,80.880 184.202,81.485 184.432 C 82.089 184.662,82.716 185.064,82.877 185.325 C 83.067 185.633,84.950 185.871,88.218 186.000 C 92.618 186.174,93.339 186.300,93.833 186.976 C 94.319 187.642,94.400 202.949,94.400 293.876 L 94.400 400.000 95.600 400.000 L 96.800 400.000 96.800 293.632 C 96.800 194.991,96.751 187.180,96.132 186.101 C 94.954 184.049,93.631 183.600,88.757 183.600 L 84.379 183.600 82.589 181.811 L 80.800 180.021 80.800 156.200 L 80.800 132.379 82.589 130.589 L 84.379 128.800 88.757 128.800 C 93.631 128.800,94.954 128.351,96.132 126.299 C 96.743 125.235,96.800 122.012,96.800 88.757 L 96.800 52.379 98.589 50.589 L 100.379 48.800 112.757 48.800 C 129.731 48.800,128.800 49.499,128.800 36.757 L 128.800 28.379 130.589 26.589 L 132.379 24.800 216.222 24.800 L 300.066 24.800 301.826 26.500 L 303.587 28.200 303.593 36.668 C 303.602 48.333,303.912 48.800,311.643 48.800 L 316.021 48.800 317.811 50.589 L 319.600 52.379 319.600 56.757 C 319.600 63.784,320.616 64.800,327.643 64.800 L 332.021 64.800 333.811 66.589 L 335.600 68.379 335.600 200.200 L 335.600 332.021 333.811 333.811 L 332.021 335.600 327.643 335.600 C 319.921 335.600,319.600 336.080,319.600 347.643 L 319.600 356.021 317.827 357.794 L 316.053 359.568 303.221 359.684 L 290.388 359.800 288.994 361.322 L 287.600 362.845 287.600 381.422 L 287.600 400.000 288.800 400.000 L 290.000 400.000 290.000 381.816 C 290.000 363.733,290.005 363.627,290.859 362.831 C 291.674 362.072,292.357 362.026,304.474 361.916 C 313.781 361.831,317.309 361.672,317.523 361.325 C 317.684 361.064,318.311 360.662,318.915 360.432 C 319.520 360.202,320.202 359.520,320.432 358.915 C 320.662 358.311,321.064 357.684,321.325 357.523 C 321.659 357.318,321.859 354.557,322.000 348.234 C 322.241 337.406,321.720 338.261,328.233 338.000 C 331.462 337.871,333.334 337.632,333.523 337.325 C 333.684 337.064,334.311 336.662,334.915 336.432 C 335.520 336.202,336.202 335.520,336.432 334.915 C 336.662 334.311,337.064 333.684,337.325 333.523 C 338.016 333.096,338.016 67.304,337.325 66.877 C 337.064 66.716,336.662 66.089,336.432 65.485 C 336.202 64.880,335.520 64.198,334.915 63.968 C 334.311 63.738,333.684 63.336,333.523 63.075 C 333.334 62.768,331.462 62.529,328.233 62.400 C 321.975 62.149,322.251 62.425,322.000 56.167 C 321.871 52.938,321.632 51.066,321.325 50.877 C 321.064 50.716,320.662 50.089,320.432 49.485 C 320.202 48.880,319.520 48.198,318.915 47.968 C 318.311 47.738,317.684 47.336,317.523 47.075 C 317.334 46.768,315.462 46.529,312.233 46.400 C 305.720 46.139,306.241 46.994,306.000 36.166 C 305.859 29.843,305.659 27.082,305.325 26.877 C 305.064 26.716,304.662 26.089,304.432 25.485 C 304.202 24.880,303.520 24.198,302.915 23.968 C 302.311 23.738,301.684 23.336,301.523 23.075 C 301.234 22.608,133.255 22.212,131.500 22.674 " stroke="none" fill="#3c8480" fill-rule="evenodd"></path><path id="path5" d="M93.600 2.000 C 93.600 5.692,93.957 5.600,79.650 5.600 C 64.396 5.600,63.542 5.797,62.188 9.634 C 61.681 11.070,61.600 19.088,61.600 67.650 C 61.600 133.583,62.420 125.600,55.650 125.600 C 45.116 125.600,45.600 124.125,45.600 156.200 C 45.600 188.275,45.116 186.800,55.650 186.800 C 59.467 186.800,60.098 186.898,60.800 187.600 C 61.596 188.396,61.600 188.933,61.600 294.200 L 61.600 400.000 62.800 400.000 L 64.000 400.000 64.000 294.089 C 64.000 193.740,63.963 188.143,63.300 187.517 C 62.915 187.154,62.377 186.619,62.105 186.328 C 60.403 184.513,60.279 184.475,55.568 184.336 L 50.936 184.200 49.568 182.831 L 48.200 181.462 48.200 156.200 L 48.200 130.938 49.568 129.569 L 50.936 128.200 55.568 128.065 C 59.216 127.958,60.345 127.788,60.881 127.265 C 61.255 126.899,61.795 126.384,62.081 126.119 C 63.898 124.436,63.787 127.807,64.000 67.579 L 64.200 10.938 65.569 9.569 L 66.937 8.200 79.551 8.084 C 92.984 7.959,92.239 8.062,94.105 6.072 C 94.377 5.781,94.915 5.246,95.300 4.883 C 96.647 3.611,96.277 0.000,94.800 0.000 C 93.627 0.000,93.600 0.044,93.600 2.000 M320.400 10.111 C 320.400 19.222,320.469 20.288,321.100 20.883 C 321.485 21.246,322.023 21.781,322.295 22.072 C 323.997 23.887,324.121 23.925,328.832 24.064 L 333.464 24.200 334.832 25.568 L 336.200 26.937 336.323 35.560 C 336.429 43.017,336.537 44.276,337.123 44.872 C 337.495 45.251,338.023 45.795,338.295 46.081 C 340.142 48.017,339.776 47.948,348.844 48.077 L 357.463 48.200 358.832 49.569 L 360.200 50.938 360.200 204.200 L 360.200 357.462 358.832 358.831 L 357.463 360.200 348.844 360.323 C 339.776 360.452,340.142 360.383,338.295 362.319 C 338.023 362.605,337.501 363.145,337.135 363.519 C 336.612 364.055,336.442 365.184,336.335 368.832 L 336.200 373.464 334.831 374.832 L 333.463 376.200 320.849 376.316 C 307.416 376.441,308.161 376.338,306.295 378.328 C 306.023 378.619,305.485 379.154,305.100 379.517 C 304.470 380.112,304.400 381.168,304.400 390.089 L 304.400 400.000 305.600 400.000 L 306.800 400.000 306.800 390.200 C 306.800 377.393,305.079 378.800,320.750 378.800 C 338.368 378.800,338.800 378.559,338.800 368.750 C 338.800 362.489,338.280 362.800,348.750 362.800 C 359.550 362.800,360.935 362.385,362.212 358.766 C 363.103 356.241,363.103 52.159,362.212 49.634 C 360.935 46.015,359.550 45.600,348.750 45.600 C 337.836 45.600,338.800 46.564,338.800 35.650 C 338.800 22.601,338.084 21.600,328.750 21.600 C 322.405 21.600,322.800 22.370,322.800 10.000 L 322.800 0.000 321.600 0.000 L 320.400 0.000 320.400 10.111 " stroke="none" fill="#bcdc98" fill-rule="evenodd"></path><path id="path6" d="M93.600 2.000 C 93.600 5.692,93.957 5.600,79.650 5.600 C 64.396 5.600,63.542 5.797,62.188 9.634 C 61.681 11.070,61.600 19.088,61.600 67.650 C 61.600 133.583,62.420 125.600,55.650 125.600 C 45.116 125.600,45.600 124.125,45.600 156.200 C 45.600 188.275,45.116 186.800,55.650 186.800 C 59.467 186.800,60.098 186.898,60.800 187.600 C 61.596 188.396,61.600 188.933,61.600 294.200 L 61.600 400.000 62.800 400.000 L 64.000 400.000 64.000 294.089 C 64.000 193.740,63.963 188.143,63.300 187.517 C 62.915 187.154,62.377 186.619,62.105 186.328 C 60.403 184.513,60.279 184.475,55.568 184.336 L 50.936 184.200 49.568 182.831 L 48.200 181.462 48.200 156.200 L 48.200 130.938 49.568 129.569 L 50.936 128.200 55.568 128.065 C 59.216 127.958,60.345 127.788,60.881 127.265 C 61.255 126.899,61.795 126.384,62.081 126.119 C 63.898 124.436,63.787 127.807,64.000 67.579 L 64.200 10.938 65.569 9.569 L 66.937 8.200 79.551 8.084 C 92.984 7.959,92.239 8.062,94.105 6.072 C 94.377 5.781,94.915 5.246,95.300 4.883 C 96.647 3.611,96.277 0.000,94.800 0.000 C 93.627 0.000,93.600 0.044,93.600 2.000 M320.400 10.111 C 320.400 19.222,320.469 20.288,321.100 20.883 C 321.485 21.246,322.023 21.781,322.295 22.072 C 323.997 23.887,324.121 23.925,328.832 24.064 L 333.464 24.200 334.832 25.568 L 336.200 26.937 336.323 35.560 C 336.429 43.017,336.537 44.276,337.123 44.872 C 337.495 45.251,338.023 45.795,338.295 46.081 C 340.142 48.017,339.776 47.948,348.844 48.077 L 357.463 48.200 358.832 49.569 L 360.200 50.938 360.200 204.200 L 360.200 357.462 358.832 358.831 L 357.463 360.200 348.844 360.323 C 339.776 360.452,340.142 360.383,338.295 362.319 C 338.023 362.605,337.501 363.145,337.135 363.519 C 336.612 364.055,336.442 365.184,336.335 368.832 L 336.200 373.464 334.831 374.832 L 333.463 376.200 320.849 376.316 C 307.416 376.441,308.161 376.338,306.295 378.328 C 306.023 378.619,305.485 379.154,305.100 379.517 C 304.470 380.112,304.400 381.168,304.400 390.089 L 304.400 400.000 305.600 400.000 L 306.800 400.000 306.800 390.200 C 306.800 377.393,305.079 378.800,320.750 378.800 C 338.368 378.800,338.800 378.559,338.800 368.750 C 338.800 362.489,338.280 362.800,348.750 362.800 C 359.550 362.800,360.935 362.385,362.212 358.766 C 363.103 356.241,363.103 52.159,362.212 49.634 C 360.935 46.015,359.550 45.600,348.750 45.600 C 337.836 45.600,338.800 46.564,338.800 35.650 C 338.800 22.601,338.084 21.600,328.750 21.600 C 322.405 21.600,322.800 22.370,322.800 10.000 L 322.800 0.000 321.600 0.000 L 320.400 0.000 320.400 10.111 " stroke="none" fill="#bcdc98" fill-rule="evenodd"></path><path id="path7" d="M93.600 2.000 C 93.600 5.692,93.957 5.600,79.650 5.600 C 64.396 5.600,63.542 5.797,62.188 9.634 C 61.681 11.070,61.600 19.088,61.600 67.650 C 61.600 133.583,62.420 125.600,55.650 125.600 C 45.116 125.600,45.600 124.125,45.600 156.200 C 45.600 188.275,45.116 186.800,55.650 186.800 C 59.467 186.800,60.098 186.898,60.800 187.600 C 61.596 188.396,61.600 188.933,61.600 294.200 L 61.600 400.000 62.800 400.000 L 64.000 400.000 64.000 294.089 C 64.000 193.740,63.963 188.143,63.300 187.517 C 62.915 187.154,62.377 186.619,62.105 186.328 C 60.403 184.513,60.279 184.475,55.568 184.336 L 50.936 184.200 49.568 182.831 L 48.200 181.462 48.200 156.200 L 48.200 130.938 49.568 129.569 L 50.936 128.200 55.568 128.065 C 59.216 127.958,60.345 127.788,60.881 127.265 C 61.255 126.899,61.795 126.384,62.081 126.119 C 63.898 124.436,63.787 127.807,64.000 67.579 L 64.200 10.938 65.569 9.569 L 66.937 8.200 79.551 8.084 C 92.984 7.959,92.239 8.062,94.105 6.072 C 94.377 5.781,94.915 5.246,95.300 4.883 C 96.647 3.611,96.277 0.000,94.800 0.000 C 93.627 0.000,93.600 0.044,93.600 2.000 M320.400 10.111 C 320.400 19.222,320.469 20.288,321.100 20.883 C 321.485 21.246,322.023 21.781,322.295 22.072 C 323.997 23.887,324.121 23.925,328.832 24.064 L 333.464 24.200 334.832 25.568 L 336.200 26.937 336.323 35.560 C 336.429 43.017,336.537 44.276,337.123 44.872 C 337.495 45.251,338.023 45.795,338.295 46.081 C 340.142 48.017,339.776 47.948,348.844 48.077 L 357.463 48.200 358.832 49.569 L 360.200 50.938 360.200 204.200 L 360.200 357.462 358.832 358.831 L 357.463 360.200 348.844 360.323 C 339.776 360.452,340.142 360.383,338.295 362.319 C 338.023 362.605,337.501 363.145,337.135 363.519 C 336.612 364.055,336.442 365.184,336.335 368.832 L 336.200 373.464 334.831 374.832 L 333.463 376.200 320.849 376.316 C 307.416 376.441,308.161 376.338,306.295 378.328 C 306.023 378.619,305.485 379.154,305.100 379.517 C 304.470 380.112,304.400 381.168,304.400 390.089 L 304.400 400.000 305.600 400.000 L 306.800 400.000 306.800 390.200 C 306.800 377.393,305.079 378.800,320.750 378.800 C 338.368 378.800,338.800 378.559,338.800 368.750 C 338.800 362.489,338.280 362.800,348.750 362.800 C 359.550 362.800,360.935 362.385,362.212 358.766 C 363.103 356.241,363.103 52.159,362.212 49.634 C 360.935 46.015,359.550 45.600,348.750 45.600 C 337.836 45.600,338.800 46.564,338.800 35.650 C 338.800 22.601,338.084 21.600,328.750 21.600 C 322.405 21.600,322.800 22.370,322.800 10.000 L 322.800 0.000 321.600 0.000 L 320.400 0.000 320.400 10.111 " stroke="none" fill="#bcdc98" fill-rule="evenodd"></path><path id="path8" d="M93.600 2.000 C 93.600 5.692,93.957 5.600,79.650 5.600 C 64.396 5.600,63.542 5.797,62.188 9.634 C 61.681 11.070,61.600 19.088,61.600 67.650 C 61.600 133.583,62.420 125.600,55.650 125.600 C 45.116 125.600,45.600 124.125,45.600 156.200 C 45.600 188.275,45.116 186.800,55.650 186.800 C 59.467 186.800,60.098 186.898,60.800 187.600 C 61.596 188.396,61.600 188.933,61.600 294.200 L 61.600 400.000 62.800 400.000 L 64.000 400.000 64.000 294.089 C 64.000 193.740,63.963 188.143,63.300 187.517 C 62.915 187.154,62.377 186.619,62.105 186.328 C 60.403 184.513,60.279 184.475,55.568 184.336 L 50.936 184.200 49.568 182.831 L 48.200 181.462 48.200 156.200 L 48.200 130.938 49.568 129.569 L 50.936 128.200 55.568 128.065 C 59.216 127.958,60.345 127.788,60.881 127.265 C 61.255 126.899,61.795 126.384,62.081 126.119 C 63.898 124.436,63.787 127.807,64.000 67.579 L 64.200 10.938 65.569 9.569 L 66.937 8.200 79.551 8.084 C 92.984 7.959,92.239 8.062,94.105 6.072 C 94.377 5.781,94.915 5.246,95.300 4.883 C 96.647 3.611,96.277 0.000,94.800 0.000 C 93.627 0.000,93.600 0.044,93.600 2.000 M320.400 10.111 C 320.400 19.222,320.469 20.288,321.100 20.883 C 321.485 21.246,322.023 21.781,322.295 22.072 C 323.997 23.887,324.121 23.925,328.832 24.064 L 333.464 24.200 334.832 25.568 L 336.200 26.937 336.323 35.560 C 336.429 43.017,336.537 44.276,337.123 44.872 C 337.495 45.251,338.023 45.795,338.295 46.081 C 340.142 48.017,339.776 47.948,348.844 48.077 L 357.463 48.200 358.832 49.569 L 360.200 50.938 360.200 204.200 L 360.200 357.462 358.832 358.831 L 357.463 360.200 348.844 360.323 C 339.776 360.452,340.142 360.383,338.295 362.319 C 338.023 362.605,337.501 363.145,337.135 363.519 C 336.612 364.055,336.442 365.184,336.335 368.832 L 336.200 373.464 334.831 374.832 L 333.463 376.200 320.849 376.316 C 307.416 376.441,308.161 376.338,306.295 378.328 C 306.023 378.619,305.485 379.154,305.100 379.517 C 304.470 380.112,304.400 381.168,304.400 390.089 L 304.400 400.000 305.600 400.000 L 306.800 400.000 306.800 390.200 C 306.800 377.393,305.079 378.800,320.750 378.800 C 338.368 378.800,338.800 378.559,338.800 368.750 C 338.800 362.489,338.280 362.800,348.750 362.800 C 359.550 362.800,360.935 362.385,362.212 358.766 C 363.103 356.241,363.103 52.159,362.212 49.634 C 360.935 46.015,359.550 45.600,348.750 45.600 C 337.836 45.600,338.800 46.564,338.800 35.650 C 338.800 22.601,338.084 21.600,328.750 21.600 C 322.405 21.600,322.800 22.370,322.800 10.000 L 322.800 0.000 321.600 0.000 L 320.400 0.000 320.400 10.111 " stroke="none" fill="#bcdc98" fill-rule="evenodd"></path></g></svg>